%TF.GenerationSoftware,KiCad,Pcbnew,(5.1.10)-1*%
%TF.CreationDate,2021-08-08T16:35:33+01:00*%
%TF.ProjectId,flowcontrol-v0.1,666c6f77-636f-46e7-9472-6f6c2d76302e,rev?*%
%TF.SameCoordinates,Original*%
%TF.FileFunction,Profile,NP*%
%FSLAX46Y46*%
G04 Gerber Fmt 4.6, Leading zero omitted, Abs format (unit mm)*
G04 Created by KiCad (PCBNEW (5.1.10)-1) date 2021-08-08 16:35:33*
%MOMM*%
%LPD*%
G01*
G04 APERTURE LIST*
%TA.AperFunction,Profile*%
%ADD10C,0.200000*%
%TD*%
G04 APERTURE END LIST*
D10*
X100225100Y-119538700D02*
X100435700Y-119304900D01*
X102914800Y-120110400D02*
X102947700Y-120423300D01*
X100690200Y-121726700D02*
X100435700Y-121541700D01*
X101907800Y-118991900D02*
X102195200Y-119119900D01*
X101285400Y-118926500D02*
X101600000Y-118926500D01*
X100977600Y-121854600D02*
X100690200Y-121726700D01*
X100435700Y-119304900D02*
X100690200Y-119119900D01*
X102660300Y-121307900D02*
X102449700Y-121541700D01*
X100067800Y-119811100D02*
X100225100Y-119538700D01*
X99104400Y-122909600D02*
X99442700Y-123155300D01*
X185651700Y-123412300D02*
X186060700Y-123325400D01*
X99442700Y-123155300D02*
X99824700Y-123325400D01*
X99824700Y-123325400D02*
X100233700Y-123412300D01*
X102660300Y-119538700D02*
X102817600Y-119811100D01*
X101600000Y-118926500D02*
X101907800Y-118991900D01*
X100690200Y-119119900D02*
X100977600Y-118991900D01*
X100225100Y-121307900D02*
X100067800Y-121035400D01*
X101285400Y-121920000D02*
X100977600Y-121854600D01*
X102195200Y-119119900D02*
X102449700Y-119304900D01*
X100977600Y-118991900D02*
X101285400Y-118926500D01*
X102449700Y-119304900D02*
X102660300Y-119538700D01*
X102817600Y-119811100D02*
X102914800Y-120110400D01*
X102817600Y-121035400D02*
X102660300Y-121307900D01*
X187060700Y-65247700D02*
X186781000Y-64937000D01*
X100233700Y-64434300D02*
X99824700Y-64521200D01*
X187060700Y-122598900D02*
X187269800Y-122236800D01*
X186781000Y-122909600D02*
X187060700Y-122598900D01*
X185651700Y-64434300D02*
X100233700Y-64434300D01*
X186060700Y-123325400D02*
X186442700Y-123155300D01*
X186442700Y-123155300D02*
X186781000Y-122909600D01*
X186442700Y-64691300D02*
X186060700Y-64521200D01*
X100233700Y-123412300D02*
X185651700Y-123412300D01*
X99824700Y-64521200D02*
X99442700Y-64691300D01*
X186060700Y-64521200D02*
X185651700Y-64434300D01*
X187269800Y-65609800D02*
X187060700Y-65247700D01*
X99104400Y-64937000D02*
X98824700Y-65247700D01*
X187399000Y-121839100D02*
X187442700Y-121423300D01*
X99442700Y-64691300D02*
X99104400Y-64937000D01*
X187442700Y-121423300D02*
X187442700Y-66423300D01*
X187442700Y-66423300D02*
X187399000Y-66007500D01*
X187399000Y-66007500D02*
X187269800Y-65609800D01*
X98824700Y-65247700D02*
X98615600Y-65609800D01*
X187269800Y-122236800D02*
X187399000Y-121839100D01*
X186781000Y-64937000D02*
X186442700Y-64691300D01*
X102947700Y-67423300D02*
X102914800Y-67736200D01*
X183690200Y-119119900D02*
X183977600Y-118991900D01*
X182937700Y-120423300D02*
X182970600Y-120110400D01*
X183435700Y-119304900D02*
X183690200Y-119119900D01*
X185195200Y-121726700D02*
X184907800Y-121854600D01*
X183435700Y-121541700D02*
X183225100Y-121307900D01*
X101907800Y-68854700D02*
X101600000Y-68920100D01*
X185914800Y-120736200D02*
X185817600Y-121035400D01*
X183067800Y-121035400D02*
X182970600Y-120736200D01*
X183977600Y-121854600D02*
X183690200Y-121726700D01*
X102914800Y-67736200D02*
X102817600Y-68035500D01*
X102449700Y-68541700D02*
X102195200Y-68726700D01*
X102914800Y-120736200D02*
X102817600Y-121035400D01*
X185817600Y-121035400D02*
X185660300Y-121307900D01*
X102947700Y-120423300D02*
X102914800Y-120736200D01*
X185660300Y-121307900D02*
X185449700Y-121541700D01*
X183225100Y-121307900D02*
X183067800Y-121035400D01*
X99937700Y-120423300D02*
X99970600Y-120110400D01*
X99970600Y-120736200D02*
X99937700Y-120423300D01*
X184907800Y-121854600D02*
X184600000Y-121920000D01*
X183690200Y-121726700D02*
X183435700Y-121541700D01*
X185195200Y-119119900D02*
X185449700Y-119304900D01*
X185817600Y-119811100D02*
X185914800Y-120110400D01*
X183225100Y-119538700D02*
X183435700Y-119304900D01*
X99970600Y-120110400D02*
X100067800Y-119811100D01*
X100067800Y-66811200D02*
X100225100Y-66538700D01*
X102195200Y-68726700D02*
X101907800Y-68854700D01*
X100067800Y-121035400D02*
X99970600Y-120736200D01*
X101600000Y-68920100D02*
X101285400Y-68920100D01*
X185660300Y-68307900D02*
X185449700Y-68541700D01*
X184600000Y-118926500D02*
X184907800Y-118991900D01*
X184600000Y-121920000D02*
X184285400Y-121920000D01*
X183977600Y-118991900D02*
X184285400Y-118926500D01*
X182970600Y-120736200D02*
X182937700Y-120423300D01*
X185660300Y-119538700D02*
X185817600Y-119811100D01*
X183067800Y-119811100D02*
X183225100Y-119538700D01*
X185449700Y-121541700D02*
X185195200Y-121726700D01*
X185947700Y-120423300D02*
X185914800Y-120736200D01*
X185914800Y-120110400D02*
X185947700Y-120423300D01*
X99937700Y-67423300D02*
X99970600Y-67110400D01*
X184285400Y-121920000D02*
X183977600Y-121854600D01*
X182970600Y-120110400D02*
X183067800Y-119811100D01*
X185449700Y-119304900D02*
X185660300Y-119538700D01*
X184285400Y-118926500D02*
X184600000Y-118926500D01*
X184907800Y-118991900D02*
X185195200Y-119119900D01*
X102817600Y-68035500D02*
X102660300Y-68307900D01*
X102660300Y-68307900D02*
X102449700Y-68541700D01*
X100225100Y-66538700D02*
X100435700Y-66304900D01*
X182970600Y-67736200D02*
X182937700Y-67423300D01*
X185449700Y-66304900D02*
X185660300Y-66538700D01*
X183435700Y-66304900D02*
X183690200Y-66119900D01*
X185914800Y-67110400D02*
X185947700Y-67423300D01*
X100977600Y-68854700D02*
X100690200Y-68726700D01*
X185449700Y-68541700D02*
X185195200Y-68726700D01*
X183690200Y-68726700D02*
X183435700Y-68541700D01*
X183977600Y-68854700D02*
X183690200Y-68726700D01*
X185195200Y-68726700D02*
X184907800Y-68854700D01*
X183435700Y-68541700D02*
X183225100Y-68307900D01*
X98615600Y-122236800D02*
X98824700Y-122598900D01*
X101907800Y-65992000D02*
X102195200Y-66119900D01*
X102914800Y-67110400D02*
X102947700Y-67423300D01*
X184600000Y-65926600D02*
X184907800Y-65992000D01*
X101285400Y-68920100D02*
X100977600Y-68854700D01*
X98486400Y-121839100D02*
X98615600Y-122236800D01*
X98615600Y-65609800D02*
X98486400Y-66007500D01*
X184285400Y-68920100D02*
X183977600Y-68854700D01*
X183690200Y-66119900D02*
X183977600Y-65992000D01*
X99970600Y-67736200D02*
X99937700Y-67423300D01*
X185817600Y-68035500D02*
X185660300Y-68307900D01*
X183067800Y-66811200D02*
X183225100Y-66538700D01*
X184907800Y-65992000D02*
X185195200Y-66119900D01*
X184600000Y-68920100D02*
X184285400Y-68920100D01*
X183977600Y-65992000D02*
X184285400Y-65926600D01*
X100690200Y-66119900D02*
X100977600Y-65992000D01*
X183067800Y-68035500D02*
X182970600Y-67736200D01*
X183225100Y-66538700D02*
X183435700Y-66304900D01*
X185817600Y-66811200D02*
X185914800Y-67110400D01*
X185195200Y-66119900D02*
X185449700Y-66304900D01*
X100690200Y-68726700D02*
X100435700Y-68541700D01*
X99970600Y-67110400D02*
X100067800Y-66811200D01*
X100067800Y-68035500D02*
X99970600Y-67736200D01*
X185914800Y-67736200D02*
X185817600Y-68035500D01*
X100977600Y-65992000D02*
X101285400Y-65926600D01*
X185947700Y-67423300D02*
X185914800Y-67736200D01*
X100225100Y-68307900D02*
X100067800Y-68035500D01*
X185660300Y-66538700D02*
X185817600Y-66811200D01*
X182937700Y-67423300D02*
X182970600Y-67110400D01*
X102660300Y-66538700D02*
X102817600Y-66811200D01*
X101600000Y-65926600D02*
X101907800Y-65992000D01*
X98824700Y-122598900D02*
X99104400Y-122909600D01*
X102817600Y-66811200D02*
X102914800Y-67110400D01*
X184907800Y-68854700D02*
X184600000Y-68920100D01*
X102449700Y-66304900D02*
X102660300Y-66538700D01*
X100435700Y-68541700D02*
X100225100Y-68307900D01*
X183225100Y-68307900D02*
X183067800Y-68035500D01*
X102195200Y-66119900D02*
X102449700Y-66304900D01*
X101285400Y-65926600D02*
X101600000Y-65926600D01*
X184285400Y-65926600D02*
X184600000Y-65926600D01*
X182970600Y-67110400D02*
X183067800Y-66811200D01*
X100435700Y-66304900D02*
X100690200Y-66119900D01*
X98442700Y-121423300D02*
X98486400Y-121839100D01*
X98486400Y-66007500D02*
X98442700Y-66423300D01*
X102449700Y-121541700D02*
X102195200Y-121726700D01*
X98442700Y-66423300D02*
X98442700Y-121423300D01*
X102195200Y-121726700D02*
X101907800Y-121854600D01*
X101907800Y-121854600D02*
X101600000Y-121920000D01*
X100435700Y-121541700D02*
X100225100Y-121307900D01*
X101600000Y-121920000D02*
X101285400Y-121920000D01*
M02*
