M48
; DRILL file {KiCad (5.1.10)-1} date 08/08/21 16:35:35
; FORMAT={-:-/ absolute / metric / decimal}
; #@! TF.CreationDate,2021-08-08T16:35:35+01:00
; #@! TF.GenerationSoftware,Kicad,Pcbnew,(5.1.10)-1
; #@! TF.FileFunction,Plated,1,2,PTH
FMAT,2
METRIC
T1C0.400
T2C1.000
T3C1.020
T4C1.780
T5C2.000
%
G90
G05
T1
X100.33Y-78.74
X100.33Y-81.28
X104.14Y-85.09
X105.41Y-105.41
X106.68Y-101.6
X107.95Y-116.84
X109.22Y-74.062
X109.22Y-96.52
X109.22Y-99.06
X110.49Y-78.74
X110.49Y-95.25
X110.49Y-97.79
X110.49Y-116.84
X111.76Y-74.062
X113.03Y-91.44
X113.03Y-106.68
X113.03Y-116.84
X115.57Y-116.84
X116.84Y-90.17
X116.84Y-106.68
X121.92Y-68.58
X121.92Y-86.36
X121.92Y-88.9
X140.97Y-90.17
X151.13Y-68.58
X151.13Y-86.36
X151.13Y-88.9
X153.67Y-113.03
X154.94Y-101.6
X157.48Y-110.49
X158.75Y-100.33
X161.29Y-92.71
X161.29Y-100.33
X162.56Y-110.49
X165.1Y-113.03
X166.37Y-81.28
X170.18Y-110.49
X172.72Y-82.55
X173.99Y-95.25
X173.99Y-99.06
X173.99Y-114.3
T2
X106.68Y-69.85
X106.68Y-72.39
X109.22Y-69.85
X109.22Y-72.39
X111.76Y-69.85
X111.76Y-72.39
X114.3Y-69.85
X114.3Y-72.39
X116.84Y-69.85
X116.84Y-72.39
X154.98Y-116.84
X157.48Y-116.84
X158.75Y-88.9
X161.29Y-88.9
X163.83Y-88.9
X166.37Y-88.9
X166.37Y-116.84
X168.87Y-116.84
X176.53Y-83.82
X176.53Y-86.36
X176.53Y-88.9
X176.53Y-91.44
X176.53Y-102.87
X176.53Y-105.41
X176.53Y-107.95
X176.53Y-110.49
T3
X127.0Y-67.31
X127.0Y-69.85
X127.0Y-72.39
X127.0Y-74.93
X127.0Y-77.47
X127.0Y-80.01
X127.0Y-82.55
X127.0Y-85.09
X127.0Y-87.63
X127.0Y-90.17
X127.0Y-92.71
X127.0Y-95.25
X127.0Y-97.79
X127.0Y-100.33
X127.0Y-102.87
X127.0Y-105.41
X127.0Y-107.95
X127.0Y-110.49
X127.0Y-113.03
X127.0Y-115.57
X133.35Y-115.34
X135.89Y-115.34
X138.43Y-115.34
X144.78Y-67.31
X144.78Y-69.85
X144.78Y-72.39
X144.78Y-74.93
X144.78Y-77.47
X144.78Y-80.01
X144.78Y-82.55
X144.78Y-85.09
X144.78Y-87.63
X144.78Y-90.17
X144.78Y-92.71
X144.78Y-95.25
X144.78Y-97.79
X144.78Y-100.33
X144.78Y-102.87
X144.78Y-105.41
X144.78Y-107.95
X144.78Y-110.49
X144.78Y-113.03
X144.78Y-115.57
T4
X159.135Y-73.125
X164.215Y-73.125
X169.295Y-73.125
X174.375Y-73.125
T5
X101.448Y-67.424
X101.448Y-120.371
X184.455Y-67.412
X184.455Y-120.421
T0
M30
