<svg id="Layer_1" data-name="Layer 1" xmlns="http://www.w3.org/2000/svg" viewBox="0 0 1206.35 1267.39">
  <title>flowcontrol-logo</title>
  <g id="Icons">
    <path class="cls-1" d="M638.23,859.44C526,859.44,435,768.46,435,656.22S526,453,638.23,453s203.22,91,203.22,203.22h0C841.45,768.46,750.46,859.44,638.23,859.44Zm0-355.35A152,152,0,1,0,790.29,656.37h0A152.22,152.22,0,0,0,638.23,504.23Z" transform="translate(-120 -38.39)"/>
    <path class="cls-1" d="M493.42,579.12a25.53,25.53,0,0,1-23-14.29c-89.18-181.16-316.83-156.25-319.12-156.1a25.57,25.57,0,0,1-28.39-22.21,335,335,0,0,1,17.43-158.8,288,288,0,0,1,165-166.57,317.81,317.81,0,0,1,255.42,8.44c221.06,106,185.48,418.76,183.85,432.05a25.61,25.61,0,0,1-50.82-6.44h0c.37-2.89,32.65-289.58-155.17-379.64a266.57,266.57,0,0,0-214.18-7,236.91,236.91,0,0,0-136.14,137,276.64,276.64,0,0,0-16.44,111.05c70.78-1.07,259.49,12.66,344.7,185.71a25.66,25.66,0,0,1-11.7,34.28h0A24.92,24.92,0,0,1,493.49,579Z" transform="translate(-120 -38.39)"/>
    <path class="cls-1" d="M469,1305.78a290.16,290.16,0,0,1-179.86-63.41A318,318,0,0,1,168.75,1017C150,772.68,438.67,646.82,451,641.75A25.62,25.62,0,0,1,471,688.87c-2.71,1.15-267.11,116.53-251.2,324.22A266.56,266.56,0,0,0,320.7,1201.88a236.88,236.88,0,0,0,187,49.3A276.15,276.15,0,0,0,612.06,1210c-35.87-59.89-118.82-231-11.52-391.33a25.62,25.62,0,0,1,42.57,28.5c-111.9,167.13,18.81,346.88,24.43,354.43a25.58,25.58,0,0,1-5.11,35.81l0,0h0a334.4,334.4,0,0,1-146.33,64.37A289,289,0,0,1,469,1305.78Z" transform="translate(-120 -38.39)"/>
    <path class="cls-1" d="M1000.28,923.48c-86.36,0-181.38-31.28-283.43-93.65a25.63,25.63,0,0,1,25.58-44.42l1.11.63c130.11,79.4,245.08,104.09,341.55,73.25a313.58,313.58,0,0,0,176-159.76c58.89-154.76-76.85-261.22-135.89-298.83C1047.92,586.22,812,606.51,801.47,607.32a25.61,25.61,0,0,1-4.07-50.89c2.37-.19,236.6-20.81,289.39-200.41a25.61,25.61,0,0,1,31.79-17.36h0a26.84,26.84,0,0,1,4.4,1.74c95.47,48.68,257.19,190.15,185.6,378.45A360.26,360.26,0,0,1,1101.3,908a329.72,329.72,0,0,1-101.2,15.58Z" transform="translate(-120 -38.39)"/>
  </g>
</svg>