<svg xmlns="http://www.w3.org/2000/svg" viewBox="0 0 486.95 90.52"><defs><style>.cls-1,.cls-2{fill:#925c4e;}.cls-2{font-size:72px;font-family:YoungSerif-Regular, YoungSerif;}.cls-3{letter-spacing:-0.02em;}.cls-4{letter-spacing:-0.04em;}.cls-5{letter-spacing:-0.03em;}.cls-6{letter-spacing:-0.02em;}.cls-7{letter-spacing:-0.01em;}.cls-8{letter-spacing:-0.06em;}.cls-9{letter-spacing:0.01em;}.cls-10{letter-spacing:-0.02em;}.cls-11{letter-spacing:-0.02em;}</style></defs><title>Asset 3</title><g id="Layer_2" data-name="Layer 2"><g id="Icons"><path class="cls-1" d="M26.24,41.58A10.29,10.29,0,1,1,36.53,31.29,10.29,10.29,0,0,1,26.24,41.58Zm0-18a7.7,7.7,0,1,0,7.69,7.7h0a7.7,7.7,0,0,0-7.69-7.7Z"/><path class="cls-1" d="M18.91,27.38a1.27,1.27,0,0,1-1.17-.72c-4.52-9.17-16-7.91-16.16-7.9A1.29,1.29,0,0,1,.15,17.62a16.88,16.88,0,0,1,.88-8A14.59,14.59,0,0,1,9.38,1.15a16.06,16.06,0,0,1,12.92.43C33.5,7,31.69,22.78,31.61,23.45A1.29,1.29,0,0,1,29,23.14h0c0-.15,1.65-14.66-7.86-19.22a13.48,13.48,0,0,0-10.83-.36,12,12,0,0,0-6.9,6.94,14.15,14.15,0,0,0-.83,5.62c3.58-.05,13.14.64,17.45,9.4a1.3,1.3,0,0,1-.59,1.74h0a1.27,1.27,0,0,1-.57.12Z"/><path class="cls-1" d="M17.67,64.17A14.66,14.66,0,0,1,8.56,61,16,16,0,0,1,2.47,49.55c-1-12.37,13.66-18.73,14.29-19a1.3,1.3,0,0,1,1.68.72,1.28,1.28,0,0,1-.67,1.67c-.14.06-13.52,5.9-12.72,16.42a13.5,13.5,0,0,0,5.11,9.56,12,12,0,0,0,9.47,2.49,13.88,13.88,0,0,0,5.28-2.08c-1.81-3-6-11.69-.58-19.81A1.29,1.29,0,1,1,26.48,41c-5.66,8.46,1,17.56,1.24,17.94a1.3,1.3,0,0,1-.26,1.82h0A16.92,16.92,0,0,1,20,64,14.49,14.49,0,0,1,17.67,64.17Z"/><path class="cls-1" d="M44.57,44.82c-4.38,0-9.18-1.59-14.35-4.74a1.3,1.3,0,0,1,1.29-2.25l.06,0c6.58,4,12.4,5.27,17.29,3.71a15.82,15.82,0,0,0,8.91-8.09c3-7.83-3.89-13.22-6.88-15.12C47,27.75,35,28.78,34.5,28.82a1.3,1.3,0,0,1-.2-2.59c.12,0,12-1.05,14.65-10.15a1.3,1.3,0,0,1,1.61-.88l.22.09c4.84,2.47,13,9.63,9.4,19.16A18.22,18.22,0,0,1,49.69,44a16.84,16.84,0,0,1-5.12.79Z"/><text class="cls-2" transform="translate(78.72 64.17)"><tspan class="cls-3">fl</tspan><tspan class="cls-4" x="51.62" y="0">o</tspan><tspan class="cls-5" x="90.07" y="0">w</tspan><tspan class="cls-6" x="155.09" y="0">c</tspan><tspan class="cls-7" x="190.87" y="0">o</tspan><tspan class="cls-8" x="231.48" y="0">n</tspan><tspan class="cls-9" x="276.33" y="0">t</tspan><tspan class="cls-10" x="306.64" y="0">r</tspan><tspan class="cls-11" x="343.72" y="0">o</tspan><tspan x="383.25" y="0">l</tspan></text></g></g></svg>