  0
SECTION
  2
BLOCKS
  0
ENDSEC
  0
SECTION
  2
ENTITIES
  0
LINE
  8
0
 10
43.118
 20
-29.4021
 11
43.5
 21
-29.232
  0
LINE
  8
0
 10
43.5
 20
-29.232
 11
43.8383
 21
-28.9863
  0
LINE
  8
0
 10
43.8383
 20
-28.9863
 11
44.118
 21
-28.6756
  0
LINE
  8
0
 10
44.118
 20
-28.6756
 11
44.3271
 21
-28.3135
  0
LINE
  8
0
 10
44.3271
 20
-28.3135
 11
44.4563
 21
-27.9158
  0
LINE
  8
0
 10
44.4563
 20
-27.9158
 11
44.5
 21
-27.5
  0
LINE
  8
0
 10
44.5
 20
-27.5
 11
44.5
 21
27.5
  0
LINE
  8
0
 10
44.5
 20
27.5
 11
44.4563
 21
27.9158
  0
LINE
  8
0
 10
44.4563
 20
27.9158
 11
44.3271
 21
28.3135
  0
LINE
  8
0
 10
44.3271
 20
28.3135
 11
44.118
 21
28.6756
  0
LINE
  8
0
 10
44.118
 20
28.6756
 11
43.8383
 21
28.9863
  0
LINE
  8
0
 10
43.8383
 20
28.9863
 11
43.5
 21
29.232
  0
LINE
  8
0
 10
43.5
 20
29.232
 11
43.118
 21
29.4021
  0
LINE
  8
0
 10
43.118
 20
29.4021
 11
42.709
 21
29.489
  0
LINE
  8
0
 10
42.709
 20
29.489
 11
-42.709
 21
29.489
  0
LINE
  8
0
 10
-42.709
 20
29.489
 11
-43.118
 21
29.4021
  0
LINE
  8
0
 10
-43.118
 20
29.4021
 11
-43.5
 21
29.232
  0
LINE
  8
0
 10
-43.5
 20
29.232
 11
-43.8383
 21
28.9863
  0
LINE
  8
0
 10
-43.8383
 20
28.9863
 11
-44.118
 21
28.6756
  0
LINE
  8
0
 10
-44.118
 20
28.6756
 11
-44.3271
 21
28.3135
  0
LINE
  8
0
 10
-44.3271
 20
28.3135
 11
-44.4563
 21
27.9158
  0
LINE
  8
0
 10
-44.4563
 20
27.9158
 11
-44.5
 21
27.5
  0
LINE
  8
0
 10
-44.5
 20
27.5
 11
-44.5
 21
-27.5
  0
LINE
  8
0
 10
-44.5
 20
-27.5
 11
-44.4563
 21
-27.9158
  0
LINE
  8
0
 10
-44.4563
 20
-27.9158
 11
-44.3271
 21
-28.3135
  0
LINE
  8
0
 10
-44.3271
 20
-28.3135
 11
-44.118
 21
-28.6756
  0
LINE
  8
0
 10
-44.118
 20
-28.6756
 11
-43.8383
 21
-28.9863
  0
LINE
  8
0
 10
-43.8383
 20
-28.9863
 11
-43.5
 21
-29.232
  0
LINE
  8
0
 10
-43.5
 20
-29.232
 11
-43.118
 21
-29.4021
  0
LINE
  8
0
 10
-43.118
 20
-29.4021
 11
-42.709
 21
-29.489
  0
LINE
  8
0
 10
-42.709
 20
-29.489
 11
42.709
 21
-29.489
  0
LINE
  8
0
 10
42.709
 20
-29.489
 11
43.118
 21
-29.4021
  0
LINE
  8
0
 10
41.3427
 20
25.0032
 11
41.0349
 21
25.0686
  0
LINE
  8
0
 10
41.0349
 20
25.0686
 11
40.7475
 21
25.1966
  0
LINE
  8
0
 10
40.7475
 20
25.1966
 11
40.493
 21
25.3816
  0
LINE
  8
0
 10
40.493
 20
25.3816
 11
40.2824
 21
25.6154
  0
LINE
  8
0
 10
40.2824
 20
25.6154
 11
40.1251
 21
25.8878
  0
LINE
  8
0
 10
40.1251
 20
25.8878
 11
40.0279
 21
26.1871
  0
LINE
  8
0
 10
40.0279
 20
26.1871
 11
39.995
 21
26.5
  0
LINE
  8
0
 10
39.995
 20
26.5
 11
40.0279
 21
26.8129
  0
LINE
  8
0
 10
40.0279
 20
26.8129
 11
40.1251
 21
27.1121
  0
LINE
  8
0
 10
40.1251
 20
27.1121
 11
40.2824
 21
27.3846
  0
LINE
  8
0
 10
40.2824
 20
27.3846
 11
40.493
 21
27.6184
  0
LINE
  8
0
 10
40.493
 20
27.6184
 11
40.7475
 21
27.8034
  0
LINE
  8
0
 10
40.7475
 20
27.8034
 11
41.0349
 21
27.9313
  0
LINE
  8
0
 10
41.0349
 20
27.9313
 11
41.3427
 21
27.9967
  0
LINE
  8
0
 10
41.3427
 20
27.9967
 11
41.6573
 21
27.9967
  0
LINE
  8
0
 10
41.6573
 20
27.9967
 11
41.9651
 21
27.9313
  0
LINE
  8
0
 10
41.9651
 20
27.9313
 11
42.2525
 21
27.8034
  0
LINE
  8
0
 10
42.2525
 20
27.8034
 11
42.507
 21
27.6184
  0
LINE
  8
0
 10
42.507
 20
27.6184
 11
42.7176
 21
27.3846
  0
LINE
  8
0
 10
42.7176
 20
27.3846
 11
42.8749
 21
27.1121
  0
LINE
  8
0
 10
42.8749
 20
27.1121
 11
42.9721
 21
26.8129
  0
LINE
  8
0
 10
42.9721
 20
26.8129
 11
43.005
 21
26.5
  0
LINE
  8
0
 10
43.005
 20
26.5
 11
42.9721
 21
26.1871
  0
LINE
  8
0
 10
42.9721
 20
26.1871
 11
42.8749
 21
25.8878
  0
LINE
  8
0
 10
42.8749
 20
25.8878
 11
42.7176
 21
25.6154
  0
LINE
  8
0
 10
42.7176
 20
25.6154
 11
42.507
 21
25.3816
  0
LINE
  8
0
 10
42.507
 20
25.3816
 11
42.2525
 21
25.1966
  0
LINE
  8
0
 10
42.2525
 20
25.1966
 11
41.9651
 21
25.0686
  0
LINE
  8
0
 10
41.9651
 20
25.0686
 11
41.6573
 21
25.0032
  0
LINE
  8
0
 10
41.6573
 20
25.0032
 11
41.3427
 21
25.0032
  0
LINE
  8
0
 10
-41.6573
 20
25.0032
 11
-41.9651
 21
25.0686
  0
LINE
  8
0
 10
-41.9651
 20
25.0686
 11
-42.2525
 21
25.1966
  0
LINE
  8
0
 10
-42.2525
 20
25.1966
 11
-42.507
 21
25.3816
  0
LINE
  8
0
 10
-42.507
 20
25.3816
 11
-42.7176
 21
25.6154
  0
LINE
  8
0
 10
-42.7176
 20
25.6154
 11
-42.8749
 21
25.8878
  0
LINE
  8
0
 10
-42.8749
 20
25.8878
 11
-42.9721
 21
26.1871
  0
LINE
  8
0
 10
-42.9721
 20
26.1871
 11
-43.005
 21
26.5
  0
LINE
  8
0
 10
-43.005
 20
26.5
 11
-42.9721
 21
26.8129
  0
LINE
  8
0
 10
-42.9721
 20
26.8129
 11
-42.8749
 21
27.1121
  0
LINE
  8
0
 10
-42.8749
 20
27.1121
 11
-42.7176
 21
27.3846
  0
LINE
  8
0
 10
-42.7176
 20
27.3846
 11
-42.507
 21
27.6184
  0
LINE
  8
0
 10
-42.507
 20
27.6184
 11
-42.2525
 21
27.8034
  0
LINE
  8
0
 10
-42.2525
 20
27.8034
 11
-41.9651
 21
27.9313
  0
LINE
  8
0
 10
-41.9651
 20
27.9313
 11
-41.6573
 21
27.9967
  0
LINE
  8
0
 10
-41.6573
 20
27.9967
 11
-41.3427
 21
27.9967
  0
LINE
  8
0
 10
-41.3427
 20
27.9967
 11
-41.0349
 21
27.9313
  0
LINE
  8
0
 10
-41.0349
 20
27.9313
 11
-40.7475
 21
27.8034
  0
LINE
  8
0
 10
-40.7475
 20
27.8034
 11
-40.493
 21
27.6184
  0
LINE
  8
0
 10
-40.493
 20
27.6184
 11
-40.2824
 21
27.3846
  0
LINE
  8
0
 10
-40.2824
 20
27.3846
 11
-40.1251
 21
27.1121
  0
LINE
  8
0
 10
-40.1251
 20
27.1121
 11
-40.0279
 21
26.8129
  0
LINE
  8
0
 10
-40.0279
 20
26.8129
 11
-39.995
 21
26.5
  0
LINE
  8
0
 10
-39.995
 20
26.5
 11
-40.0279
 21
26.1871
  0
LINE
  8
0
 10
-40.0279
 20
26.1871
 11
-40.1251
 21
25.8878
  0
LINE
  8
0
 10
-40.1251
 20
25.8878
 11
-40.2824
 21
25.6154
  0
LINE
  8
0
 10
-40.2824
 20
25.6154
 11
-40.493
 21
25.3816
  0
LINE
  8
0
 10
-40.493
 20
25.3816
 11
-40.7475
 21
25.1966
  0
LINE
  8
0
 10
-40.7475
 20
25.1966
 11
-41.0349
 21
25.0686
  0
LINE
  8
0
 10
-41.0349
 20
25.0686
 11
-41.3427
 21
25.0032
  0
LINE
  8
0
 10
-41.3427
 20
25.0032
 11
-41.6573
 21
25.0032
  0
LINE
  8
0
 10
41.3427
 20
-27.9967
 11
41.0349
 21
-27.9313
  0
LINE
  8
0
 10
41.0349
 20
-27.9313
 11
40.7475
 21
-27.8034
  0
LINE
  8
0
 10
40.7475
 20
-27.8034
 11
40.493
 21
-27.6184
  0
LINE
  8
0
 10
40.493
 20
-27.6184
 11
40.2824
 21
-27.3846
  0
LINE
  8
0
 10
40.2824
 20
-27.3846
 11
40.1251
 21
-27.1121
  0
LINE
  8
0
 10
40.1251
 20
-27.1121
 11
40.0279
 21
-26.8129
  0
LINE
  8
0
 10
40.0279
 20
-26.8129
 11
39.995
 21
-26.5
  0
LINE
  8
0
 10
39.995
 20
-26.5
 11
40.0279
 21
-26.1871
  0
LINE
  8
0
 10
40.0279
 20
-26.1871
 11
40.1251
 21
-25.8878
  0
LINE
  8
0
 10
40.1251
 20
-25.8878
 11
40.2824
 21
-25.6154
  0
LINE
  8
0
 10
40.2824
 20
-25.6154
 11
40.493
 21
-25.3816
  0
LINE
  8
0
 10
40.493
 20
-25.3816
 11
40.7475
 21
-25.1966
  0
LINE
  8
0
 10
40.7475
 20
-25.1966
 11
41.0349
 21
-25.0686
  0
LINE
  8
0
 10
41.0349
 20
-25.0686
 11
41.3427
 21
-25.0032
  0
LINE
  8
0
 10
41.3427
 20
-25.0032
 11
41.6573
 21
-25.0032
  0
LINE
  8
0
 10
41.6573
 20
-25.0032
 11
41.9651
 21
-25.0686
  0
LINE
  8
0
 10
41.9651
 20
-25.0686
 11
42.2525
 21
-25.1966
  0
LINE
  8
0
 10
42.2525
 20
-25.1966
 11
42.507
 21
-25.3816
  0
LINE
  8
0
 10
42.507
 20
-25.3816
 11
42.7176
 21
-25.6154
  0
LINE
  8
0
 10
42.7176
 20
-25.6154
 11
42.8749
 21
-25.8878
  0
LINE
  8
0
 10
42.8749
 20
-25.8878
 11
42.9721
 21
-26.1871
  0
LINE
  8
0
 10
42.9721
 20
-26.1871
 11
43.005
 21
-26.5
  0
LINE
  8
0
 10
43.005
 20
-26.5
 11
42.9721
 21
-26.8129
  0
LINE
  8
0
 10
42.9721
 20
-26.8129
 11
42.8749
 21
-27.1121
  0
LINE
  8
0
 10
42.8749
 20
-27.1121
 11
42.7176
 21
-27.3846
  0
LINE
  8
0
 10
42.7176
 20
-27.3846
 11
42.507
 21
-27.6184
  0
LINE
  8
0
 10
42.507
 20
-27.6184
 11
42.2525
 21
-27.8034
  0
LINE
  8
0
 10
42.2525
 20
-27.8034
 11
41.9651
 21
-27.9313
  0
LINE
  8
0
 10
41.9651
 20
-27.9313
 11
41.6573
 21
-27.9967
  0
LINE
  8
0
 10
41.6573
 20
-27.9967
 11
41.3427
 21
-27.9967
  0
LINE
  8
0
 10
-41.6573
 20
-27.9967
 11
-41.9651
 21
-27.9313
  0
LINE
  8
0
 10
-41.9651
 20
-27.9313
 11
-42.2525
 21
-27.8034
  0
LINE
  8
0
 10
-42.2525
 20
-27.8034
 11
-42.507
 21
-27.6184
  0
LINE
  8
0
 10
-42.507
 20
-27.6184
 11
-42.7176
 21
-27.3846
  0
LINE
  8
0
 10
-42.7176
 20
-27.3846
 11
-42.8749
 21
-27.1121
  0
LINE
  8
0
 10
-42.8749
 20
-27.1121
 11
-42.9721
 21
-26.8129
  0
LINE
  8
0
 10
-42.9721
 20
-26.8129
 11
-43.005
 21
-26.5
  0
LINE
  8
0
 10
-43.005
 20
-26.5
 11
-42.9721
 21
-26.1871
  0
LINE
  8
0
 10
-42.9721
 20
-26.1871
 11
-42.8749
 21
-25.8878
  0
LINE
  8
0
 10
-42.8749
 20
-25.8878
 11
-42.7176
 21
-25.6154
  0
LINE
  8
0
 10
-42.7176
 20
-25.6154
 11
-42.507
 21
-25.3816
  0
LINE
  8
0
 10
-42.507
 20
-25.3816
 11
-42.2525
 21
-25.1966
  0
LINE
  8
0
 10
-42.2525
 20
-25.1966
 11
-41.9651
 21
-25.0686
  0
LINE
  8
0
 10
-41.9651
 20
-25.0686
 11
-41.6573
 21
-25.0032
  0
LINE
  8
0
 10
-41.6573
 20
-25.0032
 11
-41.3427
 21
-25.0032
  0
LINE
  8
0
 10
-41.3427
 20
-25.0032
 11
-41.0349
 21
-25.0686
  0
LINE
  8
0
 10
-41.0349
 20
-25.0686
 11
-40.7475
 21
-25.1966
  0
LINE
  8
0
 10
-40.7475
 20
-25.1966
 11
-40.493
 21
-25.3816
  0
LINE
  8
0
 10
-40.493
 20
-25.3816
 11
-40.2824
 21
-25.6154
  0
LINE
  8
0
 10
-40.2824
 20
-25.6154
 11
-40.1251
 21
-25.8878
  0
LINE
  8
0
 10
-40.1251
 20
-25.8878
 11
-40.0279
 21
-26.1871
  0
LINE
  8
0
 10
-40.0279
 20
-26.1871
 11
-39.995
 21
-26.5
  0
LINE
  8
0
 10
-39.995
 20
-26.5
 11
-40.0279
 21
-26.8129
  0
LINE
  8
0
 10
-40.0279
 20
-26.8129
 11
-40.1251
 21
-27.1121
  0
LINE
  8
0
 10
-40.1251
 20
-27.1121
 11
-40.2824
 21
-27.3846
  0
LINE
  8
0
 10
-40.2824
 20
-27.3846
 11
-40.493
 21
-27.6184
  0
LINE
  8
0
 10
-40.493
 20
-27.6184
 11
-40.7475
 21
-27.8034
  0
LINE
  8
0
 10
-40.7475
 20
-27.8034
 11
-41.0349
 21
-27.9313
  0
LINE
  8
0
 10
-41.0349
 20
-27.9313
 11
-41.3427
 21
-27.9967
  0
LINE
  8
0
 10
-41.3427
 20
-27.9967
 11
-41.6573
 21
-27.9967
  0
ENDSEC
  0
SECTION
  2
OBJECTS
  0
DICTIONARY
  0
ENDSEC
  0
EOF
