  0
SECTION
  2
HEADER
  9
$ACADVER
  1
AC1024
  9
$ACADMAINTVER
 70
     6
  9
$DWGCODEPAGE
  3
ANSI_1252
  9
$INSBASE
 10
0.0
 20
0.0
 30
0.0
  9
$EXTMIN
 10
1.000000000000000E+20
 20
1.000000000000000E+20
 30
1.000000000000000E+20
  9
$EXTMAX
 10
-1.000000000000000E+20
 20
-1.000000000000000E+20
 30
-1.000000000000000E+20
  9
$LIMMIN
 10
0.0
 20
0.0
  9
$LIMMAX
 10
12.0
 20
9.0
  9
$ORTHOMODE
 70
     0
  9
$REGENMODE
 70
     1
  9
$FILLMODE
 70
     1
  9
$QTEXTMODE
 70
     0
  9
$MIRRTEXT
 70
     1
  9
$LTSCALE
 40
1.0
  9
$ATTMODE
 70
     1
  9
$TEXTSIZE
 40
0.2
  9
$TRACEWID
 40
0.05
  9
$TEXTSTYLE
  7
Standard
  9
$CLAYER
  8
0
  9
$CELTYPE
  6
ByLayer
  9
$CECOLOR
 62
   256
  9
$CELTSCALE
 40
1.0
  9
$DISPSILH
 70
     0
  9
$DIMSCALE
 40
1.0
  9
$DIMASZ
 40
0.18
  9
$DIMEXO
 40
0.0625
  9
$DIMDLI
 40
0.38
  9
$DIMRND
 40
0.0
  9
$DIMDLE
 40
0.0
  9
$DIMEXE
 40
0.18
  9
$DIMTP
 40
0.0
  9
$DIMTM
 40
0.0
  9
$DIMTXT
 40
0.18
  9
$DIMCEN
 40
0.09
  9
$DIMTSZ
 40
0.0
  9
$DIMTOL
 70
     0
  9
$DIMLIM
 70
     0
  9
$DIMTIH
 70
     1
  9
$DIMTOH
 70
     1
  9
$DIMSE1
 70
     0
  9
$DIMSE2
 70
     0
  9
$DIMTAD
 70
     0
  9
$DIMZIN
 70
     0
  9
$DIMBLK
  1

  9
$DIMASO
 70
     1
  9
$DIMSHO
 70
     1
  9
$DIMPOST
  1

  9
$DIMAPOST
  1

  9
$DIMALT
 70
     0
  9
$DIMALTD
 70
     2
  9
$DIMALTF
 40
25.4
  9
$DIMLFAC
 40
1.0
  9
$DIMTOFL
 70
     0
  9
$DIMTVP
 40
0.0
  9
$DIMTIX
 70
     0
  9
$DIMSOXD
 70
     0
  9
$DIMSAH
 70
     0
  9
$DIMBLK1
  1

  9
$DIMBLK2
  1

  9
$DIMSTYLE
  2
Standard
  9
$DIMCLRD
 70
     0
  9
$DIMCLRE
 70
     0
  9
$DIMCLRT
 70
     0
  9
$DIMTFAC
 40
1.0
  9
$DIMGAP
 40
0.09
  9
$DIMJUST
 70
     0
  9
$DIMSD1
 70
     0
  9
$DIMSD2
 70
     0
  9
$DIMTOLJ
 70
     1
  9
$DIMTZIN
 70
     0
  9
$DIMALTZ
 70
     0
  9
$DIMALTTZ
 70
     0
  9
$DIMUPT
 70
     0
  9
$DIMDEC
 70
     4
  9
$DIMTDEC
 70
     4
  9
$DIMALTU
 70
     2
  9
$DIMALTTD
 70
     2
  9
$DIMTXSTY
  7
Standard
  9
$DIMAUNIT
 70
     0
  9
$DIMADEC
 70
     0
  9
$DIMALTRND
 40
0.0
  9
$DIMAZIN
 70
     0
  9
$DIMDSEP
 70
    46
  9
$DIMATFIT
 70
     3
  9
$DIMFRAC
 70
     0
  9
$DIMLDRBLK
  1

  9
$DIMLUNIT
 70
     2
  9
$DIMLWD
 70
    -2
  9
$DIMLWE
 70
    -2
  9
$DIMTMOVE
 70
     0
  9
$DIMFXL
 40
1.0
  9
$DIMFXLON
 70
     0
  9
$DIMJOGANG
 40
0.7853981633974483
  9
$DIMTFILL
 70
     0
  9
$DIMTFILLCLR
 70
     0
  9
$DIMARCSYM
 70
     0
  9
$DIMLTYPE
  6

  9
$DIMLTEX1
  6

  9
$DIMLTEX2
  6

  9
$DIMTXTDIRECTION
 70
     0
  9
$LUNITS
 70
     2
  9
$LUPREC
 70
     4
  9
$SKETCHINC
 40
0.1
  9
$FILLETRAD
 40
0.5
  9
$AUNITS
 70
     0
  9
$AUPREC
 70
     0
  9
$MENU
  1
.
  9
$ELEVATION
 40
0.0
  9
$PELEVATION
 40
0.0
  9
$THICKNESS
 40
0.0
  9
$LIMCHECK
 70
     0
  9
$CHAMFERA
 40
0.5
  9
$CHAMFERB
 40
0.5
  9
$CHAMFERC
 40
1.0
  9
$CHAMFERD
 40
0.0
  9
$SKPOLY
 70
     0
  9
$TDCREATE
 40
2459391.813724768
  9
$TDUCREATE
 40
2459391.772058102
  9
$TDUPDATE
 40
2459391.81372478
  9
$TDUUPDATE
 40
2459391.772058113
  9
$TDINDWG
 40
0.0000000116
  9
$TDUSRTIMER
 40
0.0000000116
  9
$USRTIMER
 70
     1
  9
$ANGBASE
 50
0.0
  9
$ANGDIR
 70
     0
  9
$PDMODE
 70
     0
  9
$PDSIZE
 40
0.0
  9
$PLINEWID
 40
0.0
  9
$SPLFRAME
 70
     0
  9
$SPLINETYPE
 70
     6
  9
$SPLINESEGS
 70
     8
  9
$HANDSEED
  5
4C
  9
$SURFTAB1
 70
     6
  9
$SURFTAB2
 70
     6
  9
$SURFTYPE
 70
     6
  9
$SURFU
 70
     6
  9
$SURFV
 70
     6
  9
$UCSBASE
  2

  9
$UCSNAME
  2

  9
$UCSORG
 10
0.0
 20
0.0
 30
0.0
  9
$UCSXDIR
 10
1.0
 20
0.0
 30
0.0
  9
$UCSYDIR
 10
0.0
 20
1.0
 30
0.0
  9
$UCSORTHOREF
  2

  9
$UCSORTHOVIEW
 70
     0
  9
$UCSORGTOP
 10
0.0
 20
0.0
 30
0.0
  9
$UCSORGBOTTOM
 10
0.0
 20
0.0
 30
0.0
  9
$UCSORGLEFT
 10
0.0
 20
0.0
 30
0.0
  9
$UCSORGRIGHT
 10
0.0
 20
0.0
 30
0.0
  9
$UCSORGFRONT
 10
0.0
 20
0.0
 30
0.0
  9
$UCSORGBACK
 10
0.0
 20
0.0
 30
0.0
  9
$PUCSBASE
  2

  9
$PUCSNAME
  2

  9
$PUCSORG
 10
0.0
 20
0.0
 30
0.0
  9
$PUCSXDIR
 10
1.0
 20
0.0
 30
0.0
  9
$PUCSYDIR
 10
0.0
 20
1.0
 30
0.0
  9
$PUCSORTHOREF
  2

  9
$PUCSORTHOVIEW
 70
     0
  9
$PUCSORGTOP
 10
0.0
 20
0.0
 30
0.0
  9
$PUCSORGBOTTOM
 10
0.0
 20
0.0
 30
0.0
  9
$PUCSORGLEFT
 10
0.0
 20
0.0
 30
0.0
  9
$PUCSORGRIGHT
 10
0.0
 20
0.0
 30
0.0
  9
$PUCSORGFRONT
 10
0.0
 20
0.0
 30
0.0
  9
$PUCSORGBACK
 10
0.0
 20
0.0
 30
0.0
  9
$USERI1
 70
     0
  9
$USERI2
 70
     0
  9
$USERI3
 70
     0
  9
$USERI4
 70
     0
  9
$USERI5
 70
     0
  9
$USERR1
 40
0.0
  9
$USERR2
 40
0.0
  9
$USERR3
 40
0.0
  9
$USERR4
 40
0.0
  9
$USERR5
 40
0.0
  9
$WORLDVIEW
 70
     1
  9
$SHADEDGE
 70
     3
  9
$SHADEDIF
 70
    70
  9
$TILEMODE
 70
     1
  9
$MAXACTVP
 70
    64
  9
$PINSBASE
 10
0.0
 20
0.0
 30
0.0
  9
$PLIMCHECK
 70
     0
  9
$PEXTMIN
 10
1.000000000000000E+20
 20
1.000000000000000E+20
 30
1.000000000000000E+20
  9
$PEXTMAX
 10
-1.000000000000000E+20
 20
-1.000000000000000E+20
 30
-1.000000000000000E+20
  9
$PLIMMIN
 10
0.0
 20
0.0
  9
$PLIMMAX
 10
12.0
 20
9.0
  9
$UNITMODE
 70
     0
  9
$VISRETAIN
 70
     1
  9
$PLINEGEN
 70
     0
  9
$PSLTSCALE
 70
     1
  9
$TREEDEPTH
 70
  3020
  9
$CMLSTYLE
  2
Standard
  9
$CMLJUST
 70
     0
  9
$CMLSCALE
 40
1.0
  9
$PROXYGRAPHICS
 70
     1
  9
$MEASUREMENT
 70
     0
  9
$CELWEIGHT
370
    -1
  9
$ENDCAPS
280
     0
  9
$JOINSTYLE
280
     0
  9
$LWDISPLAY
290
     1
  9
$INSUNITS
 70
     1
  9
$HYPERLINKBASE
  1

  9
$STYLESHEET
  1

  9
$XEDIT
290
     1
  9
$CEPSNTYPE
380
     0
  9
$PSTYLEMODE
290
     1
  9
$FINGERPRINTGUID
  2
{856A320F-DA6F-48D5-ADB8-871C16F3757F}
  9
$VERSIONGUID
  2
{FAEB1C32-E019-11D5-929B-00C0DF256EC4}
  9
$EXTNAMES
290
     1
  9
$PSVPSCALE
 40
0.0
  9
$OLESTARTUP
290
     0
  9
$SORTENTS
280
   127
  9
$INDEXCTL
280
     0
  9
$HIDETEXT
280
     1
  9
$XCLIPFRAME
280
     2
  9
$HALOGAP
280
     0
  9
$OBSCOLOR
 70
   257
  9
$OBSLTYPE
280
     0
  9
$INTERSECTIONDISPLAY
280
     0
  9
$INTERSECTIONCOLOR
 70
   257
  9
$DIMASSOC
280
     2
  9
$PROJECTNAME
  1

  9
$CAMERADISPLAY
290
     0
  9
$LENSLENGTH
 40
50.0
  9
$CAMERAHEIGHT
 40
0.0
  9
$STEPSPERSEC
 40
2.0
  9
$STEPSIZE
 40
6.0
  9
$3DDWFPREC
 40
2.0
  9
$PSOLWIDTH
 40
0.25
  9
$PSOLHEIGHT
 40
4.0
  9
$LOFTANG1
 40
1.570796326794897
  9
$LOFTANG2
 40
1.570796326794897
  9
$LOFTMAG1
 40
0.0
  9
$LOFTMAG2
 40
0.0
  9
$LOFTPARAM
 70
     7
  9
$LOFTNORMALS
280
     1
  9
$LATITUDE
 40
37.795
  9
$LONGITUDE
 40
-122.394
  9
$NORTHDIRECTION
 40
0.0
  9
$TIMEZONE
 70
 -8000
  9
$LIGHTGLYPHDISPLAY
280
     1
  9
$TILEMODELIGHTSYNCH
280
     1
  9
$CMATERIAL
347
3C
  9
$SOLIDHIST
280
     1
  9
$SHOWHIST
280
     1
  9
$DWFFRAME
280
     2
  9
$DGNFRAME
280
     2
  9
$REALWORLDSCALE
290
     1
  9
$INTERFERECOLOR
 62
   256
  9
$CSHADOW
280
     0
  9
$SHADOWPLANELOCATION
 40
0.0
  0
ENDSEC
  0
SECTION
  2
CLASSES
  0
CLASS
  1
ACDBDICTIONARYWDFLT
  2
AcDbDictionaryWithDefault
  3
ObjectDBX Classes
 90
        0
 91
        4
280
     0
281
     0
  0
CLASS
  1
VISUALSTYLE
  2
AcDbVisualStyle
  3
ObjectDBX Classes
 90
     4095
 91
        4
280
     0
281
     0
  0
CLASS
  1
MATERIAL
  2
AcDbMaterial
  3
ObjectDBX Classes
 90
     1153
 91
        4
280
     0
281
     0
  0
CLASS
  1
SUN
  2
AcDbSun
  3
SCENEOE
 90
     1024
 91
        4
280
     0
281
     0
  0
ENDSEC
  0
SECTION
  2
TABLES
  0
TABLE
  2
VPORT
  5
8
330
0
100
AcDbSymbolTable
 70
     1
  0
VPORT
  5
29
330
8
100
AcDbSymbolTableRecord
100
AcDbViewportTableRecord
  2
*Active
 70
     0
 10
0.0
 20
0.0
 11
1.0
 21
1.0
 12
0.0
 22
0.0
 13
0.0
 23
0.0
 14
0.5
 24
0.5
 15
0.5
 25
0.5
 16
0.0
 26
0.0
 36
1.0
 17
90.31111108853334
 27
90.3111110885335
 37
0.0
 40
180.622222177067
 41
0.9999999999999982
 42
50.0
 43
0.0
 44
0.0
 50
0.0
 51
0.0
 71
     0
 72
   100
 73
     1
 74
     3
 75
     0
 76
     0
 77
     0
 78
     0
281
     0
 65
     1
110
0.0
120
0.0
130
0.0
111
1.0
121
0.0
131
0.0
112
0.0
122
1.0
132
0.0
 79
     0
146
0.0
 60
     3
 61
     5
292
     1
282
     1
141
0.0
142
0.0
 63
   250
361
3F
  0
ENDTAB
  0
TABLE
  2
LTYPE
  5
5
330
0
100
AcDbSymbolTable
 70
     1
  0
LTYPE
  5
14
330
5
100
AcDbSymbolTableRecord
100
AcDbLinetypeTableRecord
  2
ByBlock
 70
     0
  3

 72
    65
 73
     0
 40
0.0
  0
LTYPE
  5
15
330
5
100
AcDbSymbolTableRecord
100
AcDbLinetypeTableRecord
  2
ByLayer
 70
     0
  3

 72
    65
 73
     0
 40
0.0
  0
LTYPE
  5
16
330
5
100
AcDbSymbolTableRecord
100
AcDbLinetypeTableRecord
  2
Continuous
 70
     0
  3
Solid line
 72
    65
 73
     0
 40
0.0
  0
ENDTAB
  0
TABLE
  2
LAYER
  5
2
330
0
100
AcDbSymbolTable
 70
     2
  0
LAYER
  5
10
330
2
100
AcDbSymbolTableRecord
100
AcDbLayerTableRecord
  2
0
 70
     0
 62
     7
  6
Continuous
370
    -3
390
F
347
3E
  0
LAYER
  5
40
330
2
100
AcDbSymbolTableRecord
100
AcDbLayerTableRecord
  2
Icons
 70
     0
 62
     7
  6
Continuous
370
    -3
390
F
347
3E
  0
ENDTAB
  0
TABLE
  2
STYLE
  5
3
330
0
100
AcDbSymbolTable
 70
     1
  0
STYLE
  5
11
330
3
100
AcDbSymbolTableRecord
100
AcDbTextStyleTableRecord
  2
Standard
 70
     0
 40
0.0
 41
1.0
 50
0.0
 71
     0
 42
0.2
  3
txt
  4

  0
ENDTAB
  0
TABLE
  2
VIEW
  5
6
330
0
100
AcDbSymbolTable
 70
     0
  0
ENDTAB
  0
TABLE
  2
UCS
  5
7
330
0
100
AcDbSymbolTable
 70
     0
  0
ENDTAB
  0
TABLE
  2
APPID
  5
9
330
0
100
AcDbSymbolTable
 70
     1
  0
APPID
  5
12
330
9
100
AcDbSymbolTableRecord
100
AcDbRegAppTableRecord
  2
ACAD
 70
     0
  0
ENDTAB
  0
TABLE
  2
DIMSTYLE
  5
A
330
0
100
AcDbSymbolTable
 70
     1
100
AcDbDimStyleTable
  0
DIMSTYLE
105
27
330
A
100
AcDbSymbolTableRecord
100
AcDbDimStyleTableRecord
  2
Standard
 70
     0
178
     0
340
11
  0
ENDTAB
  0
TABLE
  2
BLOCK_RECORD
  5
1
330
0
100
AcDbSymbolTable
 70
     1
  0
BLOCK_RECORD
  5
1F
330
1
100
AcDbSymbolTableRecord
100
AcDbBlockTableRecord
  2
*Model_Space
340
22
 70
     0
280
     1
281
     0
  0
BLOCK_RECORD
  5
1B
330
1
100
AcDbSymbolTableRecord
100
AcDbBlockTableRecord
  2
*Paper_Space
340
1E
 70
     0
280
     1
281
     0
  0
BLOCK_RECORD
  5
23
330
1
100
AcDbSymbolTableRecord
100
AcDbBlockTableRecord
  2
*Paper_Space0
340
26
 70
     0
280
     1
281
     0
  0
ENDTAB
  0
ENDSEC
  0
SECTION
  2
BLOCKS
  0
BLOCK
  5
20
330
1F
100
AcDbEntity
  8
0
100
AcDbBlockBegin
  2
*Model_Space
 70
     0
 10
0.0
 20
0.0
 30
0.0
  3
*Model_Space
  1

  0
ENDBLK
  5
21
330
1F
100
AcDbEntity
  8
0
100
AcDbBlockEnd
  0
BLOCK
  5
1C
330
1B
100
AcDbEntity
 67
     1
  8
0
100
AcDbBlockBegin
  2
*Paper_Space
 70
     0
 10
0.0
 20
0.0
 30
0.0
  3
*Paper_Space
  1

  0
ENDBLK
  5
1D
330
1B
100
AcDbEntity
 67
     1
  8
0
100
AcDbBlockEnd
  0
BLOCK
  5
24
330
23
100
AcDbEntity
  8
0
100
AcDbBlockBegin
  2
*Paper_Space0
 70
     0
 10
0.0
 20
0.0
 30
0.0
  3
*Paper_Space0
  1

  0
ENDBLK
  5
25
330
23
100
AcDbEntity
  8
0
100
AcDbBlockEnd
  0
ENDSEC
  0
SECTION
  2
ENTITIES
  0
SPLINE
  5
41
330
1F
100
AcDbEntity
  8
Icons
370
     0
100
AcDbSpline
210
0.0
220
0.0
230
1.0
 70
    11
 71
     3
 72
    17
 73
    13
 74
     0
 42
0.0000000001
 43
0.0000000001
 12
1.0
 22
0.0
 32
0.0
 13
1.0
 23
0.0
 33
0.0
 40
0.0
 40
0.0
 40
0.0
 40
0.0
 40
1.0
 40
1.0
 40
1.0
 40
2.0
 40
2.0
 40
2.0
 40
3.0
 40
3.0
 40
3.0
 40
4.0
 40
4.0
 40
4.0
 40
4.0
 10
90.61377888767291
 20
71.20665058752375
 30
0.0
 10
79.9170923454381
 20
71.20665058752375
 30
0.0
 10
71.24570765500685
 20
79.87803993348987
 30
0.0
 10
71.24570765500685
 20
90.57472647572467
 30
0.0
 10
71.24571231054108
 20
101.2714130179595
 30
0.0
 10
79.9170923454381
 20
109.9427977083907
 30
0.0
 10
90.61378819874201
 20
109.9427977083907
 30
0.0
 10
101.3104747409768
 20
109.9427930528565
 30
0.0
 10
109.9818547758738
 20
101.2714130179595
 30
0.0
 10
109.9818547758738
 20
90.57472647572467
 30
0.0
 10
109.9684095920869
 20
79.88360795281437
 30
0.0
 10
101.3048974105832
 20
71.22009577131067
 30
0.0
 10
90.61377888767291
 20
71.20665058752375
 30
0.0
  0
SPLINE
  5
42
330
1F
100
AcDbEntity
  8
Icons
370
     0
100
AcDbSpline
210
0.0
220
0.0
230
1.0
 70
    11
 71
     3
 72
    23
 73
    19
 74
     0
 42
0.0000000001
 43
0.0000000001
 12
1.0
 22
0.0
 32
0.0
 13
1.0
 23
0.0
 33
0.0
 40
0.0
 40
0.0
 40
0.0
 40
0.0
 40
1.0
 40
1.0
 40
1.0
 40
2.0
 40
2.0
 40
2.0
 40
3.0
 40
3.0
 40
3.0
 40
4.0
 40
4.0
 40
4.0
 40
5.0
 40
5.0
 40
5.0
 40
6.0
 40
6.0
 40
6.0
 40
6.0
 10
90.61377888767291
 20
105.0586717540829
 30
0.0
 10
82.61316827106518
 20
105.0586717540829
 30
0.0
 10
76.12739410920928
 20
98.57289759222702
 30
0.0
 10
76.12739410920928
 20
90.57227766455019
 30
0.0
 10
76.12739410920928
 20
82.57166704794246
 30
0.0
 10
82.61316827106518
 20
76.08589288608655
 30
0.0
 10
90.61377888767291
 20
76.08589288608655
 30
0.0
 10
98.61439881534973
 20
76.08589288608655
 30
0.0
 10
105.1001729772056
 20
82.57166704794246
 30
0.0
 10
105.1001729772056
 20
90.57227766455019
 30
0.0
 10
105.1001729772056
 20
90.57309703863139
 30
0.0
 10
105.1001729772056
 20
90.57391641271258
 30
0.0
 10
105.1001729772056
 20
90.57472647572467
 30
0.0
 10
105.0894093813208
 20
98.57048602532895
 30
0.0
 10
98.60953843727718
 20
105.0492675742874
 30
0.0
 10
90.61377888767291
 20
105.0586764096171
 30
0.0
 10
90.61377888767291
 20
105.0586764096171
 30
0.0
 10
90.61377888767291
 20
105.0586717540829
 30
0.0
 10
90.61377888767291
 20
105.0586717540829
 30
0.0
  0
HATCH
  5
43
330
1F
100
AcDbEntity
  8
Icons
 62
     7
420
 16777215
100
AcDbHatch
 10
0.0
 20
0.0
 30
0.0
210
0.0
220
0.0
230
1.0
  2
SOLID
 70
     1
 71
     0
 91
        2
 92
        1
 93
        1
 72
     4
 94
        3
 73
     0
 74
     1
 95
       17
 96
       13
 40
0.0
 40
0.0
 40
0.0
 40
0.0
 40
1.0
 40
1.0
 40
1.0
 40
2.0
 40
2.0
 40
2.0
 40
3.0
 40
3.0
 40
3.0
 40
4.0
 40
4.0
 40
4.0
 40
4.0
 10
90.61377888767291
 20
71.20665058752375
 10
79.9170923454381
 20
71.20665058752375
 10
71.24570765500685
 20
79.87803993348987
 10
71.24570765500685
 20
90.57472647572467
 10
71.24571231054108
 20
101.2714130179595
 10
79.9170923454381
 20
109.9427977083907
 10
90.61378819874201
 20
109.9427977083907
 10
101.3104747409768
 20
109.9427930528565
 10
109.9818547758738
 20
101.2714130179595
 10
109.9818547758738
 20
90.57472647572467
 10
109.9684095920869
 20
79.88360795281437
 10
101.3048974105832
 20
71.22009577131067
 10
90.61377888767291
 20
71.20665058752375
 97
        0
 97
        0
 92
        1
 93
        1
 72
     4
 94
        3
 73
     0
 74
     1
 95
       23
 96
       19
 40
0.0
 40
0.0
 40
0.0
 40
0.0
 40
1.0
 40
1.0
 40
1.0
 40
2.0
 40
2.0
 40
2.0
 40
3.0
 40
3.0
 40
3.0
 40
4.0
 40
4.0
 40
4.0
 40
5.0
 40
5.0
 40
5.0
 40
6.0
 40
6.0
 40
6.0
 40
6.0
 10
90.61377888767291
 20
105.0586717540829
 10
82.61316827106518
 20
105.0586717540829
 10
76.12739410920928
 20
98.57289759222702
 10
76.12739410920928
 20
90.57227766455019
 10
76.12739410920928
 20
82.57166704794246
 10
82.61316827106518
 20
76.08589288608655
 10
90.61377888767291
 20
76.08589288608655
 10
98.61439881534973
 20
76.08589288608655
 10
105.1001729772056
 20
82.57166704794246
 10
105.1001729772056
 20
90.57227766455019
 10
105.1001729772056
 20
90.57309703863139
 10
105.1001729772056
 20
90.57391641271258
 10
105.1001729772056
 20
90.57472647572467
 10
105.0894093813208
 20
98.57048602532895
 10
98.60953843727718
 20
105.0492675742874
 10
90.61377888767291
 20
105.0586764096171
 10
90.61377888767291
 20
105.0586764096171
 10
90.61377888767291
 20
105.0586717540829
 10
90.61377888767291
 20
105.0586717540829
 97
        0
 97
        0
 75
     2
 76
     1
 98
        0
  0
SPLINE
  5
44
330
1F
100
AcDbEntity
  8
Icons
370
     0
100
AcDbSpline
210
0.0
220
0.0
230
1.0
 70
    11
 71
     3
 72
    62
 73
    58
 74
     0
 42
0.0000000001
 43
0.0000000001
 12
1.0
 22
0.0
 32
0.0
 13
1.0
 23
0.0
 33
0.0
 40
0.0
 40
0.0
 40
0.0
 40
0.0
 40
1.0
 40
1.0
 40
1.0
 40
2.0
 40
2.0
 40
2.0
 40
3.0
 40
3.0
 40
3.0
 40
4.0
 40
4.0
 40
4.0
 40
5.0
 40
5.0
 40
5.0
 40
6.0
 40
6.0
 40
6.0
 40
7.0
 40
7.0
 40
7.0
 40
8.0
 40
8.0
 40
8.0
 40
9.0
 40
9.0
 40
9.0
 40
10.0
 40
10.0
 40
10.0
 40
11.0
 40
11.0
 40
11.0
 40
12.0
 40
12.0
 40
12.0
 40
13.0
 40
13.0
 40
13.0
 40
14.0
 40
14.0
 40
14.0
 40
15.0
 40
15.0
 40
15.0
 40
16.0
 40
16.0
 40
16.0
 40
17.0
 40
17.0
 40
17.0
 40
18.0
 40
18.0
 40
18.0
 40
19.0
 40
19.0
 40
19.0
 40
19.0
 10
76.80838242584109
 20
97.92409298595528
 30
0.0
 10
75.87611628728571
 20
97.92130897629303
 30
0.0
 10
75.02368791076734
 20
98.44981456973443
 30
0.0
 10
74.611626547547
 20
99.28607893028737
 30
0.0
 10
66.11506183508726
 20
116.5501464995449
 30
0.0
 10
44.41842722988359
 20
114.1752093473326
 30
0.0
 10
44.19875117650076
 20
114.1605630356305
 30
0.0
 10
42.8628362256613
 20
114.0058689335281
 30
0.0
 10
41.65347732609042
 20
114.9609099471132
 30
0.0
 10
41.49429994421417
 20
116.2962988225479
 30
0.0
 10
40.81993645325053
 20
121.4009388264586
 30
0.0
 10
41.3902208137639
 20
126.5929492473112
 30
0.0
 10
43.15651200075227
 20
131.4295096050989
 30
0.0
 10
45.90671782661844
 20
138.7144435171262
 30
0.0
 10
51.62301592660808
 20
144.4875368108863
 30
0.0
 10
58.88040769622428
 20
147.3096217624719
 30
0.0
 10
66.74468563900369
 20
150.4549940166683
 30
0.0
 10
75.56684912697924
 20
150.1628685345832
 30
0.0
 10
83.20582713063669
 20
146.5041444519127
 30
0.0
 10
104.2751656992
 20
136.3990646184406
 30
0.0
 10
100.8848378390021
 20
106.5939553165883
 30
0.0
 10
100.731065532741
 20
105.3296005873519
 30
0.0
 10
100.5679542241681
 20
103.9909993930755
 30
0.0
 10
99.35056918302915
 20
103.038076647712
 30
0.0
 10
98.01197264428758
 20
103.2011879562849
 30
0.0
 10
96.67336679447692
 20
103.3642992648578
 30
0.0
 10
95.7204440491135
 20
104.5816843059968
 30
0.0
 10
95.8835553576864
 20
105.9202855002726
 30
0.0
 10
95.8835553576864
 20
105.9202855002726
 30
0.0
 10
95.8835553576864
 20
105.9202855002726
 30
0.0
 10
95.8835553576864
 20
105.9202855002726
 30
0.0
 10
95.91772698129998
 20
106.1961026448214
 30
0.0
 10
98.99318241759053
 20
133.5188762678757
 30
0.0
 10
81.0944956558423
 20
142.1033118672419
 30
0.0
 10
74.68895963199488
 20
145.1681945845646
 30
0.0
 10
67.29328451957264
 20
145.4133596896207
 30
0.0
 10
60.69883155912883
 20
142.7794258391972
 30
0.0
 10
54.71469590081293
 20
140.4614282023261
 30
0.0
 10
49.99751741554909
 20
135.7096451287356
 30
0.0
 10
47.72332137551338
 20
129.7087216128243
 30
0.0
 10
46.48097801363943
 20
126.3263919609871
 30
0.0
 10
45.94597794949731
 20
122.7250892414842
 30
0.0
 10
46.15142203375421
 20
119.1276785488675
 30
0.0
 10
52.89790613053655
 20
119.2301934197083
 30
0.0
 10
70.88202195131872
 20
117.9219044109019
 30
0.0
 10
79.00025930392378
 20
101.4315820286953
 30
0.0
 10
79.59555319605187
 20
100.2221020852261
 30
0.0
 10
79.09765308675702
 20
98.75904448576449
 30
0.0
 10
77.888177798822
 20
98.1637599047055
 30
0.0
 10
77.88786587800732
 20
98.16360161653073
 30
0.0
 10
77.88754930165777
 20
98.16345263942506
 30
0.0
 10
77.88723738084309
 20
98.16329435125029
 30
0.0
 10
77.55136849610501
 20
98.0000154434335
 30
0.0
 10
77.18178888567371
 20
97.91806872424466
 30
0.0
 10
76.80838708137533
 20
97.92409298595528
 30
0.0
 10
76.80838708137533
 20
97.92409298595528
 30
0.0
 10
76.80838242584109
 20
97.92409298595528
 30
0.0
 10
76.80838242584109
 20
97.92409298595528
 30
0.0
  0
HATCH
  5
45
330
1F
100
AcDbEntity
  8
Icons
 62
     7
420
 16777215
100
AcDbHatch
 10
0.0
 20
0.0
 30
0.0
210
0.0
220
0.0
230
1.0
  2
SOLID
 70
     1
 71
     0
 91
        1
 92
        1
 93
        1
 72
     4
 94
        3
 73
     0
 74
     1
 95
       62
 96
       58
 40
0.0
 40
0.0
 40
0.0
 40
0.0
 40
1.0
 40
1.0
 40
1.0
 40
2.0
 40
2.0
 40
2.0
 40
3.0
 40
3.0
 40
3.0
 40
4.0
 40
4.0
 40
4.0
 40
5.0
 40
5.0
 40
5.0
 40
6.0
 40
6.0
 40
6.0
 40
7.0
 40
7.0
 40
7.0
 40
8.0
 40
8.0
 40
8.0
 40
9.0
 40
9.0
 40
9.0
 40
10.0
 40
10.0
 40
10.0
 40
11.0
 40
11.0
 40
11.0
 40
12.0
 40
12.0
 40
12.0
 40
13.0
 40
13.0
 40
13.0
 40
14.0
 40
14.0
 40
14.0
 40
15.0
 40
15.0
 40
15.0
 40
16.0
 40
16.0
 40
16.0
 40
17.0
 40
17.0
 40
17.0
 40
18.0
 40
18.0
 40
18.0
 40
19.0
 40
19.0
 40
19.0
 40
19.0
 10
76.80838242584109
 20
97.92409298595528
 10
75.87611628728571
 20
97.92130897629303
 10
75.02368791076734
 20
98.44981456973443
 10
74.611626547547
 20
99.28607893028737
 10
66.11506183508726
 20
116.5501464995449
 10
44.41842722988359
 20
114.1752093473326
 10
44.19875117650076
 20
114.1605630356305
 10
42.8628362256613
 20
114.0058689335281
 10
41.65347732609042
 20
114.9609099471132
 10
41.49429994421417
 20
116.2962988225479
 10
40.81993645325053
 20
121.4009388264586
 10
41.3902208137639
 20
126.5929492473112
 10
43.15651200075227
 20
131.4295096050989
 10
45.90671782661844
 20
138.7144435171262
 10
51.62301592660808
 20
144.4875368108863
 10
58.88040769622428
 20
147.3096217624719
 10
66.74468563900369
 20
150.4549940166683
 10
75.56684912697924
 20
150.1628685345832
 10
83.20582713063669
 20
146.5041444519127
 10
104.2751656992
 20
136.3990646184406
 10
100.8848378390021
 20
106.5939553165883
 10
100.731065532741
 20
105.3296005873519
 10
100.5679542241681
 20
103.9909993930755
 10
99.35056918302915
 20
103.038076647712
 10
98.01197264428758
 20
103.2011879562849
 10
96.67336679447692
 20
103.3642992648578
 10
95.7204440491135
 20
104.5816843059968
 10
95.8835553576864
 20
105.9202855002726
 10
95.8835553576864
 20
105.9202855002726
 10
95.8835553576864
 20
105.9202855002726
 10
95.8835553576864
 20
105.9202855002726
 10
95.91772698129998
 20
106.1961026448214
 10
98.99318241759053
 20
133.5188762678757
 10
81.0944956558423
 20
142.1033118672419
 10
74.68895963199488
 20
145.1681945845646
 10
67.29328451957264
 20
145.4133596896207
 10
60.69883155912883
 20
142.7794258391972
 10
54.71469590081293
 20
140.4614282023261
 10
49.99751741554909
 20
135.7096451287356
 10
47.72332137551338
 20
129.7087216128243
 10
46.48097801363943
 20
126.3263919609871
 10
45.94597794949731
 20
122.7250892414842
 10
46.15142203375421
 20
119.1276785488675
 10
52.89790613053655
 20
119.2301934197083
 10
70.88202195131872
 20
117.9219044109019
 10
79.00025930392378
 20
101.4315820286953
 10
79.59555319605187
 20
100.2221020852261
 10
79.09765308675702
 20
98.75904448576449
 10
77.888177798822
 20
98.1637599047055
 10
77.88786587800732
 20
98.16360161653073
 10
77.88754930165777
 20
98.16345263942506
 10
77.88723738084309
 20
98.16329435125029
 10
77.55136849610501
 20
98.0000154434335
 10
77.18178888567371
 20
97.91806872424466
 10
76.80838708137533
 20
97.92409298595528
 10
76.80838708137533
 20
97.92409298595528
 10
76.80838242584109
 20
97.92409298595528
 10
76.80838242584109
 20
97.92409298595528
 97
        0
 97
        0
 75
     2
 76
     1
 98
        0
  0
SPLINE
  5
46
330
1F
100
AcDbEntity
  8
Icons
370
     0
100
AcDbSpline
210
0.0
220
0.0
230
1.0
 70
    11
 71
     3
 72
    56
 73
    52
 74
     0
 42
0.0000000001
 43
0.0000000001
 12
1.0
 22
0.0
 32
0.0
 13
1.0
 23
0.0
 33
0.0
 40
0.0
 40
0.0
 40
0.0
 40
0.0
 40
1.0
 40
1.0
 40
1.0
 40
2.0
 40
2.0
 40
2.0
 40
3.0
 40
3.0
 40
3.0
 40
4.0
 40
4.0
 40
4.0
 40
5.0
 40
5.0
 40
5.0
 40
6.0
 40
6.0
 40
6.0
 40
7.0
 40
7.0
 40
7.0
 40
8.0
 40
8.0
 40
8.0
 40
9.0
 40
9.0
 40
9.0
 40
10.0
 40
10.0
 40
10.0
 40
11.0
 40
11.0
 40
11.0
 40
12.0
 40
12.0
 40
12.0
 40
13.0
 40
13.0
 40
13.0
 40
14.0
 40
14.0
 40
14.0
 40
15.0
 40
15.0
 40
15.0
 40
16.0
 40
16.0
 40
16.0
 40
17.0
 40
17.0
 40
17.0
 40
17.0
 10
74.47981905330347
 20
28.67011146756109
 30
0.0
 10
68.24785997970244
 20
28.69432955830194
 30
0.0
 10
62.20700128840183
 20
30.82406901671596
 30
0.0
 10
57.33779632233369
 20
34.71363778015982
 30
0.0
 10
50.6782636443842
 20
39.954075071425
 30
0.0
 10
46.51774742553317
 20
47.74397619419754
 30
0.0
 10
45.86584223324962
 20
56.19303583208604
 30
0.0
 10
44.08158533842408
 20
79.49086705798591
 30
0.0
 10
71.58986339124796
 20
91.45830968946677
 30
0.0
 10
72.76147056113426
 20
91.95623773196894
 30
0.0
 10
74.01121622294566
 20
92.46155876334011
 30
0.0
 10
75.43397551532357
 20
91.85808044146914
 30
0.0
 10
75.93929654669408
 20
90.60833943519198
 30
0.0
 10
76.43173571395947
 20
89.39045159632136
 30
0.0
 10
75.87193096172356
 20
88.00125870806586
 30
0.0
 10
74.67265129445799
 20
87.46509010475144
 30
0.0
 10
74.41636411735621
 20
87.35525673359459
 30
0.0
 10
49.21711946962323
 20
76.35682637488975
 30
0.0
 10
50.73288703128551
 20
56.56404469162457
 30
0.0
 10
51.27774751760931
 20
49.48200828645371
 30
0.0
 10
54.7648546300796
 20
42.95219276773344
 30
0.0
 10
60.34735732257159
 20
38.56040355893023
 30
0.0
 10
65.34950107777912
 20
34.53395276858088
 30
0.0
 10
71.82831521547972
 20
32.82550194286976
 30
0.0
 10
78.16549402549666
 20
33.86178668992591
 30
0.0
 10
81.71522738876392
 20
34.47478092442169
 30
0.0
 10
85.10137457893394
 20
35.80980201262711
 30
0.0
 10
88.1143620526023
 20
37.78421421623961
 30
0.0
 10
84.69718106910693
 20
43.49334279301878
 30
0.0
 10
76.79130126956854
 20
59.80060024556144
 30
0.0
 10
87.01598178568814
 20
75.08026017852248
 30
0.0
 10
87.76616531236985
 20
76.20115461053136
 30
0.0
 10
89.28297571377183
 20
76.5016693658796
 30
0.0
 10
90.40387014578072
 20
75.75149515026699
 30
0.0
 10
91.52475526672049
 20
75.0013116235853
 30
0.0
 10
91.82527933313783
 20
73.48450122218331
 30
0.0
 10
91.07509580645612
 20
72.36360679017442
 30
0.0
 10
80.41106318357086
 20
56.43711619759181
 30
0.0
 10
92.86667585713235
 20
39.30730027821804
 30
0.0
 10
93.40121502335349
 20
38.58724737115855
 30
0.0
 10
94.21003966325543
 20
37.50882072533536
 30
0.0
 10
93.99148093816514
 20
35.97889102756511
 30
0.0
 10
92.91304498127285
 20
35.17006638766317
 30
0.0
 10
92.91304498127285
 20
35.17006638766317
 30
0.0
 10
92.91304498127285
 20
35.17006638766317
 30
0.0
 10
92.91304498127285
 20
35.17006638766317
 30
0.0
 10
88.82243161372429
 20
32.03204056699028
 30
0.0
 10
84.03299457667453
 20
29.9308581575198
 30
0.0
 10
78.9538808687142
 20
29.04599932731038
 30
0.0
 10
77.47526912831316
 20
28.79893941969117
 30
0.0
 10
75.9789244568029
 20
28.673221364642
 30
0.0
 10
74.47981905330347
 20
28.67011146756109
 30
0.0
  0
HATCH
  5
47
330
1F
100
AcDbEntity
  8
Icons
 62
     7
420
 16777215
100
AcDbHatch
 10
0.0
 20
0.0
 30
0.0
210
0.0
220
0.0
230
1.0
  2
SOLID
 70
     1
 71
     0
 91
        1
 92
        1
 93
        1
 72
     4
 94
        3
 73
     0
 74
     1
 95
       56
 96
       52
 40
0.0
 40
0.0
 40
0.0
 40
0.0
 40
1.0
 40
1.0
 40
1.0
 40
2.0
 40
2.0
 40
2.0
 40
3.0
 40
3.0
 40
3.0
 40
4.0
 40
4.0
 40
4.0
 40
5.0
 40
5.0
 40
5.0
 40
6.0
 40
6.0
 40
6.0
 40
7.0
 40
7.0
 40
7.0
 40
8.0
 40
8.0
 40
8.0
 40
9.0
 40
9.0
 40
9.0
 40
10.0
 40
10.0
 40
10.0
 40
11.0
 40
11.0
 40
11.0
 40
12.0
 40
12.0
 40
12.0
 40
13.0
 40
13.0
 40
13.0
 40
14.0
 40
14.0
 40
14.0
 40
15.0
 40
15.0
 40
15.0
 40
16.0
 40
16.0
 40
16.0
 40
17.0
 40
17.0
 40
17.0
 40
17.0
 10
74.47981905330347
 20
28.67011146756109
 10
68.24785997970244
 20
28.69432955830194
 10
62.20700128840183
 20
30.82406901671596
 10
57.33779632233369
 20
34.71363778015982
 10
50.6782636443842
 20
39.954075071425
 10
46.51774742553317
 20
47.74397619419754
 10
45.86584223324962
 20
56.19303583208604
 10
44.08158533842408
 20
79.49086705798591
 10
71.58986339124796
 20
91.45830968946677
 10
72.76147056113426
 20
91.95623773196894
 10
74.01121622294566
 20
92.46155876334011
 10
75.43397551532357
 20
91.85808044146914
 10
75.93929654669408
 20
90.60833943519198
 10
76.43173571395947
 20
89.39045159632136
 10
75.87193096172356
 20
88.00125870806586
 10
74.67265129445799
 20
87.46509010475144
 10
74.41636411735621
 20
87.35525673359459
 10
49.21711946962323
 20
76.35682637488975
 10
50.73288703128551
 20
56.56404469162457
 10
51.27774751760931
 20
49.48200828645371
 10
54.7648546300796
 20
42.95219276773344
 10
60.34735732257159
 20
38.56040355893023
 10
65.34950107777912
 20
34.53395276858088
 10
71.82831521547972
 20
32.82550194286976
 10
78.16549402549666
 20
33.86178668992591
 10
81.71522738876392
 20
34.47478092442169
 10
85.10137457893394
 20
35.80980201262711
 10
88.1143620526023
 20
37.78421421623961
 10
84.69718106910693
 20
43.49334279301878
 10
76.79130126956854
 20
59.80060024556144
 10
87.01598178568814
 20
75.08026017852248
 10
87.76616531236985
 20
76.20115461053136
 10
89.28297571377183
 20
76.5016693658796
 10
90.40387014578072
 20
75.75149515026699
 10
91.52475526672049
 20
75.0013116235853
 10
91.82527933313783
 20
73.48450122218331
 10
91.07509580645612
 20
72.36360679017442
 10
80.41106318357086
 20
56.43711619759181
 10
92.86667585713235
 20
39.30730027821804
 10
93.40121502335349
 20
38.58724737115855
 10
94.21003966325543
 20
37.50882072533536
 10
93.99148093816514
 20
35.97889102756511
 10
92.91304498127285
 20
35.17006638766317
 10
92.91304498127285
 20
35.17006638766317
 10
92.91304498127285
 20
35.17006638766317
 10
92.91304498127285
 20
35.17006638766317
 10
88.82243161372429
 20
32.03204056699028
 10
84.03299457667453
 20
29.9308581575198
 10
78.9538808687142
 20
29.04599932731038
 10
77.47526912831316
 20
28.79893941969117
 10
75.9789244568029
 20
28.673221364642
 10
74.47981905330347
 20
28.67011146756109
 97
        0
 97
        0
 75
     2
 76
     1
 98
        0
  0
SPLINE
  5
48
330
1F
100
AcDbEntity
  8
Icons
370
     0
100
AcDbSpline
210
0.0
220
0.0
230
1.0
 70
    11
 71
     3
 72
    56
 73
    52
 74
     0
 42
0.0000000001
 43
0.0000000001
 12
1.0
 22
0.0
 32
0.0
 13
1.0
 23
0.0
 33
0.0
 40
0.0
 40
0.0
 40
0.0
 40
0.0
 40
1.0
 40
1.0
 40
1.0
 40
2.0
 40
2.0
 40
2.0
 40
3.0
 40
3.0
 40
3.0
 40
4.0
 40
4.0
 40
4.0
 40
5.0
 40
5.0
 40
5.0
 40
6.0
 40
6.0
 40
6.0
 40
7.0
 40
7.0
 40
7.0
 40
8.0
 40
8.0
 40
8.0
 40
9.0
 40
9.0
 40
9.0
 40
10.0
 40
10.0
 40
10.0
 40
11.0
 40
11.0
 40
11.0
 40
12.0
 40
12.0
 40
12.0
 40
13.0
 40
13.0
 40
13.0
 40
14.0
 40
14.0
 40
14.0
 40
15.0
 40
15.0
 40
15.0
 40
16.0
 40
16.0
 40
16.0
 40
17.0
 40
17.0
 40
17.0
 40
17.0
 10
125.1150609028899
 20
65.10454833918851
 30
0.0
 10
116.8845413679535
 20
65.10454833918851
 30
0.0
 10
107.8387911775712
 20
68.08725621612899
 30
0.0
 10
98.10227139246318
 20
74.0282583468179
 30
0.0
 10
96.93429088399276
 20
74.70133691024512
 30
0.0
 10
96.53308622734829
 20
76.19379886593879
 30
0.0
 10
97.2061647907755
 20
77.36178868547832
 30
0.0
 10
97.87923404313362
 20
78.52976919394872
 30
0.0
 10
99.3717053098964
 20
78.93096453952408
 30
0.0
 10
100.5396858183668
 20
78.25789528716598
 30
0.0
 10
100.5747047492689
 20
78.2377182004165
 30
0.0
 10
100.6092115713702
 20
78.21666587317118
 30
0.0
 10
100.6431876625326
 20
78.19477554970648
 30
0.0
 10
113.0451034005684
 20
70.62817248619842
 30
0.0
 10
124.0020343242744
 20
68.27763964610902
 30
0.0
 10
133.1966871317761
 20
71.21640858794528
 30
0.0
 10
140.5689868052111
 20
73.89309886769675
 30
0.0
 10
146.5934347372147
 20
79.36086591114866
 30
0.0
 10
149.9701498143818
 20
86.43993208527519
 30
0.0
 10
155.5840820206364
 20
101.1899318522259
 30
0.0
 10
142.6476271163795
 20
111.3365111206968
 30
0.0
 10
137.0190485984235
 20
114.9196619109802
 30
0.0
 10
129.6550357764915
 20
97.24065120261474
 30
0.0
 10
107.1675655168958
 20
95.30506615716807
 30
0.0
 10
106.1643816205062
 20
95.22939509855567
 30
0.0
 10
104.8195652876029
 20
95.13622854109589
 30
0.0
 10
103.6538473689248
 20
96.15089298569136
 30
0.0
 10
103.5606808114651
 20
97.49570931859473
 30
0.0
 10
103.468557093745
 20
98.82549758596342
 30
0.0
 10
104.4603256194124
 20
99.98328247376439
 30
0.0
 10
105.7884937607569
 20
100.0964305855225
 30
0.0
 10
106.0154883144559
 20
100.1135163973292
 30
0.0
 10
128.3369794561945
 20
102.0783940661787
 30
0.0
 10
133.3699940610184
 20
119.1960124850256
 30
0.0
 10
133.7492152835071
 20
120.4896132823192
 30
0.0
 10
135.105307321096
 20
121.2308581826613
 30
0.0
 10
136.3989127739246
 20
120.8516369601726
 30
0.0
 10
136.5437557649144
 20
120.8091738295211
 30
0.0
 10
136.6843529083926
 20
120.7533632813086
 30
0.0
 10
136.8188978569528
 20
120.6849269233904
 30
0.0
 10
145.91835429393
 20
116.0473301457629
 30
0.0
 10
161.3298217211345
 20
102.564124608154
 30
0.0
 10
154.5076758768089
 20
84.61661991109077
 30
0.0
 10
150.6292803962905
 20
76.18699247442339
 30
0.0
 10
143.5061542431614
 20
69.68452356566308
 30
0.0
 10
134.7588331286479
 20
66.58856515520439
 30
0.0
 10
131.641468570318
 20
65.59329566755363
 30
0.0
 10
128.3874361396719
 20
65.09254637111279
 30
0.0
 10
125.115070213959
 20
65.1045297170503
 30
0.0
 10
125.115070213959
 20
65.1045297170503
 30
0.0
 10
125.1150609028899
 20
65.10454833918851
 30
0.0
 10
125.1150609028899
 20
65.10454833918851
 30
0.0
  0
HATCH
  5
49
330
1F
100
AcDbEntity
  8
Icons
 62
     7
420
 16777215
100
AcDbHatch
 10
0.0
 20
0.0
 30
0.0
210
0.0
220
0.0
230
1.0
  2
SOLID
 70
     1
 71
     0
 91
        1
 92
        1
 93
        1
 72
     4
 94
        3
 73
     0
 74
     1
 95
       56
 96
       52
 40
0.0
 40
0.0
 40
0.0
 40
0.0
 40
1.0
 40
1.0
 40
1.0
 40
2.0
 40
2.0
 40
2.0
 40
3.0
 40
3.0
 40
3.0
 40
4.0
 40
4.0
 40
4.0
 40
5.0
 40
5.0
 40
5.0
 40
6.0
 40
6.0
 40
6.0
 40
7.0
 40
7.0
 40
7.0
 40
8.0
 40
8.0
 40
8.0
 40
9.0
 40
9.0
 40
9.0
 40
10.0
 40
10.0
 40
10.0
 40
11.0
 40
11.0
 40
11.0
 40
12.0
 40
12.0
 40
12.0
 40
13.0
 40
13.0
 40
13.0
 40
14.0
 40
14.0
 40
14.0
 40
15.0
 40
15.0
 40
15.0
 40
16.0
 40
16.0
 40
16.0
 40
17.0
 40
17.0
 40
17.0
 40
17.0
 10
125.1150609028899
 20
65.10454833918851
 10
116.8845413679535
 20
65.10454833918851
 10
107.8387911775712
 20
68.08725621612899
 10
98.10227139246318
 20
74.0282583468179
 10
96.93429088399276
 20
74.70133691024512
 10
96.53308622734829
 20
76.19379886593879
 10
97.2061647907755
 20
77.36178868547832
 10
97.87923404313362
 20
78.52976919394872
 10
99.3717053098964
 20
78.93096453952408
 10
100.5396858183668
 20
78.25789528716598
 10
100.5747047492689
 20
78.2377182004165
 10
100.6092115713702
 20
78.21666587317118
 10
100.6431876625326
 20
78.19477554970648
 10
113.0451034005684
 20
70.62817248619842
 10
124.0020343242744
 20
68.27763964610902
 10
133.1966871317761
 20
71.21640858794528
 10
140.5689868052111
 20
73.89309886769675
 10
146.5934347372147
 20
79.36086591114866
 10
149.9701498143818
 20
86.43993208527519
 10
155.5840820206364
 20
101.1899318522259
 10
142.6476271163795
 20
111.3365111206968
 10
137.0190485984235
 20
114.9196619109802
 10
129.6550357764915
 20
97.24065120261474
 10
107.1675655168958
 20
95.30506615716807
 10
106.1643816205062
 20
95.22939509855567
 10
104.8195652876029
 20
95.13622854109589
 10
103.6538473689248
 20
96.15089298569136
 10
103.5606808114651
 20
97.49570931859473
 10
103.468557093745
 20
98.82549758596342
 10
104.4603256194124
 20
99.98328247376439
 10
105.7884937607569
 20
100.0964305855225
 10
106.0154883144559
 20
100.1135163973292
 10
128.3369794561945
 20
102.0783940661787
 10
133.3699940610184
 20
119.1960124850256
 10
133.7492152835071
 20
120.4896132823192
 10
135.105307321096
 20
121.2308581826613
 10
136.3989127739246
 20
120.8516369601726
 10
136.5437557649144
 20
120.8091738295211
 10
136.6843529083926
 20
120.7533632813086
 10
136.8188978569528
 20
120.6849269233904
 10
145.91835429393
 20
116.0473301457629
 10
161.3298217211345
 20
102.564124608154
 10
154.5076758768089
 20
84.61661991109077
 10
150.6292803962905
 20
76.18699247442339
 10
143.5061542431614
 20
69.68452356566308
 10
134.7588331286479
 20
66.58856515520439
 10
131.641468570318
 20
65.59329566755363
 10
128.3874361396719
 20
65.09254637111279
 10
125.115070213959
 20
65.1045297170503
 10
125.115070213959
 20
65.1045297170503
 10
125.1150609028899
 20
65.10454833918851
 10
125.1150609028899
 20
65.10454833918851
 97
        0
 97
        0
 75
     2
 76
     1
 98
        0
  0
ENDSEC
  0
SECTION
  2
OBJECTS
  0
DICTIONARY
  5
C
330
0
100
AcDbDictionary
281
     1
  3
ACAD_GROUP
350
D
  3
ACAD_LAYOUT
350
1A
  3
ACAD_MATERIAL
350
3B
  3
ACAD_MLEADERSTYLE
350
4B
  3
ACAD_MLINESTYLE
350
17
  3
ACAD_PLOTSETTINGS
350
19
  3
ACAD_PLOTSTYLENAME
350
E
  3
ACAD_TABLESTYLE
350
4A
  3
ACAD_VISUALSTYLE
350
2A
  0
SUN
  5
3F
330
29
100
AcDbSun
 90
        1
290
     0
 63
     7
421
 16777215
 40
1.0
291
     1
 91
  2455826
 92
 54000000
292
     0
 70
     2
 71
   256
280
     1
  0
DICTIONARY
  5
D
102
{ACAD_REACTORS
330
C
102
}
330
C
100
AcDbDictionary
281
     1
  0
DICTIONARY
  5
1A
102
{ACAD_REACTORS
330
C
102
}
330
C
100
AcDbDictionary
281
     1
  3
Layout1
350
1E
  3
Layout2
350
26
  3
Model
350
22
  0
DICTIONARY
  5
3B
102
{ACAD_REACTORS
330
C
102
}
330
C
100
AcDbDictionary
281
     1
  3
ByBlock
350
3D
  3
ByLayer
350
3C
  3
Global
350
3E
  0
DICTIONARY
  5
4B
102
{ACAD_REACTORS
330
C
102
}
330
C
100
AcDbDictionary
281
     1
  0
DICTIONARY
  5
17
102
{ACAD_REACTORS
330
C
102
}
330
C
100
AcDbDictionary
281
     1
  3
Standard
350
18
  0
DICTIONARY
  5
19
102
{ACAD_REACTORS
330
C
102
}
330
C
100
AcDbDictionary
281
     1
  0
ACDBDICTIONARYWDFLT
  5
E
102
{ACAD_REACTORS
330
C
102
}
330
C
100
AcDbDictionary
281
     1
  3
Normal
350
F
100
AcDbDictionaryWithDefault
340
F
  0
DICTIONARY
  5
4A
102
{ACAD_REACTORS
330
C
102
}
330
C
100
AcDbDictionary
281
     1
  0
DICTIONARY
  5
2A
102
{ACAD_REACTORS
330
C
102
}
330
C
100
AcDbDictionary
281
     1
  3
2dWireframe
350
2F
  3
3D Hidden
350
31
  3
3dWireframe
350
30
  3
Basic
350
32
  3
Brighten
350
36
  3
ColorChange
350
3A
  3
Conceptual
350
34
  3
Dim
350
35
  3
Facepattern
350
39
  3
Flat
350
2B
  3
FlatWithEdges
350
2C
  3
Gouraud
350
2D
  3
GouraudWithEdges
350
2E
  3
Linepattern
350
38
  3
Realistic
350
33
  3
Thicken
350
37
  0
LAYOUT
  5
1E
102
{ACAD_REACTORS
330
1A
102
}
330
1A
100
AcDbPlotSettings
  1

  2
none_device
  4

  6

 40
0.0
 41
0.0
 42
0.0
 43
0.0
 44
0.0
 45
0.0
 46
0.0
 47
0.0
 48
0.0
 49
0.0
140
0.0
141
0.0
142
1.0
143
1.0
 70
   688
 72
     0
 73
     0
 74
     5
  7

 75
    16
 76
     0
 77
     2
 78
   300
147
1.0
148
0.0
149
0.0
100
AcDbLayout
  1
Layout1
 70
     1
 71
     1
 10
0.0
 20
0.0
 11
12.0
 21
9.0
 12
0.0
 22
0.0
 32
0.0
 14
1.000000000000000E+20
 24
1.000000000000000E+20
 34
1.000000000000000E+20
 15
-1.000000000000000E+20
 25
-1.000000000000000E+20
 35
-1.000000000000000E+20
146
0.0
 13
0.0
 23
0.0
 33
0.0
 16
1.0
 26
0.0
 36
0.0
 17
0.0
 27
1.0
 37
0.0
 76
     0
330
1B
  0
LAYOUT
  5
26
102
{ACAD_REACTORS
330
1A
102
}
330
1A
100
AcDbPlotSettings
  1

  2
none_device
  4

  6

 40
0.0
 41
0.0
 42
0.0
 43
0.0
 44
0.0
 45
0.0
 46
0.0
 47
0.0
 48
0.0
 49
0.0
140
0.0
141
0.0
142
1.0
143
1.0
 70
   688
 72
     0
 73
     0
 74
     5
  7

 75
    16
 76
     0
 77
     2
 78
   300
147
1.0
148
0.0
149
0.0
100
AcDbLayout
  1
Layout2
 70
     1
 71
     2
 10
0.0
 20
0.0
 11
0.0
 21
0.0
 12
0.0
 22
0.0
 32
0.0
 14
0.0
 24
0.0
 34
0.0
 15
0.0
 25
0.0
 35
0.0
146
0.0
 13
0.0
 23
0.0
 33
0.0
 16
1.0
 26
0.0
 36
0.0
 17
0.0
 27
1.0
 37
0.0
 76
     0
330
23
  0
LAYOUT
  5
22
102
{ACAD_REACTORS
330
1A
102
}
330
1A
100
AcDbPlotSettings
  1

  2
none_device
  4

  6

 40
0.0
 41
0.0
 42
0.0
 43
0.0
 44
0.0
 45
0.0
 46
0.0
 47
0.0
 48
0.0
 49
0.0
140
0.0
141
0.0
142
1.0
143
1.0
 70
  1712
 72
     0
 73
     0
 74
     0
  7

 75
     0
 76
     0
 77
     2
 78
   300
147
1.0
148
0.0
149
0.0
100
AcDbLayout
  1
Model
 70
     1
 71
     0
 10
0.0
 20
0.0
 11
12.0
 21
9.0
 12
0.0
 22
0.0
 32
0.0
 14
1.000000000000000E+20
 24
1.000000000000000E+20
 34
1.000000000000000E+20
 15
-1.000000000000000E+20
 25
-1.000000000000000E+20
 35
-1.000000000000000E+20
146
0.0
 13
0.0
 23
0.0
 33
0.0
 16
1.0
 26
0.0
 36
0.0
 17
0.0
 27
1.0
 37
0.0
 76
     0
330
1F
331
29
  0
MATERIAL
  5
3D
102
{ACAD_REACTORS
330
3B
102
}
330
3B
100
AcDbMaterial
  1
ByBlock
 72
     1
 94
      127
  0
MATERIAL
  5
3C
102
{ACAD_REACTORS
330
3B
102
}
330
3B
100
AcDbMaterial
  1
ByLayer
 72
     1
 94
      127
  0
MATERIAL
  5
3E
102
{ACAD_REACTORS
330
3B
102
}
330
3B
100
AcDbMaterial
  1
Global
 72
     1
 94
      127
  0
MLINESTYLE
  5
18
102
{ACAD_REACTORS
330
17
102
}
330
17
100
AcDbMlineStyle
  2
Standard
 70
     0
  3

 62
   256
 51
90.0
 52
90.0
 71
     2
 49
0.5
 62
   256
  6
BYLAYER
 49
-0.5
 62
   256
  6
BYLAYER
  0
ACDBPLACEHOLDER
  5
F
102
{ACAD_REACTORS
330
E
102
}
330
E
  0
VISUALSTYLE
  5
2F
102
{ACAD_REACTORS
330
2A
102
}
330
2A
100
AcDbVisualStyle
  2
2dWireframe
 70
     4
177
     2
291
     0
 71
     0
176
     1
 72
     2
176
     1
 73
     0
176
     1
 90
        0
176
     1
 40
-0.6
176
     1
 41
-30.0
176
     1
 62
     5
 63
     7
421
 16777215
176
     1
 74
     1
176
     1
 91
        4
176
     1
 64
     7
176
     1
 65
   257
176
     1
 75
     1
176
     1
175
     1
176
     1
 42
1.0
176
     1
 92
        0
176
     1
 66
   257
176
     1
 43
1.0
176
     1
 76
     1
176
     1
 77
     6
176
     1
 78
     2
176
     1
 67
     7
176
     1
 79
     5
176
     1
170
     0
176
     1
171
     0
176
     1
290
     0
176
     1
 93
        1
176
     1
 44
0.0
176
     1
173
     0
176
     1
  0
VISUALSTYLE
  5
31
102
{ACAD_REACTORS
330
2A
102
}
330
2A
100
AcDbVisualStyle
  2
3D Hidden
 70
     6
177
     2
291
     0
 71
     1
176
     1
 72
     2
176
     1
 73
     2
176
     1
 90
        0
176
     1
 40
-0.6
176
     1
 41
-30.0
176
     1
 62
     5
 63
     7
421
 16777215
176
     1
 74
     2
176
     1
 91
        2
176
     1
 64
     7
176
     1
 65
   257
176
     1
 75
     2
176
     1
175
     1
176
     1
 42
40.0
176
     1
 92
        0
176
     1
 66
   257
176
     1
 43
1.0
176
     1
 76
     1
176
     1
 77
     6
176
     1
 78
     2
176
     1
 67
     7
176
     1
 79
     3
176
     1
170
     0
176
     1
171
     0
176
     1
290
     0
176
     1
 93
        1
176
     1
 44
0.0
176
     1
173
     0
176
     1
  0
VISUALSTYLE
  5
30
102
{ACAD_REACTORS
330
2A
102
}
330
2A
100
AcDbVisualStyle
  2
3dWireframe
 70
     5
177
     2
291
     0
 71
     0
176
     1
 72
     2
176
     1
 73
     0
176
     1
 90
        0
176
     1
 40
-0.6
176
     1
 41
-30.0
176
     1
 62
     5
 63
     7
421
 16777215
176
     1
 74
     1
176
     1
 91
        4
176
     1
 64
     7
176
     1
 65
   257
176
     1
 75
     1
176
     1
175
     1
176
     1
 42
1.0
176
     1
 92
        0
176
     1
 66
   257
176
     1
 43
1.0
176
     1
 76
     1
176
     1
 77
     6
176
     1
 78
     2
176
     1
 67
     7
176
     1
 79
     5
176
     1
170
     0
176
     1
171
     0
176
     1
290
     0
176
     1
 93
        1
176
     1
 44
0.0
176
     1
173
     0
176
     1
  0
VISUALSTYLE
  5
32
102
{ACAD_REACTORS
330
2A
102
}
330
2A
100
AcDbVisualStyle
  2
Basic
 70
     7
177
     2
291
     1
 71
     1
176
     1
 72
     0
176
     1
 73
     1
176
     1
 90
        0
176
     1
 40
-0.6
176
     1
 41
-30.0
176
     1
 62
     5
 63
     7
421
 16777215
176
     1
 74
     0
176
     1
 91
        4
176
     1
 64
     7
176
     1
 65
   257
176
     1
 75
     1
176
     1
175
     1
176
     1
 42
1.0
176
     1
 92
        8
176
     1
 66
     7
176
     1
 43
1.0
176
     1
 76
     1
176
     1
 77
     6
176
     1
 78
     2
176
     1
 67
     7
176
     1
 79
     5
176
     1
170
     0
176
     1
171
     0
176
     1
290
     0
176
     1
 93
        1
176
     1
 44
0.0
176
     1
173
     0
176
     1
  0
VISUALSTYLE
  5
36
102
{ACAD_REACTORS
330
2A
102
}
330
2A
100
AcDbVisualStyle
  2
Brighten
 70
    12
177
     2
291
     1
 71
     2
176
     1
 72
     2
176
     1
 73
     0
176
     1
 90
        0
176
     1
 40
-0.6
176
     1
 41
-30.0
176
     1
 62
     5
 63
     7
421
 16777215
176
     1
 74
     1
176
     1
 91
        4
176
     1
 64
     7
176
     1
 65
   257
176
     1
 75
     1
176
     1
175
     1
176
     1
 42
1.0
176
     1
 92
        8
176
     1
 66
     7
176
     1
 43
1.0
176
     1
 76
     1
176
     1
 77
     6
176
     1
 78
     2
176
     1
 67
     7
176
     1
 79
     5
176
     1
170
     0
176
     1
171
     0
176
     1
290
     0
176
     1
 93
        1
176
     1
 44
50.0
176
     1
173
     0
176
     1
  0
VISUALSTYLE
  5
3A
102
{ACAD_REACTORS
330
2A
102
}
330
2A
100
AcDbVisualStyle
  2
ColorChange
 70
    16
177
     2
291
     1
 71
     2
176
     1
 72
     2
176
     1
 73
     3
176
     1
 90
        0
176
     1
 40
-0.6
176
     1
 41
-30.0
176
     1
 62
     5
 63
     8
421
  8421504
176
     1
 74
     1
176
     1
 91
        4
176
     1
 64
     7
176
     1
 65
   257
176
     1
 75
     1
176
     1
175
     1
176
     1
 42
1.0
176
     1
 92
        8
176
     1
 66
     8
424
  8421504
176
     1
 43
1.0
176
     1
 76
     1
176
     1
 77
     6
176
     1
 78
     2
176
     1
 67
     7
176
     1
 79
     5
176
     1
170
     0
176
     1
171
     0
176
     1
290
     0
176
     1
 93
        1
176
     1
 44
0.0
176
     1
173
     0
176
     1
  0
VISUALSTYLE
  5
34
102
{ACAD_REACTORS
330
2A
102
}
330
2A
100
AcDbVisualStyle
  2
Conceptual
 70
     9
177
     2
291
     0
 71
     3
176
     1
 72
     2
176
     1
 73
     0
176
     1
 90
        0
176
     1
 40
-0.6
176
     1
 41
-30.0
176
     1
 62
     5
 63
     7
421
 16777215
176
     1
 74
     2
176
     1
 91
        2
176
     1
 64
     7
176
     1
 65
   257
176
     1
 75
     1
176
     1
175
     1
176
     1
 42
40.0
176
     1
 92
        8
176
     1
 66
     7
176
     1
 43
1.0
176
     1
 76
     1
176
     1
 77
     6
176
     1
 78
     2
176
     1
 67
     7
176
     1
 79
     3
176
     1
170
     0
176
     1
171
     0
176
     1
290
     0
176
     1
 93
        1
176
     1
 44
0.0
176
     1
173
     0
176
     1
  0
VISUALSTYLE
  5
35
102
{ACAD_REACTORS
330
2A
102
}
330
2A
100
AcDbVisualStyle
  2
Dim
 70
    11
177
     2
291
     1
 71
     2
176
     1
 72
     2
176
     1
 73
     0
176
     1
 90
        0
176
     1
 40
-0.6
176
     1
 41
-30.0
176
     1
 62
     5
 63
     7
421
 16777215
176
     1
 74
     1
176
     1
 91
        4
176
     1
 64
     7
176
     1
 65
   257
176
     1
 75
     1
176
     1
175
     1
176
     1
 42
1.0
176
     1
 92
        8
176
     1
 66
     7
176
     1
 43
1.0
176
     1
 76
     1
176
     1
 77
     6
176
     1
 78
     2
176
     1
 67
     7
176
     1
 79
     5
176
     1
170
     0
176
     1
171
     0
176
     1
290
     0
176
     1
 93
        1
176
     1
 44
-50.0
176
     1
173
     0
176
     1
  0
VISUALSTYLE
  5
39
102
{ACAD_REACTORS
330
2A
102
}
330
2A
100
AcDbVisualStyle
  2
Facepattern
 70
    15
177
     2
291
     1
 71
     2
176
     1
 72
     2
176
     1
 73
     0
176
     1
 90
        0
176
     1
 40
-0.6
176
     1
 41
-30.0
176
     1
 62
     5
 63
     7
421
 16777215
176
     1
 74
     1
176
     1
 91
        4
176
     1
 64
     7
176
     1
 65
   257
176
     1
 75
     1
176
     1
175
     1
176
     1
 42
1.0
176
     1
 92
        8
176
     1
 66
     7
176
     1
 43
1.0
176
     1
 76
     1
176
     1
 77
     6
176
     1
 78
     2
176
     1
 67
     7
176
     1
 79
     5
176
     1
170
     0
176
     1
171
     0
176
     1
290
     0
176
     1
 93
        1
176
     1
 44
0.0
176
     1
173
     0
176
     1
  0
VISUALSTYLE
  5
2B
102
{ACAD_REACTORS
330
2A
102
}
330
2A
100
AcDbVisualStyle
  2
Flat
 70
     0
177
     2
291
     1
 71
     2
176
     1
 72
     1
176
     1
 73
     1
176
     1
 90
        2
176
     1
 40
-0.6
176
     1
 41
30.0
176
     1
 62
     5
 63
     7
421
 16777215
176
     1
 74
     0
176
     1
 91
        4
176
     1
 64
     7
176
     1
 65
   257
176
     1
 75
     1
176
     1
175
     1
176
     1
 42
1.0
176
     1
 92
        8
176
     1
 66
     7
176
     1
 43
1.0
176
     1
 76
     1
176
     1
 77
     6
176
     1
 78
     2
176
     1
 67
     7
176
     1
 79
     5
176
     1
170
     0
176
     1
171
     0
176
     1
290
     0
176
     1
 93
       13
176
     1
 44
0.0
176
     1
173
     0
176
     1
  0
VISUALSTYLE
  5
2C
102
{ACAD_REACTORS
330
2A
102
}
330
2A
100
AcDbVisualStyle
  2
FlatWithEdges
 70
     1
177
     2
291
     1
 71
     2
176
     1
 72
     1
176
     1
 73
     1
176
     1
 90
        2
176
     1
 40
-0.6
176
     1
 41
30.0
176
     1
 62
     5
 63
     7
421
 16777215
176
     1
 74
     1
176
     1
 91
        4
176
     1
 64
     7
176
     1
 65
   257
176
     1
 75
     1
176
     1
175
     1
176
     1
 42
1.0
176
     1
 92
        0
176
     1
 66
   257
176
     1
 43
1.0
176
     1
 76
     1
176
     1
 77
     6
176
     1
 78
     2
176
     1
 67
     7
176
     1
 79
     5
176
     1
170
     0
176
     1
171
     0
176
     1
290
     0
176
     1
 93
       13
176
     1
 44
0.0
176
     1
173
     0
176
     1
  0
VISUALSTYLE
  5
2D
102
{ACAD_REACTORS
330
2A
102
}
330
2A
100
AcDbVisualStyle
  2
Gouraud
 70
     2
177
     2
291
     1
 71
     2
176
     1
 72
     2
176
     1
 73
     1
176
     1
 90
        2
176
     1
 40
-0.6
176
     1
 41
30.0
176
     1
 62
     5
 63
     7
421
 16777215
176
     1
 74
     0
176
     1
 91
        4
176
     1
 64
     7
176
     1
 65
   257
176
     1
 75
     1
176
     1
175
     1
176
     1
 42
1.0
176
     1
 92
        0
176
     1
 66
     7
176
     1
 43
1.0
176
     1
 76
     1
176
     1
 77
     6
176
     1
 78
     2
176
     1
 67
     7
176
     1
 79
     5
176
     1
170
     0
176
     1
171
     0
176
     1
290
     0
176
     1
 93
       13
176
     1
 44
0.0
176
     1
173
     0
176
     1
  0
VISUALSTYLE
  5
2E
102
{ACAD_REACTORS
330
2A
102
}
330
2A
100
AcDbVisualStyle
  2
GouraudWithEdges
 70
     3
177
     2
291
     1
 71
     2
176
     1
 72
     2
176
     1
 73
     1
176
     1
 90
        2
176
     1
 40
-0.6
176
     1
 41
30.0
176
     1
 62
     5
 63
     7
421
 16777215
176
     1
 74
     1
176
     1
 91
        4
176
     1
 64
     7
176
     1
 65
   257
176
     1
 75
     1
176
     1
175
     1
176
     1
 42
1.0
176
     1
 92
        0
176
     1
 66
   257
176
     1
 43
1.0
176
     1
 76
     1
176
     1
 77
     6
176
     1
 78
     2
176
     1
 67
     7
176
     1
 79
     5
176
     1
170
     0
176
     1
171
     0
176
     1
290
     0
176
     1
 93
       13
176
     1
 44
0.0
176
     1
173
     0
176
     1
  0
VISUALSTYLE
  5
38
102
{ACAD_REACTORS
330
2A
102
}
330
2A
100
AcDbVisualStyle
  2
Linepattern
 70
    14
177
     2
291
     1
 71
     2
176
     1
 72
     2
176
     1
 73
     0
176
     1
 90
        0
176
     1
 40
-0.6
176
     1
 41
-30.0
176
     1
 62
     5
 63
     7
421
 16777215
176
     1
 74
     1
176
     1
 91
        4
176
     1
 64
     7
176
     1
 65
   257
176
     1
 75
     7
176
     1
175
     7
176
     1
 42
1.0
176
     1
 92
        8
176
     1
 66
     7
176
     1
 43
1.0
176
     1
 76
     1
176
     1
 77
     6
176
     1
 78
     2
176
     1
 67
     7
176
     1
 79
     5
176
     1
170
     0
176
     1
171
     0
176
     1
290
     0
176
     1
 93
        1
176
     1
 44
0.0
176
     1
173
     0
176
     1
  0
VISUALSTYLE
  5
33
102
{ACAD_REACTORS
330
2A
102
}
330
2A
100
AcDbVisualStyle
  2
Realistic
 70
     8
177
     2
291
     0
 71
     2
176
     1
 72
     2
176
     1
 73
     0
176
     1
 90
        0
176
     1
 40
-0.6
176
     1
 41
-30.0
176
     1
 62
     5
 63
     7
421
 16777215
176
     1
 74
     1
176
     1
 91
        0
176
     1
 64
     7
176
     1
 65
   257
176
     1
 75
     1
176
     1
175
     1
176
     1
 42
1.0
176
     1
 92
        8
176
     1
 66
     8
424
  7895160
176
     1
 43
1.0
176
     1
 76
     1
176
     1
 77
     6
176
     1
 78
     2
176
     1
 67
     7
176
     1
 79
     5
176
     1
170
     0
176
     1
171
     0
176
     1
290
     0
176
     1
 93
       13
176
     1
 44
0.0
176
     1
173
     0
176
     1
  0
VISUALSTYLE
  5
37
102
{ACAD_REACTORS
330
2A
102
}
330
2A
100
AcDbVisualStyle
  2
Thicken
 70
    13
177
     2
291
     1
 71
     2
176
     1
 72
     2
176
     1
 73
     0
176
     1
 90
        0
176
     1
 40
-0.6
176
     1
 41
-30.0
176
     1
 62
     5
 63
     7
421
 16777215
176
     1
 74
     1
176
     1
 91
        4
176
     1
 64
     7
176
     1
 65
   257
176
     1
 75
     1
176
     1
175
     1
176
     1
 42
1.0
176
     1
 92
       12
176
     1
 66
     7
176
     1
 43
1.0
176
     1
 76
     1
176
     1
 77
     6
176
     1
 78
     2
176
     1
 67
     7
176
     1
 79
     5
176
     1
170
     0
176
     1
171
     0
176
     1
290
     0
176
     1
 93
        1
176
     1
 44
0.0
176
     1
173
     0
176
     1
  0
ENDSEC
  0
EOF
