M48
; DRILL file {KiCad (5.1.7)-1} date 05/11/21 21:19:08
; FORMAT={-:-/ absolute / metric / decimal}
; #@! TF.CreationDate,2021-05-11T21:19:08+01:00
; #@! TF.GenerationSoftware,Kicad,Pcbnew,(5.1.7)-1
; #@! TF.FileFunction,Plated,1,2,PTH
FMAT,2
METRIC
T1C0.800
T2C1.000
T3C1.020
T4C1.780
T5C3.000
%
G90
G05
T1
X184.15Y-105.41
X182.88Y-120.65
X194.31Y-120.65
X194.31Y-133.35
X184.15Y-113.03
X196.85Y-113.03
X196.85Y-105.41
X182.88Y-133.35
T2
X133.35Y-92.71
X135.89Y-92.71
X138.43Y-92.71
X140.97Y-92.71
X143.51Y-92.71
X146.05Y-92.71
X191.77Y-138.43
X194.27Y-138.43
X180.34Y-138.43
X182.84Y-138.43
X135.89Y-139.7
X138.43Y-139.7
X140.97Y-139.7
X143.51Y-139.7
X203.2Y-105.41
X203.2Y-107.95
X203.2Y-110.49
X203.2Y-113.03
X203.2Y-127.0
X203.2Y-129.54
X203.2Y-132.08
X203.2Y-134.62
T3
X152.585Y-92.1
X152.585Y-94.64
X152.585Y-97.18
X152.585Y-99.72
X152.585Y-102.26
X152.585Y-104.8
X152.585Y-107.34
X152.585Y-109.88
X152.585Y-112.42
X152.585Y-114.96
X152.585Y-117.5
X152.585Y-120.04
X152.585Y-122.58
X152.585Y-125.12
X152.585Y-127.66
X152.585Y-130.2
X152.585Y-132.74
X152.585Y-135.28
X152.585Y-137.82
X152.585Y-140.36
X158.935Y-140.13
X161.475Y-140.13
X164.015Y-140.13
X170.365Y-92.1
X170.365Y-94.64
X170.365Y-97.18
X170.365Y-99.72
X170.365Y-102.26
X170.365Y-104.8
X170.365Y-107.34
X170.365Y-109.88
X170.365Y-112.42
X170.365Y-114.96
X170.365Y-117.5
X170.365Y-120.04
X170.365Y-122.58
X170.365Y-125.12
X170.365Y-127.66
X170.365Y-130.2
X170.365Y-132.74
X170.365Y-135.28
X170.365Y-137.82
X170.365Y-140.36
T4
X186.69Y-95.885
X191.77Y-95.885
X196.85Y-95.885
X201.93Y-95.885
T5
X211.074Y-90.106
X128.016Y-143.129
X211.01Y-143.065
X128.016Y-90.106
T0
M30
