%TF.GenerationSoftware,KiCad,Pcbnew,(5.1.7)-1*%
%TF.CreationDate,2021-05-11T21:19:05+01:00*%
%TF.ProjectId,flowcontrol-v0.1,666c6f77-636f-46e7-9472-6f6c2d76302e,rev?*%
%TF.SameCoordinates,Original*%
%TF.FileFunction,Copper,L2,Bot*%
%TF.FilePolarity,Positive*%
%FSLAX46Y46*%
G04 Gerber Fmt 4.6, Leading zero omitted, Abs format (unit mm)*
G04 Created by KiCad (PCBNEW (5.1.7)-1) date 2021-05-11 21:19:05*
%MOMM*%
%LPD*%
G01*
G04 APERTURE LIST*
%TA.AperFunction,ComponentPad*%
%ADD10C,4.000000*%
%TD*%
%TA.AperFunction,ComponentPad*%
%ADD11O,1.700000X1.700000*%
%TD*%
%TA.AperFunction,ComponentPad*%
%ADD12R,1.700000X1.700000*%
%TD*%
%TA.AperFunction,ComponentPad*%
%ADD13O,1.700000X2.000000*%
%TD*%
%TA.AperFunction,ComponentPad*%
%ADD14R,2.730000X2.730000*%
%TD*%
%TA.AperFunction,ComponentPad*%
%ADD15C,2.730000*%
%TD*%
%TA.AperFunction,ComponentPad*%
%ADD16O,1.600000X1.600000*%
%TD*%
%TA.AperFunction,ComponentPad*%
%ADD17C,1.600000*%
%TD*%
G04 APERTURE END LIST*
D10*
%TO.P,REF\u002A\u002A,1*%
%TO.N,N/C*%
X211074000Y-90106500D03*
%TD*%
%TO.P,REF\u002A\u002A,1*%
%TO.N,N/C*%
X211010500Y-143065500D03*
%TD*%
%TO.P,REF\u002A\u002A,1*%
%TO.N,N/C*%
X128016000Y-143129000D03*
%TD*%
%TO.P,REF\u002A\u002A,1*%
%TO.N,N/C*%
X128016000Y-90106500D03*
%TD*%
D11*
%TO.P,J1,4*%
%TO.N,GP6*%
X203200000Y-113030000D03*
%TO.P,J1,3*%
%TO.N,GP10*%
X203200000Y-110490000D03*
%TO.P,J1,2*%
%TO.N,12v*%
X203200000Y-107950000D03*
D12*
%TO.P,J1,1*%
%TO.N,GND*%
X203200000Y-105410000D03*
%TD*%
%TO.P,J2,1*%
%TO.N,GND*%
X203200000Y-127000000D03*
D11*
%TO.P,J2,2*%
%TO.N,12v*%
X203200000Y-129540000D03*
%TO.P,J2,3*%
%TO.N,GP11*%
X203200000Y-132080000D03*
%TO.P,J2,4*%
%TO.N,GP7*%
X203200000Y-134620000D03*
%TD*%
%TO.P,J3,1*%
%TO.N,3.3v*%
%TA.AperFunction,ComponentPad*%
G36*
G01*
X190920000Y-139180000D02*
X190920000Y-137680000D01*
G75*
G02*
X191170000Y-137430000I250000J0D01*
G01*
X192370000Y-137430000D01*
G75*
G02*
X192620000Y-137680000I0J-250000D01*
G01*
X192620000Y-139180000D01*
G75*
G02*
X192370000Y-139430000I-250000J0D01*
G01*
X191170000Y-139430000D01*
G75*
G02*
X190920000Y-139180000I0J250000D01*
G01*
G37*
%TD.AperFunction*%
D13*
%TO.P,J3,2*%
%TO.N,GP26*%
X194270000Y-138430000D03*
%TD*%
%TO.P,J4,1*%
%TO.N,3.3v*%
%TA.AperFunction,ComponentPad*%
G36*
G01*
X179490000Y-139180000D02*
X179490000Y-137680000D01*
G75*
G02*
X179740000Y-137430000I250000J0D01*
G01*
X180940000Y-137430000D01*
G75*
G02*
X181190000Y-137680000I0J-250000D01*
G01*
X181190000Y-139180000D01*
G75*
G02*
X180940000Y-139430000I-250000J0D01*
G01*
X179740000Y-139430000D01*
G75*
G02*
X179490000Y-139180000I0J250000D01*
G01*
G37*
%TD.AperFunction*%
%TO.P,J4,2*%
%TO.N,GP27*%
X182840000Y-138430000D03*
%TD*%
D14*
%TO.P,J6,1*%
%TO.N,5v*%
X186690000Y-95885000D03*
D15*
%TO.P,J6,2*%
%TO.N,GND*%
X191770000Y-95885000D03*
%TO.P,J6,3*%
X196850000Y-95885000D03*
%TO.P,J6,4*%
%TO.N,12v*%
X201930000Y-95885000D03*
%TD*%
D12*
%TO.P,J7,1*%
%TO.N,GND*%
X135890000Y-139700000D03*
D11*
%TO.P,J7,2*%
%TO.N,DIN*%
X138430000Y-139700000D03*
%TO.P,J7,3*%
%TO.N,5v*%
X140970000Y-139700000D03*
%TO.P,J7,4*%
%TO.N,Net-(J7-Pad4)*%
X143510000Y-139700000D03*
%TD*%
%TO.P,J8,6*%
%TO.N,Net-(J8-Pad6)*%
X146050000Y-92710000D03*
%TO.P,J8,5*%
%TO.N,Net-(J8-Pad4)*%
X143510000Y-92710000D03*
%TO.P,J8,4*%
X140970000Y-92710000D03*
%TO.P,J8,3*%
%TO.N,GP1*%
X138430000Y-92710000D03*
%TO.P,J8,2*%
%TO.N,GP0*%
X135890000Y-92710000D03*
D12*
%TO.P,J8,1*%
%TO.N,Net-(J8-Pad1)*%
X133350000Y-92710000D03*
%TD*%
D16*
%TO.P,R1,2*%
%TO.N,GND*%
X194310000Y-120650000D03*
D17*
%TO.P,R1,1*%
%TO.N,GP26*%
X194310000Y-133350000D03*
%TD*%
D16*
%TO.P,R2,2*%
%TO.N,GND*%
X182880000Y-120650000D03*
D17*
%TO.P,R2,1*%
%TO.N,GP27*%
X182880000Y-133350000D03*
%TD*%
%TO.P,R3,1*%
%TO.N,5v*%
X184150000Y-105410000D03*
D16*
%TO.P,R3,2*%
%TO.N,GP10*%
X196850000Y-105410000D03*
%TD*%
D17*
%TO.P,R4,1*%
%TO.N,5v*%
X184150000Y-113030000D03*
D16*
%TO.P,R4,2*%
%TO.N,GP11*%
X196850000Y-113030000D03*
%TD*%
D11*
%TO.P,U1,43*%
%TO.N,N/C*%
X164015000Y-140130001D03*
D12*
%TO.P,U1,42*%
X161475000Y-140130001D03*
D11*
%TO.P,U1,41*%
X158935000Y-140130001D03*
%TO.P,U1,40*%
%TO.N,Net-(U1-Pad40)*%
X170365000Y-92100001D03*
%TO.P,U1,39*%
%TO.N,5v*%
X170365000Y-94640001D03*
D12*
%TO.P,U1,38*%
%TO.N,GND*%
X170365000Y-97180001D03*
D11*
%TO.P,U1,37*%
%TO.N,Net-(U1-Pad37)*%
X170365000Y-99720001D03*
%TO.P,U1,36*%
%TO.N,3.3v*%
X170365000Y-102260001D03*
%TO.P,U1,35*%
%TO.N,Net-(U1-Pad35)*%
X170365000Y-104800001D03*
%TO.P,U1,34*%
%TO.N,Net-(U1-Pad34)*%
X170365000Y-107340001D03*
D12*
%TO.P,U1,33*%
%TO.N,Net-(U1-Pad33)*%
X170365000Y-109880001D03*
D11*
%TO.P,U1,32*%
%TO.N,GP27*%
X170365000Y-112420001D03*
%TO.P,U1,31*%
%TO.N,GP26*%
X170365000Y-114960001D03*
%TO.P,U1,30*%
%TO.N,Net-(U1-Pad30)*%
X170365000Y-117500001D03*
%TO.P,U1,29*%
%TO.N,DIN*%
X170365000Y-120040001D03*
D12*
%TO.P,U1,28*%
%TO.N,Net-(U1-Pad28)*%
X170365000Y-122580001D03*
D11*
%TO.P,U1,27*%
%TO.N,Net-(U1-Pad27)*%
X170365000Y-125120001D03*
%TO.P,U1,26*%
%TO.N,Net-(U1-Pad26)*%
X170365000Y-127660001D03*
%TO.P,U1,25*%
%TO.N,Net-(U1-Pad25)*%
X170365000Y-130200001D03*
%TO.P,U1,24*%
%TO.N,Net-(U1-Pad24)*%
X170365000Y-132740001D03*
D12*
%TO.P,U1,23*%
%TO.N,Net-(U1-Pad23)*%
X170365000Y-135280001D03*
D11*
%TO.P,U1,22*%
%TO.N,Net-(U1-Pad22)*%
X170365000Y-137820001D03*
%TO.P,U1,21*%
%TO.N,Net-(U1-Pad21)*%
X170365000Y-140360001D03*
%TO.P,U1,20*%
%TO.N,Net-(U1-Pad20)*%
X152585000Y-140360001D03*
%TO.P,U1,19*%
%TO.N,Net-(U1-Pad19)*%
X152585000Y-137820001D03*
D12*
%TO.P,U1,18*%
%TO.N,Net-(U1-Pad18)*%
X152585000Y-135280001D03*
D11*
%TO.P,U1,17*%
%TO.N,Net-(U1-Pad17)*%
X152585000Y-132740001D03*
%TO.P,U1,16*%
%TO.N,Net-(U1-Pad16)*%
X152585000Y-130200001D03*
%TO.P,U1,15*%
%TO.N,GP11*%
X152585000Y-127660001D03*
%TO.P,U1,14*%
%TO.N,GP10*%
X152585000Y-125120001D03*
D12*
%TO.P,U1,13*%
%TO.N,Net-(U1-Pad13)*%
X152585000Y-122580001D03*
D11*
%TO.P,U1,12*%
%TO.N,Net-(U1-Pad12)*%
X152585000Y-120040001D03*
%TO.P,U1,11*%
%TO.N,Net-(U1-Pad11)*%
X152585000Y-117500001D03*
%TO.P,U1,10*%
%TO.N,GP7*%
X152585000Y-114960001D03*
%TO.P,U1,9*%
%TO.N,GP6*%
X152585000Y-112420001D03*
D12*
%TO.P,U1,8*%
%TO.N,Net-(U1-Pad8)*%
X152585000Y-109880001D03*
D11*
%TO.P,U1,7*%
%TO.N,Net-(U1-Pad7)*%
X152585000Y-107340001D03*
%TO.P,U1,6*%
%TO.N,Net-(U1-Pad6)*%
X152585000Y-104800001D03*
%TO.P,U1,5*%
%TO.N,Net-(U1-Pad5)*%
X152585000Y-102260001D03*
%TO.P,U1,4*%
%TO.N,Net-(U1-Pad4)*%
X152585000Y-99720001D03*
D12*
%TO.P,U1,3*%
%TO.N,Net-(U1-Pad3)*%
X152585000Y-97180001D03*
D11*
%TO.P,U1,2*%
%TO.N,GP1*%
X152585000Y-94640001D03*
%TO.P,U1,1*%
%TO.N,GP0*%
X152585000Y-92100001D03*
%TD*%
M02*
