<svg xmlns="http://www.w3.org/2000/svg" viewBox="0 0 485.87 65.11"><defs><style>.cls-1{fill:#925c4e;}</style></defs><title>Asset 6</title><g id="Layer_2" data-name="Layer 2"><g id="Icons"><path class="cls-1" d="M26.24,41.58A10.29,10.29,0,1,1,36.53,31.29,10.29,10.29,0,0,1,26.24,41.58Zm0-18a7.7,7.7,0,1,0,7.69,7.7h0a7.7,7.7,0,0,0-7.69-7.7Z"/><path class="cls-1" d="M18.91,27.38a1.27,1.27,0,0,1-1.17-.72c-4.52-9.17-16-7.91-16.16-7.9A1.29,1.29,0,0,1,.15,17.62a16.88,16.88,0,0,1,.88-8A14.59,14.59,0,0,1,9.38,1.15a16.06,16.06,0,0,1,12.92.43C33.5,7,31.69,22.78,31.61,23.45A1.29,1.29,0,0,1,29,23.14h0c0-.15,1.65-14.66-7.86-19.22a13.48,13.48,0,0,0-10.83-.36,12,12,0,0,0-6.9,6.94,14.15,14.15,0,0,0-.83,5.62c3.58-.05,13.14.64,17.45,9.4a1.3,1.3,0,0,1-.59,1.74h0a1.27,1.27,0,0,1-.57.12Z"/><path class="cls-1" d="M17.67,64.17A14.66,14.66,0,0,1,8.56,61,16,16,0,0,1,2.47,49.55c-1-12.37,13.66-18.73,14.29-19a1.3,1.3,0,0,1,1.68.72,1.28,1.28,0,0,1-.67,1.67c-.14.06-13.52,5.9-12.72,16.42a13.5,13.5,0,0,0,5.11,9.56,12,12,0,0,0,9.47,2.49,13.88,13.88,0,0,0,5.28-2.08c-1.81-3-6-11.69-.58-19.81A1.29,1.29,0,1,1,26.48,41c-5.66,8.46,1,17.56,1.24,17.94a1.3,1.3,0,0,1-.26,1.82h0A16.92,16.92,0,0,1,20,64,14.49,14.49,0,0,1,17.67,64.17Z"/><path class="cls-1" d="M44.57,44.82c-4.38,0-9.18-1.59-14.35-4.74a1.3,1.3,0,0,1,1.29-2.25l.06,0c6.58,4,12.4,5.27,17.29,3.71a15.82,15.82,0,0,0,8.91-8.09c3-7.83-3.89-13.22-6.88-15.12C47,27.75,35,28.78,34.5,28.82a1.3,1.3,0,0,1-.2-2.59c.12,0,12-1.05,14.65-10.15a1.3,1.3,0,0,1,1.61-.88l.22.09c4.84,2.47,13,9.63,9.4,19.16A18.22,18.22,0,0,1,49.69,44a16.84,16.84,0,0,1-5.12.79Z"/><path class="cls-1" d="M123.36,53a8.26,8.26,0,0,0,1.36,4.93,4.57,4.57,0,0,0,4,1.91,1,1,0,0,1,1.08,1.08v2.16a1,1,0,0,1-1.08,1.08H108a1,1,0,0,1-1.08-1.08V60.93A1,1,0,0,1,108,59.85a4.48,4.48,0,0,0,3.89-1.91A8.26,8.26,0,0,0,113.28,53V22.7a8.32,8.32,0,0,0-.36-3.09c-.24-.48-.75-.63-1.52-.44l-7.56,1.66-.14.07c-.29,0-.46-.17-.5-.5a1.88,1.88,0,0,1,.14-1,9.75,9.75,0,0,0,1.37-4.75,4.41,4.41,0,0,0-1-3,3.13,3.13,0,0,0-2.42-1.08,3.83,3.83,0,0,0-3,1.59Q96,15,96,23.42v4.75h9.65a1,1,0,0,1,1.07,1.08v3.1a1,1,0,0,1-1.07,1.08H96.07V53a8.19,8.19,0,0,0,1.37,4.93,4.47,4.47,0,0,0,3.88,1.91,1,1,0,0,1,1.08,1.08v2.16a1,1,0,0,1-1.08,1.08H80.66a1,1,0,0,1-1.08-1.08V60.93a1,1,0,0,1,1.08-1.08,4.55,4.55,0,0,0,4-1.91A8,8,0,0,0,85.92,53V40.7c0-1.05,0-1.86,0-2.41a14.15,14.15,0,0,0-.29-2.12,4.33,4.33,0,0,0-.79-2A5.14,5.14,0,0,0,83.22,33a5.54,5.54,0,0,0-2.56-.54,1,1,0,0,1-1.08-1.08V29.25a1,1,0,0,1,1.08-1.08h5.4L86,27.6a28.62,28.62,0,0,1,.86-6.91A27.63,27.63,0,0,1,89.55,14a14.46,14.46,0,0,1,5.22-5.32,15,15,0,0,1,7.92-2.06q8.93,0,10.88,5.19a38.24,38.24,0,0,0,9.14-5l.29-.15h.21q.08,0,.15.15Z"/><path class="cls-1" d="M143.3,28.82a18.58,18.58,0,0,1,7.27-1.51,18.28,18.28,0,0,1,10.12,3.06,19,19,0,0,1,7.09,8.31,19.24,19.24,0,0,1,1.73,7.85,18.64,18.64,0,0,1-2.88,10.08,17.42,17.42,0,0,1-7.92,6.84A17.22,17.22,0,0,1,151.44,65,18.36,18.36,0,0,1,141.25,62a18.94,18.94,0,0,1-7.09-8.32,20.29,20.29,0,0,1-1.66-7.92,18.64,18.64,0,0,1,2.88-10.08A17.48,17.48,0,0,1,143.3,28.82Zm2.16,4.9q-4.4,1.88-4.39,7.56a21.28,21.28,0,0,0,2,8.42,22,22,0,0,0,4.65,6.88,8.43,8.43,0,0,0,5.94,2.7,7.37,7.37,0,0,0,2.88-.65q4.32-2,4.32-7.56a20.84,20.84,0,0,0-2-8.43,21.43,21.43,0,0,0-4.61-6.84,8.43,8.43,0,0,0-5.9-2.73A6.85,6.85,0,0,0,145.46,33.72Z"/><path class="cls-1" d="M234.38,28.17a1,1,0,0,1,1.08,1.08v2.16a1,1,0,0,1-1.08,1.08H233.3a2.79,2.79,0,0,0-2.05.94A14.24,14.24,0,0,0,229.12,37L217.68,63.38a1.18,1.18,0,0,1-1.23.79h-3.81a1.39,1.39,0,0,1-1.3-.79l-9.5-22-9.51,22a1.16,1.16,0,0,1-1.22.79h-3.82a1.38,1.38,0,0,1-1.29-.79L174.62,37a14.1,14.1,0,0,0-2-3.64,2.84,2.84,0,0,0-2.2-.9h-.14a1,1,0,0,1-1.08-1.08V29.25a1,1,0,0,1,1.08-1.08h16.63A1,1,0,0,1,188,29.25v2.16a1,1,0,0,1-1.08,1.08h-.14c-1.63,0-2.45.7-2.45,2.09a12.48,12.48,0,0,0,1.51,4.75l5.76,13.47,6.19-15.34a9.23,9.23,0,0,0,.94-3.45,1.34,1.34,0,0,0-1.51-1.52h-1.59a1,1,0,0,1-.93-1.08V29.25c0-.72.33-1.08,1-1.08H213a1,1,0,0,1,1.08,1.08v2.16A1,1,0,0,1,213,32.49h-.87c-1.63,0-2.45.7-2.45,2.09a13.55,13.55,0,0,0,1.44,4.75L217,52.8l6.19-15.34a9.38,9.38,0,0,0,.93-3.45,1.34,1.34,0,0,0-1.51-1.52h-1.44a1,1,0,0,1-1.08-1.08V29.25a1,1,0,0,1,1.08-1.08Z"/><path class="cls-1" d="M267.79,54.45a1.12,1.12,0,0,1,.43,1.52q-3.68,7.77-13.1,8.78a18.9,18.9,0,0,1-2,.07,15.65,15.65,0,0,1-12.85-6.19A19.43,19.43,0,0,1,236,44.44q.71-8.34,6-12.74a18.52,18.52,0,0,1,12.1-4.39l1.37.07q6,.44,9.14,3.17a11.81,11.81,0,0,1,3.89,6.69l.07.29a1,1,0,0,1-.86,1l-8.28,2.16a2.11,2.11,0,0,1-.58.14.71.71,0,0,1-.47-.14.3.3,0,0,1-.1-.36l.07-.79q.44-6.48-5.91-6.48a5.8,5.8,0,0,0-5,2.56,13.16,13.16,0,0,0-2.16,6.51c0,.62-.07,1.54-.07,2.74a19.09,19.09,0,0,0,2.34,9.9q2.34,3.91,7.45,3.92l.65,0a7,7,0,0,1,.72,0,10.49,10.49,0,0,0,8-5.19,1.21,1.21,0,0,1,.87-.5,1,1,0,0,1,.65.22Z"/><path class="cls-1" d="M282.55,28.82a18.58,18.58,0,0,1,7.27-1.51,18.28,18.28,0,0,1,10.12,3.06,19.58,19.58,0,0,1,8.82,16.16,18.64,18.64,0,0,1-2.88,10.08A17.42,17.42,0,0,1,298,63.45,17.23,17.23,0,0,1,290.68,65,18.35,18.35,0,0,1,280.5,62a19,19,0,0,1-7.1-8.32,20.45,20.45,0,0,1-1.65-7.92,18.64,18.64,0,0,1,2.88-10.08A17.48,17.48,0,0,1,282.55,28.82Zm2.16,4.9q-4.4,1.88-4.39,7.56a21.28,21.28,0,0,0,2,8.42A22,22,0,0,0,287,56.58a8.39,8.39,0,0,0,5.94,2.7,7.37,7.37,0,0,0,2.88-.65q4.32-2,4.32-7.56a21,21,0,0,0-2-8.43,21.6,21.6,0,0,0-4.61-6.84,8.43,8.43,0,0,0-5.9-2.73A6.85,6.85,0,0,0,284.71,33.72Z"/><path class="cls-1" d="M357.57,59.85a1,1,0,0,1,1.08,1.08v2.16a1,1,0,0,1-1.08,1.08H338a1,1,0,0,1-1.08-1.08V60.93c0-.72.38-1.08,1.15-1.08q3.88,0,3.74-6.84V41.49c0-1,0-1.77,0-2.3a14.82,14.82,0,0,0-.29-2,4.55,4.55,0,0,0-.76-1.91,4.19,4.19,0,0,0-1.54-1.15,5.81,5.81,0,0,0-2.56-.51,8.7,8.7,0,0,0-5.18,1.91,9.9,9.9,0,0,0-3.53,4.28V53a8.19,8.19,0,0,0,1.37,4.93,4.47,4.47,0,0,0,3.88,1.91h.15a1,1,0,0,1,1.08,1.08v2.16a1,1,0,0,1-1.08,1.08H312.36a1,1,0,0,1-1.08-1.08V60.93a1,1,0,0,1,1.08-1.08h.14a4.5,4.5,0,0,0,3.89-1.91A8.26,8.26,0,0,0,317.76,53V43.94c0-1.15,0-2.11-.11-2.88a11.91,11.91,0,0,0-.51-2.45,4.16,4.16,0,0,0-1.29-2,4.25,4.25,0,0,0-2.34-.9.84.84,0,0,1-.87-.94V32.28c0-.48.36-.8,1.08-.94a37.42,37.42,0,0,0,8.46-2.3,28.88,28.88,0,0,0,5.73-2.95,1.19,1.19,0,0,1,.36-.15h.14c.1,0,.15,0,.15.07l-1.3,9.51q5.17-8.28,12.45-8.28a15.07,15.07,0,0,1,6.23,1.15,8,8,0,0,1,3.78,3.24A14.71,14.71,0,0,1,351.45,36a23.64,23.64,0,0,1,.51,5.15V53a8.26,8.26,0,0,0,1.36,4.93,4.48,4.48,0,0,0,3.89,1.91Z"/><path class="cls-1" d="M383.64,59a1.07,1.07,0,0,1,.21.65c0,.29-.19.55-.57.79l-2.16,1.37A18.82,18.82,0,0,1,371,65.11q-8.28,0-8.28-11.09V40.7c0-1,0-1.8,0-2.38a13.68,13.68,0,0,0-.33-2.15,4.83,4.83,0,0,0-.79-2A4.54,4.54,0,0,0,360,33a5.47,5.47,0,0,0-2.55-.54,1,1,0,0,1-1.08-1.08V29.25a1,1,0,0,1,1.08-1.08h5.25V23.35a1.37,1.37,0,0,1,.65-1.3,54.64,54.64,0,0,0,8.79-6,1.19,1.19,0,0,1,.36-.15h.07q.21,0,.21.15V28.17h9.65a1,1,0,0,1,1.08,1.08v3.1a1,1,0,0,1-1.08,1.08h-9.65V54q0,4.9,3,4.9,1.72,0,5.11-2.09H381a1,1,0,0,1,.65-.22,1.16,1.16,0,0,1,.86.51Z"/><path class="cls-1" d="M402,35.73a14.71,14.71,0,0,1,5.3-6.26,13.21,13.21,0,0,1,7.38-2.23,8.71,8.71,0,0,1,5.83,1.94,6.79,6.79,0,0,1,2.3,5.47c0,2.55-.62,4.08-1.87,4.61L414.16,42a1.23,1.23,0,0,1-.65.14.57.57,0,0,1-.64-.65,2.16,2.16,0,0,1,.14-.65,9.08,9.08,0,0,0,.65-3.6q0-3.74-3.39-3.74a6.12,6.12,0,0,0-4.32,2,12,12,0,0,0-2.88,4.28V53a8.26,8.26,0,0,0,1.37,4.93,4.48,4.48,0,0,0,3.89,1.91h.14a1,1,0,0,1,1.08,1.08v2.16a1,1,0,0,1-1.08,1.08h-21a1,1,0,0,1-1.08-1.08V60.93a1,1,0,0,1,1.08-1.08h.15a4.48,4.48,0,0,0,3.88-1.91A8.26,8.26,0,0,0,392.92,53V43.94c0-1.15,0-2.11-.11-2.88a12.55,12.55,0,0,0-.5-2.45,4.18,4.18,0,0,0-1.3-2,4.25,4.25,0,0,0-2.34-.9.84.84,0,0,1-.86-.94V32.28c0-.48.36-.8,1.08-.94a37.71,37.71,0,0,0,8.46-2.3,28.75,28.75,0,0,0,5.72-2.95,1.19,1.19,0,0,1,.36-.15h.15c.09,0,.14,0,.14.07Z"/><path class="cls-1" d="M435.4,28.82a18.61,18.61,0,0,1,7.27-1.51,18.25,18.25,0,0,1,10.12,3.06,19,19,0,0,1,7.09,8.31,19.24,19.24,0,0,1,1.73,7.85,18.64,18.64,0,0,1-2.88,10.08,17.42,17.42,0,0,1-7.92,6.84A17.19,17.19,0,0,1,443.54,65,18.36,18.36,0,0,1,433.35,62a19,19,0,0,1-7.09-8.32,20.29,20.29,0,0,1-1.66-7.92,18.64,18.64,0,0,1,2.88-10.08A17.48,17.48,0,0,1,435.4,28.82Zm2.16,4.9q-4.4,1.88-4.39,7.56a21.13,21.13,0,0,0,2,8.42,21.83,21.83,0,0,0,4.64,6.88,8.43,8.43,0,0,0,5.94,2.7,7.37,7.37,0,0,0,2.88-.65q4.32-2,4.32-7.56a20.84,20.84,0,0,0-2-8.43,21.58,21.58,0,0,0-4.6-6.84,8.45,8.45,0,0,0-5.91-2.73A6.85,6.85,0,0,0,437.56,33.72Z"/><path class="cls-1" d="M479.47,53a8.26,8.26,0,0,0,1.36,4.93,4.57,4.57,0,0,0,4,1.91,1,1,0,0,1,1.08,1.08v2.16a1,1,0,0,1-1.08,1.08H464.13a1,1,0,0,1-1.08-1.08V60.93a1,1,0,0,1,1.08-1.08,4.55,4.55,0,0,0,4-1.91,8,8,0,0,0,1.3-4.93V26c0-1.15,0-2.12-.11-2.91a11.86,11.86,0,0,0-.51-2.49,3.83,3.83,0,0,0-1.33-2,4.56,4.56,0,0,0-2.37-.87c-.63,0-.89-.36-.8-.93V14.35c0-.38.34-.7,1-.94a46.62,46.62,0,0,0,13.54-6.69l.29-.15h.21q.07,0,.15.15Z"/></g></g></svg>