<svg xmlns="http://www.w3.org/2000/svg" viewBox="0 0 325.93 342.44"><defs><style>.cls-1{fill:#f7ead4;}</style></defs><title>Asset 2</title><g id="Layer_2" data-name="Layer 2"><g id="Icons"><path class="cls-1" d="M140,221.86a54.9,54.9,0,1,1,54.9-54.9A54.9,54.9,0,0,1,140,221.86Zm0-96A41.07,41.07,0,1,0,181.08,167h0A41.12,41.12,0,0,0,140,125.9Z"/><path class="cls-1" d="M100.88,146.13a6.9,6.9,0,0,1-6.22-3.86C70.57,93.33,9.07,100.06,8.45,100.1a6.91,6.91,0,0,1-7.67-6,90.49,90.49,0,0,1,4.71-42.9,77.78,77.78,0,0,1,44.57-45,85.84,85.84,0,0,1,69,2.28c59.72,28.65,50.11,113.13,49.67,116.72A6.92,6.92,0,0,1,155,123.46h0c.1-.78,8.82-78.23-41.92-102.56A72,72,0,0,0,55.22,19,64,64,0,0,0,18.44,56,74.73,74.73,0,0,0,14,86c19.12-.29,70.1,3.42,93.12,50.17a6.93,6.93,0,0,1-3.16,9.26h0a6.74,6.74,0,0,1-3.06.68Z"/><path class="cls-1" d="M94.28,342.44a78.39,78.39,0,0,1-48.59-17.13,85.9,85.9,0,0,1-32.52-60.89c-5.06-66,72.92-100,76.24-101.37a6.92,6.92,0,0,1,5.42,12.73c-.73.31-72.16,31.48-67.86,87.59a72,72,0,0,0,27.25,51,64,64,0,0,0,50.51,13.32,74.61,74.61,0,0,0,28.2-11.12c-9.69-16.18-32.1-62.4-3.11-105.72a6.92,6.92,0,0,1,11.5,7.7c-30.23,45.15,5.08,93.71,6.6,95.75a6.91,6.91,0,0,1-1.39,9.68h0A90.35,90.35,0,0,1,107,341.37,78.06,78.06,0,0,1,94.28,342.44Z"/><path class="cls-1" d="M237.81,239.16c-23.33,0-49-8.45-76.57-25.3a6.91,6.91,0,1,1,6.91-12l.3.17c35.15,21.45,66.21,28.12,92.27,19.79a84.71,84.71,0,0,0,47.55-43.16c15.91-41.81-20.76-70.57-36.71-80.73-20.88,50.12-84.62,55.6-87.46,55.82A6.92,6.92,0,0,1,183,140c.64-.05,63.92-5.62,78.18-54.14a6.92,6.92,0,0,1,8.59-4.69,7.18,7.18,0,0,1,1.19.47c25.79,13.15,69.48,51.37,50.14,102.24a97.32,97.32,0,0,1-56,51.1,89,89,0,0,1-27.34,4.21Z"/></g></g></svg>