%TF.GenerationSoftware,KiCad,Pcbnew,(5.1.10)-1*%
%TF.CreationDate,2021-10-27T22:41:58+01:00*%
%TF.ProjectId,flowcontrol,666c6f77-636f-46e7-9472-6f6c2e6b6963,rev?*%
%TF.SameCoordinates,Original*%
%TF.FileFunction,Soldermask,Top*%
%TF.FilePolarity,Negative*%
%FSLAX46Y46*%
G04 Gerber Fmt 4.6, Leading zero omitted, Abs format (unit mm)*
G04 Created by KiCad (PCBNEW (5.1.10)-1) date 2021-10-27 22:41:58*
%MOMM*%
%LPD*%
G01*
G04 APERTURE LIST*
%ADD10O,1.700000X1.700000*%
%ADD11R,1.700000X1.700000*%
%ADD12O,1.700000X2.000000*%
%ADD13C,2.400000*%
%ADD14R,1.550000X1.300000*%
%ADD15C,3.000000*%
%ADD16R,2.500000X1.800000*%
%ADD17R,1.700000X3.500000*%
%ADD18O,1.800000X1.800000*%
%ADD19O,1.500000X1.500000*%
%ADD20R,3.500000X1.700000*%
%ADD21R,4.500000X2.000000*%
G04 APERTURE END LIST*
D10*
%TO.C,J7*%
X171450000Y-112776000D03*
X173990000Y-112776000D03*
X176530000Y-112776000D03*
D11*
X179070000Y-112776000D03*
%TD*%
D12*
%TO.C,J4*%
X158790000Y-72644000D03*
G36*
G01*
X162140000Y-71894000D02*
X162140000Y-73394000D01*
G75*
G02*
X161890000Y-73644000I-250000J0D01*
G01*
X160690000Y-73644000D01*
G75*
G02*
X160440000Y-73394000I0J250000D01*
G01*
X160440000Y-71894000D01*
G75*
G02*
X160690000Y-71644000I250000J0D01*
G01*
X161890000Y-71644000D01*
G75*
G02*
X162140000Y-71894000I0J-250000D01*
G01*
G37*
%TD*%
%TO.C,J3*%
X172760000Y-72644000D03*
G36*
G01*
X176110000Y-71894000D02*
X176110000Y-73394000D01*
G75*
G02*
X175860000Y-73644000I-250000J0D01*
G01*
X174660000Y-73644000D01*
G75*
G02*
X174410000Y-73394000I0J250000D01*
G01*
X174410000Y-71894000D01*
G75*
G02*
X174660000Y-71644000I250000J0D01*
G01*
X175860000Y-71644000D01*
G75*
G02*
X176110000Y-71894000I0J-250000D01*
G01*
G37*
%TD*%
D13*
%TO.C,J6*%
X175260000Y-86360000D03*
X175260000Y-91440000D03*
X175260000Y-96520000D03*
X175260000Y-101600000D03*
%TD*%
%TO.C,R12*%
G36*
G01*
X170288000Y-84349000D02*
X170288000Y-83799000D01*
G75*
G02*
X170488000Y-83599000I200000J0D01*
G01*
X170888000Y-83599000D01*
G75*
G02*
X171088000Y-83799000I0J-200000D01*
G01*
X171088000Y-84349000D01*
G75*
G02*
X170888000Y-84549000I-200000J0D01*
G01*
X170488000Y-84549000D01*
G75*
G02*
X170288000Y-84349000I0J200000D01*
G01*
G37*
G36*
G01*
X168638000Y-84349000D02*
X168638000Y-83799000D01*
G75*
G02*
X168838000Y-83599000I200000J0D01*
G01*
X169238000Y-83599000D01*
G75*
G02*
X169438000Y-83799000I0J-200000D01*
G01*
X169438000Y-84349000D01*
G75*
G02*
X169238000Y-84549000I-200000J0D01*
G01*
X168838000Y-84549000D01*
G75*
G02*
X168638000Y-84349000I0J200000D01*
G01*
G37*
%TD*%
%TO.C,R11*%
G36*
G01*
X165462000Y-84411000D02*
X165462000Y-83861000D01*
G75*
G02*
X165662000Y-83661000I200000J0D01*
G01*
X166062000Y-83661000D01*
G75*
G02*
X166262000Y-83861000I0J-200000D01*
G01*
X166262000Y-84411000D01*
G75*
G02*
X166062000Y-84611000I-200000J0D01*
G01*
X165662000Y-84611000D01*
G75*
G02*
X165462000Y-84411000I0J200000D01*
G01*
G37*
G36*
G01*
X163812000Y-84411000D02*
X163812000Y-83861000D01*
G75*
G02*
X164012000Y-83661000I200000J0D01*
G01*
X164412000Y-83661000D01*
G75*
G02*
X164612000Y-83861000I0J-200000D01*
G01*
X164612000Y-84411000D01*
G75*
G02*
X164412000Y-84611000I-200000J0D01*
G01*
X164012000Y-84611000D01*
G75*
G02*
X163812000Y-84411000I0J200000D01*
G01*
G37*
%TD*%
%TO.C,R10*%
G36*
G01*
X165462000Y-86635000D02*
X165462000Y-86085000D01*
G75*
G02*
X165662000Y-85885000I200000J0D01*
G01*
X166062000Y-85885000D01*
G75*
G02*
X166262000Y-86085000I0J-200000D01*
G01*
X166262000Y-86635000D01*
G75*
G02*
X166062000Y-86835000I-200000J0D01*
G01*
X165662000Y-86835000D01*
G75*
G02*
X165462000Y-86635000I0J200000D01*
G01*
G37*
G36*
G01*
X163812000Y-86635000D02*
X163812000Y-86085000D01*
G75*
G02*
X164012000Y-85885000I200000J0D01*
G01*
X164412000Y-85885000D01*
G75*
G02*
X164612000Y-86085000I0J-200000D01*
G01*
X164612000Y-86635000D01*
G75*
G02*
X164412000Y-86835000I-200000J0D01*
G01*
X164012000Y-86835000D01*
G75*
G02*
X163812000Y-86635000I0J200000D01*
G01*
G37*
%TD*%
%TO.C,R9*%
G36*
G01*
X170288000Y-86635000D02*
X170288000Y-86085000D01*
G75*
G02*
X170488000Y-85885000I200000J0D01*
G01*
X170888000Y-85885000D01*
G75*
G02*
X171088000Y-86085000I0J-200000D01*
G01*
X171088000Y-86635000D01*
G75*
G02*
X170888000Y-86835000I-200000J0D01*
G01*
X170488000Y-86835000D01*
G75*
G02*
X170288000Y-86635000I0J200000D01*
G01*
G37*
G36*
G01*
X168638000Y-86635000D02*
X168638000Y-86085000D01*
G75*
G02*
X168838000Y-85885000I200000J0D01*
G01*
X169238000Y-85885000D01*
G75*
G02*
X169438000Y-86085000I0J-200000D01*
G01*
X169438000Y-86635000D01*
G75*
G02*
X169238000Y-86835000I-200000J0D01*
G01*
X168838000Y-86835000D01*
G75*
G02*
X168638000Y-86635000I0J200000D01*
G01*
G37*
%TD*%
D10*
%TO.C,J11*%
X133604000Y-74930000D03*
X131064000Y-74930000D03*
X128524000Y-74930000D03*
D11*
X125984000Y-74930000D03*
%TD*%
D10*
%TO.C,J10*%
X119126000Y-74930000D03*
X116586000Y-74930000D03*
X114046000Y-74930000D03*
D11*
X111506000Y-74930000D03*
%TD*%
D10*
%TO.C,J9*%
X140208000Y-112776000D03*
X142748000Y-112776000D03*
X145288000Y-112776000D03*
D11*
X147828000Y-112776000D03*
%TD*%
D10*
%TO.C,J8*%
X125984000Y-112776000D03*
X128524000Y-112776000D03*
X131064000Y-112776000D03*
D11*
X133604000Y-112776000D03*
%TD*%
D10*
%TO.C,J5*%
X165354000Y-113030000D03*
X165354000Y-110490000D03*
X162814000Y-113030000D03*
X162814000Y-110490000D03*
X160274000Y-113030000D03*
X160274000Y-110490000D03*
X157734000Y-113030000D03*
X157734000Y-110490000D03*
X155194000Y-113030000D03*
D11*
X155194000Y-110490000D03*
%TD*%
D14*
%TO.C,SW1*%
X160806000Y-103362000D03*
X160806000Y-98862000D03*
X152856000Y-98862000D03*
X152856000Y-103362000D03*
%TD*%
%TO.C,C6*%
G36*
G01*
X168572000Y-103870000D02*
X168572000Y-103370000D01*
G75*
G02*
X168797000Y-103145000I225000J0D01*
G01*
X169247000Y-103145000D01*
G75*
G02*
X169472000Y-103370000I0J-225000D01*
G01*
X169472000Y-103870000D01*
G75*
G02*
X169247000Y-104095000I-225000J0D01*
G01*
X168797000Y-104095000D01*
G75*
G02*
X168572000Y-103870000I0J225000D01*
G01*
G37*
G36*
G01*
X170122000Y-103870000D02*
X170122000Y-103370000D01*
G75*
G02*
X170347000Y-103145000I225000J0D01*
G01*
X170797000Y-103145000D01*
G75*
G02*
X171022000Y-103370000I0J-225000D01*
G01*
X171022000Y-103870000D01*
G75*
G02*
X170797000Y-104095000I-225000J0D01*
G01*
X170347000Y-104095000D01*
G75*
G02*
X170122000Y-103870000I0J225000D01*
G01*
G37*
%TD*%
%TO.C,C4*%
G36*
G01*
X168572000Y-98790000D02*
X168572000Y-98290000D01*
G75*
G02*
X168797000Y-98065000I225000J0D01*
G01*
X169247000Y-98065000D01*
G75*
G02*
X169472000Y-98290000I0J-225000D01*
G01*
X169472000Y-98790000D01*
G75*
G02*
X169247000Y-99015000I-225000J0D01*
G01*
X168797000Y-99015000D01*
G75*
G02*
X168572000Y-98790000I0J225000D01*
G01*
G37*
G36*
G01*
X170122000Y-98790000D02*
X170122000Y-98290000D01*
G75*
G02*
X170347000Y-98065000I225000J0D01*
G01*
X170797000Y-98065000D01*
G75*
G02*
X171022000Y-98290000I0J-225000D01*
G01*
X171022000Y-98790000D01*
G75*
G02*
X170797000Y-99015000I-225000J0D01*
G01*
X170347000Y-99015000D01*
G75*
G02*
X170122000Y-98790000I0J225000D01*
G01*
G37*
%TD*%
D15*
%TO.C,REF\u002A\u002A*%
X184454800Y-120421400D03*
%TD*%
%TO.C,R5*%
G36*
G01*
X165450000Y-95667000D02*
X165450000Y-95117000D01*
G75*
G02*
X165650000Y-94917000I200000J0D01*
G01*
X166050000Y-94917000D01*
G75*
G02*
X166250000Y-95117000I0J-200000D01*
G01*
X166250000Y-95667000D01*
G75*
G02*
X166050000Y-95867000I-200000J0D01*
G01*
X165650000Y-95867000D01*
G75*
G02*
X165450000Y-95667000I0J200000D01*
G01*
G37*
G36*
G01*
X163800000Y-95667000D02*
X163800000Y-95117000D01*
G75*
G02*
X164000000Y-94917000I200000J0D01*
G01*
X164400000Y-94917000D01*
G75*
G02*
X164600000Y-95117000I0J-200000D01*
G01*
X164600000Y-95667000D01*
G75*
G02*
X164400000Y-95867000I-200000J0D01*
G01*
X164000000Y-95867000D01*
G75*
G02*
X163800000Y-95667000I0J200000D01*
G01*
G37*
%TD*%
%TO.C,R6*%
G36*
G01*
X168638000Y-95667000D02*
X168638000Y-95117000D01*
G75*
G02*
X168838000Y-94917000I200000J0D01*
G01*
X169238000Y-94917000D01*
G75*
G02*
X169438000Y-95117000I0J-200000D01*
G01*
X169438000Y-95667000D01*
G75*
G02*
X169238000Y-95867000I-200000J0D01*
G01*
X168838000Y-95867000D01*
G75*
G02*
X168638000Y-95667000I0J200000D01*
G01*
G37*
G36*
G01*
X170288000Y-95667000D02*
X170288000Y-95117000D01*
G75*
G02*
X170488000Y-94917000I200000J0D01*
G01*
X170888000Y-94917000D01*
G75*
G02*
X171088000Y-95117000I0J-200000D01*
G01*
X171088000Y-95667000D01*
G75*
G02*
X170888000Y-95867000I-200000J0D01*
G01*
X170488000Y-95867000D01*
G75*
G02*
X170288000Y-95667000I0J200000D01*
G01*
G37*
%TD*%
%TO.C,REF\u002A\u002A*%
X101447600Y-120370600D03*
%TD*%
%TO.C,REF\u002A\u002A*%
X184454800Y-67411600D03*
%TD*%
D16*
%TO.C,D1*%
X156020000Y-106680000D03*
X160020000Y-106680000D03*
%TD*%
D10*
%TO.C,J2*%
X112014000Y-112776000D03*
X114554000Y-112776000D03*
X117094000Y-112776000D03*
D11*
X119634000Y-112776000D03*
%TD*%
%TO.C,J1*%
X140208000Y-74930000D03*
D10*
X142748000Y-74930000D03*
X145288000Y-74930000D03*
X147828000Y-74930000D03*
%TD*%
D16*
%TO.C,D2*%
X167830000Y-106680000D03*
X163830000Y-106680000D03*
%TD*%
%TO.C,R4*%
G36*
G01*
X165462000Y-91207000D02*
X165462000Y-90657000D01*
G75*
G02*
X165662000Y-90457000I200000J0D01*
G01*
X166062000Y-90457000D01*
G75*
G02*
X166262000Y-90657000I0J-200000D01*
G01*
X166262000Y-91207000D01*
G75*
G02*
X166062000Y-91407000I-200000J0D01*
G01*
X165662000Y-91407000D01*
G75*
G02*
X165462000Y-91207000I0J200000D01*
G01*
G37*
G36*
G01*
X163812000Y-91207000D02*
X163812000Y-90657000D01*
G75*
G02*
X164012000Y-90457000I200000J0D01*
G01*
X164412000Y-90457000D01*
G75*
G02*
X164612000Y-90657000I0J-200000D01*
G01*
X164612000Y-91207000D01*
G75*
G02*
X164412000Y-91407000I-200000J0D01*
G01*
X164012000Y-91407000D01*
G75*
G02*
X163812000Y-91207000I0J200000D01*
G01*
G37*
%TD*%
%TO.C,R7*%
G36*
G01*
X165462000Y-93493000D02*
X165462000Y-92943000D01*
G75*
G02*
X165662000Y-92743000I200000J0D01*
G01*
X166062000Y-92743000D01*
G75*
G02*
X166262000Y-92943000I0J-200000D01*
G01*
X166262000Y-93493000D01*
G75*
G02*
X166062000Y-93693000I-200000J0D01*
G01*
X165662000Y-93693000D01*
G75*
G02*
X165462000Y-93493000I0J200000D01*
G01*
G37*
G36*
G01*
X163812000Y-93493000D02*
X163812000Y-92943000D01*
G75*
G02*
X164012000Y-92743000I200000J0D01*
G01*
X164412000Y-92743000D01*
G75*
G02*
X164612000Y-92943000I0J-200000D01*
G01*
X164612000Y-93493000D01*
G75*
G02*
X164412000Y-93693000I-200000J0D01*
G01*
X164012000Y-93693000D01*
G75*
G02*
X163812000Y-93493000I0J200000D01*
G01*
G37*
%TD*%
%TO.C,C3*%
G36*
G01*
X164000000Y-103870000D02*
X164000000Y-103370000D01*
G75*
G02*
X164225000Y-103145000I225000J0D01*
G01*
X164675000Y-103145000D01*
G75*
G02*
X164900000Y-103370000I0J-225000D01*
G01*
X164900000Y-103870000D01*
G75*
G02*
X164675000Y-104095000I-225000J0D01*
G01*
X164225000Y-104095000D01*
G75*
G02*
X164000000Y-103870000I0J225000D01*
G01*
G37*
G36*
G01*
X165550000Y-103870000D02*
X165550000Y-103370000D01*
G75*
G02*
X165775000Y-103145000I225000J0D01*
G01*
X166225000Y-103145000D01*
G75*
G02*
X166450000Y-103370000I0J-225000D01*
G01*
X166450000Y-103870000D01*
G75*
G02*
X166225000Y-104095000I-225000J0D01*
G01*
X165775000Y-104095000D01*
G75*
G02*
X165550000Y-103870000I0J225000D01*
G01*
G37*
%TD*%
%TO.C,R2*%
G36*
G01*
X165462000Y-88921000D02*
X165462000Y-88371000D01*
G75*
G02*
X165662000Y-88171000I200000J0D01*
G01*
X166062000Y-88171000D01*
G75*
G02*
X166262000Y-88371000I0J-200000D01*
G01*
X166262000Y-88921000D01*
G75*
G02*
X166062000Y-89121000I-200000J0D01*
G01*
X165662000Y-89121000D01*
G75*
G02*
X165462000Y-88921000I0J200000D01*
G01*
G37*
G36*
G01*
X163812000Y-88921000D02*
X163812000Y-88371000D01*
G75*
G02*
X164012000Y-88171000I200000J0D01*
G01*
X164412000Y-88171000D01*
G75*
G02*
X164612000Y-88371000I0J-200000D01*
G01*
X164612000Y-88921000D01*
G75*
G02*
X164412000Y-89121000I-200000J0D01*
G01*
X164012000Y-89121000D01*
G75*
G02*
X163812000Y-88921000I0J200000D01*
G01*
G37*
%TD*%
%TO.C,C1*%
G36*
G01*
X164000000Y-98790000D02*
X164000000Y-98290000D01*
G75*
G02*
X164225000Y-98065000I225000J0D01*
G01*
X164675000Y-98065000D01*
G75*
G02*
X164900000Y-98290000I0J-225000D01*
G01*
X164900000Y-98790000D01*
G75*
G02*
X164675000Y-99015000I-225000J0D01*
G01*
X164225000Y-99015000D01*
G75*
G02*
X164000000Y-98790000I0J225000D01*
G01*
G37*
G36*
G01*
X165550000Y-98790000D02*
X165550000Y-98290000D01*
G75*
G02*
X165775000Y-98065000I225000J0D01*
G01*
X166225000Y-98065000D01*
G75*
G02*
X166450000Y-98290000I0J-225000D01*
G01*
X166450000Y-98790000D01*
G75*
G02*
X166225000Y-99015000I-225000J0D01*
G01*
X165775000Y-99015000D01*
G75*
G02*
X165550000Y-98790000I0J225000D01*
G01*
G37*
%TD*%
D15*
%TO.C,REF\u002A\u002A*%
X101447600Y-67424300D03*
%TD*%
%TO.C,C5*%
G36*
G01*
X170122000Y-101330000D02*
X170122000Y-100830000D01*
G75*
G02*
X170347000Y-100605000I225000J0D01*
G01*
X170797000Y-100605000D01*
G75*
G02*
X171022000Y-100830000I0J-225000D01*
G01*
X171022000Y-101330000D01*
G75*
G02*
X170797000Y-101555000I-225000J0D01*
G01*
X170347000Y-101555000D01*
G75*
G02*
X170122000Y-101330000I0J225000D01*
G01*
G37*
G36*
G01*
X168572000Y-101330000D02*
X168572000Y-100830000D01*
G75*
G02*
X168797000Y-100605000I225000J0D01*
G01*
X169247000Y-100605000D01*
G75*
G02*
X169472000Y-100830000I0J-225000D01*
G01*
X169472000Y-101330000D01*
G75*
G02*
X169247000Y-101555000I-225000J0D01*
G01*
X168797000Y-101555000D01*
G75*
G02*
X168572000Y-101330000I0J225000D01*
G01*
G37*
%TD*%
%TO.C,C2*%
G36*
G01*
X165550000Y-101330000D02*
X165550000Y-100830000D01*
G75*
G02*
X165775000Y-100605000I225000J0D01*
G01*
X166225000Y-100605000D01*
G75*
G02*
X166450000Y-100830000I0J-225000D01*
G01*
X166450000Y-101330000D01*
G75*
G02*
X166225000Y-101555000I-225000J0D01*
G01*
X165775000Y-101555000D01*
G75*
G02*
X165550000Y-101330000I0J225000D01*
G01*
G37*
G36*
G01*
X164000000Y-101330000D02*
X164000000Y-100830000D01*
G75*
G02*
X164225000Y-100605000I225000J0D01*
G01*
X164675000Y-100605000D01*
G75*
G02*
X164900000Y-100830000I0J-225000D01*
G01*
X164900000Y-101330000D01*
G75*
G02*
X164675000Y-101555000I-225000J0D01*
G01*
X164225000Y-101555000D01*
G75*
G02*
X164000000Y-101330000I0J225000D01*
G01*
G37*
%TD*%
D10*
%TO.C,U1*%
X100320000Y-102840000D03*
X102860000Y-102840000D03*
D11*
X105400000Y-102840000D03*
D10*
X107940000Y-102840000D03*
X110480000Y-102840000D03*
X113020000Y-102840000D03*
X115560000Y-102840000D03*
D11*
X118100000Y-102840000D03*
D10*
X120640000Y-102840000D03*
X123180000Y-102840000D03*
X125720000Y-102840000D03*
X128260000Y-102840000D03*
D11*
X130800000Y-102840000D03*
D10*
X133340000Y-102840000D03*
X135880000Y-102840000D03*
X138420000Y-102840000D03*
X140960000Y-102840000D03*
D11*
X143500000Y-102840000D03*
D10*
X146040000Y-102840000D03*
X148580000Y-102840000D03*
X148580000Y-85060000D03*
X146040000Y-85060000D03*
D11*
X143500000Y-85060000D03*
D10*
X140960000Y-85060000D03*
X138420000Y-85060000D03*
X135880000Y-85060000D03*
X133340000Y-85060000D03*
D11*
X130800000Y-85060000D03*
D10*
X128260000Y-85060000D03*
X125720000Y-85060000D03*
X123180000Y-85060000D03*
X120640000Y-85060000D03*
D11*
X118100000Y-85060000D03*
D10*
X115560000Y-85060000D03*
X113020000Y-85060000D03*
X110480000Y-85060000D03*
X107940000Y-85060000D03*
D11*
X105400000Y-85060000D03*
D10*
X102860000Y-85060000D03*
X100320000Y-85060000D03*
D17*
X100320000Y-103740000D03*
X102860000Y-103740000D03*
X105400000Y-103740000D03*
X107940000Y-103740000D03*
X110480000Y-103740000D03*
X113020000Y-103740000D03*
X115560000Y-103740000D03*
X118100000Y-103740000D03*
X120640000Y-103740000D03*
X123180000Y-103740000D03*
X125720000Y-103740000D03*
X128260000Y-103740000D03*
X130800000Y-103740000D03*
X133340000Y-103740000D03*
X135880000Y-103740000D03*
X138420000Y-103740000D03*
X140960000Y-103740000D03*
X143500000Y-103740000D03*
X146040000Y-103740000D03*
X148580000Y-103740000D03*
X100320000Y-84160000D03*
X102860000Y-84160000D03*
X105400000Y-84160000D03*
X107940000Y-84160000D03*
X110480000Y-84160000D03*
X113020000Y-84160000D03*
X115560000Y-84160000D03*
X118100000Y-84160000D03*
X120640000Y-84160000D03*
X123180000Y-84160000D03*
X125720000Y-84160000D03*
X128260000Y-84160000D03*
X130800000Y-84160000D03*
X133340000Y-84160000D03*
X135880000Y-84160000D03*
X138420000Y-84160000D03*
X140960000Y-84160000D03*
X143500000Y-84160000D03*
X146040000Y-84160000D03*
X148580000Y-84160000D03*
D18*
X100450000Y-96675000D03*
X100450000Y-91225000D03*
D19*
X103480000Y-96375000D03*
X103480000Y-91525000D03*
D20*
X149250000Y-96490000D03*
D10*
X148350000Y-96490000D03*
D20*
X149250000Y-93950000D03*
D11*
X148350000Y-93950000D03*
D20*
X149250000Y-91410000D03*
D10*
X148350000Y-91410000D03*
%TD*%
D16*
%TO.C,D5*%
X103696000Y-110632000D03*
X107696000Y-110632000D03*
%TD*%
%TO.C,D3*%
X103696000Y-114554000D03*
X107696000Y-114554000D03*
%TD*%
%TO.C,U2*%
G36*
G01*
X153522000Y-85367000D02*
X153522000Y-85067000D01*
G75*
G02*
X153672000Y-84917000I150000J0D01*
G01*
X155322000Y-84917000D01*
G75*
G02*
X155472000Y-85067000I0J-150000D01*
G01*
X155472000Y-85367000D01*
G75*
G02*
X155322000Y-85517000I-150000J0D01*
G01*
X153672000Y-85517000D01*
G75*
G02*
X153522000Y-85367000I0J150000D01*
G01*
G37*
G36*
G01*
X153522000Y-86637000D02*
X153522000Y-86337000D01*
G75*
G02*
X153672000Y-86187000I150000J0D01*
G01*
X155322000Y-86187000D01*
G75*
G02*
X155472000Y-86337000I0J-150000D01*
G01*
X155472000Y-86637000D01*
G75*
G02*
X155322000Y-86787000I-150000J0D01*
G01*
X153672000Y-86787000D01*
G75*
G02*
X153522000Y-86637000I0J150000D01*
G01*
G37*
G36*
G01*
X153522000Y-87907000D02*
X153522000Y-87607000D01*
G75*
G02*
X153672000Y-87457000I150000J0D01*
G01*
X155322000Y-87457000D01*
G75*
G02*
X155472000Y-87607000I0J-150000D01*
G01*
X155472000Y-87907000D01*
G75*
G02*
X155322000Y-88057000I-150000J0D01*
G01*
X153672000Y-88057000D01*
G75*
G02*
X153522000Y-87907000I0J150000D01*
G01*
G37*
G36*
G01*
X153522000Y-89177000D02*
X153522000Y-88877000D01*
G75*
G02*
X153672000Y-88727000I150000J0D01*
G01*
X155322000Y-88727000D01*
G75*
G02*
X155472000Y-88877000I0J-150000D01*
G01*
X155472000Y-89177000D01*
G75*
G02*
X155322000Y-89327000I-150000J0D01*
G01*
X153672000Y-89327000D01*
G75*
G02*
X153522000Y-89177000I0J150000D01*
G01*
G37*
G36*
G01*
X153522000Y-90447000D02*
X153522000Y-90147000D01*
G75*
G02*
X153672000Y-89997000I150000J0D01*
G01*
X155322000Y-89997000D01*
G75*
G02*
X155472000Y-90147000I0J-150000D01*
G01*
X155472000Y-90447000D01*
G75*
G02*
X155322000Y-90597000I-150000J0D01*
G01*
X153672000Y-90597000D01*
G75*
G02*
X153522000Y-90447000I0J150000D01*
G01*
G37*
G36*
G01*
X153522000Y-91717000D02*
X153522000Y-91417000D01*
G75*
G02*
X153672000Y-91267000I150000J0D01*
G01*
X155322000Y-91267000D01*
G75*
G02*
X155472000Y-91417000I0J-150000D01*
G01*
X155472000Y-91717000D01*
G75*
G02*
X155322000Y-91867000I-150000J0D01*
G01*
X153672000Y-91867000D01*
G75*
G02*
X153522000Y-91717000I0J150000D01*
G01*
G37*
G36*
G01*
X153522000Y-92987000D02*
X153522000Y-92687000D01*
G75*
G02*
X153672000Y-92537000I150000J0D01*
G01*
X155322000Y-92537000D01*
G75*
G02*
X155472000Y-92687000I0J-150000D01*
G01*
X155472000Y-92987000D01*
G75*
G02*
X155322000Y-93137000I-150000J0D01*
G01*
X153672000Y-93137000D01*
G75*
G02*
X153522000Y-92987000I0J150000D01*
G01*
G37*
G36*
G01*
X153522000Y-94257000D02*
X153522000Y-93957000D01*
G75*
G02*
X153672000Y-93807000I150000J0D01*
G01*
X155322000Y-93807000D01*
G75*
G02*
X155472000Y-93957000I0J-150000D01*
G01*
X155472000Y-94257000D01*
G75*
G02*
X155322000Y-94407000I-150000J0D01*
G01*
X153672000Y-94407000D01*
G75*
G02*
X153522000Y-94257000I0J150000D01*
G01*
G37*
G36*
G01*
X158472000Y-94257000D02*
X158472000Y-93957000D01*
G75*
G02*
X158622000Y-93807000I150000J0D01*
G01*
X160272000Y-93807000D01*
G75*
G02*
X160422000Y-93957000I0J-150000D01*
G01*
X160422000Y-94257000D01*
G75*
G02*
X160272000Y-94407000I-150000J0D01*
G01*
X158622000Y-94407000D01*
G75*
G02*
X158472000Y-94257000I0J150000D01*
G01*
G37*
G36*
G01*
X158472000Y-92987000D02*
X158472000Y-92687000D01*
G75*
G02*
X158622000Y-92537000I150000J0D01*
G01*
X160272000Y-92537000D01*
G75*
G02*
X160422000Y-92687000I0J-150000D01*
G01*
X160422000Y-92987000D01*
G75*
G02*
X160272000Y-93137000I-150000J0D01*
G01*
X158622000Y-93137000D01*
G75*
G02*
X158472000Y-92987000I0J150000D01*
G01*
G37*
G36*
G01*
X158472000Y-91717000D02*
X158472000Y-91417000D01*
G75*
G02*
X158622000Y-91267000I150000J0D01*
G01*
X160272000Y-91267000D01*
G75*
G02*
X160422000Y-91417000I0J-150000D01*
G01*
X160422000Y-91717000D01*
G75*
G02*
X160272000Y-91867000I-150000J0D01*
G01*
X158622000Y-91867000D01*
G75*
G02*
X158472000Y-91717000I0J150000D01*
G01*
G37*
G36*
G01*
X158472000Y-90447000D02*
X158472000Y-90147000D01*
G75*
G02*
X158622000Y-89997000I150000J0D01*
G01*
X160272000Y-89997000D01*
G75*
G02*
X160422000Y-90147000I0J-150000D01*
G01*
X160422000Y-90447000D01*
G75*
G02*
X160272000Y-90597000I-150000J0D01*
G01*
X158622000Y-90597000D01*
G75*
G02*
X158472000Y-90447000I0J150000D01*
G01*
G37*
G36*
G01*
X158472000Y-89177000D02*
X158472000Y-88877000D01*
G75*
G02*
X158622000Y-88727000I150000J0D01*
G01*
X160272000Y-88727000D01*
G75*
G02*
X160422000Y-88877000I0J-150000D01*
G01*
X160422000Y-89177000D01*
G75*
G02*
X160272000Y-89327000I-150000J0D01*
G01*
X158622000Y-89327000D01*
G75*
G02*
X158472000Y-89177000I0J150000D01*
G01*
G37*
G36*
G01*
X158472000Y-87907000D02*
X158472000Y-87607000D01*
G75*
G02*
X158622000Y-87457000I150000J0D01*
G01*
X160272000Y-87457000D01*
G75*
G02*
X160422000Y-87607000I0J-150000D01*
G01*
X160422000Y-87907000D01*
G75*
G02*
X160272000Y-88057000I-150000J0D01*
G01*
X158622000Y-88057000D01*
G75*
G02*
X158472000Y-87907000I0J150000D01*
G01*
G37*
G36*
G01*
X158472000Y-86637000D02*
X158472000Y-86337000D01*
G75*
G02*
X158622000Y-86187000I150000J0D01*
G01*
X160272000Y-86187000D01*
G75*
G02*
X160422000Y-86337000I0J-150000D01*
G01*
X160422000Y-86637000D01*
G75*
G02*
X160272000Y-86787000I-150000J0D01*
G01*
X158622000Y-86787000D01*
G75*
G02*
X158472000Y-86637000I0J150000D01*
G01*
G37*
G36*
G01*
X158472000Y-85367000D02*
X158472000Y-85067000D01*
G75*
G02*
X158622000Y-84917000I150000J0D01*
G01*
X160272000Y-84917000D01*
G75*
G02*
X160422000Y-85067000I0J-150000D01*
G01*
X160422000Y-85367000D01*
G75*
G02*
X160272000Y-85517000I-150000J0D01*
G01*
X158622000Y-85517000D01*
G75*
G02*
X158472000Y-85367000I0J150000D01*
G01*
G37*
%TD*%
%TO.C,R1*%
G36*
G01*
X168638000Y-88921000D02*
X168638000Y-88371000D01*
G75*
G02*
X168838000Y-88171000I200000J0D01*
G01*
X169238000Y-88171000D01*
G75*
G02*
X169438000Y-88371000I0J-200000D01*
G01*
X169438000Y-88921000D01*
G75*
G02*
X169238000Y-89121000I-200000J0D01*
G01*
X168838000Y-89121000D01*
G75*
G02*
X168638000Y-88921000I0J200000D01*
G01*
G37*
G36*
G01*
X170288000Y-88921000D02*
X170288000Y-88371000D01*
G75*
G02*
X170488000Y-88171000I200000J0D01*
G01*
X170888000Y-88171000D01*
G75*
G02*
X171088000Y-88371000I0J-200000D01*
G01*
X171088000Y-88921000D01*
G75*
G02*
X170888000Y-89121000I-200000J0D01*
G01*
X170488000Y-89121000D01*
G75*
G02*
X170288000Y-88921000I0J200000D01*
G01*
G37*
%TD*%
D21*
%TO.C,Y1*%
X161408000Y-80010000D03*
X152908000Y-80010000D03*
%TD*%
%TO.C,R3*%
G36*
G01*
X168638000Y-91207000D02*
X168638000Y-90657000D01*
G75*
G02*
X168838000Y-90457000I200000J0D01*
G01*
X169238000Y-90457000D01*
G75*
G02*
X169438000Y-90657000I0J-200000D01*
G01*
X169438000Y-91207000D01*
G75*
G02*
X169238000Y-91407000I-200000J0D01*
G01*
X168838000Y-91407000D01*
G75*
G02*
X168638000Y-91207000I0J200000D01*
G01*
G37*
G36*
G01*
X170288000Y-91207000D02*
X170288000Y-90657000D01*
G75*
G02*
X170488000Y-90457000I200000J0D01*
G01*
X170888000Y-90457000D01*
G75*
G02*
X171088000Y-90657000I0J-200000D01*
G01*
X171088000Y-91207000D01*
G75*
G02*
X170888000Y-91407000I-200000J0D01*
G01*
X170488000Y-91407000D01*
G75*
G02*
X170288000Y-91207000I0J200000D01*
G01*
G37*
%TD*%
%TO.C,R8*%
G36*
G01*
X168638000Y-93493000D02*
X168638000Y-92943000D01*
G75*
G02*
X168838000Y-92743000I200000J0D01*
G01*
X169238000Y-92743000D01*
G75*
G02*
X169438000Y-92943000I0J-200000D01*
G01*
X169438000Y-93493000D01*
G75*
G02*
X169238000Y-93693000I-200000J0D01*
G01*
X168838000Y-93693000D01*
G75*
G02*
X168638000Y-93493000I0J200000D01*
G01*
G37*
G36*
G01*
X170288000Y-93493000D02*
X170288000Y-92943000D01*
G75*
G02*
X170488000Y-92743000I200000J0D01*
G01*
X170888000Y-92743000D01*
G75*
G02*
X171088000Y-92943000I0J-200000D01*
G01*
X171088000Y-93493000D01*
G75*
G02*
X170888000Y-93693000I-200000J0D01*
G01*
X170488000Y-93693000D01*
G75*
G02*
X170288000Y-93493000I0J200000D01*
G01*
G37*
%TD*%
D16*
%TO.C,D4*%
X107410000Y-75946000D03*
X103410000Y-75946000D03*
%TD*%
M02*
