%TF.GenerationSoftware,KiCad,Pcbnew,(5.1.10)-1*%
%TF.CreationDate,2021-10-27T22:41:58+01:00*%
%TF.ProjectId,flowcontrol,666c6f77-636f-46e7-9472-6f6c2e6b6963,rev?*%
%TF.SameCoordinates,Original*%
%TF.FileFunction,Legend,Top*%
%TF.FilePolarity,Positive*%
%FSLAX46Y46*%
G04 Gerber Fmt 4.6, Leading zero omitted, Abs format (unit mm)*
G04 Created by KiCad (PCBNEW (5.1.10)-1) date 2021-10-27 22:41:58*
%MOMM*%
%LPD*%
G01*
G04 APERTURE LIST*
%ADD10C,0.250000*%
%ADD11C,0.150000*%
%ADD12C,0.013229*%
%ADD13C,0.120000*%
%ADD14C,0.200000*%
%ADD15C,0.254000*%
G04 APERTURE END LIST*
D10*
X99822095Y-114006380D02*
X100393523Y-114006380D01*
X100107809Y-115006380D02*
X100107809Y-114006380D01*
X100631619Y-114006380D02*
X101298285Y-115006380D01*
X101298285Y-114006380D02*
X100631619Y-115006380D01*
X100417333Y-111196380D02*
X100084000Y-110720190D01*
X99845904Y-111196380D02*
X99845904Y-110196380D01*
X100226857Y-110196380D01*
X100322095Y-110244000D01*
X100369714Y-110291619D01*
X100417333Y-110386857D01*
X100417333Y-110529714D01*
X100369714Y-110624952D01*
X100322095Y-110672571D01*
X100226857Y-110720190D01*
X99845904Y-110720190D01*
X100750666Y-110196380D02*
X101417333Y-111196380D01*
X101417333Y-110196380D02*
X100750666Y-111196380D01*
X103100476Y-72334380D02*
X103100476Y-71334380D01*
X103481428Y-71334380D01*
X103576666Y-71382000D01*
X103624285Y-71429619D01*
X103671904Y-71524857D01*
X103671904Y-71667714D01*
X103624285Y-71762952D01*
X103576666Y-71810571D01*
X103481428Y-71858190D01*
X103100476Y-71858190D01*
X104290952Y-71334380D02*
X104481428Y-71334380D01*
X104576666Y-71382000D01*
X104671904Y-71477238D01*
X104719523Y-71667714D01*
X104719523Y-72001047D01*
X104671904Y-72191523D01*
X104576666Y-72286761D01*
X104481428Y-72334380D01*
X104290952Y-72334380D01*
X104195714Y-72286761D01*
X104100476Y-72191523D01*
X104052857Y-72001047D01*
X104052857Y-71667714D01*
X104100476Y-71477238D01*
X104195714Y-71382000D01*
X104290952Y-71334380D01*
X105052857Y-71334380D02*
X105290952Y-72334380D01*
X105481428Y-71620095D01*
X105671904Y-72334380D01*
X105910000Y-71334380D01*
X106290952Y-71810571D02*
X106624285Y-71810571D01*
X106767142Y-72334380D02*
X106290952Y-72334380D01*
X106290952Y-71334380D01*
X106767142Y-71334380D01*
X107767142Y-72334380D02*
X107433809Y-71858190D01*
X107195714Y-72334380D02*
X107195714Y-71334380D01*
X107576666Y-71334380D01*
X107671904Y-71382000D01*
X107719523Y-71429619D01*
X107767142Y-71524857D01*
X107767142Y-71667714D01*
X107719523Y-71762952D01*
X107671904Y-71810571D01*
X107576666Y-71858190D01*
X107195714Y-71858190D01*
X169314761Y-74358095D02*
X169362380Y-74215238D01*
X169362380Y-73977142D01*
X169314761Y-73881904D01*
X169267142Y-73834285D01*
X169171904Y-73786666D01*
X169076666Y-73786666D01*
X168981428Y-73834285D01*
X168933809Y-73881904D01*
X168886190Y-73977142D01*
X168838571Y-74167619D01*
X168790952Y-74262857D01*
X168743333Y-74310476D01*
X168648095Y-74358095D01*
X168552857Y-74358095D01*
X168457619Y-74310476D01*
X168410000Y-74262857D01*
X168362380Y-74167619D01*
X168362380Y-73929523D01*
X168410000Y-73786666D01*
X168838571Y-73358095D02*
X168838571Y-73024761D01*
X169362380Y-72881904D02*
X169362380Y-73358095D01*
X168362380Y-73358095D01*
X168362380Y-72881904D01*
X169362380Y-72453333D02*
X168362380Y-72453333D01*
X169362380Y-71881904D01*
X168362380Y-71881904D01*
X169314761Y-71453333D02*
X169362380Y-71310476D01*
X169362380Y-71072380D01*
X169314761Y-70977142D01*
X169267142Y-70929523D01*
X169171904Y-70881904D01*
X169076666Y-70881904D01*
X168981428Y-70929523D01*
X168933809Y-70977142D01*
X168886190Y-71072380D01*
X168838571Y-71262857D01*
X168790952Y-71358095D01*
X168743333Y-71405714D01*
X168648095Y-71453333D01*
X168552857Y-71453333D01*
X168457619Y-71405714D01*
X168410000Y-71358095D01*
X168362380Y-71262857D01*
X168362380Y-71024761D01*
X168410000Y-70881904D01*
X168362380Y-70262857D02*
X168362380Y-70072380D01*
X168410000Y-69977142D01*
X168505238Y-69881904D01*
X168695714Y-69834285D01*
X169029047Y-69834285D01*
X169219523Y-69881904D01*
X169314761Y-69977142D01*
X169362380Y-70072380D01*
X169362380Y-70262857D01*
X169314761Y-70358095D01*
X169219523Y-70453333D01*
X169029047Y-70500952D01*
X168695714Y-70500952D01*
X168505238Y-70453333D01*
X168410000Y-70358095D01*
X168362380Y-70262857D01*
X169362380Y-68834285D02*
X168886190Y-69167619D01*
X169362380Y-69405714D02*
X168362380Y-69405714D01*
X168362380Y-69024761D01*
X168410000Y-68929523D01*
X168457619Y-68881904D01*
X168552857Y-68834285D01*
X168695714Y-68834285D01*
X168790952Y-68881904D01*
X168838571Y-68929523D01*
X168886190Y-69024761D01*
X168886190Y-69405714D01*
X168457619Y-68453333D02*
X168410000Y-68405714D01*
X168362380Y-68310476D01*
X168362380Y-68072380D01*
X168410000Y-67977142D01*
X168457619Y-67929523D01*
X168552857Y-67881904D01*
X168648095Y-67881904D01*
X168790952Y-67929523D01*
X169362380Y-68500952D01*
X169362380Y-67881904D01*
X155344761Y-74358095D02*
X155392380Y-74215238D01*
X155392380Y-73977142D01*
X155344761Y-73881904D01*
X155297142Y-73834285D01*
X155201904Y-73786666D01*
X155106666Y-73786666D01*
X155011428Y-73834285D01*
X154963809Y-73881904D01*
X154916190Y-73977142D01*
X154868571Y-74167619D01*
X154820952Y-74262857D01*
X154773333Y-74310476D01*
X154678095Y-74358095D01*
X154582857Y-74358095D01*
X154487619Y-74310476D01*
X154440000Y-74262857D01*
X154392380Y-74167619D01*
X154392380Y-73929523D01*
X154440000Y-73786666D01*
X154868571Y-73358095D02*
X154868571Y-73024761D01*
X155392380Y-72881904D02*
X155392380Y-73358095D01*
X154392380Y-73358095D01*
X154392380Y-72881904D01*
X155392380Y-72453333D02*
X154392380Y-72453333D01*
X155392380Y-71881904D01*
X154392380Y-71881904D01*
X155344761Y-71453333D02*
X155392380Y-71310476D01*
X155392380Y-71072380D01*
X155344761Y-70977142D01*
X155297142Y-70929523D01*
X155201904Y-70881904D01*
X155106666Y-70881904D01*
X155011428Y-70929523D01*
X154963809Y-70977142D01*
X154916190Y-71072380D01*
X154868571Y-71262857D01*
X154820952Y-71358095D01*
X154773333Y-71405714D01*
X154678095Y-71453333D01*
X154582857Y-71453333D01*
X154487619Y-71405714D01*
X154440000Y-71358095D01*
X154392380Y-71262857D01*
X154392380Y-71024761D01*
X154440000Y-70881904D01*
X154392380Y-70262857D02*
X154392380Y-70072380D01*
X154440000Y-69977142D01*
X154535238Y-69881904D01*
X154725714Y-69834285D01*
X155059047Y-69834285D01*
X155249523Y-69881904D01*
X155344761Y-69977142D01*
X155392380Y-70072380D01*
X155392380Y-70262857D01*
X155344761Y-70358095D01*
X155249523Y-70453333D01*
X155059047Y-70500952D01*
X154725714Y-70500952D01*
X154535238Y-70453333D01*
X154440000Y-70358095D01*
X154392380Y-70262857D01*
X155392380Y-68834285D02*
X154916190Y-69167619D01*
X155392380Y-69405714D02*
X154392380Y-69405714D01*
X154392380Y-69024761D01*
X154440000Y-68929523D01*
X154487619Y-68881904D01*
X154582857Y-68834285D01*
X154725714Y-68834285D01*
X154820952Y-68881904D01*
X154868571Y-68929523D01*
X154916190Y-69024761D01*
X154916190Y-69405714D01*
X155392380Y-67881904D02*
X155392380Y-68453333D01*
X155392380Y-68167619D02*
X154392380Y-68167619D01*
X154535238Y-68262857D01*
X154630476Y-68358095D01*
X154678095Y-68453333D01*
X173498095Y-110434380D02*
X173498095Y-109434380D01*
X173736190Y-109434380D01*
X173879047Y-109482000D01*
X173974285Y-109577238D01*
X174021904Y-109672476D01*
X174069523Y-109862952D01*
X174069523Y-110005809D01*
X174021904Y-110196285D01*
X173974285Y-110291523D01*
X173879047Y-110386761D01*
X173736190Y-110434380D01*
X173498095Y-110434380D01*
X175069523Y-110434380D02*
X174736190Y-109958190D01*
X174498095Y-110434380D02*
X174498095Y-109434380D01*
X174879047Y-109434380D01*
X174974285Y-109482000D01*
X175021904Y-109529619D01*
X175069523Y-109624857D01*
X175069523Y-109767714D01*
X175021904Y-109862952D01*
X174974285Y-109910571D01*
X174879047Y-109958190D01*
X174498095Y-109958190D01*
X176021904Y-109482000D02*
X175926666Y-109434380D01*
X175783809Y-109434380D01*
X175640952Y-109482000D01*
X175545714Y-109577238D01*
X175498095Y-109672476D01*
X175450476Y-109862952D01*
X175450476Y-110005809D01*
X175498095Y-110196285D01*
X175545714Y-110291523D01*
X175640952Y-110386761D01*
X175783809Y-110434380D01*
X175879047Y-110434380D01*
X176021904Y-110386761D01*
X176069523Y-110339142D01*
X176069523Y-110005809D01*
X175879047Y-110005809D01*
X176831428Y-109910571D02*
X176974285Y-109958190D01*
X177021904Y-110005809D01*
X177069523Y-110101047D01*
X177069523Y-110243904D01*
X177021904Y-110339142D01*
X176974285Y-110386761D01*
X176879047Y-110434380D01*
X176498095Y-110434380D01*
X176498095Y-109434380D01*
X176831428Y-109434380D01*
X176926666Y-109482000D01*
X176974285Y-109529619D01*
X177021904Y-109624857D01*
X177021904Y-109720095D01*
X176974285Y-109815333D01*
X176926666Y-109862952D01*
X176831428Y-109910571D01*
X176498095Y-109910571D01*
X167695619Y-112252761D02*
X168695619Y-112252761D01*
X167695619Y-112728952D02*
X168695619Y-112728952D01*
X167695619Y-113300380D01*
X168695619Y-113300380D01*
X168695619Y-113633714D02*
X168695619Y-114205142D01*
X167695619Y-113919428D02*
X168695619Y-113919428D01*
X168219428Y-114538476D02*
X168219428Y-114871809D01*
X167695619Y-115014666D02*
X167695619Y-114538476D01*
X168695619Y-114538476D01*
X168695619Y-115014666D01*
X167695619Y-116014666D02*
X168171809Y-115681333D01*
X167695619Y-115443238D02*
X168695619Y-115443238D01*
X168695619Y-115824190D01*
X168648000Y-115919428D01*
X168600380Y-115967047D01*
X168505142Y-116014666D01*
X168362285Y-116014666D01*
X168267047Y-115967047D01*
X168219428Y-115919428D01*
X168171809Y-115824190D01*
X168171809Y-115443238D01*
X167695619Y-116443238D02*
X168695619Y-116443238D01*
X167695619Y-117014666D01*
X168695619Y-117014666D01*
X167981333Y-117443238D02*
X167981333Y-117919428D01*
X167695619Y-117348000D02*
X168695619Y-117681333D01*
X167695619Y-118014666D01*
X167695619Y-118824190D02*
X167695619Y-118348000D01*
X168695619Y-118348000D01*
X168695619Y-119919428D02*
X167886095Y-119919428D01*
X167790857Y-119967047D01*
X167743238Y-120014666D01*
X167695619Y-120109904D01*
X167695619Y-120300380D01*
X167743238Y-120395619D01*
X167790857Y-120443238D01*
X167886095Y-120490857D01*
X168695619Y-120490857D01*
X167743238Y-120919428D02*
X167695619Y-121062285D01*
X167695619Y-121300380D01*
X167743238Y-121395619D01*
X167790857Y-121443238D01*
X167886095Y-121490857D01*
X167981333Y-121490857D01*
X168076571Y-121443238D01*
X168124190Y-121395619D01*
X168171809Y-121300380D01*
X168219428Y-121109904D01*
X168267047Y-121014666D01*
X168314666Y-120967047D01*
X168409904Y-120919428D01*
X168505142Y-120919428D01*
X168600380Y-120967047D01*
X168648000Y-121014666D01*
X168695619Y-121109904D01*
X168695619Y-121348000D01*
X168648000Y-121490857D01*
X168219428Y-122252761D02*
X168171809Y-122395619D01*
X168124190Y-122443238D01*
X168028952Y-122490857D01*
X167886095Y-122490857D01*
X167790857Y-122443238D01*
X167743238Y-122395619D01*
X167695619Y-122300380D01*
X167695619Y-121919428D01*
X168695619Y-121919428D01*
X168695619Y-122252761D01*
X168648000Y-122348000D01*
X168600380Y-122395619D01*
X168505142Y-122443238D01*
X168409904Y-122443238D01*
X168314666Y-122395619D01*
X168267047Y-122348000D01*
X168219428Y-122252761D01*
X168219428Y-121919428D01*
X145557714Y-109799428D02*
X145891047Y-109799428D01*
X145891047Y-109275619D02*
X145891047Y-110275619D01*
X145414857Y-110275619D01*
X145081523Y-109561333D02*
X144605333Y-109561333D01*
X145176761Y-109275619D02*
X144843428Y-110275619D01*
X144510095Y-109275619D01*
X144176761Y-109275619D02*
X144176761Y-110275619D01*
X143605333Y-109275619D01*
X143605333Y-110275619D01*
X142700571Y-110275619D02*
X142891047Y-110275619D01*
X142986285Y-110228000D01*
X143033904Y-110180380D01*
X143129142Y-110037523D01*
X143176761Y-109847047D01*
X143176761Y-109466095D01*
X143129142Y-109370857D01*
X143081523Y-109323238D01*
X142986285Y-109275619D01*
X142795809Y-109275619D01*
X142700571Y-109323238D01*
X142652952Y-109370857D01*
X142605333Y-109466095D01*
X142605333Y-109704190D01*
X142652952Y-109799428D01*
X142700571Y-109847047D01*
X142795809Y-109894666D01*
X142986285Y-109894666D01*
X143081523Y-109847047D01*
X143129142Y-109799428D01*
X143176761Y-109704190D01*
X131079714Y-109799428D02*
X131413047Y-109799428D01*
X131413047Y-109275619D02*
X131413047Y-110275619D01*
X130936857Y-110275619D01*
X130603523Y-109561333D02*
X130127333Y-109561333D01*
X130698761Y-109275619D02*
X130365428Y-110275619D01*
X130032095Y-109275619D01*
X129698761Y-109275619D02*
X129698761Y-110275619D01*
X129127333Y-109275619D01*
X129127333Y-110275619D01*
X128174952Y-110275619D02*
X128651142Y-110275619D01*
X128698761Y-109799428D01*
X128651142Y-109847047D01*
X128555904Y-109894666D01*
X128317809Y-109894666D01*
X128222571Y-109847047D01*
X128174952Y-109799428D01*
X128127333Y-109704190D01*
X128127333Y-109466095D01*
X128174952Y-109370857D01*
X128222571Y-109323238D01*
X128317809Y-109275619D01*
X128555904Y-109275619D01*
X128651142Y-109323238D01*
X128698761Y-109370857D01*
X117109714Y-109799428D02*
X117443047Y-109799428D01*
X117443047Y-109275619D02*
X117443047Y-110275619D01*
X116966857Y-110275619D01*
X116633523Y-109561333D02*
X116157333Y-109561333D01*
X116728761Y-109275619D02*
X116395428Y-110275619D01*
X116062095Y-109275619D01*
X115728761Y-109275619D02*
X115728761Y-110275619D01*
X115157333Y-109275619D01*
X115157333Y-110275619D01*
X114252571Y-109942285D02*
X114252571Y-109275619D01*
X114490666Y-110323238D02*
X114728761Y-109608952D01*
X114109714Y-109608952D01*
X142986285Y-77906571D02*
X142652952Y-77906571D01*
X142652952Y-78430380D02*
X142652952Y-77430380D01*
X143129142Y-77430380D01*
X143462476Y-78144666D02*
X143938666Y-78144666D01*
X143367238Y-78430380D02*
X143700571Y-77430380D01*
X144033904Y-78430380D01*
X144367238Y-78430380D02*
X144367238Y-77430380D01*
X144938666Y-78430380D01*
X144938666Y-77430380D01*
X145319619Y-77430380D02*
X145938666Y-77430380D01*
X145605333Y-77811333D01*
X145748190Y-77811333D01*
X145843428Y-77858952D01*
X145891047Y-77906571D01*
X145938666Y-78001809D01*
X145938666Y-78239904D01*
X145891047Y-78335142D01*
X145843428Y-78382761D01*
X145748190Y-78430380D01*
X145462476Y-78430380D01*
X145367238Y-78382761D01*
X145319619Y-78335142D01*
X128762285Y-77906571D02*
X128428952Y-77906571D01*
X128428952Y-78430380D02*
X128428952Y-77430380D01*
X128905142Y-77430380D01*
X129238476Y-78144666D02*
X129714666Y-78144666D01*
X129143238Y-78430380D02*
X129476571Y-77430380D01*
X129809904Y-78430380D01*
X130143238Y-78430380D02*
X130143238Y-77430380D01*
X130714666Y-78430380D01*
X130714666Y-77430380D01*
X131143238Y-77525619D02*
X131190857Y-77478000D01*
X131286095Y-77430380D01*
X131524190Y-77430380D01*
X131619428Y-77478000D01*
X131667047Y-77525619D01*
X131714666Y-77620857D01*
X131714666Y-77716095D01*
X131667047Y-77858952D01*
X131095619Y-78430380D01*
X131714666Y-78430380D01*
X113776285Y-77906571D02*
X113442952Y-77906571D01*
X113442952Y-78430380D02*
X113442952Y-77430380D01*
X113919142Y-77430380D01*
X114252476Y-78144666D02*
X114728666Y-78144666D01*
X114157238Y-78430380D02*
X114490571Y-77430380D01*
X114823904Y-78430380D01*
X115157238Y-78430380D02*
X115157238Y-77430380D01*
X115728666Y-78430380D01*
X115728666Y-77430380D01*
X116728666Y-78430380D02*
X116157238Y-78430380D01*
X116442952Y-78430380D02*
X116442952Y-77430380D01*
X116347714Y-77573238D01*
X116252476Y-77668476D01*
X116157238Y-77716095D01*
D11*
X178626000Y-79541714D02*
X179006952Y-79541714D01*
X178768857Y-80208380D02*
X178768857Y-79351238D01*
X178816476Y-79256000D01*
X178911714Y-79208380D01*
X179006952Y-79208380D01*
X179483142Y-80208380D02*
X179387904Y-80160761D01*
X179340285Y-80065523D01*
X179340285Y-79208380D01*
X180006952Y-80208380D02*
X179911714Y-80160761D01*
X179864095Y-80113142D01*
X179816476Y-80017904D01*
X179816476Y-79732190D01*
X179864095Y-79636952D01*
X179911714Y-79589333D01*
X180006952Y-79541714D01*
X180149809Y-79541714D01*
X180245047Y-79589333D01*
X180292666Y-79636952D01*
X180340285Y-79732190D01*
X180340285Y-80017904D01*
X180292666Y-80113142D01*
X180245047Y-80160761D01*
X180149809Y-80208380D01*
X180006952Y-80208380D01*
X180673619Y-79541714D02*
X180864095Y-80208380D01*
X181054571Y-79732190D01*
X181245047Y-80208380D01*
X181435523Y-79541714D01*
X182245047Y-80160761D02*
X182149809Y-80208380D01*
X181959333Y-80208380D01*
X181864095Y-80160761D01*
X181816476Y-80113142D01*
X181768857Y-80017904D01*
X181768857Y-79732190D01*
X181816476Y-79636952D01*
X181864095Y-79589333D01*
X181959333Y-79541714D01*
X182149809Y-79541714D01*
X182245047Y-79589333D01*
X182530761Y-79541714D02*
X182911714Y-79541714D01*
X182673619Y-79208380D02*
X182673619Y-80065523D01*
X182721238Y-80160761D01*
X182816476Y-80208380D01*
X182911714Y-80208380D01*
X183387904Y-80208380D02*
X183292666Y-80160761D01*
X183245047Y-80065523D01*
X183245047Y-79208380D01*
X183768857Y-80113142D02*
X183816476Y-80160761D01*
X183768857Y-80208380D01*
X183721238Y-80160761D01*
X183768857Y-80113142D01*
X183768857Y-80208380D01*
X184673619Y-80208380D02*
X184673619Y-79684571D01*
X184626000Y-79589333D01*
X184530761Y-79541714D01*
X184340285Y-79541714D01*
X184245047Y-79589333D01*
X184673619Y-80160761D02*
X184578380Y-80208380D01*
X184340285Y-80208380D01*
X184245047Y-80160761D01*
X184197428Y-80065523D01*
X184197428Y-79970285D01*
X184245047Y-79875047D01*
X184340285Y-79827428D01*
X184578380Y-79827428D01*
X184673619Y-79779809D01*
X185149809Y-79541714D02*
X185149809Y-80541714D01*
X185149809Y-79589333D02*
X185245047Y-79541714D01*
X185435523Y-79541714D01*
X185530761Y-79589333D01*
X185578380Y-79636952D01*
X185626000Y-79732190D01*
X185626000Y-80017904D01*
X185578380Y-80113142D01*
X185530761Y-80160761D01*
X185435523Y-80208380D01*
X185245047Y-80208380D01*
X185149809Y-80160761D01*
X186054571Y-79541714D02*
X186054571Y-80541714D01*
X186054571Y-79589333D02*
X186149809Y-79541714D01*
X186340285Y-79541714D01*
X186435523Y-79589333D01*
X186483142Y-79636952D01*
X186530761Y-79732190D01*
X186530761Y-80017904D01*
X186483142Y-80113142D01*
X186435523Y-80160761D01*
X186340285Y-80208380D01*
X186149809Y-80208380D01*
X186054571Y-80160761D01*
D12*
G36*
X182413399Y-74455529D02*
G01*
X182441363Y-74456263D01*
X182468959Y-74458386D01*
X182496154Y-74461865D01*
X182522913Y-74466666D01*
X182549201Y-74472754D01*
X182574986Y-74480096D01*
X182600233Y-74488657D01*
X182624908Y-74498403D01*
X182648976Y-74509301D01*
X182672404Y-74521315D01*
X182695158Y-74534412D01*
X182717203Y-74548559D01*
X182738506Y-74563720D01*
X182759032Y-74579862D01*
X182778747Y-74596950D01*
X182797618Y-74614951D01*
X182815609Y-74633830D01*
X182832688Y-74653554D01*
X182848820Y-74674088D01*
X182863971Y-74695398D01*
X182878107Y-74717450D01*
X182891193Y-74740210D01*
X182903196Y-74763644D01*
X182914082Y-74787718D01*
X182923816Y-74812397D01*
X182932365Y-74837648D01*
X182939694Y-74863437D01*
X182945770Y-74889728D01*
X182950558Y-74916490D01*
X182954024Y-74943686D01*
X182956134Y-74971284D01*
X182956854Y-74999248D01*
X182956100Y-75027194D01*
X182953957Y-75054770D01*
X182950458Y-75081943D01*
X182945639Y-75108680D01*
X182939532Y-75134945D01*
X182932173Y-75160706D01*
X182923595Y-75185927D01*
X182913833Y-75210575D01*
X182902920Y-75234616D01*
X182890891Y-75258015D01*
X182877780Y-75280739D01*
X182863621Y-75302754D01*
X182848448Y-75324025D01*
X182832296Y-75344519D01*
X182815198Y-75364202D01*
X182797189Y-75383038D01*
X182778303Y-75400995D01*
X182758573Y-75418039D01*
X182738035Y-75434135D01*
X182716722Y-75449248D01*
X182694668Y-75463347D01*
X182671908Y-75476395D01*
X182648475Y-75488359D01*
X182624405Y-75499205D01*
X182599730Y-75508900D01*
X182574485Y-75517408D01*
X182548704Y-75524696D01*
X182522422Y-75530730D01*
X182495672Y-75535476D01*
X182468489Y-75538899D01*
X182440907Y-75540967D01*
X182412960Y-75541644D01*
X182385014Y-75540908D01*
X182357436Y-75538782D01*
X182330260Y-75535302D01*
X182303521Y-75530499D01*
X182277251Y-75524410D01*
X182251486Y-75517067D01*
X182226260Y-75508506D01*
X182201605Y-75498760D01*
X182177557Y-75487862D01*
X182154150Y-75475849D01*
X182131417Y-75462753D01*
X182109393Y-75448608D01*
X182088112Y-75433449D01*
X182067608Y-75417310D01*
X182047915Y-75400225D01*
X182029066Y-75382228D01*
X182011097Y-75363354D01*
X181994041Y-75343635D01*
X181977932Y-75323107D01*
X181962804Y-75301804D01*
X181948691Y-75279759D01*
X181935628Y-75257008D01*
X181923649Y-75233583D01*
X181912787Y-75209519D01*
X181903076Y-75184851D01*
X181894552Y-75159611D01*
X181887247Y-75133836D01*
X181881196Y-75107557D01*
X181876433Y-75080811D01*
X181872991Y-75053630D01*
X181870906Y-75026049D01*
X181870211Y-74998102D01*
X181870929Y-74970156D01*
X181873036Y-74942577D01*
X181876500Y-74915399D01*
X181881284Y-74888656D01*
X181887357Y-74862383D01*
X181894683Y-74836613D01*
X181903228Y-74811380D01*
X181912958Y-74786720D01*
X181923839Y-74762665D01*
X181935838Y-74739250D01*
X181948919Y-74716509D01*
X181963050Y-74694475D01*
X181978195Y-74673184D01*
X181994320Y-74652670D01*
X182011393Y-74632965D01*
X182029377Y-74614105D01*
X182048240Y-74596123D01*
X182067947Y-74579054D01*
X182088465Y-74562932D01*
X182109758Y-74547790D01*
X182131794Y-74533663D01*
X182154537Y-74520586D01*
X182177954Y-74508591D01*
X182202011Y-74497713D01*
X182226673Y-74487987D01*
X182251906Y-74479446D01*
X182277677Y-74472124D01*
X182303952Y-74466056D01*
X182330695Y-74461275D01*
X182357874Y-74457817D01*
X182385453Y-74455714D01*
X182413400Y-74455000D01*
X182413399Y-74455529D01*
G37*
X182413399Y-74455529D02*
X182441363Y-74456263D01*
X182468959Y-74458386D01*
X182496154Y-74461865D01*
X182522913Y-74466666D01*
X182549201Y-74472754D01*
X182574986Y-74480096D01*
X182600233Y-74488657D01*
X182624908Y-74498403D01*
X182648976Y-74509301D01*
X182672404Y-74521315D01*
X182695158Y-74534412D01*
X182717203Y-74548559D01*
X182738506Y-74563720D01*
X182759032Y-74579862D01*
X182778747Y-74596950D01*
X182797618Y-74614951D01*
X182815609Y-74633830D01*
X182832688Y-74653554D01*
X182848820Y-74674088D01*
X182863971Y-74695398D01*
X182878107Y-74717450D01*
X182891193Y-74740210D01*
X182903196Y-74763644D01*
X182914082Y-74787718D01*
X182923816Y-74812397D01*
X182932365Y-74837648D01*
X182939694Y-74863437D01*
X182945770Y-74889728D01*
X182950558Y-74916490D01*
X182954024Y-74943686D01*
X182956134Y-74971284D01*
X182956854Y-74999248D01*
X182956100Y-75027194D01*
X182953957Y-75054770D01*
X182950458Y-75081943D01*
X182945639Y-75108680D01*
X182939532Y-75134945D01*
X182932173Y-75160706D01*
X182923595Y-75185927D01*
X182913833Y-75210575D01*
X182902920Y-75234616D01*
X182890891Y-75258015D01*
X182877780Y-75280739D01*
X182863621Y-75302754D01*
X182848448Y-75324025D01*
X182832296Y-75344519D01*
X182815198Y-75364202D01*
X182797189Y-75383038D01*
X182778303Y-75400995D01*
X182758573Y-75418039D01*
X182738035Y-75434135D01*
X182716722Y-75449248D01*
X182694668Y-75463347D01*
X182671908Y-75476395D01*
X182648475Y-75488359D01*
X182624405Y-75499205D01*
X182599730Y-75508900D01*
X182574485Y-75517408D01*
X182548704Y-75524696D01*
X182522422Y-75530730D01*
X182495672Y-75535476D01*
X182468489Y-75538899D01*
X182440907Y-75540967D01*
X182412960Y-75541644D01*
X182385014Y-75540908D01*
X182357436Y-75538782D01*
X182330260Y-75535302D01*
X182303521Y-75530499D01*
X182277251Y-75524410D01*
X182251486Y-75517067D01*
X182226260Y-75508506D01*
X182201605Y-75498760D01*
X182177557Y-75487862D01*
X182154150Y-75475849D01*
X182131417Y-75462753D01*
X182109393Y-75448608D01*
X182088112Y-75433449D01*
X182067608Y-75417310D01*
X182047915Y-75400225D01*
X182029066Y-75382228D01*
X182011097Y-75363354D01*
X181994041Y-75343635D01*
X181977932Y-75323107D01*
X181962804Y-75301804D01*
X181948691Y-75279759D01*
X181935628Y-75257008D01*
X181923649Y-75233583D01*
X181912787Y-75209519D01*
X181903076Y-75184851D01*
X181894552Y-75159611D01*
X181887247Y-75133836D01*
X181881196Y-75107557D01*
X181876433Y-75080811D01*
X181872991Y-75053630D01*
X181870906Y-75026049D01*
X181870211Y-74998102D01*
X181870929Y-74970156D01*
X181873036Y-74942577D01*
X181876500Y-74915399D01*
X181881284Y-74888656D01*
X181887357Y-74862383D01*
X181894683Y-74836613D01*
X181903228Y-74811380D01*
X181912958Y-74786720D01*
X181923839Y-74762665D01*
X181935838Y-74739250D01*
X181948919Y-74716509D01*
X181963050Y-74694475D01*
X181978195Y-74673184D01*
X181994320Y-74652670D01*
X182011393Y-74632965D01*
X182029377Y-74614105D01*
X182048240Y-74596123D01*
X182067947Y-74579054D01*
X182088465Y-74562932D01*
X182109758Y-74547790D01*
X182131794Y-74533663D01*
X182154537Y-74520586D01*
X182177954Y-74508591D01*
X182202011Y-74497713D01*
X182226673Y-74487987D01*
X182251906Y-74479446D01*
X182277677Y-74472124D01*
X182303952Y-74466056D01*
X182330695Y-74461275D01*
X182357874Y-74457817D01*
X182385453Y-74455714D01*
X182413400Y-74455000D01*
X182413399Y-74455529D01*
G36*
X182482381Y-74275688D02*
G01*
X182535314Y-74282708D01*
X182587926Y-74293693D01*
X182640004Y-74308683D01*
X182691335Y-74327723D01*
X182716499Y-74338704D01*
X182741095Y-74350556D01*
X182765106Y-74363256D01*
X182788520Y-74376781D01*
X182811319Y-74391109D01*
X182833489Y-74406217D01*
X182855016Y-74422082D01*
X182875883Y-74438682D01*
X182896076Y-74455994D01*
X182915580Y-74473995D01*
X182934379Y-74492664D01*
X182952459Y-74511976D01*
X182969804Y-74531911D01*
X182986399Y-74552445D01*
X183002230Y-74573555D01*
X183017280Y-74595219D01*
X183031536Y-74617414D01*
X183044981Y-74640118D01*
X183057601Y-74663308D01*
X183069380Y-74686961D01*
X183080304Y-74711055D01*
X183090357Y-74735568D01*
X183099525Y-74760476D01*
X183107791Y-74785757D01*
X183115142Y-74811388D01*
X183121562Y-74837347D01*
X183127035Y-74863612D01*
X183131547Y-74890158D01*
X183135083Y-74916965D01*
X183137627Y-74944009D01*
X183139165Y-74971268D01*
X183139681Y-74998719D01*
X183138788Y-75034733D01*
X183136127Y-75070503D01*
X183131722Y-75105969D01*
X183125597Y-75141071D01*
X183117777Y-75175750D01*
X183108287Y-75209947D01*
X183097152Y-75243602D01*
X183084396Y-75276655D01*
X183070044Y-75309047D01*
X183054120Y-75340718D01*
X183036650Y-75371609D01*
X183017657Y-75401660D01*
X182997167Y-75430812D01*
X182975204Y-75459006D01*
X182951793Y-75486180D01*
X182926958Y-75512277D01*
X182900861Y-75537112D01*
X182873686Y-75560523D01*
X182845493Y-75582486D01*
X182816341Y-75602977D01*
X182786290Y-75621969D01*
X182755399Y-75639440D01*
X182723727Y-75655363D01*
X182691336Y-75669715D01*
X182658283Y-75682472D01*
X182624628Y-75693607D01*
X182590431Y-75703097D01*
X182555752Y-75710916D01*
X182520650Y-75717041D01*
X182485184Y-75721446D01*
X182449414Y-75724108D01*
X182413400Y-75725000D01*
X182358690Y-75722947D01*
X182304839Y-75716867D01*
X182252028Y-75706881D01*
X182200438Y-75693111D01*
X182150249Y-75675677D01*
X182101642Y-75654700D01*
X182054799Y-75630301D01*
X182009900Y-75602600D01*
X181967126Y-75571719D01*
X181926657Y-75537779D01*
X181888676Y-75500900D01*
X181853363Y-75461203D01*
X181820898Y-75418809D01*
X181791462Y-75373839D01*
X181765237Y-75326414D01*
X181742404Y-75276655D01*
X181723364Y-75225324D01*
X181708374Y-75173246D01*
X181697389Y-75120633D01*
X181690368Y-75067700D01*
X181687269Y-75014660D01*
X181688048Y-74961726D01*
X181692664Y-74909111D01*
X181701074Y-74857029D01*
X181713235Y-74805693D01*
X181729105Y-74755317D01*
X181748642Y-74706114D01*
X181771804Y-74658297D01*
X181798546Y-74612080D01*
X181828829Y-74567676D01*
X181862608Y-74525299D01*
X181899841Y-74485161D01*
X181939979Y-74447928D01*
X181982356Y-74414148D01*
X182026760Y-74383866D01*
X182072977Y-74357123D01*
X182120794Y-74333962D01*
X182169997Y-74314425D01*
X182220373Y-74298555D01*
X182271709Y-74286393D01*
X182323791Y-74277983D01*
X182376406Y-74273368D01*
X182429340Y-74272588D01*
X182482381Y-74275688D01*
G37*
X182482381Y-74275688D02*
X182535314Y-74282708D01*
X182587926Y-74293693D01*
X182640004Y-74308683D01*
X182691335Y-74327723D01*
X182716499Y-74338704D01*
X182741095Y-74350556D01*
X182765106Y-74363256D01*
X182788520Y-74376781D01*
X182811319Y-74391109D01*
X182833489Y-74406217D01*
X182855016Y-74422082D01*
X182875883Y-74438682D01*
X182896076Y-74455994D01*
X182915580Y-74473995D01*
X182934379Y-74492664D01*
X182952459Y-74511976D01*
X182969804Y-74531911D01*
X182986399Y-74552445D01*
X183002230Y-74573555D01*
X183017280Y-74595219D01*
X183031536Y-74617414D01*
X183044981Y-74640118D01*
X183057601Y-74663308D01*
X183069380Y-74686961D01*
X183080304Y-74711055D01*
X183090357Y-74735568D01*
X183099525Y-74760476D01*
X183107791Y-74785757D01*
X183115142Y-74811388D01*
X183121562Y-74837347D01*
X183127035Y-74863612D01*
X183131547Y-74890158D01*
X183135083Y-74916965D01*
X183137627Y-74944009D01*
X183139165Y-74971268D01*
X183139681Y-74998719D01*
X183138788Y-75034733D01*
X183136127Y-75070503D01*
X183131722Y-75105969D01*
X183125597Y-75141071D01*
X183117777Y-75175750D01*
X183108287Y-75209947D01*
X183097152Y-75243602D01*
X183084396Y-75276655D01*
X183070044Y-75309047D01*
X183054120Y-75340718D01*
X183036650Y-75371609D01*
X183017657Y-75401660D01*
X182997167Y-75430812D01*
X182975204Y-75459006D01*
X182951793Y-75486180D01*
X182926958Y-75512277D01*
X182900861Y-75537112D01*
X182873686Y-75560523D01*
X182845493Y-75582486D01*
X182816341Y-75602977D01*
X182786290Y-75621969D01*
X182755399Y-75639440D01*
X182723727Y-75655363D01*
X182691336Y-75669715D01*
X182658283Y-75682472D01*
X182624628Y-75693607D01*
X182590431Y-75703097D01*
X182555752Y-75710916D01*
X182520650Y-75717041D01*
X182485184Y-75721446D01*
X182449414Y-75724108D01*
X182413400Y-75725000D01*
X182358690Y-75722947D01*
X182304839Y-75716867D01*
X182252028Y-75706881D01*
X182200438Y-75693111D01*
X182150249Y-75675677D01*
X182101642Y-75654700D01*
X182054799Y-75630301D01*
X182009900Y-75602600D01*
X181967126Y-75571719D01*
X181926657Y-75537779D01*
X181888676Y-75500900D01*
X181853363Y-75461203D01*
X181820898Y-75418809D01*
X181791462Y-75373839D01*
X181765237Y-75326414D01*
X181742404Y-75276655D01*
X181723364Y-75225324D01*
X181708374Y-75173246D01*
X181697389Y-75120633D01*
X181690368Y-75067700D01*
X181687269Y-75014660D01*
X181688048Y-74961726D01*
X181692664Y-74909111D01*
X181701074Y-74857029D01*
X181713235Y-74805693D01*
X181729105Y-74755317D01*
X181748642Y-74706114D01*
X181771804Y-74658297D01*
X181798546Y-74612080D01*
X181828829Y-74567676D01*
X181862608Y-74525299D01*
X181899841Y-74485161D01*
X181939979Y-74447928D01*
X181982356Y-74414148D01*
X182026760Y-74383866D01*
X182072977Y-74357123D01*
X182120794Y-74333962D01*
X182169997Y-74314425D01*
X182220373Y-74298555D01*
X182271709Y-74286393D01*
X182323791Y-74277983D01*
X182376406Y-74273368D01*
X182429340Y-74272588D01*
X182482381Y-74275688D01*
G36*
X181783696Y-74940699D02*
G01*
X181788046Y-74941082D01*
X181792361Y-74941670D01*
X181796634Y-74942461D01*
X181800857Y-74943452D01*
X181805023Y-74944639D01*
X181809125Y-74946020D01*
X181813156Y-74947591D01*
X181817108Y-74949350D01*
X181820976Y-74951294D01*
X181824751Y-74953419D01*
X181828426Y-74955723D01*
X181831994Y-74958203D01*
X181835448Y-74960855D01*
X181838780Y-74963677D01*
X181841985Y-74966666D01*
X181845054Y-74969818D01*
X181847980Y-74973132D01*
X181850756Y-74976602D01*
X181853376Y-74980228D01*
X181855831Y-74984006D01*
X181858115Y-74987932D01*
X181860220Y-74992004D01*
X181862140Y-74996219D01*
X181863848Y-75000524D01*
X181865324Y-75004864D01*
X181866571Y-75009231D01*
X181867593Y-75013619D01*
X181868391Y-75018020D01*
X181868968Y-75022427D01*
X181869329Y-75026833D01*
X181869474Y-75031230D01*
X181869408Y-75035612D01*
X181869132Y-75039970D01*
X181868650Y-75044298D01*
X181867964Y-75048589D01*
X181867078Y-75052835D01*
X181865994Y-75057029D01*
X181864715Y-75061164D01*
X181863243Y-75065232D01*
X181861582Y-75069227D01*
X181859734Y-75073141D01*
X181857703Y-75076967D01*
X181855490Y-75080698D01*
X181853099Y-75084326D01*
X181850533Y-75087844D01*
X181847794Y-75091246D01*
X181844885Y-75094523D01*
X181841809Y-75097668D01*
X181838569Y-75100675D01*
X181835168Y-75103537D01*
X181831608Y-75106244D01*
X181827892Y-75108792D01*
X181824023Y-75111172D01*
X181820005Y-75113377D01*
X181815838Y-75115400D01*
X181772158Y-75135922D01*
X181663494Y-75193799D01*
X181591887Y-75236460D01*
X181512547Y-75288115D01*
X181428312Y-75348650D01*
X181342019Y-75417951D01*
X181298988Y-75455853D01*
X181256506Y-75495902D01*
X181214928Y-75538086D01*
X181174610Y-75582390D01*
X181135905Y-75628798D01*
X181099169Y-75677298D01*
X181064756Y-75727874D01*
X181033021Y-75780513D01*
X181004318Y-75835199D01*
X180979003Y-75891920D01*
X180957430Y-75950659D01*
X180939953Y-76011403D01*
X180926928Y-76074138D01*
X180918708Y-76138849D01*
X180915650Y-76205522D01*
X180918107Y-76274143D01*
X180923254Y-76323646D01*
X180930936Y-76372576D01*
X180941105Y-76420846D01*
X180953716Y-76468370D01*
X180968723Y-76515061D01*
X180986078Y-76560832D01*
X181005735Y-76605595D01*
X181027648Y-76649265D01*
X181051771Y-76691755D01*
X181078057Y-76732977D01*
X181106460Y-76772844D01*
X181136933Y-76811271D01*
X181169430Y-76848170D01*
X181203905Y-76883454D01*
X181240311Y-76917036D01*
X181278601Y-76948830D01*
X181314400Y-76976137D01*
X181351409Y-77001382D01*
X181389540Y-77024540D01*
X181428705Y-77045589D01*
X181468812Y-77064504D01*
X181509775Y-77081262D01*
X181551503Y-77095839D01*
X181593908Y-77108213D01*
X181636900Y-77118359D01*
X181680390Y-77126255D01*
X181724290Y-77131876D01*
X181768509Y-77135199D01*
X181812960Y-77136201D01*
X181857553Y-77134858D01*
X181902198Y-77131146D01*
X181946807Y-77125043D01*
X181971691Y-77120415D01*
X181996420Y-77115158D01*
X182020982Y-77109275D01*
X182045366Y-77102771D01*
X182069560Y-77095650D01*
X182093553Y-77087917D01*
X182117333Y-77079577D01*
X182140888Y-77070635D01*
X182164207Y-77061094D01*
X182187279Y-77050959D01*
X182210092Y-77040235D01*
X182232634Y-77028926D01*
X182254895Y-77017037D01*
X182276862Y-77004572D01*
X182298524Y-76991537D01*
X182319869Y-76977935D01*
X182294069Y-76933250D01*
X182265567Y-76879889D01*
X182235606Y-76818491D01*
X182205429Y-76749694D01*
X182176278Y-76674136D01*
X182149396Y-76592456D01*
X182126026Y-76505291D01*
X182107409Y-76413281D01*
X182100272Y-76365658D01*
X182094789Y-76317063D01*
X182091116Y-76267576D01*
X182089408Y-76217276D01*
X182089821Y-76166243D01*
X182092509Y-76114558D01*
X182097628Y-76062299D01*
X182105334Y-76009547D01*
X182115781Y-75956382D01*
X182129125Y-75902883D01*
X182145522Y-75849130D01*
X182165126Y-75795202D01*
X182188094Y-75741181D01*
X182214579Y-75687144D01*
X182244739Y-75633173D01*
X182278727Y-75579347D01*
X182281457Y-75575528D01*
X182284345Y-75571890D01*
X182287384Y-75568435D01*
X182290566Y-75565164D01*
X182293882Y-75562078D01*
X182297325Y-75559180D01*
X182300887Y-75556471D01*
X182304559Y-75553952D01*
X182308335Y-75551626D01*
X182312206Y-75549492D01*
X182316165Y-75547554D01*
X182320202Y-75545812D01*
X182324311Y-75544268D01*
X182328484Y-75542924D01*
X182332712Y-75541781D01*
X182336988Y-75540841D01*
X182341304Y-75540105D01*
X182345652Y-75539575D01*
X182350024Y-75539252D01*
X182354412Y-75539138D01*
X182358808Y-75539234D01*
X182363204Y-75539543D01*
X182367593Y-75540064D01*
X182371967Y-75540801D01*
X182376317Y-75541755D01*
X182380636Y-75542927D01*
X182384916Y-75544318D01*
X182389149Y-75545931D01*
X182393326Y-75547766D01*
X182397441Y-75549825D01*
X182401485Y-75552111D01*
X182405451Y-75554624D01*
X182409285Y-75557333D01*
X182412938Y-75560202D01*
X182416410Y-75563222D01*
X182419698Y-75566386D01*
X182422802Y-75569685D01*
X182425718Y-75573112D01*
X182428447Y-75576659D01*
X182430986Y-75580318D01*
X182433333Y-75584081D01*
X182435487Y-75587941D01*
X182437447Y-75591888D01*
X182439211Y-75595916D01*
X182440777Y-75600017D01*
X182442144Y-75604182D01*
X182443310Y-75608404D01*
X182444273Y-75612675D01*
X182445033Y-75616987D01*
X182445586Y-75621332D01*
X182445933Y-75625702D01*
X182446071Y-75630089D01*
X182445998Y-75634486D01*
X182445714Y-75638884D01*
X182445216Y-75643276D01*
X182444502Y-75647653D01*
X182443573Y-75652008D01*
X182442424Y-75656334D01*
X182441056Y-75660621D01*
X182439467Y-75664862D01*
X182437654Y-75669050D01*
X182435617Y-75673176D01*
X182433353Y-75677232D01*
X182430862Y-75681212D01*
X182395870Y-75737320D01*
X182365717Y-75793572D01*
X182340164Y-75849847D01*
X182318969Y-75906022D01*
X182301892Y-75961979D01*
X182288692Y-76017595D01*
X182279129Y-76072750D01*
X182272962Y-76127322D01*
X182269950Y-76181191D01*
X182269853Y-76234236D01*
X182272430Y-76286336D01*
X182277441Y-76337369D01*
X182293801Y-76435755D01*
X182317009Y-76528424D01*
X182345138Y-76614410D01*
X182376265Y-76692746D01*
X182408464Y-76762462D01*
X182439810Y-76822593D01*
X182492247Y-76910226D01*
X182518175Y-76947904D01*
X182520807Y-76951601D01*
X182523242Y-76955408D01*
X182525479Y-76959315D01*
X182527514Y-76963317D01*
X182529347Y-76967403D01*
X182530974Y-76971567D01*
X182532394Y-76975801D01*
X182533606Y-76980097D01*
X182534606Y-76984447D01*
X182535393Y-76988843D01*
X182535966Y-76993277D01*
X182536321Y-76997742D01*
X182536457Y-77002229D01*
X182536371Y-77006730D01*
X182536063Y-77011239D01*
X182535530Y-77015746D01*
X182534773Y-77020221D01*
X182533801Y-77024634D01*
X182532616Y-77028977D01*
X182531223Y-77033245D01*
X182529626Y-77037429D01*
X182527829Y-77041523D01*
X182525836Y-77045520D01*
X182523653Y-77049412D01*
X182521281Y-77053194D01*
X182518727Y-77056857D01*
X182515994Y-77060395D01*
X182513085Y-77063801D01*
X182510006Y-77067067D01*
X182506761Y-77070188D01*
X182503353Y-77073155D01*
X182499786Y-77075962D01*
X182470765Y-77097598D01*
X182441150Y-77118313D01*
X182410965Y-77138096D01*
X182380230Y-77156938D01*
X182348970Y-77174828D01*
X182317207Y-77191758D01*
X182284962Y-77207717D01*
X182252259Y-77222695D01*
X182219121Y-77236682D01*
X182185568Y-77249668D01*
X182151626Y-77261644D01*
X182117314Y-77272600D01*
X182082658Y-77282525D01*
X182047677Y-77291409D01*
X182012397Y-77299244D01*
X181976837Y-77306018D01*
X181955953Y-77309293D01*
X181935012Y-77312139D01*
X181914023Y-77314555D01*
X181892990Y-77316541D01*
X181871921Y-77318096D01*
X181850822Y-77319221D01*
X181829700Y-77319913D01*
X181808562Y-77320173D01*
X181764840Y-77319072D01*
X181721340Y-77316141D01*
X181678115Y-77311399D01*
X181635220Y-77304865D01*
X181592708Y-77296557D01*
X181550634Y-77286495D01*
X181509050Y-77274697D01*
X181468010Y-77261183D01*
X181427569Y-77245972D01*
X181387781Y-77229082D01*
X181348698Y-77210533D01*
X181310375Y-77190343D01*
X181272866Y-77168532D01*
X181236224Y-77145118D01*
X181200503Y-77120120D01*
X181165757Y-77093558D01*
X181120040Y-77055603D01*
X181076575Y-77015512D01*
X181035417Y-76973389D01*
X180996622Y-76929336D01*
X180960245Y-76883458D01*
X180926341Y-76835859D01*
X180894966Y-76786642D01*
X180866176Y-76735912D01*
X180840025Y-76683772D01*
X180816570Y-76630325D01*
X180795865Y-76575677D01*
X180777967Y-76519930D01*
X180762930Y-76463188D01*
X180750811Y-76405556D01*
X180741664Y-76347136D01*
X180735545Y-76288034D01*
X180732424Y-76207419D01*
X180735358Y-76129286D01*
X180743965Y-76053636D01*
X180757862Y-75980472D01*
X180776668Y-75909794D01*
X180800002Y-75841604D01*
X180827480Y-75775904D01*
X180858721Y-75712695D01*
X180893342Y-75651979D01*
X180930963Y-75593757D01*
X180971200Y-75538030D01*
X181013672Y-75484801D01*
X181057997Y-75434071D01*
X181103792Y-75385841D01*
X181198268Y-75296888D01*
X181294042Y-75217954D01*
X181388060Y-75149053D01*
X181477265Y-75090195D01*
X181558601Y-75041393D01*
X181685443Y-74974008D01*
X181744136Y-74946993D01*
X181748482Y-74945392D01*
X181752857Y-74944023D01*
X181757254Y-74942884D01*
X181761666Y-74941971D01*
X181766085Y-74941281D01*
X181770505Y-74940813D01*
X181774918Y-74940561D01*
X181779318Y-74940524D01*
X181783696Y-74940699D01*
G37*
X181783696Y-74940699D02*
X181788046Y-74941082D01*
X181792361Y-74941670D01*
X181796634Y-74942461D01*
X181800857Y-74943452D01*
X181805023Y-74944639D01*
X181809125Y-74946020D01*
X181813156Y-74947591D01*
X181817108Y-74949350D01*
X181820976Y-74951294D01*
X181824751Y-74953419D01*
X181828426Y-74955723D01*
X181831994Y-74958203D01*
X181835448Y-74960855D01*
X181838780Y-74963677D01*
X181841985Y-74966666D01*
X181845054Y-74969818D01*
X181847980Y-74973132D01*
X181850756Y-74976602D01*
X181853376Y-74980228D01*
X181855831Y-74984006D01*
X181858115Y-74987932D01*
X181860220Y-74992004D01*
X181862140Y-74996219D01*
X181863848Y-75000524D01*
X181865324Y-75004864D01*
X181866571Y-75009231D01*
X181867593Y-75013619D01*
X181868391Y-75018020D01*
X181868968Y-75022427D01*
X181869329Y-75026833D01*
X181869474Y-75031230D01*
X181869408Y-75035612D01*
X181869132Y-75039970D01*
X181868650Y-75044298D01*
X181867964Y-75048589D01*
X181867078Y-75052835D01*
X181865994Y-75057029D01*
X181864715Y-75061164D01*
X181863243Y-75065232D01*
X181861582Y-75069227D01*
X181859734Y-75073141D01*
X181857703Y-75076967D01*
X181855490Y-75080698D01*
X181853099Y-75084326D01*
X181850533Y-75087844D01*
X181847794Y-75091246D01*
X181844885Y-75094523D01*
X181841809Y-75097668D01*
X181838569Y-75100675D01*
X181835168Y-75103537D01*
X181831608Y-75106244D01*
X181827892Y-75108792D01*
X181824023Y-75111172D01*
X181820005Y-75113377D01*
X181815838Y-75115400D01*
X181772158Y-75135922D01*
X181663494Y-75193799D01*
X181591887Y-75236460D01*
X181512547Y-75288115D01*
X181428312Y-75348650D01*
X181342019Y-75417951D01*
X181298988Y-75455853D01*
X181256506Y-75495902D01*
X181214928Y-75538086D01*
X181174610Y-75582390D01*
X181135905Y-75628798D01*
X181099169Y-75677298D01*
X181064756Y-75727874D01*
X181033021Y-75780513D01*
X181004318Y-75835199D01*
X180979003Y-75891920D01*
X180957430Y-75950659D01*
X180939953Y-76011403D01*
X180926928Y-76074138D01*
X180918708Y-76138849D01*
X180915650Y-76205522D01*
X180918107Y-76274143D01*
X180923254Y-76323646D01*
X180930936Y-76372576D01*
X180941105Y-76420846D01*
X180953716Y-76468370D01*
X180968723Y-76515061D01*
X180986078Y-76560832D01*
X181005735Y-76605595D01*
X181027648Y-76649265D01*
X181051771Y-76691755D01*
X181078057Y-76732977D01*
X181106460Y-76772844D01*
X181136933Y-76811271D01*
X181169430Y-76848170D01*
X181203905Y-76883454D01*
X181240311Y-76917036D01*
X181278601Y-76948830D01*
X181314400Y-76976137D01*
X181351409Y-77001382D01*
X181389540Y-77024540D01*
X181428705Y-77045589D01*
X181468812Y-77064504D01*
X181509775Y-77081262D01*
X181551503Y-77095839D01*
X181593908Y-77108213D01*
X181636900Y-77118359D01*
X181680390Y-77126255D01*
X181724290Y-77131876D01*
X181768509Y-77135199D01*
X181812960Y-77136201D01*
X181857553Y-77134858D01*
X181902198Y-77131146D01*
X181946807Y-77125043D01*
X181971691Y-77120415D01*
X181996420Y-77115158D01*
X182020982Y-77109275D01*
X182045366Y-77102771D01*
X182069560Y-77095650D01*
X182093553Y-77087917D01*
X182117333Y-77079577D01*
X182140888Y-77070635D01*
X182164207Y-77061094D01*
X182187279Y-77050959D01*
X182210092Y-77040235D01*
X182232634Y-77028926D01*
X182254895Y-77017037D01*
X182276862Y-77004572D01*
X182298524Y-76991537D01*
X182319869Y-76977935D01*
X182294069Y-76933250D01*
X182265567Y-76879889D01*
X182235606Y-76818491D01*
X182205429Y-76749694D01*
X182176278Y-76674136D01*
X182149396Y-76592456D01*
X182126026Y-76505291D01*
X182107409Y-76413281D01*
X182100272Y-76365658D01*
X182094789Y-76317063D01*
X182091116Y-76267576D01*
X182089408Y-76217276D01*
X182089821Y-76166243D01*
X182092509Y-76114558D01*
X182097628Y-76062299D01*
X182105334Y-76009547D01*
X182115781Y-75956382D01*
X182129125Y-75902883D01*
X182145522Y-75849130D01*
X182165126Y-75795202D01*
X182188094Y-75741181D01*
X182214579Y-75687144D01*
X182244739Y-75633173D01*
X182278727Y-75579347D01*
X182281457Y-75575528D01*
X182284345Y-75571890D01*
X182287384Y-75568435D01*
X182290566Y-75565164D01*
X182293882Y-75562078D01*
X182297325Y-75559180D01*
X182300887Y-75556471D01*
X182304559Y-75553952D01*
X182308335Y-75551626D01*
X182312206Y-75549492D01*
X182316165Y-75547554D01*
X182320202Y-75545812D01*
X182324311Y-75544268D01*
X182328484Y-75542924D01*
X182332712Y-75541781D01*
X182336988Y-75540841D01*
X182341304Y-75540105D01*
X182345652Y-75539575D01*
X182350024Y-75539252D01*
X182354412Y-75539138D01*
X182358808Y-75539234D01*
X182363204Y-75539543D01*
X182367593Y-75540064D01*
X182371967Y-75540801D01*
X182376317Y-75541755D01*
X182380636Y-75542927D01*
X182384916Y-75544318D01*
X182389149Y-75545931D01*
X182393326Y-75547766D01*
X182397441Y-75549825D01*
X182401485Y-75552111D01*
X182405451Y-75554624D01*
X182409285Y-75557333D01*
X182412938Y-75560202D01*
X182416410Y-75563222D01*
X182419698Y-75566386D01*
X182422802Y-75569685D01*
X182425718Y-75573112D01*
X182428447Y-75576659D01*
X182430986Y-75580318D01*
X182433333Y-75584081D01*
X182435487Y-75587941D01*
X182437447Y-75591888D01*
X182439211Y-75595916D01*
X182440777Y-75600017D01*
X182442144Y-75604182D01*
X182443310Y-75608404D01*
X182444273Y-75612675D01*
X182445033Y-75616987D01*
X182445586Y-75621332D01*
X182445933Y-75625702D01*
X182446071Y-75630089D01*
X182445998Y-75634486D01*
X182445714Y-75638884D01*
X182445216Y-75643276D01*
X182444502Y-75647653D01*
X182443573Y-75652008D01*
X182442424Y-75656334D01*
X182441056Y-75660621D01*
X182439467Y-75664862D01*
X182437654Y-75669050D01*
X182435617Y-75673176D01*
X182433353Y-75677232D01*
X182430862Y-75681212D01*
X182395870Y-75737320D01*
X182365717Y-75793572D01*
X182340164Y-75849847D01*
X182318969Y-75906022D01*
X182301892Y-75961979D01*
X182288692Y-76017595D01*
X182279129Y-76072750D01*
X182272962Y-76127322D01*
X182269950Y-76181191D01*
X182269853Y-76234236D01*
X182272430Y-76286336D01*
X182277441Y-76337369D01*
X182293801Y-76435755D01*
X182317009Y-76528424D01*
X182345138Y-76614410D01*
X182376265Y-76692746D01*
X182408464Y-76762462D01*
X182439810Y-76822593D01*
X182492247Y-76910226D01*
X182518175Y-76947904D01*
X182520807Y-76951601D01*
X182523242Y-76955408D01*
X182525479Y-76959315D01*
X182527514Y-76963317D01*
X182529347Y-76967403D01*
X182530974Y-76971567D01*
X182532394Y-76975801D01*
X182533606Y-76980097D01*
X182534606Y-76984447D01*
X182535393Y-76988843D01*
X182535966Y-76993277D01*
X182536321Y-76997742D01*
X182536457Y-77002229D01*
X182536371Y-77006730D01*
X182536063Y-77011239D01*
X182535530Y-77015746D01*
X182534773Y-77020221D01*
X182533801Y-77024634D01*
X182532616Y-77028977D01*
X182531223Y-77033245D01*
X182529626Y-77037429D01*
X182527829Y-77041523D01*
X182525836Y-77045520D01*
X182523653Y-77049412D01*
X182521281Y-77053194D01*
X182518727Y-77056857D01*
X182515994Y-77060395D01*
X182513085Y-77063801D01*
X182510006Y-77067067D01*
X182506761Y-77070188D01*
X182503353Y-77073155D01*
X182499786Y-77075962D01*
X182470765Y-77097598D01*
X182441150Y-77118313D01*
X182410965Y-77138096D01*
X182380230Y-77156938D01*
X182348970Y-77174828D01*
X182317207Y-77191758D01*
X182284962Y-77207717D01*
X182252259Y-77222695D01*
X182219121Y-77236682D01*
X182185568Y-77249668D01*
X182151626Y-77261644D01*
X182117314Y-77272600D01*
X182082658Y-77282525D01*
X182047677Y-77291409D01*
X182012397Y-77299244D01*
X181976837Y-77306018D01*
X181955953Y-77309293D01*
X181935012Y-77312139D01*
X181914023Y-77314555D01*
X181892990Y-77316541D01*
X181871921Y-77318096D01*
X181850822Y-77319221D01*
X181829700Y-77319913D01*
X181808562Y-77320173D01*
X181764840Y-77319072D01*
X181721340Y-77316141D01*
X181678115Y-77311399D01*
X181635220Y-77304865D01*
X181592708Y-77296557D01*
X181550634Y-77286495D01*
X181509050Y-77274697D01*
X181468010Y-77261183D01*
X181427569Y-77245972D01*
X181387781Y-77229082D01*
X181348698Y-77210533D01*
X181310375Y-77190343D01*
X181272866Y-77168532D01*
X181236224Y-77145118D01*
X181200503Y-77120120D01*
X181165757Y-77093558D01*
X181120040Y-77055603D01*
X181076575Y-77015512D01*
X181035417Y-76973389D01*
X180996622Y-76929336D01*
X180960245Y-76883458D01*
X180926341Y-76835859D01*
X180894966Y-76786642D01*
X180866176Y-76735912D01*
X180840025Y-76683772D01*
X180816570Y-76630325D01*
X180795865Y-76575677D01*
X180777967Y-76519930D01*
X180762930Y-76463188D01*
X180750811Y-76405556D01*
X180741664Y-76347136D01*
X180735545Y-76288034D01*
X180732424Y-76207419D01*
X180735358Y-76129286D01*
X180743965Y-76053636D01*
X180757862Y-75980472D01*
X180776668Y-75909794D01*
X180800002Y-75841604D01*
X180827480Y-75775904D01*
X180858721Y-75712695D01*
X180893342Y-75651979D01*
X180930963Y-75593757D01*
X180971200Y-75538030D01*
X181013672Y-75484801D01*
X181057997Y-75434071D01*
X181103792Y-75385841D01*
X181198268Y-75296888D01*
X181294042Y-75217954D01*
X181388060Y-75149053D01*
X181477265Y-75090195D01*
X181558601Y-75041393D01*
X181685443Y-74974008D01*
X181744136Y-74946993D01*
X181748482Y-74945392D01*
X181752857Y-74944023D01*
X181757254Y-74942884D01*
X181761666Y-74941971D01*
X181766085Y-74941281D01*
X181770505Y-74940813D01*
X181774918Y-74940561D01*
X181779318Y-74940524D01*
X181783696Y-74940699D01*
G36*
X184107959Y-73860149D02*
G01*
X184112431Y-73860435D01*
X184116894Y-73860941D01*
X184121340Y-73861668D01*
X184125761Y-73862617D01*
X184130149Y-73863789D01*
X184132174Y-73864411D01*
X184134185Y-73865079D01*
X184136180Y-73865790D01*
X184138159Y-73866546D01*
X184140120Y-73867346D01*
X184142062Y-73868190D01*
X184143987Y-73869077D01*
X184145891Y-73870007D01*
X184212376Y-73906471D01*
X184282843Y-73950468D01*
X184355723Y-74001757D01*
X184429448Y-74060097D01*
X184502450Y-74125248D01*
X184573160Y-74196968D01*
X184607166Y-74235217D01*
X184640011Y-74275017D01*
X184671499Y-74316340D01*
X184701433Y-74359155D01*
X184729619Y-74403432D01*
X184755859Y-74449140D01*
X184779959Y-74496251D01*
X184801721Y-74544733D01*
X184820949Y-74594556D01*
X184837449Y-74645692D01*
X184851023Y-74698108D01*
X184861475Y-74751776D01*
X184868610Y-74806665D01*
X184872232Y-74862745D01*
X184872144Y-74919987D01*
X184868151Y-74978359D01*
X184860056Y-75037832D01*
X184847663Y-75098376D01*
X184830777Y-75159961D01*
X184809201Y-75222557D01*
X184780522Y-75280985D01*
X184749078Y-75337635D01*
X184714956Y-75392428D01*
X184678246Y-75445281D01*
X184639038Y-75496112D01*
X184597421Y-75544841D01*
X184553484Y-75591385D01*
X184507316Y-75635664D01*
X184459006Y-75677596D01*
X184408644Y-75717100D01*
X184356319Y-75754094D01*
X184302119Y-75788496D01*
X184246136Y-75820226D01*
X184188456Y-75849203D01*
X184129171Y-75875343D01*
X184068368Y-75898567D01*
X184024291Y-75911686D01*
X183979787Y-75923062D01*
X183934907Y-75932687D01*
X183889703Y-75940552D01*
X183844226Y-75946651D01*
X183798530Y-75950974D01*
X183752665Y-75953513D01*
X183706683Y-75954262D01*
X183707344Y-75953865D01*
X183649114Y-75952555D01*
X183590166Y-75948626D01*
X183530510Y-75942079D01*
X183470154Y-75932915D01*
X183409106Y-75921135D01*
X183347376Y-75906740D01*
X183284971Y-75889730D01*
X183221900Y-75870108D01*
X183158172Y-75847873D01*
X183093795Y-75823027D01*
X183028778Y-75795570D01*
X182963129Y-75765504D01*
X182896857Y-75732830D01*
X182829971Y-75697549D01*
X182762478Y-75659660D01*
X182694387Y-75619167D01*
X182691759Y-75617597D01*
X182689196Y-75615947D01*
X182686699Y-75614220D01*
X182684269Y-75612417D01*
X182681908Y-75610542D01*
X182679617Y-75608595D01*
X182677396Y-75606580D01*
X182675248Y-75604498D01*
X182673172Y-75602351D01*
X182671172Y-75600141D01*
X182669247Y-75597871D01*
X182667399Y-75595542D01*
X182665629Y-75593157D01*
X182663939Y-75590717D01*
X182662329Y-75588226D01*
X182660801Y-75585684D01*
X182659356Y-75583094D01*
X182657996Y-75580458D01*
X182656720Y-75577778D01*
X182655532Y-75575056D01*
X182654431Y-75572294D01*
X182653419Y-75569495D01*
X182652497Y-75566661D01*
X182651667Y-75563792D01*
X182650930Y-75560893D01*
X182650286Y-75557964D01*
X182649737Y-75555008D01*
X182649285Y-75552026D01*
X182648930Y-75549022D01*
X182648674Y-75545997D01*
X182648518Y-75542953D01*
X182648463Y-75539892D01*
X182648658Y-75533786D01*
X182649253Y-75527755D01*
X182650238Y-75521815D01*
X182651604Y-75515983D01*
X182653341Y-75510275D01*
X182655439Y-75504709D01*
X182657889Y-75499301D01*
X182660681Y-75494067D01*
X182663805Y-75489025D01*
X182667252Y-75484191D01*
X182671013Y-75479582D01*
X182675077Y-75475215D01*
X182679436Y-75471106D01*
X182684078Y-75467272D01*
X182688996Y-75463729D01*
X182694178Y-75460495D01*
X182699564Y-75457613D01*
X182705086Y-75455114D01*
X182710723Y-75452999D01*
X182716457Y-75451267D01*
X182722269Y-75449919D01*
X182728138Y-75448955D01*
X182734047Y-75448374D01*
X182739975Y-75448177D01*
X182745904Y-75448363D01*
X182751814Y-75448934D01*
X182757685Y-75449887D01*
X182763499Y-75451225D01*
X182769237Y-75452947D01*
X182774878Y-75455052D01*
X182780403Y-75457541D01*
X182785795Y-75460414D01*
X182789769Y-75462666D01*
X182876321Y-75513580D01*
X182961587Y-75559907D01*
X183045549Y-75601643D01*
X183128190Y-75638783D01*
X183209493Y-75671324D01*
X183289439Y-75699261D01*
X183368011Y-75722589D01*
X183445192Y-75741305D01*
X183520964Y-75755404D01*
X183595308Y-75764882D01*
X183668208Y-75769735D01*
X183739646Y-75769959D01*
X183809605Y-75765548D01*
X183878066Y-75756500D01*
X183945011Y-75742809D01*
X184010425Y-75724471D01*
X184061662Y-75704432D01*
X184111644Y-75682004D01*
X184160298Y-75657253D01*
X184207552Y-75630242D01*
X184253336Y-75601037D01*
X184297578Y-75569702D01*
X184340206Y-75536303D01*
X184381150Y-75500904D01*
X184420337Y-75463570D01*
X184457696Y-75424366D01*
X184493157Y-75383357D01*
X184526646Y-75340607D01*
X184558094Y-75296182D01*
X184587429Y-75250146D01*
X184614578Y-75202564D01*
X184639471Y-75153500D01*
X184657195Y-75102154D01*
X184671021Y-75051833D01*
X184681126Y-75002550D01*
X184687688Y-74954320D01*
X184690885Y-74907154D01*
X184690893Y-74861067D01*
X184687891Y-74816073D01*
X184682057Y-74772184D01*
X184673567Y-74729414D01*
X184662599Y-74687777D01*
X184649332Y-74647286D01*
X184633941Y-74607955D01*
X184616606Y-74569796D01*
X184597503Y-74532823D01*
X184554705Y-74462491D01*
X184506968Y-74397066D01*
X184455712Y-74336655D01*
X184402358Y-74281366D01*
X184348326Y-74231306D01*
X184295037Y-74186582D01*
X184243910Y-74147304D01*
X184153829Y-74085510D01*
X184126313Y-74145956D01*
X184095727Y-74203038D01*
X184062321Y-74256849D01*
X184026347Y-74307487D01*
X183988056Y-74355047D01*
X183947699Y-74399623D01*
X183905529Y-74441311D01*
X183861795Y-74480206D01*
X183816750Y-74516404D01*
X183770644Y-74550001D01*
X183723730Y-74581091D01*
X183676258Y-74609771D01*
X183580647Y-74660278D01*
X183485822Y-74702287D01*
X183393794Y-74736559D01*
X183306573Y-74763858D01*
X183226170Y-74784948D01*
X183154597Y-74800592D01*
X183045979Y-74818591D01*
X182996806Y-74823962D01*
X182992362Y-74823847D01*
X182987970Y-74823524D01*
X182983635Y-74822995D01*
X182979363Y-74822266D01*
X182975158Y-74821342D01*
X182971025Y-74820227D01*
X182966971Y-74818926D01*
X182962999Y-74817444D01*
X182959115Y-74815785D01*
X182955323Y-74813955D01*
X182951630Y-74811957D01*
X182948040Y-74809797D01*
X182944558Y-74807479D01*
X182941189Y-74805007D01*
X182937939Y-74802388D01*
X182934811Y-74799625D01*
X182931813Y-74796723D01*
X182928948Y-74793686D01*
X182926222Y-74790521D01*
X182923639Y-74787230D01*
X182921206Y-74783819D01*
X182918926Y-74780293D01*
X182916805Y-74776656D01*
X182914849Y-74772913D01*
X182913061Y-74769068D01*
X182911448Y-74765127D01*
X182910015Y-74761095D01*
X182908766Y-74756975D01*
X182907706Y-74752772D01*
X182906841Y-74748492D01*
X182906176Y-74744138D01*
X182905715Y-74739716D01*
X182905467Y-74735278D01*
X182905432Y-74730874D01*
X182905605Y-74726510D01*
X182905983Y-74722193D01*
X182906561Y-74717927D01*
X182907336Y-74713717D01*
X182908302Y-74709570D01*
X182909455Y-74705490D01*
X182910792Y-74701484D01*
X182912307Y-74697556D01*
X182913997Y-74693712D01*
X182915858Y-74689958D01*
X182917884Y-74686298D01*
X182920072Y-74682739D01*
X182922418Y-74679286D01*
X182924917Y-74675944D01*
X182927565Y-74672719D01*
X182930358Y-74669616D01*
X182933291Y-74666641D01*
X182936360Y-74663799D01*
X182939561Y-74661095D01*
X182942890Y-74658535D01*
X182946342Y-74656125D01*
X182949913Y-74653870D01*
X182953599Y-74651775D01*
X182957395Y-74649846D01*
X182961297Y-74648089D01*
X182965302Y-74646508D01*
X182969404Y-74645109D01*
X182973600Y-74643898D01*
X182977884Y-74642880D01*
X182982254Y-74642061D01*
X183021388Y-74637422D01*
X183120900Y-74620135D01*
X183187888Y-74604935D01*
X183263479Y-74584397D01*
X183345509Y-74557795D01*
X183431814Y-74524404D01*
X183520231Y-74483499D01*
X183564555Y-74460001D01*
X183608595Y-74434354D01*
X183652082Y-74406465D01*
X183694744Y-74376244D01*
X183736311Y-74343601D01*
X183776512Y-74308444D01*
X183815078Y-74270683D01*
X183851737Y-74230228D01*
X183886219Y-74186988D01*
X183918254Y-74140871D01*
X183947571Y-74091789D01*
X183973899Y-74039648D01*
X183996969Y-73984360D01*
X184016510Y-73925834D01*
X184017897Y-73921509D01*
X184019489Y-73917278D01*
X184021281Y-73913144D01*
X184023269Y-73909116D01*
X184025446Y-73905199D01*
X184027809Y-73901400D01*
X184030351Y-73897725D01*
X184033067Y-73894181D01*
X184035954Y-73890772D01*
X184039005Y-73887507D01*
X184042215Y-73884392D01*
X184045579Y-73881432D01*
X184049093Y-73878633D01*
X184052751Y-73876003D01*
X184056547Y-73873548D01*
X184060478Y-73871274D01*
X184064517Y-73869197D01*
X184068635Y-73867331D01*
X184072825Y-73865676D01*
X184077079Y-73864233D01*
X184081388Y-73863004D01*
X184085745Y-73861988D01*
X184090141Y-73861187D01*
X184094569Y-73860602D01*
X184099020Y-73860233D01*
X184103486Y-73860082D01*
X184107959Y-73860149D01*
G37*
X184107959Y-73860149D02*
X184112431Y-73860435D01*
X184116894Y-73860941D01*
X184121340Y-73861668D01*
X184125761Y-73862617D01*
X184130149Y-73863789D01*
X184132174Y-73864411D01*
X184134185Y-73865079D01*
X184136180Y-73865790D01*
X184138159Y-73866546D01*
X184140120Y-73867346D01*
X184142062Y-73868190D01*
X184143987Y-73869077D01*
X184145891Y-73870007D01*
X184212376Y-73906471D01*
X184282843Y-73950468D01*
X184355723Y-74001757D01*
X184429448Y-74060097D01*
X184502450Y-74125248D01*
X184573160Y-74196968D01*
X184607166Y-74235217D01*
X184640011Y-74275017D01*
X184671499Y-74316340D01*
X184701433Y-74359155D01*
X184729619Y-74403432D01*
X184755859Y-74449140D01*
X184779959Y-74496251D01*
X184801721Y-74544733D01*
X184820949Y-74594556D01*
X184837449Y-74645692D01*
X184851023Y-74698108D01*
X184861475Y-74751776D01*
X184868610Y-74806665D01*
X184872232Y-74862745D01*
X184872144Y-74919987D01*
X184868151Y-74978359D01*
X184860056Y-75037832D01*
X184847663Y-75098376D01*
X184830777Y-75159961D01*
X184809201Y-75222557D01*
X184780522Y-75280985D01*
X184749078Y-75337635D01*
X184714956Y-75392428D01*
X184678246Y-75445281D01*
X184639038Y-75496112D01*
X184597421Y-75544841D01*
X184553484Y-75591385D01*
X184507316Y-75635664D01*
X184459006Y-75677596D01*
X184408644Y-75717100D01*
X184356319Y-75754094D01*
X184302119Y-75788496D01*
X184246136Y-75820226D01*
X184188456Y-75849203D01*
X184129171Y-75875343D01*
X184068368Y-75898567D01*
X184024291Y-75911686D01*
X183979787Y-75923062D01*
X183934907Y-75932687D01*
X183889703Y-75940552D01*
X183844226Y-75946651D01*
X183798530Y-75950974D01*
X183752665Y-75953513D01*
X183706683Y-75954262D01*
X183707344Y-75953865D01*
X183649114Y-75952555D01*
X183590166Y-75948626D01*
X183530510Y-75942079D01*
X183470154Y-75932915D01*
X183409106Y-75921135D01*
X183347376Y-75906740D01*
X183284971Y-75889730D01*
X183221900Y-75870108D01*
X183158172Y-75847873D01*
X183093795Y-75823027D01*
X183028778Y-75795570D01*
X182963129Y-75765504D01*
X182896857Y-75732830D01*
X182829971Y-75697549D01*
X182762478Y-75659660D01*
X182694387Y-75619167D01*
X182691759Y-75617597D01*
X182689196Y-75615947D01*
X182686699Y-75614220D01*
X182684269Y-75612417D01*
X182681908Y-75610542D01*
X182679617Y-75608595D01*
X182677396Y-75606580D01*
X182675248Y-75604498D01*
X182673172Y-75602351D01*
X182671172Y-75600141D01*
X182669247Y-75597871D01*
X182667399Y-75595542D01*
X182665629Y-75593157D01*
X182663939Y-75590717D01*
X182662329Y-75588226D01*
X182660801Y-75585684D01*
X182659356Y-75583094D01*
X182657996Y-75580458D01*
X182656720Y-75577778D01*
X182655532Y-75575056D01*
X182654431Y-75572294D01*
X182653419Y-75569495D01*
X182652497Y-75566661D01*
X182651667Y-75563792D01*
X182650930Y-75560893D01*
X182650286Y-75557964D01*
X182649737Y-75555008D01*
X182649285Y-75552026D01*
X182648930Y-75549022D01*
X182648674Y-75545997D01*
X182648518Y-75542953D01*
X182648463Y-75539892D01*
X182648658Y-75533786D01*
X182649253Y-75527755D01*
X182650238Y-75521815D01*
X182651604Y-75515983D01*
X182653341Y-75510275D01*
X182655439Y-75504709D01*
X182657889Y-75499301D01*
X182660681Y-75494067D01*
X182663805Y-75489025D01*
X182667252Y-75484191D01*
X182671013Y-75479582D01*
X182675077Y-75475215D01*
X182679436Y-75471106D01*
X182684078Y-75467272D01*
X182688996Y-75463729D01*
X182694178Y-75460495D01*
X182699564Y-75457613D01*
X182705086Y-75455114D01*
X182710723Y-75452999D01*
X182716457Y-75451267D01*
X182722269Y-75449919D01*
X182728138Y-75448955D01*
X182734047Y-75448374D01*
X182739975Y-75448177D01*
X182745904Y-75448363D01*
X182751814Y-75448934D01*
X182757685Y-75449887D01*
X182763499Y-75451225D01*
X182769237Y-75452947D01*
X182774878Y-75455052D01*
X182780403Y-75457541D01*
X182785795Y-75460414D01*
X182789769Y-75462666D01*
X182876321Y-75513580D01*
X182961587Y-75559907D01*
X183045549Y-75601643D01*
X183128190Y-75638783D01*
X183209493Y-75671324D01*
X183289439Y-75699261D01*
X183368011Y-75722589D01*
X183445192Y-75741305D01*
X183520964Y-75755404D01*
X183595308Y-75764882D01*
X183668208Y-75769735D01*
X183739646Y-75769959D01*
X183809605Y-75765548D01*
X183878066Y-75756500D01*
X183945011Y-75742809D01*
X184010425Y-75724471D01*
X184061662Y-75704432D01*
X184111644Y-75682004D01*
X184160298Y-75657253D01*
X184207552Y-75630242D01*
X184253336Y-75601037D01*
X184297578Y-75569702D01*
X184340206Y-75536303D01*
X184381150Y-75500904D01*
X184420337Y-75463570D01*
X184457696Y-75424366D01*
X184493157Y-75383357D01*
X184526646Y-75340607D01*
X184558094Y-75296182D01*
X184587429Y-75250146D01*
X184614578Y-75202564D01*
X184639471Y-75153500D01*
X184657195Y-75102154D01*
X184671021Y-75051833D01*
X184681126Y-75002550D01*
X184687688Y-74954320D01*
X184690885Y-74907154D01*
X184690893Y-74861067D01*
X184687891Y-74816073D01*
X184682057Y-74772184D01*
X184673567Y-74729414D01*
X184662599Y-74687777D01*
X184649332Y-74647286D01*
X184633941Y-74607955D01*
X184616606Y-74569796D01*
X184597503Y-74532823D01*
X184554705Y-74462491D01*
X184506968Y-74397066D01*
X184455712Y-74336655D01*
X184402358Y-74281366D01*
X184348326Y-74231306D01*
X184295037Y-74186582D01*
X184243910Y-74147304D01*
X184153829Y-74085510D01*
X184126313Y-74145956D01*
X184095727Y-74203038D01*
X184062321Y-74256849D01*
X184026347Y-74307487D01*
X183988056Y-74355047D01*
X183947699Y-74399623D01*
X183905529Y-74441311D01*
X183861795Y-74480206D01*
X183816750Y-74516404D01*
X183770644Y-74550001D01*
X183723730Y-74581091D01*
X183676258Y-74609771D01*
X183580647Y-74660278D01*
X183485822Y-74702287D01*
X183393794Y-74736559D01*
X183306573Y-74763858D01*
X183226170Y-74784948D01*
X183154597Y-74800592D01*
X183045979Y-74818591D01*
X182996806Y-74823962D01*
X182992362Y-74823847D01*
X182987970Y-74823524D01*
X182983635Y-74822995D01*
X182979363Y-74822266D01*
X182975158Y-74821342D01*
X182971025Y-74820227D01*
X182966971Y-74818926D01*
X182962999Y-74817444D01*
X182959115Y-74815785D01*
X182955323Y-74813955D01*
X182951630Y-74811957D01*
X182948040Y-74809797D01*
X182944558Y-74807479D01*
X182941189Y-74805007D01*
X182937939Y-74802388D01*
X182934811Y-74799625D01*
X182931813Y-74796723D01*
X182928948Y-74793686D01*
X182926222Y-74790521D01*
X182923639Y-74787230D01*
X182921206Y-74783819D01*
X182918926Y-74780293D01*
X182916805Y-74776656D01*
X182914849Y-74772913D01*
X182913061Y-74769068D01*
X182911448Y-74765127D01*
X182910015Y-74761095D01*
X182908766Y-74756975D01*
X182907706Y-74752772D01*
X182906841Y-74748492D01*
X182906176Y-74744138D01*
X182905715Y-74739716D01*
X182905467Y-74735278D01*
X182905432Y-74730874D01*
X182905605Y-74726510D01*
X182905983Y-74722193D01*
X182906561Y-74717927D01*
X182907336Y-74713717D01*
X182908302Y-74709570D01*
X182909455Y-74705490D01*
X182910792Y-74701484D01*
X182912307Y-74697556D01*
X182913997Y-74693712D01*
X182915858Y-74689958D01*
X182917884Y-74686298D01*
X182920072Y-74682739D01*
X182922418Y-74679286D01*
X182924917Y-74675944D01*
X182927565Y-74672719D01*
X182930358Y-74669616D01*
X182933291Y-74666641D01*
X182936360Y-74663799D01*
X182939561Y-74661095D01*
X182942890Y-74658535D01*
X182946342Y-74656125D01*
X182949913Y-74653870D01*
X182953599Y-74651775D01*
X182957395Y-74649846D01*
X182961297Y-74648089D01*
X182965302Y-74646508D01*
X182969404Y-74645109D01*
X182973600Y-74643898D01*
X182977884Y-74642880D01*
X182982254Y-74642061D01*
X183021388Y-74637422D01*
X183120900Y-74620135D01*
X183187888Y-74604935D01*
X183263479Y-74584397D01*
X183345509Y-74557795D01*
X183431814Y-74524404D01*
X183520231Y-74483499D01*
X183564555Y-74460001D01*
X183608595Y-74434354D01*
X183652082Y-74406465D01*
X183694744Y-74376244D01*
X183736311Y-74343601D01*
X183776512Y-74308444D01*
X183815078Y-74270683D01*
X183851737Y-74230228D01*
X183886219Y-74186988D01*
X183918254Y-74140871D01*
X183947571Y-74091789D01*
X183973899Y-74039648D01*
X183996969Y-73984360D01*
X184016510Y-73925834D01*
X184017897Y-73921509D01*
X184019489Y-73917278D01*
X184021281Y-73913144D01*
X184023269Y-73909116D01*
X184025446Y-73905199D01*
X184027809Y-73901400D01*
X184030351Y-73897725D01*
X184033067Y-73894181D01*
X184035954Y-73890772D01*
X184039005Y-73887507D01*
X184042215Y-73884392D01*
X184045579Y-73881432D01*
X184049093Y-73878633D01*
X184052751Y-73876003D01*
X184056547Y-73873548D01*
X184060478Y-73871274D01*
X184064517Y-73869197D01*
X184068635Y-73867331D01*
X184072825Y-73865676D01*
X184077079Y-73864233D01*
X184081388Y-73863004D01*
X184085745Y-73861988D01*
X184090141Y-73861187D01*
X184094569Y-73860602D01*
X184099020Y-73860233D01*
X184103486Y-73860082D01*
X184107959Y-73860149D01*
G36*
X181683141Y-72791268D02*
G01*
X181741379Y-72794691D01*
X181799401Y-72801104D01*
X181857089Y-72810504D01*
X181914324Y-72822886D01*
X181970988Y-72838247D01*
X182026964Y-72856582D01*
X182082135Y-72877888D01*
X182136381Y-72902161D01*
X182207792Y-72939802D01*
X182274020Y-72981440D01*
X182335254Y-73026743D01*
X182391684Y-73075380D01*
X182443500Y-73127020D01*
X182490894Y-73181332D01*
X182534054Y-73237984D01*
X182573171Y-73296646D01*
X182608435Y-73356986D01*
X182640037Y-73418673D01*
X182668166Y-73481376D01*
X182693012Y-73544763D01*
X182733619Y-73672267D01*
X182763377Y-73798536D01*
X182783809Y-73920919D01*
X182796436Y-74036768D01*
X182802779Y-74143434D01*
X182804359Y-74238265D01*
X182799315Y-74381831D01*
X182793474Y-74446269D01*
X182792742Y-74450907D01*
X182791787Y-74455454D01*
X182790617Y-74459905D01*
X182789236Y-74464254D01*
X182787651Y-74468498D01*
X182785870Y-74472632D01*
X182783897Y-74476649D01*
X182781740Y-74480546D01*
X182779405Y-74484317D01*
X182776898Y-74487958D01*
X182774225Y-74491464D01*
X182771394Y-74494829D01*
X182768410Y-74498049D01*
X182765280Y-74501119D01*
X182762010Y-74504034D01*
X182758607Y-74506789D01*
X182755076Y-74509379D01*
X182751425Y-74511800D01*
X182747660Y-74514046D01*
X182743786Y-74516112D01*
X182739811Y-74517993D01*
X182735741Y-74519685D01*
X182731582Y-74521183D01*
X182727340Y-74522482D01*
X182723023Y-74523576D01*
X182718635Y-74524461D01*
X182714185Y-74525132D01*
X182709677Y-74525584D01*
X182705119Y-74525813D01*
X182700517Y-74525812D01*
X182695877Y-74525578D01*
X182691206Y-74525105D01*
X182686564Y-74524398D01*
X182682012Y-74523467D01*
X182677556Y-74522319D01*
X182673199Y-74520961D01*
X182668946Y-74519399D01*
X182664804Y-74517639D01*
X182660776Y-74515687D01*
X182656868Y-74513550D01*
X182653085Y-74511235D01*
X182649431Y-74508747D01*
X182645911Y-74506093D01*
X182642531Y-74503279D01*
X182639296Y-74500312D01*
X182636209Y-74497198D01*
X182633277Y-74493944D01*
X182630504Y-74490555D01*
X182627896Y-74487038D01*
X182625457Y-74483399D01*
X182623191Y-74479645D01*
X182621105Y-74475783D01*
X182619203Y-74471818D01*
X182617489Y-74467756D01*
X182615970Y-74463605D01*
X182614649Y-74459370D01*
X182613533Y-74455059D01*
X182612625Y-74450676D01*
X182611930Y-74446229D01*
X182611455Y-74441724D01*
X182611202Y-74437167D01*
X182611179Y-74432565D01*
X182611389Y-74427924D01*
X182611837Y-74423250D01*
X182615920Y-74375190D01*
X182620139Y-74252162D01*
X182619001Y-74168823D01*
X182613939Y-74074288D01*
X182603635Y-73971071D01*
X182586768Y-73861689D01*
X182562019Y-73748655D01*
X182546277Y-73691555D01*
X182528070Y-73634486D01*
X182507232Y-73577761D01*
X182483600Y-73521696D01*
X182457008Y-73466604D01*
X182427290Y-73412800D01*
X182394284Y-73360599D01*
X182357822Y-73310315D01*
X182317741Y-73262261D01*
X182273875Y-73216754D01*
X182226061Y-73174106D01*
X182174131Y-73134633D01*
X182117923Y-73098648D01*
X182057271Y-73066467D01*
X182011777Y-73046128D01*
X181965510Y-73028276D01*
X181918568Y-73012915D01*
X181871049Y-73000048D01*
X181823053Y-72989677D01*
X181774679Y-72981807D01*
X181726024Y-72976440D01*
X181677188Y-72973580D01*
X181628270Y-72973230D01*
X181579368Y-72975393D01*
X181530581Y-72980073D01*
X181482009Y-72987272D01*
X181433748Y-72996995D01*
X181385899Y-73009243D01*
X181338561Y-73024021D01*
X181291831Y-73041332D01*
X181250333Y-73058638D01*
X181210011Y-73078019D01*
X181170930Y-73099410D01*
X181133155Y-73122747D01*
X181096750Y-73147963D01*
X181061781Y-73174995D01*
X181028312Y-73203776D01*
X180996407Y-73234242D01*
X180966132Y-73266327D01*
X180937551Y-73299968D01*
X180910728Y-73335097D01*
X180885730Y-73371652D01*
X180862619Y-73409565D01*
X180841461Y-73448773D01*
X180822320Y-73489210D01*
X180805262Y-73530811D01*
X180796855Y-73554696D01*
X180789070Y-73578761D01*
X180781911Y-73602993D01*
X180775378Y-73627380D01*
X180769473Y-73651911D01*
X180764199Y-73676572D01*
X180759558Y-73701351D01*
X180755550Y-73726237D01*
X180752177Y-73751217D01*
X180749443Y-73776279D01*
X180747347Y-73801411D01*
X180745893Y-73826600D01*
X180745082Y-73851834D01*
X180744916Y-73877101D01*
X180745396Y-73902389D01*
X180746525Y-73927685D01*
X180859589Y-73929736D01*
X180928041Y-73934513D01*
X181002894Y-73942800D01*
X181082988Y-73955353D01*
X181167164Y-73972929D01*
X181254264Y-73996285D01*
X181343127Y-74026177D01*
X181432595Y-74063361D01*
X181477194Y-74084924D01*
X181521508Y-74108595D01*
X181565395Y-74134466D01*
X181608708Y-74162634D01*
X181651303Y-74193192D01*
X181693034Y-74226235D01*
X181733758Y-74261858D01*
X181773329Y-74300155D01*
X181811601Y-74341221D01*
X181848431Y-74385150D01*
X181883673Y-74432038D01*
X181917183Y-74481977D01*
X181948815Y-74535064D01*
X181978425Y-74591393D01*
X181980386Y-74595673D01*
X181982110Y-74600001D01*
X181983601Y-74604369D01*
X181984859Y-74608769D01*
X181985888Y-74613193D01*
X181986691Y-74617634D01*
X181987269Y-74622084D01*
X181987627Y-74626535D01*
X181987766Y-74630981D01*
X181987689Y-74635412D01*
X181987398Y-74639822D01*
X181986896Y-74644203D01*
X181986187Y-74648547D01*
X181985271Y-74652847D01*
X181984153Y-74657094D01*
X181982835Y-74661282D01*
X181981318Y-74665402D01*
X181979607Y-74669447D01*
X181977703Y-74673409D01*
X181975609Y-74677280D01*
X181973328Y-74681054D01*
X181970862Y-74684721D01*
X181968214Y-74688276D01*
X181965386Y-74691709D01*
X181962382Y-74695013D01*
X181959204Y-74698181D01*
X181955853Y-74701205D01*
X181952334Y-74704077D01*
X181948649Y-74706790D01*
X181944800Y-74709336D01*
X181940789Y-74711706D01*
X181936621Y-74713895D01*
X181934244Y-74715010D01*
X181931839Y-74716053D01*
X181929407Y-74717024D01*
X181926951Y-74717922D01*
X181924471Y-74718747D01*
X181921970Y-74719498D01*
X181919449Y-74720176D01*
X181916910Y-74720779D01*
X181914354Y-74721308D01*
X181911784Y-74721762D01*
X181909200Y-74722140D01*
X181906605Y-74722443D01*
X181903999Y-74722670D01*
X181901385Y-74722820D01*
X181898765Y-74722894D01*
X181896139Y-74722891D01*
X181895875Y-74723156D01*
X181889362Y-74722948D01*
X181882938Y-74722285D01*
X181876625Y-74721180D01*
X181870442Y-74719643D01*
X181864408Y-74717688D01*
X181858543Y-74715326D01*
X181852868Y-74712571D01*
X181847402Y-74709435D01*
X181842165Y-74705929D01*
X181837177Y-74702067D01*
X181832458Y-74697860D01*
X181828027Y-74693321D01*
X181823905Y-74688463D01*
X181820112Y-74683296D01*
X181816666Y-74677835D01*
X181813589Y-74672091D01*
X181782302Y-74613526D01*
X181748353Y-74559126D01*
X181711980Y-74508739D01*
X181673421Y-74462213D01*
X181632916Y-74419399D01*
X181590700Y-74380145D01*
X181547014Y-74344299D01*
X181502094Y-74311712D01*
X181456179Y-74282231D01*
X181409508Y-74255706D01*
X181362317Y-74231986D01*
X181314845Y-74210919D01*
X181220012Y-74176142D01*
X181126913Y-74150167D01*
X181037452Y-74131786D01*
X180953535Y-74119789D01*
X180877065Y-74112968D01*
X180809948Y-74110116D01*
X180711392Y-74111481D01*
X180673103Y-74114217D01*
X180668440Y-74114651D01*
X180663811Y-74114848D01*
X180659221Y-74114813D01*
X180654677Y-74114550D01*
X180650185Y-74114064D01*
X180645751Y-74113361D01*
X180641382Y-74112445D01*
X180637084Y-74111321D01*
X180632863Y-74109994D01*
X180628725Y-74108469D01*
X180624678Y-74106751D01*
X180620727Y-74104845D01*
X180616878Y-74102757D01*
X180613139Y-74100489D01*
X180609514Y-74098049D01*
X180606011Y-74095440D01*
X180602636Y-74092668D01*
X180599395Y-74089738D01*
X180596294Y-74086654D01*
X180593340Y-74083421D01*
X180590539Y-74080045D01*
X180587898Y-74076531D01*
X180585422Y-74072882D01*
X180583118Y-74069105D01*
X180580992Y-74065204D01*
X180579051Y-74061183D01*
X180577301Y-74057049D01*
X180575748Y-74052806D01*
X180574399Y-74048459D01*
X180573259Y-74044013D01*
X180572336Y-74039472D01*
X180571635Y-74034842D01*
X180567437Y-73998914D01*
X180564330Y-73962933D01*
X180562312Y-73926924D01*
X180561380Y-73890911D01*
X180561532Y-73854918D01*
X180562764Y-73818971D01*
X180565074Y-73783092D01*
X180568460Y-73747307D01*
X180572919Y-73711640D01*
X180578448Y-73676114D01*
X180585045Y-73640756D01*
X180592706Y-73605588D01*
X180601429Y-73570635D01*
X180611212Y-73535921D01*
X180622051Y-73501472D01*
X180633945Y-73467310D01*
X180654582Y-73416782D01*
X180677747Y-73367661D01*
X180703360Y-73320027D01*
X180731343Y-73273959D01*
X180761619Y-73229535D01*
X180794109Y-73186835D01*
X180828734Y-73145937D01*
X180865417Y-73106920D01*
X180904080Y-73069864D01*
X180944644Y-73034848D01*
X180987030Y-73001950D01*
X181031161Y-72971249D01*
X181076959Y-72942824D01*
X181124345Y-72916755D01*
X181173241Y-72893120D01*
X181223569Y-72871998D01*
X181279299Y-72851359D01*
X181335755Y-72833742D01*
X181392820Y-72819142D01*
X181450375Y-72807556D01*
X181508302Y-72798979D01*
X181566484Y-72793408D01*
X181624803Y-72790839D01*
X181683141Y-72791268D01*
G37*
X181683141Y-72791268D02*
X181741379Y-72794691D01*
X181799401Y-72801104D01*
X181857089Y-72810504D01*
X181914324Y-72822886D01*
X181970988Y-72838247D01*
X182026964Y-72856582D01*
X182082135Y-72877888D01*
X182136381Y-72902161D01*
X182207792Y-72939802D01*
X182274020Y-72981440D01*
X182335254Y-73026743D01*
X182391684Y-73075380D01*
X182443500Y-73127020D01*
X182490894Y-73181332D01*
X182534054Y-73237984D01*
X182573171Y-73296646D01*
X182608435Y-73356986D01*
X182640037Y-73418673D01*
X182668166Y-73481376D01*
X182693012Y-73544763D01*
X182733619Y-73672267D01*
X182763377Y-73798536D01*
X182783809Y-73920919D01*
X182796436Y-74036768D01*
X182802779Y-74143434D01*
X182804359Y-74238265D01*
X182799315Y-74381831D01*
X182793474Y-74446269D01*
X182792742Y-74450907D01*
X182791787Y-74455454D01*
X182790617Y-74459905D01*
X182789236Y-74464254D01*
X182787651Y-74468498D01*
X182785870Y-74472632D01*
X182783897Y-74476649D01*
X182781740Y-74480546D01*
X182779405Y-74484317D01*
X182776898Y-74487958D01*
X182774225Y-74491464D01*
X182771394Y-74494829D01*
X182768410Y-74498049D01*
X182765280Y-74501119D01*
X182762010Y-74504034D01*
X182758607Y-74506789D01*
X182755076Y-74509379D01*
X182751425Y-74511800D01*
X182747660Y-74514046D01*
X182743786Y-74516112D01*
X182739811Y-74517993D01*
X182735741Y-74519685D01*
X182731582Y-74521183D01*
X182727340Y-74522482D01*
X182723023Y-74523576D01*
X182718635Y-74524461D01*
X182714185Y-74525132D01*
X182709677Y-74525584D01*
X182705119Y-74525813D01*
X182700517Y-74525812D01*
X182695877Y-74525578D01*
X182691206Y-74525105D01*
X182686564Y-74524398D01*
X182682012Y-74523467D01*
X182677556Y-74522319D01*
X182673199Y-74520961D01*
X182668946Y-74519399D01*
X182664804Y-74517639D01*
X182660776Y-74515687D01*
X182656868Y-74513550D01*
X182653085Y-74511235D01*
X182649431Y-74508747D01*
X182645911Y-74506093D01*
X182642531Y-74503279D01*
X182639296Y-74500312D01*
X182636209Y-74497198D01*
X182633277Y-74493944D01*
X182630504Y-74490555D01*
X182627896Y-74487038D01*
X182625457Y-74483399D01*
X182623191Y-74479645D01*
X182621105Y-74475783D01*
X182619203Y-74471818D01*
X182617489Y-74467756D01*
X182615970Y-74463605D01*
X182614649Y-74459370D01*
X182613533Y-74455059D01*
X182612625Y-74450676D01*
X182611930Y-74446229D01*
X182611455Y-74441724D01*
X182611202Y-74437167D01*
X182611179Y-74432565D01*
X182611389Y-74427924D01*
X182611837Y-74423250D01*
X182615920Y-74375190D01*
X182620139Y-74252162D01*
X182619001Y-74168823D01*
X182613939Y-74074288D01*
X182603635Y-73971071D01*
X182586768Y-73861689D01*
X182562019Y-73748655D01*
X182546277Y-73691555D01*
X182528070Y-73634486D01*
X182507232Y-73577761D01*
X182483600Y-73521696D01*
X182457008Y-73466604D01*
X182427290Y-73412800D01*
X182394284Y-73360599D01*
X182357822Y-73310315D01*
X182317741Y-73262261D01*
X182273875Y-73216754D01*
X182226061Y-73174106D01*
X182174131Y-73134633D01*
X182117923Y-73098648D01*
X182057271Y-73066467D01*
X182011777Y-73046128D01*
X181965510Y-73028276D01*
X181918568Y-73012915D01*
X181871049Y-73000048D01*
X181823053Y-72989677D01*
X181774679Y-72981807D01*
X181726024Y-72976440D01*
X181677188Y-72973580D01*
X181628270Y-72973230D01*
X181579368Y-72975393D01*
X181530581Y-72980073D01*
X181482009Y-72987272D01*
X181433748Y-72996995D01*
X181385899Y-73009243D01*
X181338561Y-73024021D01*
X181291831Y-73041332D01*
X181250333Y-73058638D01*
X181210011Y-73078019D01*
X181170930Y-73099410D01*
X181133155Y-73122747D01*
X181096750Y-73147963D01*
X181061781Y-73174995D01*
X181028312Y-73203776D01*
X180996407Y-73234242D01*
X180966132Y-73266327D01*
X180937551Y-73299968D01*
X180910728Y-73335097D01*
X180885730Y-73371652D01*
X180862619Y-73409565D01*
X180841461Y-73448773D01*
X180822320Y-73489210D01*
X180805262Y-73530811D01*
X180796855Y-73554696D01*
X180789070Y-73578761D01*
X180781911Y-73602993D01*
X180775378Y-73627380D01*
X180769473Y-73651911D01*
X180764199Y-73676572D01*
X180759558Y-73701351D01*
X180755550Y-73726237D01*
X180752177Y-73751217D01*
X180749443Y-73776279D01*
X180747347Y-73801411D01*
X180745893Y-73826600D01*
X180745082Y-73851834D01*
X180744916Y-73877101D01*
X180745396Y-73902389D01*
X180746525Y-73927685D01*
X180859589Y-73929736D01*
X180928041Y-73934513D01*
X181002894Y-73942800D01*
X181082988Y-73955353D01*
X181167164Y-73972929D01*
X181254264Y-73996285D01*
X181343127Y-74026177D01*
X181432595Y-74063361D01*
X181477194Y-74084924D01*
X181521508Y-74108595D01*
X181565395Y-74134466D01*
X181608708Y-74162634D01*
X181651303Y-74193192D01*
X181693034Y-74226235D01*
X181733758Y-74261858D01*
X181773329Y-74300155D01*
X181811601Y-74341221D01*
X181848431Y-74385150D01*
X181883673Y-74432038D01*
X181917183Y-74481977D01*
X181948815Y-74535064D01*
X181978425Y-74591393D01*
X181980386Y-74595673D01*
X181982110Y-74600001D01*
X181983601Y-74604369D01*
X181984859Y-74608769D01*
X181985888Y-74613193D01*
X181986691Y-74617634D01*
X181987269Y-74622084D01*
X181987627Y-74626535D01*
X181987766Y-74630981D01*
X181987689Y-74635412D01*
X181987398Y-74639822D01*
X181986896Y-74644203D01*
X181986187Y-74648547D01*
X181985271Y-74652847D01*
X181984153Y-74657094D01*
X181982835Y-74661282D01*
X181981318Y-74665402D01*
X181979607Y-74669447D01*
X181977703Y-74673409D01*
X181975609Y-74677280D01*
X181973328Y-74681054D01*
X181970862Y-74684721D01*
X181968214Y-74688276D01*
X181965386Y-74691709D01*
X181962382Y-74695013D01*
X181959204Y-74698181D01*
X181955853Y-74701205D01*
X181952334Y-74704077D01*
X181948649Y-74706790D01*
X181944800Y-74709336D01*
X181940789Y-74711706D01*
X181936621Y-74713895D01*
X181934244Y-74715010D01*
X181931839Y-74716053D01*
X181929407Y-74717024D01*
X181926951Y-74717922D01*
X181924471Y-74718747D01*
X181921970Y-74719498D01*
X181919449Y-74720176D01*
X181916910Y-74720779D01*
X181914354Y-74721308D01*
X181911784Y-74721762D01*
X181909200Y-74722140D01*
X181906605Y-74722443D01*
X181903999Y-74722670D01*
X181901385Y-74722820D01*
X181898765Y-74722894D01*
X181896139Y-74722891D01*
X181895875Y-74723156D01*
X181889362Y-74722948D01*
X181882938Y-74722285D01*
X181876625Y-74721180D01*
X181870442Y-74719643D01*
X181864408Y-74717688D01*
X181858543Y-74715326D01*
X181852868Y-74712571D01*
X181847402Y-74709435D01*
X181842165Y-74705929D01*
X181837177Y-74702067D01*
X181832458Y-74697860D01*
X181828027Y-74693321D01*
X181823905Y-74688463D01*
X181820112Y-74683296D01*
X181816666Y-74677835D01*
X181813589Y-74672091D01*
X181782302Y-74613526D01*
X181748353Y-74559126D01*
X181711980Y-74508739D01*
X181673421Y-74462213D01*
X181632916Y-74419399D01*
X181590700Y-74380145D01*
X181547014Y-74344299D01*
X181502094Y-74311712D01*
X181456179Y-74282231D01*
X181409508Y-74255706D01*
X181362317Y-74231986D01*
X181314845Y-74210919D01*
X181220012Y-74176142D01*
X181126913Y-74150167D01*
X181037452Y-74131786D01*
X180953535Y-74119789D01*
X180877065Y-74112968D01*
X180809948Y-74110116D01*
X180711392Y-74111481D01*
X180673103Y-74114217D01*
X180668440Y-74114651D01*
X180663811Y-74114848D01*
X180659221Y-74114813D01*
X180654677Y-74114550D01*
X180650185Y-74114064D01*
X180645751Y-74113361D01*
X180641382Y-74112445D01*
X180637084Y-74111321D01*
X180632863Y-74109994D01*
X180628725Y-74108469D01*
X180624678Y-74106751D01*
X180620727Y-74104845D01*
X180616878Y-74102757D01*
X180613139Y-74100489D01*
X180609514Y-74098049D01*
X180606011Y-74095440D01*
X180602636Y-74092668D01*
X180599395Y-74089738D01*
X180596294Y-74086654D01*
X180593340Y-74083421D01*
X180590539Y-74080045D01*
X180587898Y-74076531D01*
X180585422Y-74072882D01*
X180583118Y-74069105D01*
X180580992Y-74065204D01*
X180579051Y-74061183D01*
X180577301Y-74057049D01*
X180575748Y-74052806D01*
X180574399Y-74048459D01*
X180573259Y-74044013D01*
X180572336Y-74039472D01*
X180571635Y-74034842D01*
X180567437Y-73998914D01*
X180564330Y-73962933D01*
X180562312Y-73926924D01*
X180561380Y-73890911D01*
X180561532Y-73854918D01*
X180562764Y-73818971D01*
X180565074Y-73783092D01*
X180568460Y-73747307D01*
X180572919Y-73711640D01*
X180578448Y-73676114D01*
X180585045Y-73640756D01*
X180592706Y-73605588D01*
X180601429Y-73570635D01*
X180611212Y-73535921D01*
X180622051Y-73501472D01*
X180633945Y-73467310D01*
X180654582Y-73416782D01*
X180677747Y-73367661D01*
X180703360Y-73320027D01*
X180731343Y-73273959D01*
X180761619Y-73229535D01*
X180794109Y-73186835D01*
X180828734Y-73145937D01*
X180865417Y-73106920D01*
X180904080Y-73069864D01*
X180944644Y-73034848D01*
X180987030Y-73001950D01*
X181031161Y-72971249D01*
X181076959Y-72942824D01*
X181124345Y-72916755D01*
X181173241Y-72893120D01*
X181223569Y-72871998D01*
X181279299Y-72851359D01*
X181335755Y-72833742D01*
X181392820Y-72819142D01*
X181450375Y-72807556D01*
X181508302Y-72798979D01*
X181566484Y-72793408D01*
X181624803Y-72790839D01*
X181683141Y-72791268D01*
D11*
X156136652Y-105828080D02*
X156136652Y-105161414D01*
X156136652Y-105351890D02*
X156184271Y-105256652D01*
X156231890Y-105209033D01*
X156327128Y-105161414D01*
X156422366Y-105161414D01*
X157136652Y-105780461D02*
X157041414Y-105828080D01*
X156850938Y-105828080D01*
X156755700Y-105780461D01*
X156708080Y-105685223D01*
X156708080Y-105304271D01*
X156755700Y-105209033D01*
X156850938Y-105161414D01*
X157041414Y-105161414D01*
X157136652Y-105209033D01*
X157184271Y-105304271D01*
X157184271Y-105399509D01*
X156708080Y-105494747D01*
X157565223Y-105780461D02*
X157660461Y-105828080D01*
X157850938Y-105828080D01*
X157946176Y-105780461D01*
X157993795Y-105685223D01*
X157993795Y-105637604D01*
X157946176Y-105542366D01*
X157850938Y-105494747D01*
X157708080Y-105494747D01*
X157612842Y-105447128D01*
X157565223Y-105351890D01*
X157565223Y-105304271D01*
X157612842Y-105209033D01*
X157708080Y-105161414D01*
X157850938Y-105161414D01*
X157946176Y-105209033D01*
X158803319Y-105780461D02*
X158708080Y-105828080D01*
X158517604Y-105828080D01*
X158422366Y-105780461D01*
X158374747Y-105685223D01*
X158374747Y-105304271D01*
X158422366Y-105209033D01*
X158517604Y-105161414D01*
X158708080Y-105161414D01*
X158803319Y-105209033D01*
X158850938Y-105304271D01*
X158850938Y-105399509D01*
X158374747Y-105494747D01*
X159136652Y-105161414D02*
X159517604Y-105161414D01*
X159279509Y-104828080D02*
X159279509Y-105685223D01*
X159327128Y-105780461D01*
X159422366Y-105828080D01*
X159517604Y-105828080D01*
D13*
%TO.C,J7*%
X180400000Y-114216000D02*
X170120000Y-114216000D01*
X170120000Y-114216000D02*
X170120000Y-116876000D01*
X170120000Y-116876000D02*
X180400000Y-116876000D01*
X180400000Y-116876000D02*
X180400000Y-114216000D01*
X179450000Y-116876000D02*
X179450000Y-122876000D01*
X179450000Y-122876000D02*
X178690000Y-122876000D01*
X178690000Y-122876000D02*
X178690000Y-116876000D01*
X179390000Y-116876000D02*
X179390000Y-122876000D01*
X179270000Y-116876000D02*
X179270000Y-122876000D01*
X179150000Y-116876000D02*
X179150000Y-122876000D01*
X179030000Y-116876000D02*
X179030000Y-122876000D01*
X178910000Y-116876000D02*
X178910000Y-122876000D01*
X178790000Y-116876000D02*
X178790000Y-122876000D01*
X179450000Y-113886000D02*
X179450000Y-114216000D01*
X178690000Y-113886000D02*
X178690000Y-114216000D01*
X177800000Y-114216000D02*
X177800000Y-116876000D01*
X176910000Y-116876000D02*
X176910000Y-122876000D01*
X176910000Y-122876000D02*
X176150000Y-122876000D01*
X176150000Y-122876000D02*
X176150000Y-116876000D01*
X176910000Y-113818929D02*
X176910000Y-114216000D01*
X176150000Y-113818929D02*
X176150000Y-114216000D01*
X175260000Y-114216000D02*
X175260000Y-116876000D01*
X174370000Y-116876000D02*
X174370000Y-122876000D01*
X174370000Y-122876000D02*
X173610000Y-122876000D01*
X173610000Y-122876000D02*
X173610000Y-116876000D01*
X174370000Y-113818929D02*
X174370000Y-114216000D01*
X173610000Y-113818929D02*
X173610000Y-114216000D01*
X172720000Y-114216000D02*
X172720000Y-116876000D01*
X171830000Y-116876000D02*
X171830000Y-122876000D01*
X171830000Y-122876000D02*
X171070000Y-122876000D01*
X171070000Y-122876000D02*
X171070000Y-116876000D01*
X171830000Y-113818929D02*
X171830000Y-114216000D01*
X171070000Y-113818929D02*
X171070000Y-114216000D01*
X179070000Y-111506000D02*
X180340000Y-111506000D01*
X180340000Y-111506000D02*
X180340000Y-112776000D01*
%TO.C,J4*%
X160040000Y-64934000D02*
X163850000Y-64934000D01*
X163850000Y-64934000D02*
X163850000Y-76654000D01*
X163850000Y-76654000D02*
X162430000Y-76654000D01*
X162430000Y-76654000D02*
X162430000Y-72154000D01*
X160040000Y-64934000D02*
X156230000Y-64934000D01*
X156230000Y-64934000D02*
X156230000Y-76654000D01*
X156230000Y-76654000D02*
X157650000Y-76654000D01*
X157650000Y-76654000D02*
X157650000Y-72154000D01*
X161540000Y-71044000D02*
X161540000Y-65544000D01*
X161540000Y-65544000D02*
X161040000Y-65544000D01*
X161040000Y-65544000D02*
X161040000Y-71044000D01*
X161040000Y-71044000D02*
X161540000Y-71044000D01*
X159040000Y-71044000D02*
X159040000Y-65544000D01*
X159040000Y-65544000D02*
X158540000Y-65544000D01*
X158540000Y-65544000D02*
X158540000Y-71044000D01*
X158540000Y-71044000D02*
X159040000Y-71044000D01*
X161290000Y-74144000D02*
X161590000Y-74744000D01*
X161590000Y-74744000D02*
X160990000Y-74744000D01*
X160990000Y-74744000D02*
X161290000Y-74144000D01*
%TO.C,J3*%
X174010000Y-64934000D02*
X177820000Y-64934000D01*
X177820000Y-64934000D02*
X177820000Y-76654000D01*
X177820000Y-76654000D02*
X176400000Y-76654000D01*
X176400000Y-76654000D02*
X176400000Y-72154000D01*
X174010000Y-64934000D02*
X170200000Y-64934000D01*
X170200000Y-64934000D02*
X170200000Y-76654000D01*
X170200000Y-76654000D02*
X171620000Y-76654000D01*
X171620000Y-76654000D02*
X171620000Y-72154000D01*
X175510000Y-71044000D02*
X175510000Y-65544000D01*
X175510000Y-65544000D02*
X175010000Y-65544000D01*
X175010000Y-65544000D02*
X175010000Y-71044000D01*
X175010000Y-71044000D02*
X175510000Y-71044000D01*
X173010000Y-71044000D02*
X173010000Y-65544000D01*
X173010000Y-65544000D02*
X172510000Y-65544000D01*
X172510000Y-65544000D02*
X172510000Y-71044000D01*
X172510000Y-71044000D02*
X173010000Y-71044000D01*
X175260000Y-74144000D02*
X175560000Y-74744000D01*
X175560000Y-74744000D02*
X174960000Y-74744000D01*
X174960000Y-74744000D02*
X175260000Y-74144000D01*
D14*
%TO.C,J6*%
X187260000Y-81280000D02*
X174260000Y-81280000D01*
X187260000Y-106680000D02*
X174260000Y-106680000D01*
X187260000Y-106680000D02*
X187260000Y-100344000D01*
X187260000Y-81280000D02*
X187260000Y-87616000D01*
X187260000Y-90180000D02*
X187260000Y-97780000D01*
X174260000Y-81280000D02*
X174260000Y-85357000D01*
X174260000Y-106680000D02*
X174260000Y-102603000D01*
X173347780Y-101503000D02*
G75*
G03*
X173347780Y-101503000I-71780J0D01*
G01*
D13*
%TO.C,R12*%
X169625742Y-83551500D02*
X170100258Y-83551500D01*
X169625742Y-84596500D02*
X170100258Y-84596500D01*
%TO.C,R11*%
X164799742Y-83613500D02*
X165274258Y-83613500D01*
X164799742Y-84658500D02*
X165274258Y-84658500D01*
%TO.C,R10*%
X164799742Y-85837500D02*
X165274258Y-85837500D01*
X164799742Y-86882500D02*
X165274258Y-86882500D01*
%TO.C,R9*%
X169625742Y-85837500D02*
X170100258Y-85837500D01*
X169625742Y-86882500D02*
X170100258Y-86882500D01*
%TO.C,J11*%
X124654000Y-73490000D02*
X134934000Y-73490000D01*
X134934000Y-73490000D02*
X134934000Y-70830000D01*
X134934000Y-70830000D02*
X124654000Y-70830000D01*
X124654000Y-70830000D02*
X124654000Y-73490000D01*
X125604000Y-70830000D02*
X125604000Y-64830000D01*
X125604000Y-64830000D02*
X126364000Y-64830000D01*
X126364000Y-64830000D02*
X126364000Y-70830000D01*
X125664000Y-70830000D02*
X125664000Y-64830000D01*
X125784000Y-70830000D02*
X125784000Y-64830000D01*
X125904000Y-70830000D02*
X125904000Y-64830000D01*
X126024000Y-70830000D02*
X126024000Y-64830000D01*
X126144000Y-70830000D02*
X126144000Y-64830000D01*
X126264000Y-70830000D02*
X126264000Y-64830000D01*
X125604000Y-73820000D02*
X125604000Y-73490000D01*
X126364000Y-73820000D02*
X126364000Y-73490000D01*
X127254000Y-73490000D02*
X127254000Y-70830000D01*
X128144000Y-70830000D02*
X128144000Y-64830000D01*
X128144000Y-64830000D02*
X128904000Y-64830000D01*
X128904000Y-64830000D02*
X128904000Y-70830000D01*
X128144000Y-73887071D02*
X128144000Y-73490000D01*
X128904000Y-73887071D02*
X128904000Y-73490000D01*
X129794000Y-73490000D02*
X129794000Y-70830000D01*
X130684000Y-70830000D02*
X130684000Y-64830000D01*
X130684000Y-64830000D02*
X131444000Y-64830000D01*
X131444000Y-64830000D02*
X131444000Y-70830000D01*
X130684000Y-73887071D02*
X130684000Y-73490000D01*
X131444000Y-73887071D02*
X131444000Y-73490000D01*
X132334000Y-73490000D02*
X132334000Y-70830000D01*
X133224000Y-70830000D02*
X133224000Y-64830000D01*
X133224000Y-64830000D02*
X133984000Y-64830000D01*
X133984000Y-64830000D02*
X133984000Y-70830000D01*
X133224000Y-73887071D02*
X133224000Y-73490000D01*
X133984000Y-73887071D02*
X133984000Y-73490000D01*
X125984000Y-76200000D02*
X124714000Y-76200000D01*
X124714000Y-76200000D02*
X124714000Y-74930000D01*
%TO.C,J10*%
X110176000Y-73490000D02*
X120456000Y-73490000D01*
X120456000Y-73490000D02*
X120456000Y-70830000D01*
X120456000Y-70830000D02*
X110176000Y-70830000D01*
X110176000Y-70830000D02*
X110176000Y-73490000D01*
X111126000Y-70830000D02*
X111126000Y-64830000D01*
X111126000Y-64830000D02*
X111886000Y-64830000D01*
X111886000Y-64830000D02*
X111886000Y-70830000D01*
X111186000Y-70830000D02*
X111186000Y-64830000D01*
X111306000Y-70830000D02*
X111306000Y-64830000D01*
X111426000Y-70830000D02*
X111426000Y-64830000D01*
X111546000Y-70830000D02*
X111546000Y-64830000D01*
X111666000Y-70830000D02*
X111666000Y-64830000D01*
X111786000Y-70830000D02*
X111786000Y-64830000D01*
X111126000Y-73820000D02*
X111126000Y-73490000D01*
X111886000Y-73820000D02*
X111886000Y-73490000D01*
X112776000Y-73490000D02*
X112776000Y-70830000D01*
X113666000Y-70830000D02*
X113666000Y-64830000D01*
X113666000Y-64830000D02*
X114426000Y-64830000D01*
X114426000Y-64830000D02*
X114426000Y-70830000D01*
X113666000Y-73887071D02*
X113666000Y-73490000D01*
X114426000Y-73887071D02*
X114426000Y-73490000D01*
X115316000Y-73490000D02*
X115316000Y-70830000D01*
X116206000Y-70830000D02*
X116206000Y-64830000D01*
X116206000Y-64830000D02*
X116966000Y-64830000D01*
X116966000Y-64830000D02*
X116966000Y-70830000D01*
X116206000Y-73887071D02*
X116206000Y-73490000D01*
X116966000Y-73887071D02*
X116966000Y-73490000D01*
X117856000Y-73490000D02*
X117856000Y-70830000D01*
X118746000Y-70830000D02*
X118746000Y-64830000D01*
X118746000Y-64830000D02*
X119506000Y-64830000D01*
X119506000Y-64830000D02*
X119506000Y-70830000D01*
X118746000Y-73887071D02*
X118746000Y-73490000D01*
X119506000Y-73887071D02*
X119506000Y-73490000D01*
X111506000Y-76200000D02*
X110236000Y-76200000D01*
X110236000Y-76200000D02*
X110236000Y-74930000D01*
%TO.C,J9*%
X149158000Y-114216000D02*
X138878000Y-114216000D01*
X138878000Y-114216000D02*
X138878000Y-116876000D01*
X138878000Y-116876000D02*
X149158000Y-116876000D01*
X149158000Y-116876000D02*
X149158000Y-114216000D01*
X148208000Y-116876000D02*
X148208000Y-122876000D01*
X148208000Y-122876000D02*
X147448000Y-122876000D01*
X147448000Y-122876000D02*
X147448000Y-116876000D01*
X148148000Y-116876000D02*
X148148000Y-122876000D01*
X148028000Y-116876000D02*
X148028000Y-122876000D01*
X147908000Y-116876000D02*
X147908000Y-122876000D01*
X147788000Y-116876000D02*
X147788000Y-122876000D01*
X147668000Y-116876000D02*
X147668000Y-122876000D01*
X147548000Y-116876000D02*
X147548000Y-122876000D01*
X148208000Y-113886000D02*
X148208000Y-114216000D01*
X147448000Y-113886000D02*
X147448000Y-114216000D01*
X146558000Y-114216000D02*
X146558000Y-116876000D01*
X145668000Y-116876000D02*
X145668000Y-122876000D01*
X145668000Y-122876000D02*
X144908000Y-122876000D01*
X144908000Y-122876000D02*
X144908000Y-116876000D01*
X145668000Y-113818929D02*
X145668000Y-114216000D01*
X144908000Y-113818929D02*
X144908000Y-114216000D01*
X144018000Y-114216000D02*
X144018000Y-116876000D01*
X143128000Y-116876000D02*
X143128000Y-122876000D01*
X143128000Y-122876000D02*
X142368000Y-122876000D01*
X142368000Y-122876000D02*
X142368000Y-116876000D01*
X143128000Y-113818929D02*
X143128000Y-114216000D01*
X142368000Y-113818929D02*
X142368000Y-114216000D01*
X141478000Y-114216000D02*
X141478000Y-116876000D01*
X140588000Y-116876000D02*
X140588000Y-122876000D01*
X140588000Y-122876000D02*
X139828000Y-122876000D01*
X139828000Y-122876000D02*
X139828000Y-116876000D01*
X140588000Y-113818929D02*
X140588000Y-114216000D01*
X139828000Y-113818929D02*
X139828000Y-114216000D01*
X147828000Y-111506000D02*
X149098000Y-111506000D01*
X149098000Y-111506000D02*
X149098000Y-112776000D01*
%TO.C,J8*%
X134934000Y-114216000D02*
X124654000Y-114216000D01*
X124654000Y-114216000D02*
X124654000Y-116876000D01*
X124654000Y-116876000D02*
X134934000Y-116876000D01*
X134934000Y-116876000D02*
X134934000Y-114216000D01*
X133984000Y-116876000D02*
X133984000Y-122876000D01*
X133984000Y-122876000D02*
X133224000Y-122876000D01*
X133224000Y-122876000D02*
X133224000Y-116876000D01*
X133924000Y-116876000D02*
X133924000Y-122876000D01*
X133804000Y-116876000D02*
X133804000Y-122876000D01*
X133684000Y-116876000D02*
X133684000Y-122876000D01*
X133564000Y-116876000D02*
X133564000Y-122876000D01*
X133444000Y-116876000D02*
X133444000Y-122876000D01*
X133324000Y-116876000D02*
X133324000Y-122876000D01*
X133984000Y-113886000D02*
X133984000Y-114216000D01*
X133224000Y-113886000D02*
X133224000Y-114216000D01*
X132334000Y-114216000D02*
X132334000Y-116876000D01*
X131444000Y-116876000D02*
X131444000Y-122876000D01*
X131444000Y-122876000D02*
X130684000Y-122876000D01*
X130684000Y-122876000D02*
X130684000Y-116876000D01*
X131444000Y-113818929D02*
X131444000Y-114216000D01*
X130684000Y-113818929D02*
X130684000Y-114216000D01*
X129794000Y-114216000D02*
X129794000Y-116876000D01*
X128904000Y-116876000D02*
X128904000Y-122876000D01*
X128904000Y-122876000D02*
X128144000Y-122876000D01*
X128144000Y-122876000D02*
X128144000Y-116876000D01*
X128904000Y-113818929D02*
X128904000Y-114216000D01*
X128144000Y-113818929D02*
X128144000Y-114216000D01*
X127254000Y-114216000D02*
X127254000Y-116876000D01*
X126364000Y-116876000D02*
X126364000Y-122876000D01*
X126364000Y-122876000D02*
X125604000Y-122876000D01*
X125604000Y-122876000D02*
X125604000Y-116876000D01*
X126364000Y-113818929D02*
X126364000Y-114216000D01*
X125604000Y-113818929D02*
X125604000Y-114216000D01*
X133604000Y-111506000D02*
X134874000Y-111506000D01*
X134874000Y-111506000D02*
X134874000Y-112776000D01*
%TO.C,J5*%
X153984000Y-123120000D02*
X153984000Y-114490000D01*
X154102095Y-123120000D02*
X154102095Y-114490000D01*
X154220190Y-123120000D02*
X154220190Y-114490000D01*
X154338285Y-123120000D02*
X154338285Y-114490000D01*
X154456380Y-123120000D02*
X154456380Y-114490000D01*
X154574475Y-123120000D02*
X154574475Y-114490000D01*
X154692570Y-123120000D02*
X154692570Y-114490000D01*
X154810665Y-123120000D02*
X154810665Y-114490000D01*
X154928760Y-123120000D02*
X154928760Y-114490000D01*
X155046855Y-123120000D02*
X155046855Y-114490000D01*
X155164950Y-123120000D02*
X155164950Y-114490000D01*
X155283045Y-123120000D02*
X155283045Y-114490000D01*
X155401140Y-123120000D02*
X155401140Y-114490000D01*
X155519235Y-123120000D02*
X155519235Y-114490000D01*
X155637330Y-123120000D02*
X155637330Y-114490000D01*
X155755425Y-123120000D02*
X155755425Y-114490000D01*
X155873520Y-123120000D02*
X155873520Y-114490000D01*
X155991615Y-123120000D02*
X155991615Y-114490000D01*
X156109710Y-123120000D02*
X156109710Y-114490000D01*
X156227805Y-123120000D02*
X156227805Y-114490000D01*
X156345900Y-123120000D02*
X156345900Y-114490000D01*
X154834000Y-114490000D02*
X154834000Y-114080000D01*
X154834000Y-111980000D02*
X154834000Y-111600000D01*
X155554000Y-114490000D02*
X155554000Y-114080000D01*
X155554000Y-111980000D02*
X155554000Y-111600000D01*
X157374000Y-114490000D02*
X157374000Y-114080000D01*
X157374000Y-111980000D02*
X157374000Y-111540000D01*
X158094000Y-114490000D02*
X158094000Y-114080000D01*
X158094000Y-111980000D02*
X158094000Y-111540000D01*
X159914000Y-114490000D02*
X159914000Y-114080000D01*
X159914000Y-111980000D02*
X159914000Y-111540000D01*
X160634000Y-114490000D02*
X160634000Y-114080000D01*
X160634000Y-111980000D02*
X160634000Y-111540000D01*
X162454000Y-114490000D02*
X162454000Y-114080000D01*
X162454000Y-111980000D02*
X162454000Y-111540000D01*
X163174000Y-114490000D02*
X163174000Y-114080000D01*
X163174000Y-111980000D02*
X163174000Y-111540000D01*
X164994000Y-114490000D02*
X164994000Y-114080000D01*
X164994000Y-111980000D02*
X164994000Y-111540000D01*
X165714000Y-114490000D02*
X165714000Y-114080000D01*
X165714000Y-111980000D02*
X165714000Y-111540000D01*
X156464000Y-123120000D02*
X156464000Y-114490000D01*
X159004000Y-123120000D02*
X159004000Y-114490000D01*
X161544000Y-123120000D02*
X161544000Y-114490000D01*
X164084000Y-123120000D02*
X164084000Y-114490000D01*
X153864000Y-123120000D02*
X153864000Y-114490000D01*
X153864000Y-114490000D02*
X166684000Y-114490000D01*
X166684000Y-123120000D02*
X166684000Y-114490000D01*
X153864000Y-123120000D02*
X166684000Y-123120000D01*
X153864000Y-109380000D02*
X155194000Y-109380000D01*
X153864000Y-110490000D02*
X153864000Y-109380000D01*
%TO.C,SW1*%
X153601000Y-104342000D02*
X160061000Y-104342000D01*
X153601000Y-99812000D02*
X153601000Y-102412000D01*
X153601000Y-97882000D02*
X160061000Y-97882000D01*
X160061000Y-99812000D02*
X160061000Y-102412000D01*
X153601000Y-97912000D02*
X153601000Y-97882000D01*
X153601000Y-104342000D02*
X153601000Y-104312000D01*
X160061000Y-104342000D02*
X160061000Y-104312000D01*
X160061000Y-97882000D02*
X160061000Y-97912000D01*
%TO.C,C6*%
X169656420Y-104130000D02*
X169937580Y-104130000D01*
X169656420Y-103110000D02*
X169937580Y-103110000D01*
%TO.C,C4*%
X169656420Y-99050000D02*
X169937580Y-99050000D01*
X169656420Y-98030000D02*
X169937580Y-98030000D01*
%TO.C,REF\u002A\u002A*%
X186154800Y-120421400D02*
G75*
G03*
X186154800Y-120421400I-1700000J0D01*
G01*
%TO.C,R5*%
X164787742Y-94869500D02*
X165262258Y-94869500D01*
X164787742Y-95914500D02*
X165262258Y-95914500D01*
%TO.C,R6*%
X169625742Y-95914500D02*
X170100258Y-95914500D01*
X169625742Y-94869500D02*
X170100258Y-94869500D01*
%TO.C,REF\u002A\u002A*%
X103147600Y-120370600D02*
G75*
G03*
X103147600Y-120370600I-1700000J0D01*
G01*
X186154800Y-67411600D02*
G75*
G03*
X186154800Y-67411600I-1700000J0D01*
G01*
%TO.C,D1*%
X154620000Y-105030000D02*
X160020000Y-105030000D01*
X154620000Y-108330000D02*
X160020000Y-108330000D01*
X154620000Y-105030000D02*
X154620000Y-108330000D01*
%TO.C,J2*%
X120964000Y-114216000D02*
X110684000Y-114216000D01*
X110684000Y-114216000D02*
X110684000Y-116876000D01*
X110684000Y-116876000D02*
X120964000Y-116876000D01*
X120964000Y-116876000D02*
X120964000Y-114216000D01*
X120014000Y-116876000D02*
X120014000Y-122876000D01*
X120014000Y-122876000D02*
X119254000Y-122876000D01*
X119254000Y-122876000D02*
X119254000Y-116876000D01*
X119954000Y-116876000D02*
X119954000Y-122876000D01*
X119834000Y-116876000D02*
X119834000Y-122876000D01*
X119714000Y-116876000D02*
X119714000Y-122876000D01*
X119594000Y-116876000D02*
X119594000Y-122876000D01*
X119474000Y-116876000D02*
X119474000Y-122876000D01*
X119354000Y-116876000D02*
X119354000Y-122876000D01*
X120014000Y-113886000D02*
X120014000Y-114216000D01*
X119254000Y-113886000D02*
X119254000Y-114216000D01*
X118364000Y-114216000D02*
X118364000Y-116876000D01*
X117474000Y-116876000D02*
X117474000Y-122876000D01*
X117474000Y-122876000D02*
X116714000Y-122876000D01*
X116714000Y-122876000D02*
X116714000Y-116876000D01*
X117474000Y-113818929D02*
X117474000Y-114216000D01*
X116714000Y-113818929D02*
X116714000Y-114216000D01*
X115824000Y-114216000D02*
X115824000Y-116876000D01*
X114934000Y-116876000D02*
X114934000Y-122876000D01*
X114934000Y-122876000D02*
X114174000Y-122876000D01*
X114174000Y-122876000D02*
X114174000Y-116876000D01*
X114934000Y-113818929D02*
X114934000Y-114216000D01*
X114174000Y-113818929D02*
X114174000Y-114216000D01*
X113284000Y-114216000D02*
X113284000Y-116876000D01*
X112394000Y-116876000D02*
X112394000Y-122876000D01*
X112394000Y-122876000D02*
X111634000Y-122876000D01*
X111634000Y-122876000D02*
X111634000Y-116876000D01*
X112394000Y-113818929D02*
X112394000Y-114216000D01*
X111634000Y-113818929D02*
X111634000Y-114216000D01*
X119634000Y-111506000D02*
X120904000Y-111506000D01*
X120904000Y-111506000D02*
X120904000Y-112776000D01*
%TO.C,J1*%
X138938000Y-76200000D02*
X138938000Y-74930000D01*
X140208000Y-76200000D02*
X138938000Y-76200000D01*
X148208000Y-73887071D02*
X148208000Y-73490000D01*
X147448000Y-73887071D02*
X147448000Y-73490000D01*
X148208000Y-64830000D02*
X148208000Y-70830000D01*
X147448000Y-64830000D02*
X148208000Y-64830000D01*
X147448000Y-70830000D02*
X147448000Y-64830000D01*
X146558000Y-73490000D02*
X146558000Y-70830000D01*
X145668000Y-73887071D02*
X145668000Y-73490000D01*
X144908000Y-73887071D02*
X144908000Y-73490000D01*
X145668000Y-64830000D02*
X145668000Y-70830000D01*
X144908000Y-64830000D02*
X145668000Y-64830000D01*
X144908000Y-70830000D02*
X144908000Y-64830000D01*
X144018000Y-73490000D02*
X144018000Y-70830000D01*
X143128000Y-73887071D02*
X143128000Y-73490000D01*
X142368000Y-73887071D02*
X142368000Y-73490000D01*
X143128000Y-64830000D02*
X143128000Y-70830000D01*
X142368000Y-64830000D02*
X143128000Y-64830000D01*
X142368000Y-70830000D02*
X142368000Y-64830000D01*
X141478000Y-73490000D02*
X141478000Y-70830000D01*
X140588000Y-73820000D02*
X140588000Y-73490000D01*
X139828000Y-73820000D02*
X139828000Y-73490000D01*
X140488000Y-70830000D02*
X140488000Y-64830000D01*
X140368000Y-70830000D02*
X140368000Y-64830000D01*
X140248000Y-70830000D02*
X140248000Y-64830000D01*
X140128000Y-70830000D02*
X140128000Y-64830000D01*
X140008000Y-70830000D02*
X140008000Y-64830000D01*
X139888000Y-70830000D02*
X139888000Y-64830000D01*
X140588000Y-64830000D02*
X140588000Y-70830000D01*
X139828000Y-64830000D02*
X140588000Y-64830000D01*
X139828000Y-70830000D02*
X139828000Y-64830000D01*
X138878000Y-70830000D02*
X138878000Y-73490000D01*
X149158000Y-70830000D02*
X138878000Y-70830000D01*
X149158000Y-73490000D02*
X149158000Y-70830000D01*
X138878000Y-73490000D02*
X149158000Y-73490000D01*
%TO.C,D2*%
X162430000Y-105030000D02*
X162430000Y-108330000D01*
X162430000Y-108330000D02*
X167830000Y-108330000D01*
X162430000Y-105030000D02*
X167830000Y-105030000D01*
%TO.C,R4*%
X164799742Y-90409500D02*
X165274258Y-90409500D01*
X164799742Y-91454500D02*
X165274258Y-91454500D01*
%TO.C,R7*%
X164799742Y-92695500D02*
X165274258Y-92695500D01*
X164799742Y-93740500D02*
X165274258Y-93740500D01*
%TO.C,C3*%
X165084420Y-104130000D02*
X165365580Y-104130000D01*
X165084420Y-103110000D02*
X165365580Y-103110000D01*
%TO.C,R2*%
X164799742Y-88123500D02*
X165274258Y-88123500D01*
X164799742Y-89168500D02*
X165274258Y-89168500D01*
%TO.C,C1*%
X165084420Y-99050000D02*
X165365580Y-99050000D01*
X165084420Y-98030000D02*
X165365580Y-98030000D01*
%TO.C,REF\u002A\u002A*%
X103147600Y-67424300D02*
G75*
G03*
X103147600Y-67424300I-1700000J0D01*
G01*
%TO.C,C5*%
X169656420Y-100570000D02*
X169937580Y-100570000D01*
X169656420Y-101590000D02*
X169937580Y-101590000D01*
%TO.C,C2*%
X165084420Y-100570000D02*
X165365580Y-100570000D01*
X165084420Y-101590000D02*
X165365580Y-101590000D01*
%TO.C,U1*%
X98950000Y-104450000D02*
X98950000Y-83450000D01*
X149950000Y-97650000D02*
X149950000Y-104450000D01*
X101617000Y-104450000D02*
X101617000Y-101443000D01*
X101617000Y-101443000D02*
X98950000Y-101443000D01*
X98950000Y-104450000D02*
X99250000Y-104450000D01*
X101350000Y-104450000D02*
X101750000Y-104450000D01*
X103950000Y-104450000D02*
X104350000Y-104450000D01*
X106450000Y-104450000D02*
X106850000Y-104450000D01*
X109050000Y-104450000D02*
X109450000Y-104450000D01*
X111550000Y-104450000D02*
X111950000Y-104450000D01*
X114050000Y-104450000D02*
X114450000Y-104450000D01*
X116650000Y-104450000D02*
X117050000Y-104450000D01*
X119150000Y-104450000D02*
X119550000Y-104450000D01*
X121750000Y-104450000D02*
X122150000Y-104450000D01*
X124250000Y-104450000D02*
X124650000Y-104450000D01*
X126750000Y-104450000D02*
X127150000Y-104450000D01*
X129350000Y-104450000D02*
X129750000Y-104450000D01*
X131850000Y-104450000D02*
X132250000Y-104450000D01*
X134450000Y-104450000D02*
X134850000Y-104450000D01*
X136950000Y-104450000D02*
X137350000Y-104450000D01*
X139550000Y-104450000D02*
X139950000Y-104450000D01*
X142050000Y-104450000D02*
X142450000Y-104450000D01*
X144550000Y-104450000D02*
X144950000Y-104450000D01*
X147150000Y-104450000D02*
X147550000Y-104450000D01*
X114050000Y-83450000D02*
X114450000Y-83450000D01*
X119150000Y-83450000D02*
X119550000Y-83450000D01*
X126750000Y-83450000D02*
X127150000Y-83450000D01*
X134450000Y-83450000D02*
X134850000Y-83450000D01*
X103950000Y-83450000D02*
X104350000Y-83450000D01*
X101350000Y-83450000D02*
X101750000Y-83450000D01*
X109050000Y-83450000D02*
X109450000Y-83450000D01*
X142050000Y-83450000D02*
X142450000Y-83450000D01*
X147150000Y-83450000D02*
X147550000Y-83450000D01*
X144550000Y-83450000D02*
X144950000Y-83450000D01*
X129350000Y-83450000D02*
X129750000Y-83450000D01*
X124250000Y-83450000D02*
X124650000Y-83450000D01*
X111550000Y-83450000D02*
X111950000Y-83450000D01*
X116650000Y-83450000D02*
X117050000Y-83450000D01*
X136950000Y-83450000D02*
X137350000Y-83450000D01*
X121750000Y-83450000D02*
X122150000Y-83450000D01*
X98950000Y-83450000D02*
X99250000Y-83450000D01*
X106450000Y-83450000D02*
X106850000Y-83450000D01*
X131850000Y-83450000D02*
X132250000Y-83450000D01*
X139550000Y-83450000D02*
X139950000Y-83450000D01*
X149950000Y-83450000D02*
X149950000Y-90250000D01*
X149950000Y-95450000D02*
X149950000Y-95050000D01*
X149950000Y-92850000D02*
X149950000Y-92450000D01*
%TO.C,D5*%
X102296000Y-108982000D02*
X107696000Y-108982000D01*
X102296000Y-112282000D02*
X107696000Y-112282000D01*
X102296000Y-108982000D02*
X102296000Y-112282000D01*
%TO.C,D3*%
X102296000Y-112904000D02*
X107696000Y-112904000D01*
X102296000Y-116204000D02*
X107696000Y-116204000D01*
X102296000Y-112904000D02*
X102296000Y-116204000D01*
%TO.C,U2*%
X156972000Y-84602000D02*
X153522000Y-84602000D01*
X156972000Y-84602000D02*
X158922000Y-84602000D01*
X156972000Y-94722000D02*
X155022000Y-94722000D01*
X156972000Y-94722000D02*
X158922000Y-94722000D01*
%TO.C,R1*%
X169625742Y-89168500D02*
X170100258Y-89168500D01*
X169625742Y-88123500D02*
X170100258Y-88123500D01*
%TO.C,Y1*%
X163858000Y-77460000D02*
X151258000Y-77460000D01*
X163858000Y-82560000D02*
X163858000Y-77460000D01*
X151258000Y-82560000D02*
X163858000Y-82560000D01*
%TO.C,R3*%
X169625742Y-91454500D02*
X170100258Y-91454500D01*
X169625742Y-90409500D02*
X170100258Y-90409500D01*
%TO.C,R8*%
X169625742Y-93740500D02*
X170100258Y-93740500D01*
X169625742Y-92695500D02*
X170100258Y-92695500D01*
%TO.C,D4*%
X102010000Y-74296000D02*
X102010000Y-77596000D01*
X102010000Y-77596000D02*
X107410000Y-77596000D01*
X102010000Y-74296000D02*
X107410000Y-74296000D01*
%TO.C,J7*%
D11*
X180792380Y-117494333D02*
X181506666Y-117494333D01*
X181649523Y-117541952D01*
X181744761Y-117637190D01*
X181792380Y-117780047D01*
X181792380Y-117875285D01*
X180792380Y-117113380D02*
X180792380Y-116446714D01*
X181792380Y-116875285D01*
%TO.C,J4*%
X159706666Y-77196380D02*
X159706666Y-77910666D01*
X159659047Y-78053523D01*
X159563809Y-78148761D01*
X159420952Y-78196380D01*
X159325714Y-78196380D01*
X160611428Y-77529714D02*
X160611428Y-78196380D01*
X160373333Y-77148761D02*
X160135238Y-77863047D01*
X160754285Y-77863047D01*
%TO.C,J3*%
X173676666Y-77196380D02*
X173676666Y-77910666D01*
X173629047Y-78053523D01*
X173533809Y-78148761D01*
X173390952Y-78196380D01*
X173295714Y-78196380D01*
X174057619Y-77196380D02*
X174676666Y-77196380D01*
X174343333Y-77577333D01*
X174486190Y-77577333D01*
X174581428Y-77624952D01*
X174629047Y-77672571D01*
X174676666Y-77767809D01*
X174676666Y-78005904D01*
X174629047Y-78101142D01*
X174581428Y-78148761D01*
X174486190Y-78196380D01*
X174200476Y-78196380D01*
X174105238Y-78148761D01*
X174057619Y-78101142D01*
%TO.C,J6*%
D15*
X179532523Y-93828333D02*
X180439666Y-93828333D01*
X180621095Y-93888809D01*
X180742047Y-94009761D01*
X180802523Y-94191190D01*
X180802523Y-94312142D01*
X179532523Y-92679285D02*
X179532523Y-92921190D01*
X179593000Y-93042142D01*
X179653476Y-93102619D01*
X179834904Y-93223571D01*
X180076809Y-93284047D01*
X180560619Y-93284047D01*
X180681571Y-93223571D01*
X180742047Y-93163095D01*
X180802523Y-93042142D01*
X180802523Y-92800238D01*
X180742047Y-92679285D01*
X180681571Y-92618809D01*
X180560619Y-92558333D01*
X180258238Y-92558333D01*
X180137285Y-92618809D01*
X180076809Y-92679285D01*
X180016333Y-92800238D01*
X180016333Y-93042142D01*
X180076809Y-93163095D01*
X180137285Y-93223571D01*
X180258238Y-93284047D01*
%TO.C,R12*%
D11*
X169220142Y-83096380D02*
X168886809Y-82620190D01*
X168648714Y-83096380D02*
X168648714Y-82096380D01*
X169029666Y-82096380D01*
X169124904Y-82144000D01*
X169172523Y-82191619D01*
X169220142Y-82286857D01*
X169220142Y-82429714D01*
X169172523Y-82524952D01*
X169124904Y-82572571D01*
X169029666Y-82620190D01*
X168648714Y-82620190D01*
X170172523Y-83096380D02*
X169601095Y-83096380D01*
X169886809Y-83096380D02*
X169886809Y-82096380D01*
X169791571Y-82239238D01*
X169696333Y-82334476D01*
X169601095Y-82382095D01*
X170553476Y-82191619D02*
X170601095Y-82144000D01*
X170696333Y-82096380D01*
X170934428Y-82096380D01*
X171029666Y-82144000D01*
X171077285Y-82191619D01*
X171124904Y-82286857D01*
X171124904Y-82382095D01*
X171077285Y-82524952D01*
X170505857Y-83096380D01*
X171124904Y-83096380D01*
%TO.C,R11*%
X164394142Y-83158380D02*
X164060809Y-82682190D01*
X163822714Y-83158380D02*
X163822714Y-82158380D01*
X164203666Y-82158380D01*
X164298904Y-82206000D01*
X164346523Y-82253619D01*
X164394142Y-82348857D01*
X164394142Y-82491714D01*
X164346523Y-82586952D01*
X164298904Y-82634571D01*
X164203666Y-82682190D01*
X163822714Y-82682190D01*
X165346523Y-83158380D02*
X164775095Y-83158380D01*
X165060809Y-83158380D02*
X165060809Y-82158380D01*
X164965571Y-82301238D01*
X164870333Y-82396476D01*
X164775095Y-82444095D01*
X166298904Y-83158380D02*
X165727476Y-83158380D01*
X166013190Y-83158380D02*
X166013190Y-82158380D01*
X165917952Y-82301238D01*
X165822714Y-82396476D01*
X165727476Y-82444095D01*
%TO.C,R10*%
X164394142Y-85382380D02*
X164060809Y-84906190D01*
X163822714Y-85382380D02*
X163822714Y-84382380D01*
X164203666Y-84382380D01*
X164298904Y-84430000D01*
X164346523Y-84477619D01*
X164394142Y-84572857D01*
X164394142Y-84715714D01*
X164346523Y-84810952D01*
X164298904Y-84858571D01*
X164203666Y-84906190D01*
X163822714Y-84906190D01*
X165346523Y-85382380D02*
X164775095Y-85382380D01*
X165060809Y-85382380D02*
X165060809Y-84382380D01*
X164965571Y-84525238D01*
X164870333Y-84620476D01*
X164775095Y-84668095D01*
X165965571Y-84382380D02*
X166060809Y-84382380D01*
X166156047Y-84430000D01*
X166203666Y-84477619D01*
X166251285Y-84572857D01*
X166298904Y-84763333D01*
X166298904Y-85001428D01*
X166251285Y-85191904D01*
X166203666Y-85287142D01*
X166156047Y-85334761D01*
X166060809Y-85382380D01*
X165965571Y-85382380D01*
X165870333Y-85334761D01*
X165822714Y-85287142D01*
X165775095Y-85191904D01*
X165727476Y-85001428D01*
X165727476Y-84763333D01*
X165775095Y-84572857D01*
X165822714Y-84477619D01*
X165870333Y-84430000D01*
X165965571Y-84382380D01*
%TO.C,R9*%
X169696333Y-85382380D02*
X169363000Y-84906190D01*
X169124904Y-85382380D02*
X169124904Y-84382380D01*
X169505857Y-84382380D01*
X169601095Y-84430000D01*
X169648714Y-84477619D01*
X169696333Y-84572857D01*
X169696333Y-84715714D01*
X169648714Y-84810952D01*
X169601095Y-84858571D01*
X169505857Y-84906190D01*
X169124904Y-84906190D01*
X170172523Y-85382380D02*
X170363000Y-85382380D01*
X170458238Y-85334761D01*
X170505857Y-85287142D01*
X170601095Y-85144285D01*
X170648714Y-84953809D01*
X170648714Y-84572857D01*
X170601095Y-84477619D01*
X170553476Y-84430000D01*
X170458238Y-84382380D01*
X170267761Y-84382380D01*
X170172523Y-84430000D01*
X170124904Y-84477619D01*
X170077285Y-84572857D01*
X170077285Y-84810952D01*
X170124904Y-84906190D01*
X170172523Y-84953809D01*
X170267761Y-85001428D01*
X170458238Y-85001428D01*
X170553476Y-84953809D01*
X170601095Y-84906190D01*
X170648714Y-84810952D01*
%TO.C,J11*%
X123166380Y-71354523D02*
X123880666Y-71354523D01*
X124023523Y-71402142D01*
X124118761Y-71497380D01*
X124166380Y-71640238D01*
X124166380Y-71735476D01*
X124166380Y-70354523D02*
X124166380Y-70925952D01*
X124166380Y-70640238D02*
X123166380Y-70640238D01*
X123309238Y-70735476D01*
X123404476Y-70830714D01*
X123452095Y-70925952D01*
X124166380Y-69402142D02*
X124166380Y-69973571D01*
X124166380Y-69687857D02*
X123166380Y-69687857D01*
X123309238Y-69783095D01*
X123404476Y-69878333D01*
X123452095Y-69973571D01*
%TO.C,J10*%
X108688380Y-71354523D02*
X109402666Y-71354523D01*
X109545523Y-71402142D01*
X109640761Y-71497380D01*
X109688380Y-71640238D01*
X109688380Y-71735476D01*
X109688380Y-70354523D02*
X109688380Y-70925952D01*
X109688380Y-70640238D02*
X108688380Y-70640238D01*
X108831238Y-70735476D01*
X108926476Y-70830714D01*
X108974095Y-70925952D01*
X108688380Y-69735476D02*
X108688380Y-69640238D01*
X108736000Y-69545000D01*
X108783619Y-69497380D01*
X108878857Y-69449761D01*
X109069333Y-69402142D01*
X109307428Y-69402142D01*
X109497904Y-69449761D01*
X109593142Y-69497380D01*
X109640761Y-69545000D01*
X109688380Y-69640238D01*
X109688380Y-69735476D01*
X109640761Y-69830714D01*
X109593142Y-69878333D01*
X109497904Y-69925952D01*
X109307428Y-69973571D01*
X109069333Y-69973571D01*
X108878857Y-69925952D01*
X108783619Y-69878333D01*
X108736000Y-69830714D01*
X108688380Y-69735476D01*
%TO.C,J9*%
X149550380Y-117494333D02*
X150264666Y-117494333D01*
X150407523Y-117541952D01*
X150502761Y-117637190D01*
X150550380Y-117780047D01*
X150550380Y-117875285D01*
X150550380Y-116970523D02*
X150550380Y-116780047D01*
X150502761Y-116684809D01*
X150455142Y-116637190D01*
X150312285Y-116541952D01*
X150121809Y-116494333D01*
X149740857Y-116494333D01*
X149645619Y-116541952D01*
X149598000Y-116589571D01*
X149550380Y-116684809D01*
X149550380Y-116875285D01*
X149598000Y-116970523D01*
X149645619Y-117018142D01*
X149740857Y-117065761D01*
X149978952Y-117065761D01*
X150074190Y-117018142D01*
X150121809Y-116970523D01*
X150169428Y-116875285D01*
X150169428Y-116684809D01*
X150121809Y-116589571D01*
X150074190Y-116541952D01*
X149978952Y-116494333D01*
%TO.C,J8*%
X135326380Y-117494333D02*
X136040666Y-117494333D01*
X136183523Y-117541952D01*
X136278761Y-117637190D01*
X136326380Y-117780047D01*
X136326380Y-117875285D01*
X135754952Y-116875285D02*
X135707333Y-116970523D01*
X135659714Y-117018142D01*
X135564476Y-117065761D01*
X135516857Y-117065761D01*
X135421619Y-117018142D01*
X135374000Y-116970523D01*
X135326380Y-116875285D01*
X135326380Y-116684809D01*
X135374000Y-116589571D01*
X135421619Y-116541952D01*
X135516857Y-116494333D01*
X135564476Y-116494333D01*
X135659714Y-116541952D01*
X135707333Y-116589571D01*
X135754952Y-116684809D01*
X135754952Y-116875285D01*
X135802571Y-116970523D01*
X135850190Y-117018142D01*
X135945428Y-117065761D01*
X136135904Y-117065761D01*
X136231142Y-117018142D01*
X136278761Y-116970523D01*
X136326380Y-116875285D01*
X136326380Y-116684809D01*
X136278761Y-116589571D01*
X136231142Y-116541952D01*
X136135904Y-116494333D01*
X135945428Y-116494333D01*
X135850190Y-116541952D01*
X135802571Y-116589571D01*
X135754952Y-116684809D01*
%TO.C,J5*%
X151876380Y-116473333D02*
X152590666Y-116473333D01*
X152733523Y-116520952D01*
X152828761Y-116616190D01*
X152876380Y-116759047D01*
X152876380Y-116854285D01*
X151876380Y-115520952D02*
X151876380Y-115997142D01*
X152352571Y-116044761D01*
X152304952Y-115997142D01*
X152257333Y-115901904D01*
X152257333Y-115663809D01*
X152304952Y-115568571D01*
X152352571Y-115520952D01*
X152447809Y-115473333D01*
X152685904Y-115473333D01*
X152781142Y-115520952D01*
X152828761Y-115568571D01*
X152876380Y-115663809D01*
X152876380Y-115901904D01*
X152828761Y-115997142D01*
X152781142Y-116044761D01*
%TO.C,SW1*%
X155497666Y-97466761D02*
X155640523Y-97514380D01*
X155878619Y-97514380D01*
X155973857Y-97466761D01*
X156021476Y-97419142D01*
X156069095Y-97323904D01*
X156069095Y-97228666D01*
X156021476Y-97133428D01*
X155973857Y-97085809D01*
X155878619Y-97038190D01*
X155688142Y-96990571D01*
X155592904Y-96942952D01*
X155545285Y-96895333D01*
X155497666Y-96800095D01*
X155497666Y-96704857D01*
X155545285Y-96609619D01*
X155592904Y-96562000D01*
X155688142Y-96514380D01*
X155926238Y-96514380D01*
X156069095Y-96562000D01*
X156402428Y-96514380D02*
X156640523Y-97514380D01*
X156831000Y-96800095D01*
X157021476Y-97514380D01*
X157259571Y-96514380D01*
X158164333Y-97514380D02*
X157592904Y-97514380D01*
X157878619Y-97514380D02*
X157878619Y-96514380D01*
X157783380Y-96657238D01*
X157688142Y-96752476D01*
X157592904Y-96800095D01*
%TO.C,C6*%
X169630333Y-102547142D02*
X169582714Y-102594761D01*
X169439857Y-102642380D01*
X169344619Y-102642380D01*
X169201761Y-102594761D01*
X169106523Y-102499523D01*
X169058904Y-102404285D01*
X169011285Y-102213809D01*
X169011285Y-102070952D01*
X169058904Y-101880476D01*
X169106523Y-101785238D01*
X169201761Y-101690000D01*
X169344619Y-101642380D01*
X169439857Y-101642380D01*
X169582714Y-101690000D01*
X169630333Y-101737619D01*
X170487476Y-101642380D02*
X170297000Y-101642380D01*
X170201761Y-101690000D01*
X170154142Y-101737619D01*
X170058904Y-101880476D01*
X170011285Y-102070952D01*
X170011285Y-102451904D01*
X170058904Y-102547142D01*
X170106523Y-102594761D01*
X170201761Y-102642380D01*
X170392238Y-102642380D01*
X170487476Y-102594761D01*
X170535095Y-102547142D01*
X170582714Y-102451904D01*
X170582714Y-102213809D01*
X170535095Y-102118571D01*
X170487476Y-102070952D01*
X170392238Y-102023333D01*
X170201761Y-102023333D01*
X170106523Y-102070952D01*
X170058904Y-102118571D01*
X170011285Y-102213809D01*
%TO.C,C4*%
X169630333Y-97467142D02*
X169582714Y-97514761D01*
X169439857Y-97562380D01*
X169344619Y-97562380D01*
X169201761Y-97514761D01*
X169106523Y-97419523D01*
X169058904Y-97324285D01*
X169011285Y-97133809D01*
X169011285Y-96990952D01*
X169058904Y-96800476D01*
X169106523Y-96705238D01*
X169201761Y-96610000D01*
X169344619Y-96562380D01*
X169439857Y-96562380D01*
X169582714Y-96610000D01*
X169630333Y-96657619D01*
X170487476Y-96895714D02*
X170487476Y-97562380D01*
X170249380Y-96514761D02*
X170011285Y-97229047D01*
X170630333Y-97229047D01*
%TO.C,R5*%
X164858333Y-94414380D02*
X164525000Y-93938190D01*
X164286904Y-94414380D02*
X164286904Y-93414380D01*
X164667857Y-93414380D01*
X164763095Y-93462000D01*
X164810714Y-93509619D01*
X164858333Y-93604857D01*
X164858333Y-93747714D01*
X164810714Y-93842952D01*
X164763095Y-93890571D01*
X164667857Y-93938190D01*
X164286904Y-93938190D01*
X165763095Y-93414380D02*
X165286904Y-93414380D01*
X165239285Y-93890571D01*
X165286904Y-93842952D01*
X165382142Y-93795333D01*
X165620238Y-93795333D01*
X165715476Y-93842952D01*
X165763095Y-93890571D01*
X165810714Y-93985809D01*
X165810714Y-94223904D01*
X165763095Y-94319142D01*
X165715476Y-94366761D01*
X165620238Y-94414380D01*
X165382142Y-94414380D01*
X165286904Y-94366761D01*
X165239285Y-94319142D01*
%TO.C,R6*%
X169696333Y-94414380D02*
X169363000Y-93938190D01*
X169124904Y-94414380D02*
X169124904Y-93414380D01*
X169505857Y-93414380D01*
X169601095Y-93462000D01*
X169648714Y-93509619D01*
X169696333Y-93604857D01*
X169696333Y-93747714D01*
X169648714Y-93842952D01*
X169601095Y-93890571D01*
X169505857Y-93938190D01*
X169124904Y-93938190D01*
X170553476Y-93414380D02*
X170363000Y-93414380D01*
X170267761Y-93462000D01*
X170220142Y-93509619D01*
X170124904Y-93652476D01*
X170077285Y-93842952D01*
X170077285Y-94223904D01*
X170124904Y-94319142D01*
X170172523Y-94366761D01*
X170267761Y-94414380D01*
X170458238Y-94414380D01*
X170553476Y-94366761D01*
X170601095Y-94319142D01*
X170648714Y-94223904D01*
X170648714Y-93985809D01*
X170601095Y-93890571D01*
X170553476Y-93842952D01*
X170458238Y-93795333D01*
X170267761Y-93795333D01*
X170172523Y-93842952D01*
X170124904Y-93890571D01*
X170077285Y-93985809D01*
%TO.C,D1*%
X157281904Y-104632380D02*
X157281904Y-103632380D01*
X157520000Y-103632380D01*
X157662857Y-103680000D01*
X157758095Y-103775238D01*
X157805714Y-103870476D01*
X157853333Y-104060952D01*
X157853333Y-104203809D01*
X157805714Y-104394285D01*
X157758095Y-104489523D01*
X157662857Y-104584761D01*
X157520000Y-104632380D01*
X157281904Y-104632380D01*
X158805714Y-104632380D02*
X158234285Y-104632380D01*
X158520000Y-104632380D02*
X158520000Y-103632380D01*
X158424761Y-103775238D01*
X158329523Y-103870476D01*
X158234285Y-103918095D01*
%TO.C,J2*%
X121356380Y-117494333D02*
X122070666Y-117494333D01*
X122213523Y-117541952D01*
X122308761Y-117637190D01*
X122356380Y-117780047D01*
X122356380Y-117875285D01*
X121451619Y-117065761D02*
X121404000Y-117018142D01*
X121356380Y-116922904D01*
X121356380Y-116684809D01*
X121404000Y-116589571D01*
X121451619Y-116541952D01*
X121546857Y-116494333D01*
X121642095Y-116494333D01*
X121784952Y-116541952D01*
X122356380Y-117113380D01*
X122356380Y-116494333D01*
%TO.C,J1*%
X137390380Y-70878333D02*
X138104666Y-70878333D01*
X138247523Y-70925952D01*
X138342761Y-71021190D01*
X138390380Y-71164047D01*
X138390380Y-71259285D01*
X138390380Y-69878333D02*
X138390380Y-70449761D01*
X138390380Y-70164047D02*
X137390380Y-70164047D01*
X137533238Y-70259285D01*
X137628476Y-70354523D01*
X137676095Y-70449761D01*
%TO.C,D2*%
X165091904Y-104632380D02*
X165091904Y-103632380D01*
X165330000Y-103632380D01*
X165472857Y-103680000D01*
X165568095Y-103775238D01*
X165615714Y-103870476D01*
X165663333Y-104060952D01*
X165663333Y-104203809D01*
X165615714Y-104394285D01*
X165568095Y-104489523D01*
X165472857Y-104584761D01*
X165330000Y-104632380D01*
X165091904Y-104632380D01*
X166044285Y-103727619D02*
X166091904Y-103680000D01*
X166187142Y-103632380D01*
X166425238Y-103632380D01*
X166520476Y-103680000D01*
X166568095Y-103727619D01*
X166615714Y-103822857D01*
X166615714Y-103918095D01*
X166568095Y-104060952D01*
X165996666Y-104632380D01*
X166615714Y-104632380D01*
%TO.C,R4*%
X164870333Y-89954380D02*
X164537000Y-89478190D01*
X164298904Y-89954380D02*
X164298904Y-88954380D01*
X164679857Y-88954380D01*
X164775095Y-89002000D01*
X164822714Y-89049619D01*
X164870333Y-89144857D01*
X164870333Y-89287714D01*
X164822714Y-89382952D01*
X164775095Y-89430571D01*
X164679857Y-89478190D01*
X164298904Y-89478190D01*
X165727476Y-89287714D02*
X165727476Y-89954380D01*
X165489380Y-88906761D02*
X165251285Y-89621047D01*
X165870333Y-89621047D01*
%TO.C,R7*%
X164870333Y-92240380D02*
X164537000Y-91764190D01*
X164298904Y-92240380D02*
X164298904Y-91240380D01*
X164679857Y-91240380D01*
X164775095Y-91288000D01*
X164822714Y-91335619D01*
X164870333Y-91430857D01*
X164870333Y-91573714D01*
X164822714Y-91668952D01*
X164775095Y-91716571D01*
X164679857Y-91764190D01*
X164298904Y-91764190D01*
X165203666Y-91240380D02*
X165870333Y-91240380D01*
X165441761Y-92240380D01*
%TO.C,C3*%
X165058333Y-102547142D02*
X165010714Y-102594761D01*
X164867857Y-102642380D01*
X164772619Y-102642380D01*
X164629761Y-102594761D01*
X164534523Y-102499523D01*
X164486904Y-102404285D01*
X164439285Y-102213809D01*
X164439285Y-102070952D01*
X164486904Y-101880476D01*
X164534523Y-101785238D01*
X164629761Y-101690000D01*
X164772619Y-101642380D01*
X164867857Y-101642380D01*
X165010714Y-101690000D01*
X165058333Y-101737619D01*
X165391666Y-101642380D02*
X166010714Y-101642380D01*
X165677380Y-102023333D01*
X165820238Y-102023333D01*
X165915476Y-102070952D01*
X165963095Y-102118571D01*
X166010714Y-102213809D01*
X166010714Y-102451904D01*
X165963095Y-102547142D01*
X165915476Y-102594761D01*
X165820238Y-102642380D01*
X165534523Y-102642380D01*
X165439285Y-102594761D01*
X165391666Y-102547142D01*
%TO.C,R2*%
X164870333Y-87668380D02*
X164537000Y-87192190D01*
X164298904Y-87668380D02*
X164298904Y-86668380D01*
X164679857Y-86668380D01*
X164775095Y-86716000D01*
X164822714Y-86763619D01*
X164870333Y-86858857D01*
X164870333Y-87001714D01*
X164822714Y-87096952D01*
X164775095Y-87144571D01*
X164679857Y-87192190D01*
X164298904Y-87192190D01*
X165251285Y-86763619D02*
X165298904Y-86716000D01*
X165394142Y-86668380D01*
X165632238Y-86668380D01*
X165727476Y-86716000D01*
X165775095Y-86763619D01*
X165822714Y-86858857D01*
X165822714Y-86954095D01*
X165775095Y-87096952D01*
X165203666Y-87668380D01*
X165822714Y-87668380D01*
%TO.C,C1*%
X165058333Y-97467142D02*
X165010714Y-97514761D01*
X164867857Y-97562380D01*
X164772619Y-97562380D01*
X164629761Y-97514761D01*
X164534523Y-97419523D01*
X164486904Y-97324285D01*
X164439285Y-97133809D01*
X164439285Y-96990952D01*
X164486904Y-96800476D01*
X164534523Y-96705238D01*
X164629761Y-96610000D01*
X164772619Y-96562380D01*
X164867857Y-96562380D01*
X165010714Y-96610000D01*
X165058333Y-96657619D01*
X166010714Y-97562380D02*
X165439285Y-97562380D01*
X165725000Y-97562380D02*
X165725000Y-96562380D01*
X165629761Y-96705238D01*
X165534523Y-96800476D01*
X165439285Y-96848095D01*
%TO.C,C5*%
X169630333Y-100007142D02*
X169582714Y-100054761D01*
X169439857Y-100102380D01*
X169344619Y-100102380D01*
X169201761Y-100054761D01*
X169106523Y-99959523D01*
X169058904Y-99864285D01*
X169011285Y-99673809D01*
X169011285Y-99530952D01*
X169058904Y-99340476D01*
X169106523Y-99245238D01*
X169201761Y-99150000D01*
X169344619Y-99102380D01*
X169439857Y-99102380D01*
X169582714Y-99150000D01*
X169630333Y-99197619D01*
X170535095Y-99102380D02*
X170058904Y-99102380D01*
X170011285Y-99578571D01*
X170058904Y-99530952D01*
X170154142Y-99483333D01*
X170392238Y-99483333D01*
X170487476Y-99530952D01*
X170535095Y-99578571D01*
X170582714Y-99673809D01*
X170582714Y-99911904D01*
X170535095Y-100007142D01*
X170487476Y-100054761D01*
X170392238Y-100102380D01*
X170154142Y-100102380D01*
X170058904Y-100054761D01*
X170011285Y-100007142D01*
%TO.C,C2*%
X165058333Y-100007142D02*
X165010714Y-100054761D01*
X164867857Y-100102380D01*
X164772619Y-100102380D01*
X164629761Y-100054761D01*
X164534523Y-99959523D01*
X164486904Y-99864285D01*
X164439285Y-99673809D01*
X164439285Y-99530952D01*
X164486904Y-99340476D01*
X164534523Y-99245238D01*
X164629761Y-99150000D01*
X164772619Y-99102380D01*
X164867857Y-99102380D01*
X165010714Y-99150000D01*
X165058333Y-99197619D01*
X165439285Y-99197619D02*
X165486904Y-99150000D01*
X165582142Y-99102380D01*
X165820238Y-99102380D01*
X165915476Y-99150000D01*
X165963095Y-99197619D01*
X166010714Y-99292857D01*
X166010714Y-99388095D01*
X165963095Y-99530952D01*
X165391666Y-100102380D01*
X166010714Y-100102380D01*
%TO.C,U1*%
X123902380Y-94711904D02*
X124711904Y-94711904D01*
X124807142Y-94664285D01*
X124854761Y-94616666D01*
X124902380Y-94521428D01*
X124902380Y-94330952D01*
X124854761Y-94235714D01*
X124807142Y-94188095D01*
X124711904Y-94140476D01*
X123902380Y-94140476D01*
X124902380Y-93140476D02*
X124902380Y-93711904D01*
X124902380Y-93426190D02*
X123902380Y-93426190D01*
X124045238Y-93521428D01*
X124140476Y-93616666D01*
X124188095Y-93711904D01*
X102728781Y-106163096D02*
X102701844Y-106082284D01*
X102621032Y-106001471D01*
X102513282Y-105947597D01*
X102405532Y-105947597D01*
X102324720Y-105974534D01*
X102190033Y-106055346D01*
X102109221Y-106136158D01*
X102028409Y-106270845D01*
X102001471Y-106351658D01*
X102001471Y-106459407D01*
X102055346Y-106567157D01*
X102109221Y-106621032D01*
X102216971Y-106674906D01*
X102270845Y-106674906D01*
X102459407Y-106486345D01*
X102351658Y-106378595D01*
X102459407Y-106971218D02*
X103025093Y-106405532D01*
X103240592Y-106621032D01*
X103267529Y-106701844D01*
X103267529Y-106755719D01*
X103240592Y-106836531D01*
X103159780Y-106917343D01*
X103078967Y-106944280D01*
X103025093Y-106944280D01*
X102944280Y-106917343D01*
X102728781Y-106701844D01*
X103321404Y-107833215D02*
X102998155Y-107509966D01*
X103159780Y-107671590D02*
X103725465Y-107105905D01*
X103590778Y-107132842D01*
X103483028Y-107132842D01*
X103402216Y-107105905D01*
X107818781Y-106163096D02*
X107791844Y-106082284D01*
X107711032Y-106001471D01*
X107603282Y-105947597D01*
X107495532Y-105947597D01*
X107414720Y-105974534D01*
X107280033Y-106055346D01*
X107199221Y-106136158D01*
X107118409Y-106270845D01*
X107091471Y-106351658D01*
X107091471Y-106459407D01*
X107145346Y-106567157D01*
X107199221Y-106621032D01*
X107306971Y-106674906D01*
X107360845Y-106674906D01*
X107549407Y-106486345D01*
X107441658Y-106378595D01*
X107549407Y-106971218D02*
X108115093Y-106405532D01*
X108330592Y-106621032D01*
X108357529Y-106701844D01*
X108357529Y-106755719D01*
X108330592Y-106836531D01*
X108249780Y-106917343D01*
X108168967Y-106944280D01*
X108115093Y-106944280D01*
X108034280Y-106917343D01*
X107818781Y-106701844D01*
X108599966Y-106998155D02*
X108653841Y-106998155D01*
X108734653Y-107025093D01*
X108869340Y-107159780D01*
X108896277Y-107240592D01*
X108896277Y-107294467D01*
X108869340Y-107375279D01*
X108815465Y-107429154D01*
X108707715Y-107483028D01*
X108061218Y-107483028D01*
X108411404Y-107833215D01*
X100198781Y-106063096D02*
X100171844Y-105982284D01*
X100091032Y-105901471D01*
X99983282Y-105847597D01*
X99875532Y-105847597D01*
X99794720Y-105874534D01*
X99660033Y-105955346D01*
X99579221Y-106036158D01*
X99498409Y-106170845D01*
X99471471Y-106251658D01*
X99471471Y-106359407D01*
X99525346Y-106467157D01*
X99579221Y-106521032D01*
X99686971Y-106574906D01*
X99740845Y-106574906D01*
X99929407Y-106386345D01*
X99821658Y-106278595D01*
X99929407Y-106871218D02*
X100495093Y-106305532D01*
X100710592Y-106521032D01*
X100737529Y-106601844D01*
X100737529Y-106655719D01*
X100710592Y-106736531D01*
X100629780Y-106817343D01*
X100548967Y-106844280D01*
X100495093Y-106844280D01*
X100414280Y-106817343D01*
X100198781Y-106601844D01*
X101168528Y-106978967D02*
X101222402Y-107032842D01*
X101249340Y-107113654D01*
X101249340Y-107167529D01*
X101222402Y-107248341D01*
X101141590Y-107383028D01*
X101006903Y-107517715D01*
X100872216Y-107598528D01*
X100791404Y-107625465D01*
X100737529Y-107625465D01*
X100656717Y-107598528D01*
X100602842Y-107544653D01*
X100575905Y-107463841D01*
X100575905Y-107409966D01*
X100602842Y-107329154D01*
X100683654Y-107194467D01*
X100818341Y-107059780D01*
X100953028Y-106978967D01*
X101033841Y-106952030D01*
X101087715Y-106952030D01*
X101168528Y-106978967D01*
X110358781Y-106063096D02*
X110331844Y-105982284D01*
X110251032Y-105901471D01*
X110143282Y-105847597D01*
X110035532Y-105847597D01*
X109954720Y-105874534D01*
X109820033Y-105955346D01*
X109739221Y-106036158D01*
X109658409Y-106170845D01*
X109631471Y-106251658D01*
X109631471Y-106359407D01*
X109685346Y-106467157D01*
X109739221Y-106521032D01*
X109846971Y-106574906D01*
X109900845Y-106574906D01*
X110089407Y-106386345D01*
X109981658Y-106278595D01*
X110089407Y-106871218D02*
X110655093Y-106305532D01*
X110870592Y-106521032D01*
X110897529Y-106601844D01*
X110897529Y-106655719D01*
X110870592Y-106736531D01*
X110789780Y-106817343D01*
X110708967Y-106844280D01*
X110655093Y-106844280D01*
X110574280Y-106817343D01*
X110358781Y-106601844D01*
X111166903Y-106817343D02*
X111517089Y-107167529D01*
X111113028Y-107194467D01*
X111193841Y-107275279D01*
X111220778Y-107356091D01*
X111220778Y-107409966D01*
X111193841Y-107490778D01*
X111059154Y-107625465D01*
X110978341Y-107652402D01*
X110924467Y-107652402D01*
X110843654Y-107625465D01*
X110682030Y-107463841D01*
X110655093Y-107383028D01*
X110655093Y-107329154D01*
X112898781Y-106063096D02*
X112871844Y-105982284D01*
X112791032Y-105901471D01*
X112683282Y-105847597D01*
X112575532Y-105847597D01*
X112494720Y-105874534D01*
X112360033Y-105955346D01*
X112279221Y-106036158D01*
X112198409Y-106170845D01*
X112171471Y-106251658D01*
X112171471Y-106359407D01*
X112225346Y-106467157D01*
X112279221Y-106521032D01*
X112386971Y-106574906D01*
X112440845Y-106574906D01*
X112629407Y-106386345D01*
X112521658Y-106278595D01*
X112629407Y-106871218D02*
X113195093Y-106305532D01*
X113410592Y-106521032D01*
X113437529Y-106601844D01*
X113437529Y-106655719D01*
X113410592Y-106736531D01*
X113329780Y-106817343D01*
X113248967Y-106844280D01*
X113195093Y-106844280D01*
X113114280Y-106817343D01*
X112898781Y-106601844D01*
X113814653Y-107302216D02*
X113437529Y-107679340D01*
X113895465Y-106952030D02*
X113356717Y-107221404D01*
X113706903Y-107571590D01*
X115438781Y-106063096D02*
X115411844Y-105982284D01*
X115331032Y-105901471D01*
X115223282Y-105847597D01*
X115115532Y-105847597D01*
X115034720Y-105874534D01*
X114900033Y-105955346D01*
X114819221Y-106036158D01*
X114738409Y-106170845D01*
X114711471Y-106251658D01*
X114711471Y-106359407D01*
X114765346Y-106467157D01*
X114819221Y-106521032D01*
X114926971Y-106574906D01*
X114980845Y-106574906D01*
X115169407Y-106386345D01*
X115061658Y-106278595D01*
X115169407Y-106871218D02*
X115735093Y-106305532D01*
X115950592Y-106521032D01*
X115977529Y-106601844D01*
X115977529Y-106655719D01*
X115950592Y-106736531D01*
X115869780Y-106817343D01*
X115788967Y-106844280D01*
X115735093Y-106844280D01*
X115654280Y-106817343D01*
X115438781Y-106601844D01*
X116570152Y-107140592D02*
X116300778Y-106871218D01*
X116004467Y-107113654D01*
X116058341Y-107113654D01*
X116139154Y-107140592D01*
X116273841Y-107275279D01*
X116300778Y-107356091D01*
X116300778Y-107409966D01*
X116273841Y-107490778D01*
X116139154Y-107625465D01*
X116058341Y-107652402D01*
X116004467Y-107652402D01*
X115923654Y-107625465D01*
X115788967Y-107490778D01*
X115762030Y-107409966D01*
X115762030Y-107356091D01*
X120518781Y-106063096D02*
X120491844Y-105982284D01*
X120411032Y-105901471D01*
X120303282Y-105847597D01*
X120195532Y-105847597D01*
X120114720Y-105874534D01*
X119980033Y-105955346D01*
X119899221Y-106036158D01*
X119818409Y-106170845D01*
X119791471Y-106251658D01*
X119791471Y-106359407D01*
X119845346Y-106467157D01*
X119899221Y-106521032D01*
X120006971Y-106574906D01*
X120060845Y-106574906D01*
X120249407Y-106386345D01*
X120141658Y-106278595D01*
X120249407Y-106871218D02*
X120815093Y-106305532D01*
X121030592Y-106521032D01*
X121057529Y-106601844D01*
X121057529Y-106655719D01*
X121030592Y-106736531D01*
X120949780Y-106817343D01*
X120868967Y-106844280D01*
X120815093Y-106844280D01*
X120734280Y-106817343D01*
X120518781Y-106601844D01*
X121623215Y-107113654D02*
X121515465Y-107005905D01*
X121434653Y-106978967D01*
X121380778Y-106978967D01*
X121246091Y-107005905D01*
X121111404Y-107086717D01*
X120895905Y-107302216D01*
X120868967Y-107383028D01*
X120868967Y-107436903D01*
X120895905Y-107517715D01*
X121003654Y-107625465D01*
X121084467Y-107652402D01*
X121138341Y-107652402D01*
X121219154Y-107625465D01*
X121353841Y-107490778D01*
X121380778Y-107409966D01*
X121380778Y-107356091D01*
X121353841Y-107275279D01*
X121246091Y-107167529D01*
X121165279Y-107140592D01*
X121111404Y-107140592D01*
X121030592Y-107167529D01*
X123028781Y-105963096D02*
X123001844Y-105882284D01*
X122921032Y-105801471D01*
X122813282Y-105747597D01*
X122705532Y-105747597D01*
X122624720Y-105774534D01*
X122490033Y-105855346D01*
X122409221Y-105936158D01*
X122328409Y-106070845D01*
X122301471Y-106151658D01*
X122301471Y-106259407D01*
X122355346Y-106367157D01*
X122409221Y-106421032D01*
X122516971Y-106474906D01*
X122570845Y-106474906D01*
X122759407Y-106286345D01*
X122651658Y-106178595D01*
X122759407Y-106771218D02*
X123325093Y-106205532D01*
X123540592Y-106421032D01*
X123567529Y-106501844D01*
X123567529Y-106555719D01*
X123540592Y-106636531D01*
X123459780Y-106717343D01*
X123378967Y-106744280D01*
X123325093Y-106744280D01*
X123244280Y-106717343D01*
X123028781Y-106501844D01*
X123836903Y-106717343D02*
X124214027Y-107094467D01*
X123405905Y-107417715D01*
X125598781Y-106063096D02*
X125571844Y-105982284D01*
X125491032Y-105901471D01*
X125383282Y-105847597D01*
X125275532Y-105847597D01*
X125194720Y-105874534D01*
X125060033Y-105955346D01*
X124979221Y-106036158D01*
X124898409Y-106170845D01*
X124871471Y-106251658D01*
X124871471Y-106359407D01*
X124925346Y-106467157D01*
X124979221Y-106521032D01*
X125086971Y-106574906D01*
X125140845Y-106574906D01*
X125329407Y-106386345D01*
X125221658Y-106278595D01*
X125329407Y-106871218D02*
X125895093Y-106305532D01*
X126110592Y-106521032D01*
X126137529Y-106601844D01*
X126137529Y-106655719D01*
X126110592Y-106736531D01*
X126029780Y-106817343D01*
X125948967Y-106844280D01*
X125895093Y-106844280D01*
X125814280Y-106817343D01*
X125598781Y-106601844D01*
X126299154Y-107194467D02*
X126272216Y-107113654D01*
X126272216Y-107059780D01*
X126299154Y-106978967D01*
X126326091Y-106952030D01*
X126406903Y-106925093D01*
X126460778Y-106925093D01*
X126541590Y-106952030D01*
X126649340Y-107059780D01*
X126676277Y-107140592D01*
X126676277Y-107194467D01*
X126649340Y-107275279D01*
X126622402Y-107302216D01*
X126541590Y-107329154D01*
X126487715Y-107329154D01*
X126406903Y-107302216D01*
X126299154Y-107194467D01*
X126218341Y-107167529D01*
X126164467Y-107167529D01*
X126083654Y-107194467D01*
X125975905Y-107302216D01*
X125948967Y-107383028D01*
X125948967Y-107436903D01*
X125975905Y-107517715D01*
X126083654Y-107625465D01*
X126164467Y-107652402D01*
X126218341Y-107652402D01*
X126299154Y-107625465D01*
X126406903Y-107517715D01*
X126433841Y-107436903D01*
X126433841Y-107383028D01*
X126406903Y-107302216D01*
X128138781Y-106063096D02*
X128111844Y-105982284D01*
X128031032Y-105901471D01*
X127923282Y-105847597D01*
X127815532Y-105847597D01*
X127734720Y-105874534D01*
X127600033Y-105955346D01*
X127519221Y-106036158D01*
X127438409Y-106170845D01*
X127411471Y-106251658D01*
X127411471Y-106359407D01*
X127465346Y-106467157D01*
X127519221Y-106521032D01*
X127626971Y-106574906D01*
X127680845Y-106574906D01*
X127869407Y-106386345D01*
X127761658Y-106278595D01*
X127869407Y-106871218D02*
X128435093Y-106305532D01*
X128650592Y-106521032D01*
X128677529Y-106601844D01*
X128677529Y-106655719D01*
X128650592Y-106736531D01*
X128569780Y-106817343D01*
X128488967Y-106844280D01*
X128435093Y-106844280D01*
X128354280Y-106817343D01*
X128138781Y-106601844D01*
X128462030Y-107463841D02*
X128569780Y-107571590D01*
X128650592Y-107598528D01*
X128704467Y-107598528D01*
X128839154Y-107571590D01*
X128973841Y-107490778D01*
X129189340Y-107275279D01*
X129216277Y-107194467D01*
X129216277Y-107140592D01*
X129189340Y-107059780D01*
X129081590Y-106952030D01*
X129000778Y-106925093D01*
X128946903Y-106925093D01*
X128866091Y-106952030D01*
X128731404Y-107086717D01*
X128704467Y-107167529D01*
X128704467Y-107221404D01*
X128731404Y-107302216D01*
X128839154Y-107409966D01*
X128919966Y-107436903D01*
X128973841Y-107436903D01*
X129054653Y-107409966D01*
X132949407Y-106047722D02*
X132922470Y-105966910D01*
X132841658Y-105886097D01*
X132733908Y-105832223D01*
X132626158Y-105832223D01*
X132545346Y-105859160D01*
X132410659Y-105939972D01*
X132329847Y-106020784D01*
X132249035Y-106155471D01*
X132222097Y-106236284D01*
X132222097Y-106344033D01*
X132275972Y-106451783D01*
X132329847Y-106505658D01*
X132437597Y-106559532D01*
X132491471Y-106559532D01*
X132680033Y-106370971D01*
X132572284Y-106263221D01*
X132680033Y-106855844D02*
X133245719Y-106290158D01*
X133461218Y-106505658D01*
X133488155Y-106586470D01*
X133488155Y-106640345D01*
X133461218Y-106721157D01*
X133380406Y-106801969D01*
X133299593Y-106828906D01*
X133245719Y-106828906D01*
X133164906Y-106801969D01*
X132949407Y-106586470D01*
X133542030Y-107717841D02*
X133218781Y-107394592D01*
X133380406Y-107556216D02*
X133946091Y-106990531D01*
X133811404Y-107017468D01*
X133703654Y-107017468D01*
X133622842Y-106990531D01*
X134457902Y-107502341D02*
X134511776Y-107556216D01*
X134538714Y-107637028D01*
X134538714Y-107690903D01*
X134511776Y-107771715D01*
X134430964Y-107906402D01*
X134296277Y-108041089D01*
X134161590Y-108121902D01*
X134080778Y-108148839D01*
X134026903Y-108148839D01*
X133946091Y-108121902D01*
X133892216Y-108068027D01*
X133865279Y-107987215D01*
X133865279Y-107933340D01*
X133892216Y-107852528D01*
X133973028Y-107717841D01*
X134107715Y-107583154D01*
X134242402Y-107502341D01*
X134323215Y-107475404D01*
X134377089Y-107475404D01*
X134457902Y-107502341D01*
X135489407Y-106193722D02*
X135462470Y-106112910D01*
X135381658Y-106032097D01*
X135273908Y-105978223D01*
X135166158Y-105978223D01*
X135085346Y-106005160D01*
X134950659Y-106085972D01*
X134869847Y-106166784D01*
X134789035Y-106301471D01*
X134762097Y-106382284D01*
X134762097Y-106490033D01*
X134815972Y-106597783D01*
X134869847Y-106651658D01*
X134977597Y-106705532D01*
X135031471Y-106705532D01*
X135220033Y-106516971D01*
X135112284Y-106409221D01*
X135220033Y-107001844D02*
X135785719Y-106436158D01*
X136001218Y-106651658D01*
X136028155Y-106732470D01*
X136028155Y-106786345D01*
X136001218Y-106867157D01*
X135920406Y-106947969D01*
X135839593Y-106974906D01*
X135785719Y-106974906D01*
X135704906Y-106947969D01*
X135489407Y-106732470D01*
X136082030Y-107863841D02*
X135758781Y-107540592D01*
X135920406Y-107702216D02*
X136486091Y-107136531D01*
X136351404Y-107163468D01*
X136243654Y-107163468D01*
X136162842Y-107136531D01*
X136620778Y-108402589D02*
X136297529Y-108079340D01*
X136459154Y-108240964D02*
X137024839Y-107675279D01*
X136890152Y-107702216D01*
X136782402Y-107702216D01*
X136701590Y-107675279D01*
X138029407Y-106193722D02*
X138002470Y-106112910D01*
X137921658Y-106032097D01*
X137813908Y-105978223D01*
X137706158Y-105978223D01*
X137625346Y-106005160D01*
X137490659Y-106085972D01*
X137409847Y-106166784D01*
X137329035Y-106301471D01*
X137302097Y-106382284D01*
X137302097Y-106490033D01*
X137355972Y-106597783D01*
X137409847Y-106651658D01*
X137517597Y-106705532D01*
X137571471Y-106705532D01*
X137760033Y-106516971D01*
X137652284Y-106409221D01*
X137760033Y-107001844D02*
X138325719Y-106436158D01*
X138541218Y-106651658D01*
X138568155Y-106732470D01*
X138568155Y-106786345D01*
X138541218Y-106867157D01*
X138460406Y-106947969D01*
X138379593Y-106974906D01*
X138325719Y-106974906D01*
X138244906Y-106947969D01*
X138029407Y-106732470D01*
X138622030Y-107863841D02*
X138298781Y-107540592D01*
X138460406Y-107702216D02*
X139026091Y-107136531D01*
X138891404Y-107163468D01*
X138783654Y-107163468D01*
X138702842Y-107136531D01*
X139349340Y-107567529D02*
X139403215Y-107567529D01*
X139484027Y-107594467D01*
X139618714Y-107729154D01*
X139645651Y-107809966D01*
X139645651Y-107863841D01*
X139618714Y-107944653D01*
X139564839Y-107998528D01*
X139457089Y-108052402D01*
X138810592Y-108052402D01*
X139160778Y-108402589D01*
X140569407Y-106047722D02*
X140542470Y-105966910D01*
X140461658Y-105886097D01*
X140353908Y-105832223D01*
X140246158Y-105832223D01*
X140165346Y-105859160D01*
X140030659Y-105939972D01*
X139949847Y-106020784D01*
X139869035Y-106155471D01*
X139842097Y-106236284D01*
X139842097Y-106344033D01*
X139895972Y-106451783D01*
X139949847Y-106505658D01*
X140057597Y-106559532D01*
X140111471Y-106559532D01*
X140300033Y-106370971D01*
X140192284Y-106263221D01*
X140300033Y-106855844D02*
X140865719Y-106290158D01*
X141081218Y-106505658D01*
X141108155Y-106586470D01*
X141108155Y-106640345D01*
X141081218Y-106721157D01*
X141000406Y-106801969D01*
X140919593Y-106828906D01*
X140865719Y-106828906D01*
X140784906Y-106801969D01*
X140569407Y-106586470D01*
X141162030Y-107717841D02*
X140838781Y-107394592D01*
X141000406Y-107556216D02*
X141566091Y-106990531D01*
X141431404Y-107017468D01*
X141323654Y-107017468D01*
X141242842Y-106990531D01*
X141916277Y-107340717D02*
X142266463Y-107690903D01*
X141862402Y-107717841D01*
X141943215Y-107798653D01*
X141970152Y-107879465D01*
X141970152Y-107933340D01*
X141943215Y-108014152D01*
X141808528Y-108148839D01*
X141727715Y-108175776D01*
X141673841Y-108175776D01*
X141593028Y-108148839D01*
X141431404Y-107987215D01*
X141404467Y-107906402D01*
X141404467Y-107852528D01*
X145649407Y-106093722D02*
X145622470Y-106012910D01*
X145541658Y-105932097D01*
X145433908Y-105878223D01*
X145326158Y-105878223D01*
X145245346Y-105905160D01*
X145110659Y-105985972D01*
X145029847Y-106066784D01*
X144949035Y-106201471D01*
X144922097Y-106282284D01*
X144922097Y-106390033D01*
X144975972Y-106497783D01*
X145029847Y-106551658D01*
X145137597Y-106605532D01*
X145191471Y-106605532D01*
X145380033Y-106416971D01*
X145272284Y-106309221D01*
X145380033Y-106901844D02*
X145945719Y-106336158D01*
X146161218Y-106551658D01*
X146188155Y-106632470D01*
X146188155Y-106686345D01*
X146161218Y-106767157D01*
X146080406Y-106847969D01*
X145999593Y-106874906D01*
X145945719Y-106874906D01*
X145864906Y-106847969D01*
X145649407Y-106632470D01*
X146242030Y-107763841D02*
X145918781Y-107440592D01*
X146080406Y-107602216D02*
X146646091Y-107036531D01*
X146511404Y-107063468D01*
X146403654Y-107063468D01*
X146322842Y-107036531D01*
X147104027Y-107871590D02*
X146726903Y-108248714D01*
X147184839Y-107521404D02*
X146646091Y-107790778D01*
X146996277Y-108140964D01*
X148189407Y-106047722D02*
X148162470Y-105966910D01*
X148081658Y-105886097D01*
X147973908Y-105832223D01*
X147866158Y-105832223D01*
X147785346Y-105859160D01*
X147650659Y-105939972D01*
X147569847Y-106020784D01*
X147489035Y-106155471D01*
X147462097Y-106236284D01*
X147462097Y-106344033D01*
X147515972Y-106451783D01*
X147569847Y-106505658D01*
X147677597Y-106559532D01*
X147731471Y-106559532D01*
X147920033Y-106370971D01*
X147812284Y-106263221D01*
X147920033Y-106855844D02*
X148485719Y-106290158D01*
X148701218Y-106505658D01*
X148728155Y-106586470D01*
X148728155Y-106640345D01*
X148701218Y-106721157D01*
X148620406Y-106801969D01*
X148539593Y-106828906D01*
X148485719Y-106828906D01*
X148404906Y-106801969D01*
X148189407Y-106586470D01*
X148782030Y-107717841D02*
X148458781Y-107394592D01*
X148620406Y-107556216D02*
X149186091Y-106990531D01*
X149051404Y-107017468D01*
X148943654Y-107017468D01*
X148862842Y-106990531D01*
X149859526Y-107663966D02*
X149590152Y-107394592D01*
X149293841Y-107637028D01*
X149347715Y-107637028D01*
X149428528Y-107663966D01*
X149563215Y-107798653D01*
X149590152Y-107879465D01*
X149590152Y-107933340D01*
X149563215Y-108014152D01*
X149428528Y-108148839D01*
X149347715Y-108175776D01*
X149293841Y-108175776D01*
X149213028Y-108148839D01*
X149078341Y-108014152D01*
X149051404Y-107933340D01*
X149051404Y-107879465D01*
X148189407Y-79939722D02*
X148162470Y-79858910D01*
X148081658Y-79778097D01*
X147973908Y-79724223D01*
X147866158Y-79724223D01*
X147785346Y-79751160D01*
X147650659Y-79831972D01*
X147569847Y-79912784D01*
X147489035Y-80047471D01*
X147462097Y-80128284D01*
X147462097Y-80236033D01*
X147515972Y-80343783D01*
X147569847Y-80397658D01*
X147677597Y-80451532D01*
X147731471Y-80451532D01*
X147920033Y-80262971D01*
X147812284Y-80155221D01*
X147920033Y-80747844D02*
X148485719Y-80182158D01*
X148701218Y-80397658D01*
X148728155Y-80478470D01*
X148728155Y-80532345D01*
X148701218Y-80613157D01*
X148620406Y-80693969D01*
X148539593Y-80720906D01*
X148485719Y-80720906D01*
X148404906Y-80693969D01*
X148189407Y-80478470D01*
X148782030Y-81609841D02*
X148458781Y-81286592D01*
X148620406Y-81448216D02*
X149186091Y-80882531D01*
X149051404Y-80909468D01*
X148943654Y-80909468D01*
X148862842Y-80882531D01*
X149832589Y-81529028D02*
X149724839Y-81421279D01*
X149644027Y-81394341D01*
X149590152Y-81394341D01*
X149455465Y-81421279D01*
X149320778Y-81502091D01*
X149105279Y-81717590D01*
X149078341Y-81798402D01*
X149078341Y-81852277D01*
X149105279Y-81933089D01*
X149213028Y-82040839D01*
X149293841Y-82067776D01*
X149347715Y-82067776D01*
X149428528Y-82040839D01*
X149563215Y-81906152D01*
X149590152Y-81825340D01*
X149590152Y-81771465D01*
X149563215Y-81690653D01*
X149455465Y-81582903D01*
X149374653Y-81555966D01*
X149320778Y-81555966D01*
X149239966Y-81582903D01*
X145649407Y-79939722D02*
X145622470Y-79858910D01*
X145541658Y-79778097D01*
X145433908Y-79724223D01*
X145326158Y-79724223D01*
X145245346Y-79751160D01*
X145110659Y-79831972D01*
X145029847Y-79912784D01*
X144949035Y-80047471D01*
X144922097Y-80128284D01*
X144922097Y-80236033D01*
X144975972Y-80343783D01*
X145029847Y-80397658D01*
X145137597Y-80451532D01*
X145191471Y-80451532D01*
X145380033Y-80262971D01*
X145272284Y-80155221D01*
X145380033Y-80747844D02*
X145945719Y-80182158D01*
X146161218Y-80397658D01*
X146188155Y-80478470D01*
X146188155Y-80532345D01*
X146161218Y-80613157D01*
X146080406Y-80693969D01*
X145999593Y-80720906D01*
X145945719Y-80720906D01*
X145864906Y-80693969D01*
X145649407Y-80478470D01*
X146242030Y-81609841D02*
X145918781Y-81286592D01*
X146080406Y-81448216D02*
X146646091Y-80882531D01*
X146511404Y-80909468D01*
X146403654Y-80909468D01*
X146322842Y-80882531D01*
X146996277Y-81232717D02*
X147373401Y-81609841D01*
X146565279Y-81933089D01*
X140569407Y-79939722D02*
X140542470Y-79858910D01*
X140461658Y-79778097D01*
X140353908Y-79724223D01*
X140246158Y-79724223D01*
X140165346Y-79751160D01*
X140030659Y-79831972D01*
X139949847Y-79912784D01*
X139869035Y-80047471D01*
X139842097Y-80128284D01*
X139842097Y-80236033D01*
X139895972Y-80343783D01*
X139949847Y-80397658D01*
X140057597Y-80451532D01*
X140111471Y-80451532D01*
X140300033Y-80262971D01*
X140192284Y-80155221D01*
X140300033Y-80747844D02*
X140865719Y-80182158D01*
X141081218Y-80397658D01*
X141108155Y-80478470D01*
X141108155Y-80532345D01*
X141081218Y-80613157D01*
X141000406Y-80693969D01*
X140919593Y-80720906D01*
X140865719Y-80720906D01*
X140784906Y-80693969D01*
X140569407Y-80478470D01*
X141162030Y-81609841D02*
X140838781Y-81286592D01*
X141000406Y-81448216D02*
X141566091Y-80882531D01*
X141431404Y-80909468D01*
X141323654Y-80909468D01*
X141242842Y-80882531D01*
X141808528Y-81609841D02*
X141781590Y-81529028D01*
X141781590Y-81475154D01*
X141808528Y-81394341D01*
X141835465Y-81367404D01*
X141916277Y-81340467D01*
X141970152Y-81340467D01*
X142050964Y-81367404D01*
X142158714Y-81475154D01*
X142185651Y-81555966D01*
X142185651Y-81609841D01*
X142158714Y-81690653D01*
X142131776Y-81717590D01*
X142050964Y-81744528D01*
X141997089Y-81744528D01*
X141916277Y-81717590D01*
X141808528Y-81609841D01*
X141727715Y-81582903D01*
X141673841Y-81582903D01*
X141593028Y-81609841D01*
X141485279Y-81717590D01*
X141458341Y-81798402D01*
X141458341Y-81852277D01*
X141485279Y-81933089D01*
X141593028Y-82040839D01*
X141673841Y-82067776D01*
X141727715Y-82067776D01*
X141808528Y-82040839D01*
X141916277Y-81933089D01*
X141943215Y-81852277D01*
X141943215Y-81798402D01*
X141916277Y-81717590D01*
X138029407Y-79939722D02*
X138002470Y-79858910D01*
X137921658Y-79778097D01*
X137813908Y-79724223D01*
X137706158Y-79724223D01*
X137625346Y-79751160D01*
X137490659Y-79831972D01*
X137409847Y-79912784D01*
X137329035Y-80047471D01*
X137302097Y-80128284D01*
X137302097Y-80236033D01*
X137355972Y-80343783D01*
X137409847Y-80397658D01*
X137517597Y-80451532D01*
X137571471Y-80451532D01*
X137760033Y-80262971D01*
X137652284Y-80155221D01*
X137760033Y-80747844D02*
X138325719Y-80182158D01*
X138541218Y-80397658D01*
X138568155Y-80478470D01*
X138568155Y-80532345D01*
X138541218Y-80613157D01*
X138460406Y-80693969D01*
X138379593Y-80720906D01*
X138325719Y-80720906D01*
X138244906Y-80693969D01*
X138029407Y-80478470D01*
X138622030Y-81609841D02*
X138298781Y-81286592D01*
X138460406Y-81448216D02*
X139026091Y-80882531D01*
X138891404Y-80909468D01*
X138783654Y-80909468D01*
X138702842Y-80882531D01*
X138891404Y-81879215D02*
X138999154Y-81986964D01*
X139079966Y-82013902D01*
X139133841Y-82013902D01*
X139268528Y-81986964D01*
X139403215Y-81906152D01*
X139618714Y-81690653D01*
X139645651Y-81609841D01*
X139645651Y-81555966D01*
X139618714Y-81475154D01*
X139510964Y-81367404D01*
X139430152Y-81340467D01*
X139376277Y-81340467D01*
X139295465Y-81367404D01*
X139160778Y-81502091D01*
X139133841Y-81582903D01*
X139133841Y-81636778D01*
X139160778Y-81717590D01*
X139268528Y-81825340D01*
X139349340Y-81852277D01*
X139403215Y-81852277D01*
X139484027Y-81825340D01*
X135489407Y-79939722D02*
X135462470Y-79858910D01*
X135381658Y-79778097D01*
X135273908Y-79724223D01*
X135166158Y-79724223D01*
X135085346Y-79751160D01*
X134950659Y-79831972D01*
X134869847Y-79912784D01*
X134789035Y-80047471D01*
X134762097Y-80128284D01*
X134762097Y-80236033D01*
X134815972Y-80343783D01*
X134869847Y-80397658D01*
X134977597Y-80451532D01*
X135031471Y-80451532D01*
X135220033Y-80262971D01*
X135112284Y-80155221D01*
X135220033Y-80747844D02*
X135785719Y-80182158D01*
X136001218Y-80397658D01*
X136028155Y-80478470D01*
X136028155Y-80532345D01*
X136001218Y-80613157D01*
X135920406Y-80693969D01*
X135839593Y-80720906D01*
X135785719Y-80720906D01*
X135704906Y-80693969D01*
X135489407Y-80478470D01*
X136270592Y-80774781D02*
X136324467Y-80774781D01*
X136405279Y-80801719D01*
X136539966Y-80936406D01*
X136566903Y-81017218D01*
X136566903Y-81071093D01*
X136539966Y-81151905D01*
X136486091Y-81205780D01*
X136378341Y-81259654D01*
X135731844Y-81259654D01*
X136082030Y-81609841D01*
X136997902Y-81394341D02*
X137051776Y-81448216D01*
X137078714Y-81529028D01*
X137078714Y-81582903D01*
X137051776Y-81663715D01*
X136970964Y-81798402D01*
X136836277Y-81933089D01*
X136701590Y-82013902D01*
X136620778Y-82040839D01*
X136566903Y-82040839D01*
X136486091Y-82013902D01*
X136432216Y-81960027D01*
X136405279Y-81879215D01*
X136405279Y-81825340D01*
X136432216Y-81744528D01*
X136513028Y-81609841D01*
X136647715Y-81475154D01*
X136782402Y-81394341D01*
X136863215Y-81367404D01*
X136917089Y-81367404D01*
X136997902Y-81394341D01*
X132959407Y-79939722D02*
X132932470Y-79858910D01*
X132851658Y-79778097D01*
X132743908Y-79724223D01*
X132636158Y-79724223D01*
X132555346Y-79751160D01*
X132420659Y-79831972D01*
X132339847Y-79912784D01*
X132259035Y-80047471D01*
X132232097Y-80128284D01*
X132232097Y-80236033D01*
X132285972Y-80343783D01*
X132339847Y-80397658D01*
X132447597Y-80451532D01*
X132501471Y-80451532D01*
X132690033Y-80262971D01*
X132582284Y-80155221D01*
X132690033Y-80747844D02*
X133255719Y-80182158D01*
X133471218Y-80397658D01*
X133498155Y-80478470D01*
X133498155Y-80532345D01*
X133471218Y-80613157D01*
X133390406Y-80693969D01*
X133309593Y-80720906D01*
X133255719Y-80720906D01*
X133174906Y-80693969D01*
X132959407Y-80478470D01*
X133740592Y-80774781D02*
X133794467Y-80774781D01*
X133875279Y-80801719D01*
X134009966Y-80936406D01*
X134036903Y-81017218D01*
X134036903Y-81071093D01*
X134009966Y-81151905D01*
X133956091Y-81205780D01*
X133848341Y-81259654D01*
X133201844Y-81259654D01*
X133552030Y-81609841D01*
X134090778Y-82148589D02*
X133767529Y-81825340D01*
X133929154Y-81986964D02*
X134494839Y-81421279D01*
X134360152Y-81448216D01*
X134252402Y-81448216D01*
X134171590Y-81421279D01*
X127869407Y-79939722D02*
X127842470Y-79858910D01*
X127761658Y-79778097D01*
X127653908Y-79724223D01*
X127546158Y-79724223D01*
X127465346Y-79751160D01*
X127330659Y-79831972D01*
X127249847Y-79912784D01*
X127169035Y-80047471D01*
X127142097Y-80128284D01*
X127142097Y-80236033D01*
X127195972Y-80343783D01*
X127249847Y-80397658D01*
X127357597Y-80451532D01*
X127411471Y-80451532D01*
X127600033Y-80262971D01*
X127492284Y-80155221D01*
X127600033Y-80747844D02*
X128165719Y-80182158D01*
X128381218Y-80397658D01*
X128408155Y-80478470D01*
X128408155Y-80532345D01*
X128381218Y-80613157D01*
X128300406Y-80693969D01*
X128219593Y-80720906D01*
X128165719Y-80720906D01*
X128084906Y-80693969D01*
X127869407Y-80478470D01*
X128650592Y-80774781D02*
X128704467Y-80774781D01*
X128785279Y-80801719D01*
X128919966Y-80936406D01*
X128946903Y-81017218D01*
X128946903Y-81071093D01*
X128919966Y-81151905D01*
X128866091Y-81205780D01*
X128758341Y-81259654D01*
X128111844Y-81259654D01*
X128462030Y-81609841D01*
X129189340Y-81313529D02*
X129243215Y-81313529D01*
X129324027Y-81340467D01*
X129458714Y-81475154D01*
X129485651Y-81555966D01*
X129485651Y-81609841D01*
X129458714Y-81690653D01*
X129404839Y-81744528D01*
X129297089Y-81798402D01*
X128650592Y-81798402D01*
X129000778Y-82148589D01*
X125046564Y-80788375D02*
X125127377Y-80330439D01*
X124723316Y-80465126D02*
X125289001Y-79899441D01*
X125504500Y-80114940D01*
X125531438Y-80195752D01*
X125531438Y-80249627D01*
X125504500Y-80330439D01*
X125423688Y-80411251D01*
X125342876Y-80438189D01*
X125289001Y-80438189D01*
X125208189Y-80411251D01*
X124992690Y-80195752D01*
X125854687Y-80465126D02*
X125396751Y-80923062D01*
X125369813Y-81003874D01*
X125369813Y-81057749D01*
X125396751Y-81138561D01*
X125504500Y-81246311D01*
X125585312Y-81273248D01*
X125639187Y-81273248D01*
X125720000Y-81246311D01*
X126177935Y-80788375D01*
X125881624Y-81623435D02*
X126447309Y-81057749D01*
X126204873Y-81946683D01*
X126770558Y-81380998D01*
X122789407Y-79939722D02*
X122762470Y-79858910D01*
X122681658Y-79778097D01*
X122573908Y-79724223D01*
X122466158Y-79724223D01*
X122385346Y-79751160D01*
X122250659Y-79831972D01*
X122169847Y-79912784D01*
X122089035Y-80047471D01*
X122062097Y-80128284D01*
X122062097Y-80236033D01*
X122115972Y-80343783D01*
X122169847Y-80397658D01*
X122277597Y-80451532D01*
X122331471Y-80451532D01*
X122520033Y-80262971D01*
X122412284Y-80155221D01*
X122520033Y-80747844D02*
X123085719Y-80182158D01*
X123301218Y-80397658D01*
X123328155Y-80478470D01*
X123328155Y-80532345D01*
X123301218Y-80613157D01*
X123220406Y-80693969D01*
X123139593Y-80720906D01*
X123085719Y-80720906D01*
X123004906Y-80693969D01*
X122789407Y-80478470D01*
X123570592Y-80774781D02*
X123624467Y-80774781D01*
X123705279Y-80801719D01*
X123839966Y-80936406D01*
X123866903Y-81017218D01*
X123866903Y-81071093D01*
X123839966Y-81151905D01*
X123786091Y-81205780D01*
X123678341Y-81259654D01*
X123031844Y-81259654D01*
X123382030Y-81609841D01*
X124432589Y-81529028D02*
X124324839Y-81421279D01*
X124244027Y-81394341D01*
X124190152Y-81394341D01*
X124055465Y-81421279D01*
X123920778Y-81502091D01*
X123705279Y-81717590D01*
X123678341Y-81798402D01*
X123678341Y-81852277D01*
X123705279Y-81933089D01*
X123813028Y-82040839D01*
X123893841Y-82067776D01*
X123947715Y-82067776D01*
X124028528Y-82040839D01*
X124163215Y-81906152D01*
X124190152Y-81825340D01*
X124190152Y-81771465D01*
X124163215Y-81690653D01*
X124055465Y-81582903D01*
X123974653Y-81555966D01*
X123920778Y-81555966D01*
X123839966Y-81582903D01*
X120259407Y-79939722D02*
X120232470Y-79858910D01*
X120151658Y-79778097D01*
X120043908Y-79724223D01*
X119936158Y-79724223D01*
X119855346Y-79751160D01*
X119720659Y-79831972D01*
X119639847Y-79912784D01*
X119559035Y-80047471D01*
X119532097Y-80128284D01*
X119532097Y-80236033D01*
X119585972Y-80343783D01*
X119639847Y-80397658D01*
X119747597Y-80451532D01*
X119801471Y-80451532D01*
X119990033Y-80262971D01*
X119882284Y-80155221D01*
X119990033Y-80747844D02*
X120555719Y-80182158D01*
X120771218Y-80397658D01*
X120798155Y-80478470D01*
X120798155Y-80532345D01*
X120771218Y-80613157D01*
X120690406Y-80693969D01*
X120609593Y-80720906D01*
X120555719Y-80720906D01*
X120474906Y-80693969D01*
X120259407Y-80478470D01*
X121040592Y-80774781D02*
X121094467Y-80774781D01*
X121175279Y-80801719D01*
X121309966Y-80936406D01*
X121336903Y-81017218D01*
X121336903Y-81071093D01*
X121309966Y-81151905D01*
X121256091Y-81205780D01*
X121148341Y-81259654D01*
X120501844Y-81259654D01*
X120852030Y-81609841D01*
X121606277Y-81232717D02*
X121983401Y-81609841D01*
X121175279Y-81933089D01*
X114915407Y-79939722D02*
X114888470Y-79858910D01*
X114807658Y-79778097D01*
X114699908Y-79724223D01*
X114592158Y-79724223D01*
X114511346Y-79751160D01*
X114376659Y-79831972D01*
X114295847Y-79912784D01*
X114215035Y-80047471D01*
X114188097Y-80128284D01*
X114188097Y-80236033D01*
X114241972Y-80343783D01*
X114295847Y-80397658D01*
X114403597Y-80451532D01*
X114457471Y-80451532D01*
X114646033Y-80262971D01*
X114538284Y-80155221D01*
X114646033Y-80747844D02*
X115211719Y-80182158D01*
X115427218Y-80397658D01*
X115454155Y-80478470D01*
X115454155Y-80532345D01*
X115427218Y-80613157D01*
X115346406Y-80693969D01*
X115265593Y-80720906D01*
X115211719Y-80720906D01*
X115130906Y-80693969D01*
X114915407Y-80478470D01*
X115696592Y-80774781D02*
X115750467Y-80774781D01*
X115831279Y-80801719D01*
X115965966Y-80936406D01*
X115992903Y-81017218D01*
X115992903Y-81071093D01*
X115965966Y-81151905D01*
X115912091Y-81205780D01*
X115804341Y-81259654D01*
X115157844Y-81259654D01*
X115508030Y-81609841D01*
X116154528Y-81609841D02*
X116127590Y-81529028D01*
X116127590Y-81475154D01*
X116154528Y-81394341D01*
X116181465Y-81367404D01*
X116262277Y-81340467D01*
X116316152Y-81340467D01*
X116396964Y-81367404D01*
X116504714Y-81475154D01*
X116531651Y-81555966D01*
X116531651Y-81609841D01*
X116504714Y-81690653D01*
X116477776Y-81717590D01*
X116396964Y-81744528D01*
X116343089Y-81744528D01*
X116262277Y-81717590D01*
X116154528Y-81609841D01*
X116073715Y-81582903D01*
X116019841Y-81582903D01*
X115939028Y-81609841D01*
X115831279Y-81717590D01*
X115804341Y-81798402D01*
X115804341Y-81852277D01*
X115831279Y-81933089D01*
X115939028Y-82040839D01*
X116019841Y-82067776D01*
X116073715Y-82067776D01*
X116154528Y-82040839D01*
X116262277Y-81933089D01*
X116289215Y-81852277D01*
X116289215Y-81798402D01*
X116262277Y-81717590D01*
X109916226Y-78104788D02*
X110185600Y-78374162D01*
X109700727Y-78212537D02*
X110454974Y-77835414D01*
X110077850Y-78589661D01*
X110266412Y-78778223D02*
X110832097Y-78212537D01*
X110966784Y-78347224D01*
X111020659Y-78454974D01*
X111020659Y-78562723D01*
X110993722Y-78643536D01*
X110912910Y-78778223D01*
X110832097Y-78859035D01*
X110697410Y-78939847D01*
X110616598Y-78966784D01*
X110508849Y-78966784D01*
X110401099Y-78912910D01*
X110266412Y-78778223D01*
X111209221Y-79613282D02*
X111155346Y-79613282D01*
X111047597Y-79559407D01*
X110993722Y-79505532D01*
X110939847Y-79397783D01*
X110939847Y-79290033D01*
X110966784Y-79209221D01*
X111047597Y-79074534D01*
X111128409Y-78993722D01*
X111263096Y-78912910D01*
X111343908Y-78885972D01*
X111451658Y-78885972D01*
X111559407Y-78939847D01*
X111613282Y-78993722D01*
X111667157Y-79101471D01*
X111667157Y-79155346D01*
X111209221Y-79828781D02*
X111640219Y-80259780D01*
X112313654Y-79694094D02*
X111936531Y-80448341D01*
X112690778Y-80071218D01*
X112636903Y-81148714D02*
X112717715Y-80690778D01*
X112313654Y-80825465D02*
X112879340Y-80259780D01*
X113094839Y-80475279D01*
X113121776Y-80556091D01*
X113121776Y-80609966D01*
X113094839Y-80690778D01*
X113014027Y-80771590D01*
X112933215Y-80798528D01*
X112879340Y-80798528D01*
X112798528Y-80771590D01*
X112583028Y-80556091D01*
X113175651Y-81094839D02*
X113364213Y-81283401D01*
X113148714Y-81660524D02*
X112879340Y-81391150D01*
X113445025Y-80825465D01*
X113714399Y-81094839D01*
X113876024Y-81795211D02*
X113687462Y-81606650D01*
X113391150Y-81902961D02*
X113956836Y-81337276D01*
X114226210Y-81606650D01*
X110159407Y-80039847D02*
X110509593Y-80390033D01*
X110105532Y-80416971D01*
X110186345Y-80497783D01*
X110213282Y-80578595D01*
X110213282Y-80632470D01*
X110186345Y-80713282D01*
X110051658Y-80847969D01*
X109970845Y-80874906D01*
X109916971Y-80874906D01*
X109836158Y-80847969D01*
X109674534Y-80686345D01*
X109647597Y-80605532D01*
X109647597Y-80551658D01*
X110671218Y-80551658D02*
X110294094Y-81305905D01*
X111048341Y-80928781D01*
X111183028Y-81063468D02*
X111533215Y-81413654D01*
X111129154Y-81440592D01*
X111209966Y-81521404D01*
X111236903Y-81602216D01*
X111236903Y-81656091D01*
X111209966Y-81736903D01*
X111075279Y-81871590D01*
X110994467Y-81898528D01*
X110940592Y-81898528D01*
X110859780Y-81871590D01*
X110698155Y-81709966D01*
X110671218Y-81629154D01*
X110671218Y-81575279D01*
X106091691Y-78472131D02*
X106441877Y-78822317D01*
X106037816Y-78849255D01*
X106118629Y-78930067D01*
X106145566Y-79010879D01*
X106145566Y-79064754D01*
X106118629Y-79145566D01*
X105983942Y-79280253D01*
X105903129Y-79307190D01*
X105849255Y-79307190D01*
X105768442Y-79280253D01*
X105606818Y-79118629D01*
X105579881Y-79037816D01*
X105579881Y-78983942D01*
X106603502Y-78983942D02*
X106226378Y-79738189D01*
X106980625Y-79361065D01*
X107115312Y-79495752D02*
X107465499Y-79845938D01*
X107061438Y-79872876D01*
X107142250Y-79953688D01*
X107169187Y-80034500D01*
X107169187Y-80088375D01*
X107142250Y-80169187D01*
X107007563Y-80303874D01*
X106926751Y-80330812D01*
X106872876Y-80330812D01*
X106792064Y-80303874D01*
X106630439Y-80142250D01*
X106603502Y-80061438D01*
X106603502Y-80007563D01*
X106953688Y-80573248D02*
X107384687Y-81004247D01*
X107869560Y-80788748D02*
X108058122Y-80977309D01*
X107842622Y-81354433D02*
X107573248Y-81085059D01*
X108138934Y-80519374D01*
X108408308Y-80788748D01*
X108085059Y-81596870D02*
X108650744Y-81031184D01*
X108408308Y-81920118D01*
X108973993Y-81354433D01*
X102200033Y-79470473D02*
X101822910Y-80224720D01*
X102577157Y-79847597D01*
X102200033Y-80547969D02*
X102253908Y-80655719D01*
X102388595Y-80790406D01*
X102469407Y-80817343D01*
X102523282Y-80817343D01*
X102604094Y-80790406D01*
X102657969Y-80736531D01*
X102684906Y-80655719D01*
X102684906Y-80601844D01*
X102657969Y-80521032D01*
X102577157Y-80386345D01*
X102550219Y-80305532D01*
X102550219Y-80251658D01*
X102577157Y-80170845D01*
X102631032Y-80116971D01*
X102711844Y-80090033D01*
X102765719Y-80090033D01*
X102846531Y-80116971D01*
X102981218Y-80251658D01*
X103035093Y-80359407D01*
X103115905Y-80978967D02*
X102846531Y-81248341D01*
X103223654Y-80494094D02*
X103115905Y-80978967D01*
X103600778Y-80871218D01*
X103223654Y-81571590D02*
X103277529Y-81679340D01*
X103412216Y-81814027D01*
X103493028Y-81840964D01*
X103546903Y-81840964D01*
X103627715Y-81814027D01*
X103681590Y-81760152D01*
X103708528Y-81679340D01*
X103708528Y-81625465D01*
X103681590Y-81544653D01*
X103600778Y-81409966D01*
X103573841Y-81329154D01*
X103573841Y-81275279D01*
X103600778Y-81194467D01*
X103654653Y-81140592D01*
X103735465Y-81113654D01*
X103789340Y-81113654D01*
X103870152Y-81140592D01*
X104004839Y-81275279D01*
X104058714Y-81383028D01*
X99522690Y-79303129D02*
X99145566Y-80057377D01*
X99899813Y-79680253D01*
X100007563Y-80326751D02*
X100061438Y-80434500D01*
X100061438Y-80488375D01*
X100034500Y-80569187D01*
X99953688Y-80649999D01*
X99872876Y-80676937D01*
X99819001Y-80676937D01*
X99738189Y-80650000D01*
X99522690Y-80434500D01*
X100088375Y-79868815D01*
X100276937Y-80057377D01*
X100303874Y-80138189D01*
X100303874Y-80192064D01*
X100276937Y-80272876D01*
X100223062Y-80326751D01*
X100142250Y-80353688D01*
X100088375Y-80353688D01*
X100007563Y-80326751D01*
X99819001Y-80138189D01*
X100654061Y-80434500D02*
X100196125Y-80892436D01*
X100169187Y-80973248D01*
X100169187Y-81027123D01*
X100196125Y-81107935D01*
X100303874Y-81215685D01*
X100384687Y-81242622D01*
X100438561Y-81242622D01*
X100519374Y-81215685D01*
X100977309Y-80757749D01*
X100680998Y-81538934D02*
X100734873Y-81646683D01*
X100869560Y-81781370D01*
X100950372Y-81808308D01*
X101004247Y-81808308D01*
X101085059Y-81781370D01*
X101138934Y-81727496D01*
X101165871Y-81646683D01*
X101165871Y-81592809D01*
X101138934Y-81511996D01*
X101058122Y-81377309D01*
X101031184Y-81296497D01*
X101031184Y-81242622D01*
X101058122Y-81161810D01*
X101111996Y-81107935D01*
X101192809Y-81080998D01*
X101246683Y-81080998D01*
X101327496Y-81107935D01*
X101462183Y-81242622D01*
X101516057Y-81350372D01*
X105251844Y-106036158D02*
X105224906Y-105955346D01*
X105144094Y-105874534D01*
X105036345Y-105820659D01*
X104928595Y-105820659D01*
X104847783Y-105847597D01*
X104713096Y-105928409D01*
X104632284Y-106009221D01*
X104551471Y-106143908D01*
X104524534Y-106224720D01*
X104524534Y-106332470D01*
X104578409Y-106440219D01*
X104632284Y-106494094D01*
X104740033Y-106547969D01*
X104793908Y-106547969D01*
X104982470Y-106359407D01*
X104874720Y-106251658D01*
X104982470Y-106844280D02*
X105548155Y-106278595D01*
X105305719Y-107167529D01*
X105871404Y-106601844D01*
X105575093Y-107436903D02*
X106140778Y-106871218D01*
X106275465Y-107005905D01*
X106329340Y-107113654D01*
X106329340Y-107221404D01*
X106302402Y-107302216D01*
X106221590Y-107436903D01*
X106140778Y-107517715D01*
X106006091Y-107598528D01*
X105925279Y-107625465D01*
X105817529Y-107625465D01*
X105709780Y-107571590D01*
X105575093Y-107436903D01*
X117951844Y-106036158D02*
X117924906Y-105955346D01*
X117844094Y-105874534D01*
X117736345Y-105820659D01*
X117628595Y-105820659D01*
X117547783Y-105847597D01*
X117413096Y-105928409D01*
X117332284Y-106009221D01*
X117251471Y-106143908D01*
X117224534Y-106224720D01*
X117224534Y-106332470D01*
X117278409Y-106440219D01*
X117332284Y-106494094D01*
X117440033Y-106547969D01*
X117493908Y-106547969D01*
X117682470Y-106359407D01*
X117574720Y-106251658D01*
X117682470Y-106844280D02*
X118248155Y-106278595D01*
X118005719Y-107167529D01*
X118571404Y-106601844D01*
X118275093Y-107436903D02*
X118840778Y-106871218D01*
X118975465Y-107005905D01*
X119029340Y-107113654D01*
X119029340Y-107221404D01*
X119002402Y-107302216D01*
X118921590Y-107436903D01*
X118840778Y-107517715D01*
X118706091Y-107598528D01*
X118625279Y-107625465D01*
X118517529Y-107625465D01*
X118409780Y-107571590D01*
X118275093Y-107436903D01*
X130651844Y-106036158D02*
X130624906Y-105955346D01*
X130544094Y-105874534D01*
X130436345Y-105820659D01*
X130328595Y-105820659D01*
X130247783Y-105847597D01*
X130113096Y-105928409D01*
X130032284Y-106009221D01*
X129951471Y-106143908D01*
X129924534Y-106224720D01*
X129924534Y-106332470D01*
X129978409Y-106440219D01*
X130032284Y-106494094D01*
X130140033Y-106547969D01*
X130193908Y-106547969D01*
X130382470Y-106359407D01*
X130274720Y-106251658D01*
X130382470Y-106844280D02*
X130948155Y-106278595D01*
X130705719Y-107167529D01*
X131271404Y-106601844D01*
X130975093Y-107436903D02*
X131540778Y-106871218D01*
X131675465Y-107005905D01*
X131729340Y-107113654D01*
X131729340Y-107221404D01*
X131702402Y-107302216D01*
X131621590Y-107436903D01*
X131540778Y-107517715D01*
X131406091Y-107598528D01*
X131325279Y-107625465D01*
X131217529Y-107625465D01*
X131109780Y-107571590D01*
X130975093Y-107436903D01*
X143351844Y-106036158D02*
X143324906Y-105955346D01*
X143244094Y-105874534D01*
X143136345Y-105820659D01*
X143028595Y-105820659D01*
X142947783Y-105847597D01*
X142813096Y-105928409D01*
X142732284Y-106009221D01*
X142651471Y-106143908D01*
X142624534Y-106224720D01*
X142624534Y-106332470D01*
X142678409Y-106440219D01*
X142732284Y-106494094D01*
X142840033Y-106547969D01*
X142893908Y-106547969D01*
X143082470Y-106359407D01*
X142974720Y-106251658D01*
X143082470Y-106844280D02*
X143648155Y-106278595D01*
X143405719Y-107167529D01*
X143971404Y-106601844D01*
X143675093Y-107436903D02*
X144240778Y-106871218D01*
X144375465Y-107005905D01*
X144429340Y-107113654D01*
X144429340Y-107221404D01*
X144402402Y-107302216D01*
X144321590Y-107436903D01*
X144240778Y-107517715D01*
X144106091Y-107598528D01*
X144025279Y-107625465D01*
X143917529Y-107625465D01*
X143809780Y-107571590D01*
X143675093Y-107436903D01*
X143351844Y-80436158D02*
X143324906Y-80355346D01*
X143244094Y-80274534D01*
X143136345Y-80220659D01*
X143028595Y-80220659D01*
X142947783Y-80247597D01*
X142813096Y-80328409D01*
X142732284Y-80409221D01*
X142651471Y-80543908D01*
X142624534Y-80624720D01*
X142624534Y-80732470D01*
X142678409Y-80840219D01*
X142732284Y-80894094D01*
X142840033Y-80947969D01*
X142893908Y-80947969D01*
X143082470Y-80759407D01*
X142974720Y-80651658D01*
X143082470Y-81244280D02*
X143648155Y-80678595D01*
X143405719Y-81567529D01*
X143971404Y-81001844D01*
X143675093Y-81836903D02*
X144240778Y-81271218D01*
X144375465Y-81405905D01*
X144429340Y-81513654D01*
X144429340Y-81621404D01*
X144402402Y-81702216D01*
X144321590Y-81836903D01*
X144240778Y-81917715D01*
X144106091Y-81998528D01*
X144025279Y-82025465D01*
X143917529Y-82025465D01*
X143809780Y-81971590D01*
X143675093Y-81836903D01*
X130651844Y-80436158D02*
X130624906Y-80355346D01*
X130544094Y-80274534D01*
X130436345Y-80220659D01*
X130328595Y-80220659D01*
X130247783Y-80247597D01*
X130113096Y-80328409D01*
X130032284Y-80409221D01*
X129951471Y-80543908D01*
X129924534Y-80624720D01*
X129924534Y-80732470D01*
X129978409Y-80840219D01*
X130032284Y-80894094D01*
X130140033Y-80947969D01*
X130193908Y-80947969D01*
X130382470Y-80759407D01*
X130274720Y-80651658D01*
X130382470Y-81244280D02*
X130948155Y-80678595D01*
X130705719Y-81567529D01*
X131271404Y-81001844D01*
X130975093Y-81836903D02*
X131540778Y-81271218D01*
X131675465Y-81405905D01*
X131729340Y-81513654D01*
X131729340Y-81621404D01*
X131702402Y-81702216D01*
X131621590Y-81836903D01*
X131540778Y-81917715D01*
X131406091Y-81998528D01*
X131325279Y-82025465D01*
X131217529Y-82025465D01*
X131109780Y-81971590D01*
X130975093Y-81836903D01*
X105251844Y-80436158D02*
X105224906Y-80355346D01*
X105144094Y-80274534D01*
X105036345Y-80220659D01*
X104928595Y-80220659D01*
X104847783Y-80247597D01*
X104713096Y-80328409D01*
X104632284Y-80409221D01*
X104551471Y-80543908D01*
X104524534Y-80624720D01*
X104524534Y-80732470D01*
X104578409Y-80840219D01*
X104632284Y-80894094D01*
X104740033Y-80947969D01*
X104793908Y-80947969D01*
X104982470Y-80759407D01*
X104874720Y-80651658D01*
X104982470Y-81244280D02*
X105548155Y-80678595D01*
X105305719Y-81567529D01*
X105871404Y-81001844D01*
X105575093Y-81836903D02*
X106140778Y-81271218D01*
X106275465Y-81405905D01*
X106329340Y-81513654D01*
X106329340Y-81621404D01*
X106302402Y-81702216D01*
X106221590Y-81836903D01*
X106140778Y-81917715D01*
X106006091Y-81998528D01*
X105925279Y-82025465D01*
X105817529Y-82025465D01*
X105709780Y-81971590D01*
X105575093Y-81836903D01*
X117009035Y-79993597D02*
X117278409Y-80262971D01*
X116793536Y-80101346D02*
X117547783Y-79724223D01*
X117170659Y-80478470D01*
X118194280Y-80424595D02*
X118167343Y-80343783D01*
X118086531Y-80262971D01*
X117978781Y-80209096D01*
X117871032Y-80209096D01*
X117790219Y-80236033D01*
X117655532Y-80316845D01*
X117574720Y-80397658D01*
X117493908Y-80532345D01*
X117466971Y-80613157D01*
X117466971Y-80720906D01*
X117520845Y-80828656D01*
X117574720Y-80882531D01*
X117682470Y-80936406D01*
X117736345Y-80936406D01*
X117924906Y-80747844D01*
X117817157Y-80640094D01*
X117924906Y-81232717D02*
X118490592Y-80667032D01*
X118248155Y-81555966D01*
X118813841Y-80990280D01*
X118517529Y-81825340D02*
X119083215Y-81259654D01*
X119217902Y-81394341D01*
X119271776Y-81502091D01*
X119271776Y-81609841D01*
X119244839Y-81690653D01*
X119164027Y-81825340D01*
X119083215Y-81906152D01*
X118948528Y-81986964D01*
X118867715Y-82013902D01*
X118759966Y-82013902D01*
X118652216Y-81960027D01*
X118517529Y-81825340D01*
X150973809Y-101459523D02*
X151011904Y-101345238D01*
X151011904Y-101154761D01*
X150973809Y-101078571D01*
X150935714Y-101040476D01*
X150859523Y-101002380D01*
X150783333Y-101002380D01*
X150707142Y-101040476D01*
X150669047Y-101078571D01*
X150630952Y-101154761D01*
X150592857Y-101307142D01*
X150554761Y-101383333D01*
X150516666Y-101421428D01*
X150440476Y-101459523D01*
X150364285Y-101459523D01*
X150288095Y-101421428D01*
X150250000Y-101383333D01*
X150211904Y-101307142D01*
X150211904Y-101116666D01*
X150250000Y-101002380D01*
X150211904Y-100735714D02*
X151011904Y-100545238D01*
X150440476Y-100392857D01*
X151011904Y-100240476D01*
X150211904Y-100050000D01*
X150935714Y-99288095D02*
X150973809Y-99326190D01*
X151011904Y-99440476D01*
X151011904Y-99516666D01*
X150973809Y-99630952D01*
X150897619Y-99707142D01*
X150821428Y-99745238D01*
X150669047Y-99783333D01*
X150554761Y-99783333D01*
X150402380Y-99745238D01*
X150326190Y-99707142D01*
X150250000Y-99630952D01*
X150211904Y-99516666D01*
X150211904Y-99440476D01*
X150250000Y-99326190D01*
X150288095Y-99288095D01*
X151011904Y-98564285D02*
X151011904Y-98945238D01*
X150211904Y-98945238D01*
X151011904Y-98297619D02*
X150211904Y-98297619D01*
X151011904Y-97840476D02*
X150554761Y-98183333D01*
X150211904Y-97840476D02*
X150669047Y-98297619D01*
X150973809Y-90045238D02*
X151011904Y-89930952D01*
X151011904Y-89740476D01*
X150973809Y-89664285D01*
X150935714Y-89626190D01*
X150859523Y-89588095D01*
X150783333Y-89588095D01*
X150707142Y-89626190D01*
X150669047Y-89664285D01*
X150630952Y-89740476D01*
X150592857Y-89892857D01*
X150554761Y-89969047D01*
X150516666Y-90007142D01*
X150440476Y-90045238D01*
X150364285Y-90045238D01*
X150288095Y-90007142D01*
X150250000Y-89969047D01*
X150211904Y-89892857D01*
X150211904Y-89702380D01*
X150250000Y-89588095D01*
X150211904Y-89321428D02*
X151011904Y-89130952D01*
X150440476Y-88978571D01*
X151011904Y-88826190D01*
X150211904Y-88635714D01*
X151011904Y-88330952D02*
X150211904Y-88330952D01*
X150211904Y-88140476D01*
X150250000Y-88026190D01*
X150326190Y-87950000D01*
X150402380Y-87911904D01*
X150554761Y-87873809D01*
X150669047Y-87873809D01*
X150821428Y-87911904D01*
X150897619Y-87950000D01*
X150973809Y-88026190D01*
X151011904Y-88140476D01*
X151011904Y-88330952D01*
X151011904Y-87530952D02*
X150211904Y-87530952D01*
X150211904Y-86997619D02*
X150211904Y-86845238D01*
X150250000Y-86769047D01*
X150326190Y-86692857D01*
X150478571Y-86654761D01*
X150745238Y-86654761D01*
X150897619Y-86692857D01*
X150973809Y-86769047D01*
X151011904Y-86845238D01*
X151011904Y-86997619D01*
X150973809Y-87073809D01*
X150897619Y-87150000D01*
X150745238Y-87188095D01*
X150478571Y-87188095D01*
X150326190Y-87150000D01*
X150250000Y-87073809D01*
X150211904Y-86997619D01*
%TO.C,D5*%
X104957904Y-108584380D02*
X104957904Y-107584380D01*
X105196000Y-107584380D01*
X105338857Y-107632000D01*
X105434095Y-107727238D01*
X105481714Y-107822476D01*
X105529333Y-108012952D01*
X105529333Y-108155809D01*
X105481714Y-108346285D01*
X105434095Y-108441523D01*
X105338857Y-108536761D01*
X105196000Y-108584380D01*
X104957904Y-108584380D01*
X106434095Y-107584380D02*
X105957904Y-107584380D01*
X105910285Y-108060571D01*
X105957904Y-108012952D01*
X106053142Y-107965333D01*
X106291238Y-107965333D01*
X106386476Y-108012952D01*
X106434095Y-108060571D01*
X106481714Y-108155809D01*
X106481714Y-108393904D01*
X106434095Y-108489142D01*
X106386476Y-108536761D01*
X106291238Y-108584380D01*
X106053142Y-108584380D01*
X105957904Y-108536761D01*
X105910285Y-108489142D01*
%TO.C,D3*%
X104957904Y-112506380D02*
X104957904Y-111506380D01*
X105196000Y-111506380D01*
X105338857Y-111554000D01*
X105434095Y-111649238D01*
X105481714Y-111744476D01*
X105529333Y-111934952D01*
X105529333Y-112077809D01*
X105481714Y-112268285D01*
X105434095Y-112363523D01*
X105338857Y-112458761D01*
X105196000Y-112506380D01*
X104957904Y-112506380D01*
X105862666Y-111506380D02*
X106481714Y-111506380D01*
X106148380Y-111887333D01*
X106291238Y-111887333D01*
X106386476Y-111934952D01*
X106434095Y-111982571D01*
X106481714Y-112077809D01*
X106481714Y-112315904D01*
X106434095Y-112411142D01*
X106386476Y-112458761D01*
X106291238Y-112506380D01*
X106005523Y-112506380D01*
X105910285Y-112458761D01*
X105862666Y-112411142D01*
%TO.C,U2*%
X156210095Y-83214380D02*
X156210095Y-84023904D01*
X156257714Y-84119142D01*
X156305333Y-84166761D01*
X156400571Y-84214380D01*
X156591047Y-84214380D01*
X156686285Y-84166761D01*
X156733904Y-84119142D01*
X156781523Y-84023904D01*
X156781523Y-83214380D01*
X157210095Y-83309619D02*
X157257714Y-83262000D01*
X157352952Y-83214380D01*
X157591047Y-83214380D01*
X157686285Y-83262000D01*
X157733904Y-83309619D01*
X157781523Y-83404857D01*
X157781523Y-83500095D01*
X157733904Y-83642952D01*
X157162476Y-84214380D01*
X157781523Y-84214380D01*
%TO.C,R1*%
X169696333Y-87668380D02*
X169363000Y-87192190D01*
X169124904Y-87668380D02*
X169124904Y-86668380D01*
X169505857Y-86668380D01*
X169601095Y-86716000D01*
X169648714Y-86763619D01*
X169696333Y-86858857D01*
X169696333Y-87001714D01*
X169648714Y-87096952D01*
X169601095Y-87144571D01*
X169505857Y-87192190D01*
X169124904Y-87192190D01*
X170648714Y-87668380D02*
X170077285Y-87668380D01*
X170363000Y-87668380D02*
X170363000Y-86668380D01*
X170267761Y-86811238D01*
X170172523Y-86906476D01*
X170077285Y-86954095D01*
%TO.C,Y1*%
X156681809Y-83536190D02*
X156681809Y-84012380D01*
X156348476Y-83012380D02*
X156681809Y-83536190D01*
X157015142Y-83012380D01*
X157872285Y-84012380D02*
X157300857Y-84012380D01*
X157586571Y-84012380D02*
X157586571Y-83012380D01*
X157491333Y-83155238D01*
X157396095Y-83250476D01*
X157300857Y-83298095D01*
%TO.C,R3*%
X169696333Y-89954380D02*
X169363000Y-89478190D01*
X169124904Y-89954380D02*
X169124904Y-88954380D01*
X169505857Y-88954380D01*
X169601095Y-89002000D01*
X169648714Y-89049619D01*
X169696333Y-89144857D01*
X169696333Y-89287714D01*
X169648714Y-89382952D01*
X169601095Y-89430571D01*
X169505857Y-89478190D01*
X169124904Y-89478190D01*
X170029666Y-88954380D02*
X170648714Y-88954380D01*
X170315380Y-89335333D01*
X170458238Y-89335333D01*
X170553476Y-89382952D01*
X170601095Y-89430571D01*
X170648714Y-89525809D01*
X170648714Y-89763904D01*
X170601095Y-89859142D01*
X170553476Y-89906761D01*
X170458238Y-89954380D01*
X170172523Y-89954380D01*
X170077285Y-89906761D01*
X170029666Y-89859142D01*
%TO.C,R8*%
X169696333Y-92240380D02*
X169363000Y-91764190D01*
X169124904Y-92240380D02*
X169124904Y-91240380D01*
X169505857Y-91240380D01*
X169601095Y-91288000D01*
X169648714Y-91335619D01*
X169696333Y-91430857D01*
X169696333Y-91573714D01*
X169648714Y-91668952D01*
X169601095Y-91716571D01*
X169505857Y-91764190D01*
X169124904Y-91764190D01*
X170267761Y-91668952D02*
X170172523Y-91621333D01*
X170124904Y-91573714D01*
X170077285Y-91478476D01*
X170077285Y-91430857D01*
X170124904Y-91335619D01*
X170172523Y-91288000D01*
X170267761Y-91240380D01*
X170458238Y-91240380D01*
X170553476Y-91288000D01*
X170601095Y-91335619D01*
X170648714Y-91430857D01*
X170648714Y-91478476D01*
X170601095Y-91573714D01*
X170553476Y-91621333D01*
X170458238Y-91668952D01*
X170267761Y-91668952D01*
X170172523Y-91716571D01*
X170124904Y-91764190D01*
X170077285Y-91859428D01*
X170077285Y-92049904D01*
X170124904Y-92145142D01*
X170172523Y-92192761D01*
X170267761Y-92240380D01*
X170458238Y-92240380D01*
X170553476Y-92192761D01*
X170601095Y-92145142D01*
X170648714Y-92049904D01*
X170648714Y-91859428D01*
X170601095Y-91764190D01*
X170553476Y-91716571D01*
X170458238Y-91668952D01*
%TO.C,D4*%
X104671904Y-73898380D02*
X104671904Y-72898380D01*
X104910000Y-72898380D01*
X105052857Y-72946000D01*
X105148095Y-73041238D01*
X105195714Y-73136476D01*
X105243333Y-73326952D01*
X105243333Y-73469809D01*
X105195714Y-73660285D01*
X105148095Y-73755523D01*
X105052857Y-73850761D01*
X104910000Y-73898380D01*
X104671904Y-73898380D01*
X106100476Y-73231714D02*
X106100476Y-73898380D01*
X105862380Y-72850761D02*
X105624285Y-73565047D01*
X106243333Y-73565047D01*
%TD*%
M02*
