M48
; DRILL file {KiCad (5.1.10)-1} date 10/27/21 22:42:13
; FORMAT={-:-/ absolute / metric / decimal}
; #@! TF.CreationDate,2021-10-27T22:42:13+01:00
; #@! TF.GenerationSoftware,Kicad,Pcbnew,(5.1.10)-1
; #@! TF.FileFunction,Plated,1,2,PTH
FMAT,2
METRIC
T1C0.400
T2C1.000
T3C1.020
T4C1.600
T5C2.000
%
G90
G05
T1
X100.838Y-114.554
X107.95Y-72.136
X108.458Y-118.11
X109.982Y-88.646
X110.236Y-108.966
X114.808Y-77.47
X118.364Y-109.474
X125.476Y-89.662
X129.286Y-109.728
X136.605Y-79.273
X136.99Y-99.652
X140.97Y-87.884
X142.748Y-95.25
X142.748Y-96.774
X143.764Y-109.474
X145.796Y-87.122
X149.643Y-87.0
X151.506Y-88.778
X152.654Y-95.25
X152.908Y-88.392
X155.448Y-96.266
X155.702Y-117.317
X156.105Y-85.053
X156.195Y-90.584
X156.21Y-93.472
X156.35Y-91.572
X156.718Y-96.266
X160.02Y-116.586
X160.256Y-82.535
X161.538Y-91.688
X161.544Y-87.884
X162.052Y-97.536
X162.306Y-75.438
X162.518Y-89.883
X162.56Y-104.648
X162.617Y-82.673
X162.814Y-86.614
X163.319Y-86.151
X164.846Y-75.692
X165.15Y-89.628
X166.886Y-87.579
X167.386Y-93.98
X167.386Y-97.028
X167.391Y-84.323
X167.437Y-102.847
X167.758Y-92.72
X167.903Y-90.304
X169.164Y-97.282
X169.926Y-76.454
X170.18Y-120.142
X172.212Y-90.17
X172.249Y-85.243
X172.974Y-93.726
X172.974Y-98.044
X176.022Y-75.692
T2
X111.506Y-74.93
X112.014Y-112.776
X114.046Y-74.93
X114.554Y-112.776
X116.586Y-74.93
X117.094Y-112.776
X119.126Y-74.93
X119.634Y-112.776
X125.984Y-74.93
X125.984Y-112.776
X128.524Y-74.93
X128.524Y-112.776
X131.064Y-74.93
X131.064Y-112.776
X133.604Y-74.93
X133.604Y-112.776
X140.208Y-74.93
X140.208Y-112.776
X142.748Y-74.93
X142.748Y-112.776
X145.288Y-74.93
X145.288Y-112.776
X147.828Y-74.93
X147.828Y-112.776
X155.194Y-110.49
X155.194Y-113.03
X157.734Y-110.49
X157.734Y-113.03
X158.79Y-72.644
X160.274Y-110.49
X160.274Y-113.03
X161.29Y-72.644
X162.814Y-110.49
X162.814Y-113.03
X165.354Y-110.49
X165.354Y-113.03
X171.45Y-112.776
X172.76Y-72.644
X173.99Y-112.776
X175.26Y-72.644
X176.53Y-112.776
X179.07Y-112.776
T3
X100.32Y-85.06
X100.32Y-102.84
X102.86Y-85.06
X102.86Y-102.84
X105.4Y-85.06
X105.4Y-102.84
X107.94Y-85.06
X107.94Y-102.84
X110.48Y-85.06
X110.48Y-102.84
X113.02Y-85.06
X113.02Y-102.84
X115.56Y-85.06
X115.56Y-102.84
X118.1Y-85.06
X118.1Y-102.84
X120.64Y-85.06
X120.64Y-102.84
X123.18Y-85.06
X123.18Y-102.84
X125.72Y-85.06
X125.72Y-102.84
X128.26Y-85.06
X128.26Y-102.84
X130.8Y-85.06
X130.8Y-102.84
X133.34Y-85.06
X133.34Y-102.84
X135.88Y-85.06
X135.88Y-102.84
X138.42Y-85.06
X138.42Y-102.84
X140.96Y-85.06
X140.96Y-102.84
X143.5Y-85.06
X143.5Y-102.84
X146.04Y-85.06
X146.04Y-102.84
X148.35Y-91.41
X148.35Y-93.95
X148.35Y-96.49
X148.58Y-85.06
X148.58Y-102.84
T4
X175.26Y-86.36
X175.26Y-91.44
X175.26Y-96.52
X175.26Y-101.6
T5
X101.448Y-67.424
X101.448Y-120.371
X184.455Y-67.412
X184.455Y-120.421
T0
M30
