%TF.GenerationSoftware,KiCad,Pcbnew,(5.1.10)-1*%
%TF.CreationDate,2021-10-27T22:41:58+01:00*%
%TF.ProjectId,flowcontrol,666c6f77-636f-46e7-9472-6f6c2e6b6963,rev?*%
%TF.SameCoordinates,Original*%
%TF.FileFunction,Legend,Bot*%
%TF.FilePolarity,Positive*%
%FSLAX46Y46*%
G04 Gerber Fmt 4.6, Leading zero omitted, Abs format (unit mm)*
G04 Created by KiCad (PCBNEW (5.1.10)-1) date 2021-10-27 22:41:58*
%MOMM*%
%LPD*%
G01*
G04 APERTURE LIST*
%ADD10C,0.013229*%
%ADD11C,0.150000*%
%ADD12C,0.100000*%
G04 APERTURE END LIST*
D10*
G36*
X119227129Y-67717579D02*
G01*
X119279744Y-67722194D01*
X119331826Y-67730604D01*
X119383162Y-67742766D01*
X119433538Y-67758636D01*
X119482741Y-67778173D01*
X119530558Y-67801334D01*
X119576775Y-67828077D01*
X119621179Y-67858359D01*
X119663556Y-67892139D01*
X119703694Y-67929372D01*
X119740927Y-67969510D01*
X119774706Y-68011887D01*
X119804989Y-68056291D01*
X119831731Y-68102508D01*
X119854893Y-68150325D01*
X119874430Y-68199528D01*
X119890300Y-68249904D01*
X119902461Y-68301240D01*
X119910871Y-68353322D01*
X119915487Y-68405937D01*
X119916266Y-68458871D01*
X119913167Y-68511911D01*
X119906146Y-68564844D01*
X119895161Y-68617457D01*
X119880171Y-68669535D01*
X119861131Y-68720866D01*
X119838298Y-68770625D01*
X119812073Y-68818050D01*
X119782637Y-68863020D01*
X119750172Y-68905414D01*
X119714859Y-68945111D01*
X119676878Y-68981990D01*
X119636409Y-69015930D01*
X119593635Y-69046811D01*
X119548736Y-69074512D01*
X119501893Y-69098911D01*
X119453286Y-69119888D01*
X119403097Y-69137322D01*
X119351507Y-69151092D01*
X119298696Y-69161078D01*
X119244845Y-69167158D01*
X119190135Y-69169211D01*
X119154121Y-69168319D01*
X119118351Y-69165657D01*
X119082885Y-69161252D01*
X119047783Y-69155127D01*
X119013104Y-69147308D01*
X118978907Y-69137818D01*
X118945252Y-69126683D01*
X118912199Y-69113926D01*
X118879808Y-69099574D01*
X118848136Y-69083651D01*
X118817245Y-69066180D01*
X118787194Y-69047188D01*
X118758042Y-69026697D01*
X118729849Y-69004734D01*
X118702674Y-68981323D01*
X118676577Y-68956488D01*
X118651742Y-68930391D01*
X118628331Y-68903217D01*
X118606368Y-68875023D01*
X118585878Y-68845871D01*
X118566885Y-68815820D01*
X118549415Y-68784929D01*
X118533491Y-68753258D01*
X118519139Y-68720866D01*
X118506383Y-68687813D01*
X118495248Y-68654158D01*
X118485758Y-68619961D01*
X118477938Y-68585282D01*
X118471813Y-68550180D01*
X118467408Y-68514714D01*
X118464747Y-68478944D01*
X118463854Y-68442930D01*
X118464370Y-68415479D01*
X118465908Y-68388220D01*
X118468452Y-68361176D01*
X118471988Y-68334369D01*
X118476500Y-68307823D01*
X118481973Y-68281558D01*
X118488393Y-68255599D01*
X118495744Y-68229968D01*
X118504010Y-68204687D01*
X118513178Y-68179779D01*
X118523231Y-68155266D01*
X118534155Y-68131172D01*
X118545934Y-68107519D01*
X118558554Y-68084329D01*
X118571999Y-68061625D01*
X118586255Y-68039430D01*
X118601305Y-68017766D01*
X118617136Y-67996656D01*
X118633731Y-67976122D01*
X118651076Y-67956187D01*
X118669156Y-67936875D01*
X118687955Y-67918206D01*
X118707459Y-67900205D01*
X118727652Y-67882893D01*
X118748519Y-67866293D01*
X118770046Y-67850428D01*
X118792216Y-67835320D01*
X118815015Y-67820992D01*
X118838429Y-67807467D01*
X118862440Y-67794767D01*
X118887036Y-67782915D01*
X118912200Y-67771934D01*
X118963531Y-67752894D01*
X119015609Y-67737904D01*
X119068221Y-67726919D01*
X119121154Y-67719899D01*
X119174195Y-67716799D01*
X119227129Y-67717579D01*
G37*
X119227129Y-67717579D02*
X119279744Y-67722194D01*
X119331826Y-67730604D01*
X119383162Y-67742766D01*
X119433538Y-67758636D01*
X119482741Y-67778173D01*
X119530558Y-67801334D01*
X119576775Y-67828077D01*
X119621179Y-67858359D01*
X119663556Y-67892139D01*
X119703694Y-67929372D01*
X119740927Y-67969510D01*
X119774706Y-68011887D01*
X119804989Y-68056291D01*
X119831731Y-68102508D01*
X119854893Y-68150325D01*
X119874430Y-68199528D01*
X119890300Y-68249904D01*
X119902461Y-68301240D01*
X119910871Y-68353322D01*
X119915487Y-68405937D01*
X119916266Y-68458871D01*
X119913167Y-68511911D01*
X119906146Y-68564844D01*
X119895161Y-68617457D01*
X119880171Y-68669535D01*
X119861131Y-68720866D01*
X119838298Y-68770625D01*
X119812073Y-68818050D01*
X119782637Y-68863020D01*
X119750172Y-68905414D01*
X119714859Y-68945111D01*
X119676878Y-68981990D01*
X119636409Y-69015930D01*
X119593635Y-69046811D01*
X119548736Y-69074512D01*
X119501893Y-69098911D01*
X119453286Y-69119888D01*
X119403097Y-69137322D01*
X119351507Y-69151092D01*
X119298696Y-69161078D01*
X119244845Y-69167158D01*
X119190135Y-69169211D01*
X119154121Y-69168319D01*
X119118351Y-69165657D01*
X119082885Y-69161252D01*
X119047783Y-69155127D01*
X119013104Y-69147308D01*
X118978907Y-69137818D01*
X118945252Y-69126683D01*
X118912199Y-69113926D01*
X118879808Y-69099574D01*
X118848136Y-69083651D01*
X118817245Y-69066180D01*
X118787194Y-69047188D01*
X118758042Y-69026697D01*
X118729849Y-69004734D01*
X118702674Y-68981323D01*
X118676577Y-68956488D01*
X118651742Y-68930391D01*
X118628331Y-68903217D01*
X118606368Y-68875023D01*
X118585878Y-68845871D01*
X118566885Y-68815820D01*
X118549415Y-68784929D01*
X118533491Y-68753258D01*
X118519139Y-68720866D01*
X118506383Y-68687813D01*
X118495248Y-68654158D01*
X118485758Y-68619961D01*
X118477938Y-68585282D01*
X118471813Y-68550180D01*
X118467408Y-68514714D01*
X118464747Y-68478944D01*
X118463854Y-68442930D01*
X118464370Y-68415479D01*
X118465908Y-68388220D01*
X118468452Y-68361176D01*
X118471988Y-68334369D01*
X118476500Y-68307823D01*
X118481973Y-68281558D01*
X118488393Y-68255599D01*
X118495744Y-68229968D01*
X118504010Y-68204687D01*
X118513178Y-68179779D01*
X118523231Y-68155266D01*
X118534155Y-68131172D01*
X118545934Y-68107519D01*
X118558554Y-68084329D01*
X118571999Y-68061625D01*
X118586255Y-68039430D01*
X118601305Y-68017766D01*
X118617136Y-67996656D01*
X118633731Y-67976122D01*
X118651076Y-67956187D01*
X118669156Y-67936875D01*
X118687955Y-67918206D01*
X118707459Y-67900205D01*
X118727652Y-67882893D01*
X118748519Y-67866293D01*
X118770046Y-67850428D01*
X118792216Y-67835320D01*
X118815015Y-67820992D01*
X118838429Y-67807467D01*
X118862440Y-67794767D01*
X118887036Y-67782915D01*
X118912200Y-67771934D01*
X118963531Y-67752894D01*
X119015609Y-67737904D01*
X119068221Y-67726919D01*
X119121154Y-67719899D01*
X119174195Y-67716799D01*
X119227129Y-67717579D01*
G36*
X117504515Y-67304444D02*
G01*
X117508966Y-67304813D01*
X117513394Y-67305398D01*
X117517790Y-67306199D01*
X117522147Y-67307215D01*
X117526456Y-67308444D01*
X117530710Y-67309887D01*
X117534900Y-67311542D01*
X117539018Y-67313408D01*
X117543057Y-67315485D01*
X117546988Y-67317759D01*
X117550784Y-67320214D01*
X117554442Y-67322844D01*
X117557956Y-67325643D01*
X117561320Y-67328603D01*
X117564530Y-67331718D01*
X117567581Y-67334983D01*
X117570468Y-67338392D01*
X117573184Y-67341936D01*
X117575726Y-67345611D01*
X117578089Y-67349410D01*
X117580266Y-67353327D01*
X117582254Y-67357355D01*
X117584046Y-67361489D01*
X117585638Y-67365720D01*
X117587025Y-67370045D01*
X117606566Y-67428571D01*
X117629636Y-67483859D01*
X117655964Y-67536000D01*
X117685281Y-67585082D01*
X117717316Y-67631199D01*
X117751798Y-67674439D01*
X117788457Y-67714894D01*
X117827023Y-67752655D01*
X117867224Y-67787812D01*
X117908791Y-67820455D01*
X117951453Y-67850676D01*
X117994940Y-67878565D01*
X118038980Y-67904212D01*
X118083304Y-67927710D01*
X118171721Y-67968615D01*
X118258026Y-68002006D01*
X118340056Y-68028608D01*
X118415647Y-68049146D01*
X118482635Y-68064346D01*
X118582147Y-68081633D01*
X118621281Y-68086272D01*
X118625651Y-68087091D01*
X118629935Y-68088109D01*
X118634131Y-68089320D01*
X118638233Y-68090719D01*
X118642238Y-68092300D01*
X118646140Y-68094057D01*
X118649936Y-68095986D01*
X118653622Y-68098081D01*
X118657193Y-68100336D01*
X118660645Y-68102746D01*
X118663974Y-68105306D01*
X118667175Y-68108010D01*
X118670244Y-68110852D01*
X118673177Y-68113827D01*
X118675970Y-68116930D01*
X118678618Y-68120155D01*
X118681117Y-68123497D01*
X118683463Y-68126950D01*
X118685651Y-68130509D01*
X118687677Y-68134169D01*
X118689538Y-68137923D01*
X118691228Y-68141767D01*
X118692743Y-68145695D01*
X118694080Y-68149701D01*
X118695233Y-68153781D01*
X118696199Y-68157928D01*
X118696974Y-68162138D01*
X118697552Y-68166404D01*
X118697930Y-68170721D01*
X118698103Y-68175085D01*
X118698068Y-68179489D01*
X118697820Y-68183927D01*
X118697359Y-68188349D01*
X118696694Y-68192703D01*
X118695829Y-68196983D01*
X118694769Y-68201186D01*
X118693520Y-68205306D01*
X118692087Y-68209338D01*
X118690474Y-68213279D01*
X118688686Y-68217124D01*
X118686730Y-68220867D01*
X118684609Y-68224504D01*
X118682329Y-68228030D01*
X118679896Y-68231441D01*
X118677313Y-68234732D01*
X118674587Y-68237897D01*
X118671722Y-68240934D01*
X118668724Y-68243836D01*
X118665596Y-68246599D01*
X118662346Y-68249218D01*
X118658977Y-68251690D01*
X118655495Y-68254008D01*
X118651905Y-68256168D01*
X118648212Y-68258166D01*
X118644420Y-68259996D01*
X118640536Y-68261655D01*
X118636564Y-68263137D01*
X118632510Y-68264438D01*
X118628377Y-68265553D01*
X118624172Y-68266477D01*
X118619900Y-68267206D01*
X118615565Y-68267735D01*
X118611173Y-68268058D01*
X118606729Y-68268173D01*
X118557556Y-68262802D01*
X118448938Y-68244803D01*
X118377365Y-68229159D01*
X118296962Y-68208069D01*
X118209741Y-68180770D01*
X118117713Y-68146498D01*
X118022888Y-68104489D01*
X117927277Y-68053982D01*
X117879805Y-68025302D01*
X117832891Y-67994212D01*
X117786785Y-67960615D01*
X117741740Y-67924417D01*
X117698006Y-67885522D01*
X117655836Y-67843834D01*
X117615479Y-67799258D01*
X117577188Y-67751698D01*
X117541214Y-67701060D01*
X117507808Y-67647249D01*
X117477222Y-67590167D01*
X117449706Y-67529721D01*
X117359625Y-67591515D01*
X117308498Y-67630793D01*
X117255209Y-67675517D01*
X117201177Y-67725577D01*
X117147823Y-67780866D01*
X117096567Y-67841277D01*
X117048830Y-67906702D01*
X117006032Y-67977034D01*
X116986929Y-68014007D01*
X116969594Y-68052166D01*
X116954203Y-68091497D01*
X116940936Y-68131988D01*
X116929968Y-68173625D01*
X116921478Y-68216395D01*
X116915644Y-68260284D01*
X116912642Y-68305278D01*
X116912650Y-68351365D01*
X116915847Y-68398531D01*
X116922409Y-68446761D01*
X116932514Y-68496044D01*
X116946340Y-68546365D01*
X116964064Y-68597711D01*
X116988957Y-68646775D01*
X117016106Y-68694357D01*
X117045441Y-68740393D01*
X117076889Y-68784818D01*
X117110378Y-68827568D01*
X117145839Y-68868577D01*
X117183198Y-68907781D01*
X117222385Y-68945115D01*
X117263329Y-68980514D01*
X117305957Y-69013913D01*
X117350199Y-69045248D01*
X117395983Y-69074453D01*
X117443237Y-69101464D01*
X117491891Y-69126215D01*
X117541873Y-69148643D01*
X117593110Y-69168682D01*
X117658524Y-69187020D01*
X117725469Y-69200711D01*
X117793930Y-69209759D01*
X117863889Y-69214170D01*
X117935327Y-69213946D01*
X118008227Y-69209093D01*
X118082571Y-69199615D01*
X118158343Y-69185516D01*
X118235524Y-69166800D01*
X118314096Y-69143472D01*
X118394042Y-69115535D01*
X118475345Y-69082994D01*
X118557986Y-69045854D01*
X118641948Y-69004118D01*
X118727214Y-68957791D01*
X118813766Y-68906877D01*
X118817740Y-68904625D01*
X118823132Y-68901752D01*
X118828657Y-68899263D01*
X118834298Y-68897158D01*
X118840036Y-68895436D01*
X118845850Y-68894098D01*
X118851721Y-68893145D01*
X118857631Y-68892574D01*
X118863560Y-68892388D01*
X118869488Y-68892585D01*
X118875397Y-68893166D01*
X118881266Y-68894130D01*
X118887078Y-68895478D01*
X118892812Y-68897210D01*
X118898449Y-68899325D01*
X118903971Y-68901824D01*
X118909357Y-68904706D01*
X118914539Y-68907940D01*
X118919457Y-68911483D01*
X118924099Y-68915317D01*
X118928458Y-68919426D01*
X118932522Y-68923793D01*
X118936283Y-68928402D01*
X118939730Y-68933236D01*
X118942854Y-68938278D01*
X118945646Y-68943512D01*
X118948096Y-68948920D01*
X118950194Y-68954486D01*
X118951931Y-68960194D01*
X118953297Y-68966026D01*
X118954282Y-68971966D01*
X118954877Y-68977997D01*
X118955072Y-68984103D01*
X118955017Y-68987164D01*
X118954861Y-68990208D01*
X118954605Y-68993233D01*
X118954250Y-68996237D01*
X118953798Y-68999219D01*
X118953249Y-69002175D01*
X118952605Y-69005104D01*
X118951868Y-69008003D01*
X118951038Y-69010872D01*
X118950116Y-69013706D01*
X118949104Y-69016505D01*
X118948003Y-69019267D01*
X118946815Y-69021989D01*
X118945539Y-69024669D01*
X118944179Y-69027305D01*
X118942734Y-69029895D01*
X118941206Y-69032437D01*
X118939596Y-69034928D01*
X118937906Y-69037368D01*
X118936136Y-69039753D01*
X118934288Y-69042082D01*
X118932363Y-69044352D01*
X118930363Y-69046562D01*
X118928287Y-69048709D01*
X118926139Y-69050791D01*
X118923918Y-69052806D01*
X118921627Y-69054753D01*
X118919266Y-69056628D01*
X118916836Y-69058431D01*
X118914339Y-69060158D01*
X118911776Y-69061808D01*
X118909148Y-69063378D01*
X118841057Y-69103871D01*
X118773564Y-69141760D01*
X118706678Y-69177041D01*
X118640406Y-69209715D01*
X118574757Y-69239781D01*
X118509740Y-69267238D01*
X118445363Y-69292084D01*
X118381635Y-69314319D01*
X118318564Y-69333941D01*
X118256159Y-69350951D01*
X118194429Y-69365346D01*
X118133381Y-69377126D01*
X118073025Y-69386290D01*
X118013369Y-69392837D01*
X117954421Y-69396766D01*
X117896191Y-69398076D01*
X117896852Y-69398473D01*
X117850870Y-69397724D01*
X117805005Y-69395185D01*
X117759309Y-69390862D01*
X117713832Y-69384763D01*
X117668628Y-69376898D01*
X117623748Y-69367273D01*
X117579244Y-69355897D01*
X117535167Y-69342778D01*
X117474364Y-69319554D01*
X117415079Y-69293414D01*
X117357399Y-69264437D01*
X117301416Y-69232707D01*
X117247216Y-69198305D01*
X117194891Y-69161311D01*
X117144529Y-69121807D01*
X117096219Y-69079875D01*
X117050051Y-69035596D01*
X117006114Y-68989052D01*
X116964497Y-68940323D01*
X116925289Y-68889492D01*
X116888579Y-68836639D01*
X116854457Y-68781846D01*
X116823013Y-68725196D01*
X116794334Y-68666768D01*
X116772758Y-68604172D01*
X116755872Y-68542587D01*
X116743479Y-68482043D01*
X116735384Y-68422570D01*
X116731391Y-68364198D01*
X116731303Y-68306956D01*
X116734925Y-68250876D01*
X116742060Y-68195987D01*
X116752512Y-68142319D01*
X116766086Y-68089903D01*
X116782586Y-68038767D01*
X116801814Y-67988944D01*
X116823576Y-67940462D01*
X116847676Y-67893351D01*
X116873916Y-67847643D01*
X116902102Y-67803366D01*
X116932036Y-67760551D01*
X116963524Y-67719228D01*
X116996369Y-67679428D01*
X117030375Y-67641179D01*
X117101085Y-67569459D01*
X117174087Y-67504308D01*
X117247812Y-67445968D01*
X117320692Y-67394679D01*
X117391159Y-67350682D01*
X117457644Y-67314218D01*
X117459548Y-67313288D01*
X117461473Y-67312401D01*
X117463415Y-67311557D01*
X117465376Y-67310757D01*
X117467355Y-67310001D01*
X117469350Y-67309290D01*
X117471361Y-67308622D01*
X117473386Y-67308000D01*
X117477774Y-67306828D01*
X117482195Y-67305879D01*
X117486641Y-67305152D01*
X117491104Y-67304646D01*
X117495576Y-67304360D01*
X117500049Y-67304293D01*
X117504515Y-67304444D01*
G37*
X117504515Y-67304444D02*
X117508966Y-67304813D01*
X117513394Y-67305398D01*
X117517790Y-67306199D01*
X117522147Y-67307215D01*
X117526456Y-67308444D01*
X117530710Y-67309887D01*
X117534900Y-67311542D01*
X117539018Y-67313408D01*
X117543057Y-67315485D01*
X117546988Y-67317759D01*
X117550784Y-67320214D01*
X117554442Y-67322844D01*
X117557956Y-67325643D01*
X117561320Y-67328603D01*
X117564530Y-67331718D01*
X117567581Y-67334983D01*
X117570468Y-67338392D01*
X117573184Y-67341936D01*
X117575726Y-67345611D01*
X117578089Y-67349410D01*
X117580266Y-67353327D01*
X117582254Y-67357355D01*
X117584046Y-67361489D01*
X117585638Y-67365720D01*
X117587025Y-67370045D01*
X117606566Y-67428571D01*
X117629636Y-67483859D01*
X117655964Y-67536000D01*
X117685281Y-67585082D01*
X117717316Y-67631199D01*
X117751798Y-67674439D01*
X117788457Y-67714894D01*
X117827023Y-67752655D01*
X117867224Y-67787812D01*
X117908791Y-67820455D01*
X117951453Y-67850676D01*
X117994940Y-67878565D01*
X118038980Y-67904212D01*
X118083304Y-67927710D01*
X118171721Y-67968615D01*
X118258026Y-68002006D01*
X118340056Y-68028608D01*
X118415647Y-68049146D01*
X118482635Y-68064346D01*
X118582147Y-68081633D01*
X118621281Y-68086272D01*
X118625651Y-68087091D01*
X118629935Y-68088109D01*
X118634131Y-68089320D01*
X118638233Y-68090719D01*
X118642238Y-68092300D01*
X118646140Y-68094057D01*
X118649936Y-68095986D01*
X118653622Y-68098081D01*
X118657193Y-68100336D01*
X118660645Y-68102746D01*
X118663974Y-68105306D01*
X118667175Y-68108010D01*
X118670244Y-68110852D01*
X118673177Y-68113827D01*
X118675970Y-68116930D01*
X118678618Y-68120155D01*
X118681117Y-68123497D01*
X118683463Y-68126950D01*
X118685651Y-68130509D01*
X118687677Y-68134169D01*
X118689538Y-68137923D01*
X118691228Y-68141767D01*
X118692743Y-68145695D01*
X118694080Y-68149701D01*
X118695233Y-68153781D01*
X118696199Y-68157928D01*
X118696974Y-68162138D01*
X118697552Y-68166404D01*
X118697930Y-68170721D01*
X118698103Y-68175085D01*
X118698068Y-68179489D01*
X118697820Y-68183927D01*
X118697359Y-68188349D01*
X118696694Y-68192703D01*
X118695829Y-68196983D01*
X118694769Y-68201186D01*
X118693520Y-68205306D01*
X118692087Y-68209338D01*
X118690474Y-68213279D01*
X118688686Y-68217124D01*
X118686730Y-68220867D01*
X118684609Y-68224504D01*
X118682329Y-68228030D01*
X118679896Y-68231441D01*
X118677313Y-68234732D01*
X118674587Y-68237897D01*
X118671722Y-68240934D01*
X118668724Y-68243836D01*
X118665596Y-68246599D01*
X118662346Y-68249218D01*
X118658977Y-68251690D01*
X118655495Y-68254008D01*
X118651905Y-68256168D01*
X118648212Y-68258166D01*
X118644420Y-68259996D01*
X118640536Y-68261655D01*
X118636564Y-68263137D01*
X118632510Y-68264438D01*
X118628377Y-68265553D01*
X118624172Y-68266477D01*
X118619900Y-68267206D01*
X118615565Y-68267735D01*
X118611173Y-68268058D01*
X118606729Y-68268173D01*
X118557556Y-68262802D01*
X118448938Y-68244803D01*
X118377365Y-68229159D01*
X118296962Y-68208069D01*
X118209741Y-68180770D01*
X118117713Y-68146498D01*
X118022888Y-68104489D01*
X117927277Y-68053982D01*
X117879805Y-68025302D01*
X117832891Y-67994212D01*
X117786785Y-67960615D01*
X117741740Y-67924417D01*
X117698006Y-67885522D01*
X117655836Y-67843834D01*
X117615479Y-67799258D01*
X117577188Y-67751698D01*
X117541214Y-67701060D01*
X117507808Y-67647249D01*
X117477222Y-67590167D01*
X117449706Y-67529721D01*
X117359625Y-67591515D01*
X117308498Y-67630793D01*
X117255209Y-67675517D01*
X117201177Y-67725577D01*
X117147823Y-67780866D01*
X117096567Y-67841277D01*
X117048830Y-67906702D01*
X117006032Y-67977034D01*
X116986929Y-68014007D01*
X116969594Y-68052166D01*
X116954203Y-68091497D01*
X116940936Y-68131988D01*
X116929968Y-68173625D01*
X116921478Y-68216395D01*
X116915644Y-68260284D01*
X116912642Y-68305278D01*
X116912650Y-68351365D01*
X116915847Y-68398531D01*
X116922409Y-68446761D01*
X116932514Y-68496044D01*
X116946340Y-68546365D01*
X116964064Y-68597711D01*
X116988957Y-68646775D01*
X117016106Y-68694357D01*
X117045441Y-68740393D01*
X117076889Y-68784818D01*
X117110378Y-68827568D01*
X117145839Y-68868577D01*
X117183198Y-68907781D01*
X117222385Y-68945115D01*
X117263329Y-68980514D01*
X117305957Y-69013913D01*
X117350199Y-69045248D01*
X117395983Y-69074453D01*
X117443237Y-69101464D01*
X117491891Y-69126215D01*
X117541873Y-69148643D01*
X117593110Y-69168682D01*
X117658524Y-69187020D01*
X117725469Y-69200711D01*
X117793930Y-69209759D01*
X117863889Y-69214170D01*
X117935327Y-69213946D01*
X118008227Y-69209093D01*
X118082571Y-69199615D01*
X118158343Y-69185516D01*
X118235524Y-69166800D01*
X118314096Y-69143472D01*
X118394042Y-69115535D01*
X118475345Y-69082994D01*
X118557986Y-69045854D01*
X118641948Y-69004118D01*
X118727214Y-68957791D01*
X118813766Y-68906877D01*
X118817740Y-68904625D01*
X118823132Y-68901752D01*
X118828657Y-68899263D01*
X118834298Y-68897158D01*
X118840036Y-68895436D01*
X118845850Y-68894098D01*
X118851721Y-68893145D01*
X118857631Y-68892574D01*
X118863560Y-68892388D01*
X118869488Y-68892585D01*
X118875397Y-68893166D01*
X118881266Y-68894130D01*
X118887078Y-68895478D01*
X118892812Y-68897210D01*
X118898449Y-68899325D01*
X118903971Y-68901824D01*
X118909357Y-68904706D01*
X118914539Y-68907940D01*
X118919457Y-68911483D01*
X118924099Y-68915317D01*
X118928458Y-68919426D01*
X118932522Y-68923793D01*
X118936283Y-68928402D01*
X118939730Y-68933236D01*
X118942854Y-68938278D01*
X118945646Y-68943512D01*
X118948096Y-68948920D01*
X118950194Y-68954486D01*
X118951931Y-68960194D01*
X118953297Y-68966026D01*
X118954282Y-68971966D01*
X118954877Y-68977997D01*
X118955072Y-68984103D01*
X118955017Y-68987164D01*
X118954861Y-68990208D01*
X118954605Y-68993233D01*
X118954250Y-68996237D01*
X118953798Y-68999219D01*
X118953249Y-69002175D01*
X118952605Y-69005104D01*
X118951868Y-69008003D01*
X118951038Y-69010872D01*
X118950116Y-69013706D01*
X118949104Y-69016505D01*
X118948003Y-69019267D01*
X118946815Y-69021989D01*
X118945539Y-69024669D01*
X118944179Y-69027305D01*
X118942734Y-69029895D01*
X118941206Y-69032437D01*
X118939596Y-69034928D01*
X118937906Y-69037368D01*
X118936136Y-69039753D01*
X118934288Y-69042082D01*
X118932363Y-69044352D01*
X118930363Y-69046562D01*
X118928287Y-69048709D01*
X118926139Y-69050791D01*
X118923918Y-69052806D01*
X118921627Y-69054753D01*
X118919266Y-69056628D01*
X118916836Y-69058431D01*
X118914339Y-69060158D01*
X118911776Y-69061808D01*
X118909148Y-69063378D01*
X118841057Y-69103871D01*
X118773564Y-69141760D01*
X118706678Y-69177041D01*
X118640406Y-69209715D01*
X118574757Y-69239781D01*
X118509740Y-69267238D01*
X118445363Y-69292084D01*
X118381635Y-69314319D01*
X118318564Y-69333941D01*
X118256159Y-69350951D01*
X118194429Y-69365346D01*
X118133381Y-69377126D01*
X118073025Y-69386290D01*
X118013369Y-69392837D01*
X117954421Y-69396766D01*
X117896191Y-69398076D01*
X117896852Y-69398473D01*
X117850870Y-69397724D01*
X117805005Y-69395185D01*
X117759309Y-69390862D01*
X117713832Y-69384763D01*
X117668628Y-69376898D01*
X117623748Y-69367273D01*
X117579244Y-69355897D01*
X117535167Y-69342778D01*
X117474364Y-69319554D01*
X117415079Y-69293414D01*
X117357399Y-69264437D01*
X117301416Y-69232707D01*
X117247216Y-69198305D01*
X117194891Y-69161311D01*
X117144529Y-69121807D01*
X117096219Y-69079875D01*
X117050051Y-69035596D01*
X117006114Y-68989052D01*
X116964497Y-68940323D01*
X116925289Y-68889492D01*
X116888579Y-68836639D01*
X116854457Y-68781846D01*
X116823013Y-68725196D01*
X116794334Y-68666768D01*
X116772758Y-68604172D01*
X116755872Y-68542587D01*
X116743479Y-68482043D01*
X116735384Y-68422570D01*
X116731391Y-68364198D01*
X116731303Y-68306956D01*
X116734925Y-68250876D01*
X116742060Y-68195987D01*
X116752512Y-68142319D01*
X116766086Y-68089903D01*
X116782586Y-68038767D01*
X116801814Y-67988944D01*
X116823576Y-67940462D01*
X116847676Y-67893351D01*
X116873916Y-67847643D01*
X116902102Y-67803366D01*
X116932036Y-67760551D01*
X116963524Y-67719228D01*
X116996369Y-67679428D01*
X117030375Y-67641179D01*
X117101085Y-67569459D01*
X117174087Y-67504308D01*
X117247812Y-67445968D01*
X117320692Y-67394679D01*
X117391159Y-67350682D01*
X117457644Y-67314218D01*
X117459548Y-67313288D01*
X117461473Y-67312401D01*
X117463415Y-67311557D01*
X117465376Y-67310757D01*
X117467355Y-67310001D01*
X117469350Y-67309290D01*
X117471361Y-67308622D01*
X117473386Y-67308000D01*
X117477774Y-67306828D01*
X117482195Y-67305879D01*
X117486641Y-67305152D01*
X117491104Y-67304646D01*
X117495576Y-67304360D01*
X117500049Y-67304293D01*
X117504515Y-67304444D01*
G36*
X119828617Y-68384772D02*
G01*
X119833030Y-68385024D01*
X119837450Y-68385492D01*
X119841869Y-68386182D01*
X119846281Y-68387095D01*
X119850678Y-68388234D01*
X119855053Y-68389603D01*
X119859399Y-68391204D01*
X119918092Y-68418219D01*
X120044934Y-68485604D01*
X120126270Y-68534406D01*
X120215475Y-68593264D01*
X120309493Y-68662165D01*
X120405267Y-68741099D01*
X120499743Y-68830052D01*
X120545538Y-68878282D01*
X120589863Y-68929012D01*
X120632335Y-68982241D01*
X120672572Y-69037968D01*
X120710193Y-69096190D01*
X120744814Y-69156906D01*
X120776055Y-69220115D01*
X120803533Y-69285815D01*
X120826867Y-69354005D01*
X120845673Y-69424683D01*
X120859570Y-69497847D01*
X120868177Y-69573497D01*
X120871111Y-69651630D01*
X120867990Y-69732245D01*
X120861871Y-69791347D01*
X120852724Y-69849767D01*
X120840605Y-69907399D01*
X120825568Y-69964141D01*
X120807670Y-70019888D01*
X120786965Y-70074536D01*
X120763510Y-70127983D01*
X120737359Y-70180123D01*
X120708569Y-70230853D01*
X120677194Y-70280070D01*
X120643290Y-70327669D01*
X120606913Y-70373547D01*
X120568118Y-70417600D01*
X120526960Y-70459723D01*
X120483495Y-70499814D01*
X120437778Y-70537769D01*
X120403032Y-70564331D01*
X120367311Y-70589329D01*
X120330669Y-70612743D01*
X120293160Y-70634554D01*
X120254837Y-70654744D01*
X120215754Y-70673293D01*
X120175966Y-70690183D01*
X120135525Y-70705394D01*
X120094485Y-70718908D01*
X120052901Y-70730706D01*
X120010827Y-70740768D01*
X119968315Y-70749076D01*
X119925420Y-70755610D01*
X119882195Y-70760352D01*
X119838695Y-70763283D01*
X119794973Y-70764384D01*
X119773835Y-70764124D01*
X119752713Y-70763432D01*
X119731614Y-70762307D01*
X119710545Y-70760752D01*
X119689512Y-70758766D01*
X119668523Y-70756350D01*
X119647582Y-70753504D01*
X119626698Y-70750229D01*
X119591138Y-70743455D01*
X119555858Y-70735620D01*
X119520877Y-70726736D01*
X119486221Y-70716811D01*
X119451909Y-70705855D01*
X119417967Y-70693879D01*
X119384414Y-70680893D01*
X119351276Y-70666906D01*
X119318573Y-70651928D01*
X119286328Y-70635969D01*
X119254565Y-70619039D01*
X119223305Y-70601149D01*
X119192570Y-70582307D01*
X119162385Y-70562524D01*
X119132770Y-70541809D01*
X119103749Y-70520173D01*
X119100182Y-70517366D01*
X119096774Y-70514399D01*
X119093529Y-70511278D01*
X119090450Y-70508012D01*
X119087541Y-70504606D01*
X119084808Y-70501068D01*
X119082254Y-70497405D01*
X119079882Y-70493623D01*
X119077699Y-70489731D01*
X119075706Y-70485734D01*
X119073909Y-70481640D01*
X119072312Y-70477456D01*
X119070919Y-70473188D01*
X119069734Y-70468845D01*
X119068762Y-70464432D01*
X119068005Y-70459957D01*
X119067472Y-70455450D01*
X119067164Y-70450941D01*
X119067078Y-70446440D01*
X119067214Y-70441953D01*
X119067569Y-70437488D01*
X119068142Y-70433054D01*
X119068929Y-70428658D01*
X119069929Y-70424308D01*
X119071141Y-70420012D01*
X119072561Y-70415778D01*
X119074188Y-70411614D01*
X119076021Y-70407528D01*
X119078056Y-70403526D01*
X119080293Y-70399619D01*
X119082728Y-70395812D01*
X119085360Y-70392115D01*
X119111288Y-70354437D01*
X119163725Y-70266804D01*
X119195071Y-70206673D01*
X119227270Y-70136957D01*
X119258397Y-70058621D01*
X119286526Y-69972635D01*
X119309734Y-69879966D01*
X119326094Y-69781580D01*
X119331105Y-69730547D01*
X119333682Y-69678447D01*
X119333585Y-69625402D01*
X119330573Y-69571533D01*
X119324406Y-69516961D01*
X119314843Y-69461806D01*
X119301643Y-69406190D01*
X119284566Y-69350233D01*
X119263371Y-69294058D01*
X119237818Y-69237783D01*
X119207665Y-69181531D01*
X119172673Y-69125423D01*
X119170182Y-69121443D01*
X119167918Y-69117387D01*
X119165881Y-69113261D01*
X119164068Y-69109073D01*
X119162479Y-69104832D01*
X119161111Y-69100545D01*
X119159962Y-69096219D01*
X119159033Y-69091864D01*
X119158319Y-69087487D01*
X119157821Y-69083095D01*
X119157537Y-69078697D01*
X119157464Y-69074300D01*
X119157602Y-69069913D01*
X119157949Y-69065543D01*
X119158502Y-69061198D01*
X119159262Y-69056886D01*
X119160225Y-69052615D01*
X119161391Y-69048393D01*
X119162758Y-69044228D01*
X119164324Y-69040127D01*
X119166088Y-69036099D01*
X119168048Y-69032152D01*
X119170202Y-69028292D01*
X119172549Y-69024529D01*
X119175088Y-69020870D01*
X119177817Y-69017323D01*
X119180733Y-69013896D01*
X119183837Y-69010597D01*
X119187125Y-69007433D01*
X119190597Y-69004413D01*
X119194250Y-69001544D01*
X119198084Y-68998835D01*
X119202050Y-68996322D01*
X119206094Y-68994036D01*
X119210209Y-68991977D01*
X119214386Y-68990142D01*
X119218619Y-68988529D01*
X119222899Y-68987138D01*
X119227218Y-68985966D01*
X119231568Y-68985012D01*
X119235942Y-68984275D01*
X119240331Y-68983754D01*
X119244727Y-68983445D01*
X119249123Y-68983349D01*
X119253511Y-68983463D01*
X119257883Y-68983786D01*
X119262231Y-68984316D01*
X119266547Y-68985052D01*
X119270823Y-68985992D01*
X119275051Y-68987135D01*
X119279224Y-68988479D01*
X119283333Y-68990023D01*
X119287370Y-68991765D01*
X119291329Y-68993703D01*
X119295200Y-68995837D01*
X119298976Y-68998163D01*
X119302648Y-69000682D01*
X119306210Y-69003391D01*
X119309653Y-69006289D01*
X119312969Y-69009375D01*
X119316151Y-69012646D01*
X119319190Y-69016101D01*
X119322078Y-69019739D01*
X119324808Y-69023558D01*
X119358796Y-69077384D01*
X119388956Y-69131355D01*
X119415441Y-69185392D01*
X119438409Y-69239413D01*
X119458013Y-69293341D01*
X119474410Y-69347094D01*
X119487754Y-69400593D01*
X119498201Y-69453758D01*
X119505907Y-69506510D01*
X119511026Y-69558769D01*
X119513714Y-69610454D01*
X119514127Y-69661487D01*
X119512419Y-69711787D01*
X119508746Y-69761274D01*
X119503263Y-69809869D01*
X119496126Y-69857492D01*
X119477509Y-69949502D01*
X119454139Y-70036667D01*
X119427257Y-70118347D01*
X119398106Y-70193905D01*
X119367929Y-70262702D01*
X119337968Y-70324100D01*
X119309466Y-70377461D01*
X119283666Y-70422146D01*
X119305011Y-70435748D01*
X119326673Y-70448783D01*
X119348640Y-70461248D01*
X119370901Y-70473137D01*
X119393443Y-70484446D01*
X119416256Y-70495170D01*
X119439328Y-70505305D01*
X119462647Y-70514846D01*
X119486202Y-70523788D01*
X119509982Y-70532128D01*
X119533975Y-70539861D01*
X119558169Y-70546982D01*
X119582553Y-70553486D01*
X119607115Y-70559369D01*
X119631844Y-70564626D01*
X119656728Y-70569254D01*
X119701337Y-70575357D01*
X119745982Y-70579069D01*
X119790575Y-70580412D01*
X119835026Y-70579410D01*
X119879245Y-70576087D01*
X119923145Y-70570466D01*
X119966635Y-70562570D01*
X120009627Y-70552424D01*
X120052032Y-70540050D01*
X120093760Y-70525473D01*
X120134723Y-70508715D01*
X120174830Y-70489800D01*
X120213995Y-70468751D01*
X120252126Y-70445593D01*
X120289135Y-70420348D01*
X120324934Y-70393041D01*
X120363224Y-70361247D01*
X120399630Y-70327665D01*
X120434105Y-70292381D01*
X120466602Y-70255482D01*
X120497075Y-70217055D01*
X120525478Y-70177188D01*
X120551764Y-70135966D01*
X120575887Y-70093476D01*
X120597800Y-70049806D01*
X120617457Y-70005043D01*
X120634812Y-69959272D01*
X120649819Y-69912581D01*
X120662430Y-69865057D01*
X120672599Y-69816787D01*
X120680281Y-69767857D01*
X120685428Y-69718354D01*
X120687885Y-69649733D01*
X120684827Y-69583060D01*
X120676607Y-69518349D01*
X120663582Y-69455614D01*
X120646105Y-69394870D01*
X120624532Y-69336131D01*
X120599217Y-69279410D01*
X120570514Y-69224724D01*
X120538779Y-69172085D01*
X120504366Y-69121509D01*
X120467630Y-69073009D01*
X120428925Y-69026601D01*
X120388607Y-68982297D01*
X120347029Y-68940113D01*
X120304547Y-68900064D01*
X120261516Y-68862162D01*
X120175223Y-68792861D01*
X120090988Y-68732326D01*
X120011648Y-68680671D01*
X119940041Y-68638010D01*
X119831377Y-68580133D01*
X119787697Y-68559611D01*
X119783530Y-68557588D01*
X119779512Y-68555383D01*
X119775643Y-68553003D01*
X119771927Y-68550455D01*
X119768367Y-68547748D01*
X119764966Y-68544886D01*
X119761726Y-68541879D01*
X119758650Y-68538734D01*
X119755741Y-68535457D01*
X119753002Y-68532055D01*
X119750436Y-68528537D01*
X119748045Y-68524909D01*
X119745832Y-68521178D01*
X119743801Y-68517352D01*
X119741953Y-68513438D01*
X119740292Y-68509443D01*
X119738820Y-68505375D01*
X119737541Y-68501240D01*
X119736457Y-68497046D01*
X119735571Y-68492800D01*
X119734885Y-68488509D01*
X119734403Y-68484181D01*
X119734127Y-68479823D01*
X119734061Y-68475441D01*
X119734206Y-68471044D01*
X119734567Y-68466638D01*
X119735144Y-68462231D01*
X119735942Y-68457830D01*
X119736964Y-68453442D01*
X119738211Y-68449075D01*
X119739687Y-68444735D01*
X119741395Y-68440430D01*
X119743315Y-68436215D01*
X119745420Y-68432143D01*
X119747704Y-68428217D01*
X119750159Y-68424439D01*
X119752779Y-68420813D01*
X119755555Y-68417343D01*
X119758481Y-68414029D01*
X119761550Y-68410877D01*
X119764755Y-68407888D01*
X119768087Y-68405066D01*
X119771541Y-68402414D01*
X119775109Y-68399934D01*
X119778784Y-68397630D01*
X119782559Y-68395505D01*
X119786427Y-68393561D01*
X119790379Y-68391802D01*
X119794410Y-68390231D01*
X119798512Y-68388850D01*
X119802678Y-68387663D01*
X119806901Y-68386672D01*
X119811174Y-68385881D01*
X119815489Y-68385293D01*
X119819839Y-68384910D01*
X119824217Y-68384735D01*
X119828617Y-68384772D01*
G37*
X119828617Y-68384772D02*
X119833030Y-68385024D01*
X119837450Y-68385492D01*
X119841869Y-68386182D01*
X119846281Y-68387095D01*
X119850678Y-68388234D01*
X119855053Y-68389603D01*
X119859399Y-68391204D01*
X119918092Y-68418219D01*
X120044934Y-68485604D01*
X120126270Y-68534406D01*
X120215475Y-68593264D01*
X120309493Y-68662165D01*
X120405267Y-68741099D01*
X120499743Y-68830052D01*
X120545538Y-68878282D01*
X120589863Y-68929012D01*
X120632335Y-68982241D01*
X120672572Y-69037968D01*
X120710193Y-69096190D01*
X120744814Y-69156906D01*
X120776055Y-69220115D01*
X120803533Y-69285815D01*
X120826867Y-69354005D01*
X120845673Y-69424683D01*
X120859570Y-69497847D01*
X120868177Y-69573497D01*
X120871111Y-69651630D01*
X120867990Y-69732245D01*
X120861871Y-69791347D01*
X120852724Y-69849767D01*
X120840605Y-69907399D01*
X120825568Y-69964141D01*
X120807670Y-70019888D01*
X120786965Y-70074536D01*
X120763510Y-70127983D01*
X120737359Y-70180123D01*
X120708569Y-70230853D01*
X120677194Y-70280070D01*
X120643290Y-70327669D01*
X120606913Y-70373547D01*
X120568118Y-70417600D01*
X120526960Y-70459723D01*
X120483495Y-70499814D01*
X120437778Y-70537769D01*
X120403032Y-70564331D01*
X120367311Y-70589329D01*
X120330669Y-70612743D01*
X120293160Y-70634554D01*
X120254837Y-70654744D01*
X120215754Y-70673293D01*
X120175966Y-70690183D01*
X120135525Y-70705394D01*
X120094485Y-70718908D01*
X120052901Y-70730706D01*
X120010827Y-70740768D01*
X119968315Y-70749076D01*
X119925420Y-70755610D01*
X119882195Y-70760352D01*
X119838695Y-70763283D01*
X119794973Y-70764384D01*
X119773835Y-70764124D01*
X119752713Y-70763432D01*
X119731614Y-70762307D01*
X119710545Y-70760752D01*
X119689512Y-70758766D01*
X119668523Y-70756350D01*
X119647582Y-70753504D01*
X119626698Y-70750229D01*
X119591138Y-70743455D01*
X119555858Y-70735620D01*
X119520877Y-70726736D01*
X119486221Y-70716811D01*
X119451909Y-70705855D01*
X119417967Y-70693879D01*
X119384414Y-70680893D01*
X119351276Y-70666906D01*
X119318573Y-70651928D01*
X119286328Y-70635969D01*
X119254565Y-70619039D01*
X119223305Y-70601149D01*
X119192570Y-70582307D01*
X119162385Y-70562524D01*
X119132770Y-70541809D01*
X119103749Y-70520173D01*
X119100182Y-70517366D01*
X119096774Y-70514399D01*
X119093529Y-70511278D01*
X119090450Y-70508012D01*
X119087541Y-70504606D01*
X119084808Y-70501068D01*
X119082254Y-70497405D01*
X119079882Y-70493623D01*
X119077699Y-70489731D01*
X119075706Y-70485734D01*
X119073909Y-70481640D01*
X119072312Y-70477456D01*
X119070919Y-70473188D01*
X119069734Y-70468845D01*
X119068762Y-70464432D01*
X119068005Y-70459957D01*
X119067472Y-70455450D01*
X119067164Y-70450941D01*
X119067078Y-70446440D01*
X119067214Y-70441953D01*
X119067569Y-70437488D01*
X119068142Y-70433054D01*
X119068929Y-70428658D01*
X119069929Y-70424308D01*
X119071141Y-70420012D01*
X119072561Y-70415778D01*
X119074188Y-70411614D01*
X119076021Y-70407528D01*
X119078056Y-70403526D01*
X119080293Y-70399619D01*
X119082728Y-70395812D01*
X119085360Y-70392115D01*
X119111288Y-70354437D01*
X119163725Y-70266804D01*
X119195071Y-70206673D01*
X119227270Y-70136957D01*
X119258397Y-70058621D01*
X119286526Y-69972635D01*
X119309734Y-69879966D01*
X119326094Y-69781580D01*
X119331105Y-69730547D01*
X119333682Y-69678447D01*
X119333585Y-69625402D01*
X119330573Y-69571533D01*
X119324406Y-69516961D01*
X119314843Y-69461806D01*
X119301643Y-69406190D01*
X119284566Y-69350233D01*
X119263371Y-69294058D01*
X119237818Y-69237783D01*
X119207665Y-69181531D01*
X119172673Y-69125423D01*
X119170182Y-69121443D01*
X119167918Y-69117387D01*
X119165881Y-69113261D01*
X119164068Y-69109073D01*
X119162479Y-69104832D01*
X119161111Y-69100545D01*
X119159962Y-69096219D01*
X119159033Y-69091864D01*
X119158319Y-69087487D01*
X119157821Y-69083095D01*
X119157537Y-69078697D01*
X119157464Y-69074300D01*
X119157602Y-69069913D01*
X119157949Y-69065543D01*
X119158502Y-69061198D01*
X119159262Y-69056886D01*
X119160225Y-69052615D01*
X119161391Y-69048393D01*
X119162758Y-69044228D01*
X119164324Y-69040127D01*
X119166088Y-69036099D01*
X119168048Y-69032152D01*
X119170202Y-69028292D01*
X119172549Y-69024529D01*
X119175088Y-69020870D01*
X119177817Y-69017323D01*
X119180733Y-69013896D01*
X119183837Y-69010597D01*
X119187125Y-69007433D01*
X119190597Y-69004413D01*
X119194250Y-69001544D01*
X119198084Y-68998835D01*
X119202050Y-68996322D01*
X119206094Y-68994036D01*
X119210209Y-68991977D01*
X119214386Y-68990142D01*
X119218619Y-68988529D01*
X119222899Y-68987138D01*
X119227218Y-68985966D01*
X119231568Y-68985012D01*
X119235942Y-68984275D01*
X119240331Y-68983754D01*
X119244727Y-68983445D01*
X119249123Y-68983349D01*
X119253511Y-68983463D01*
X119257883Y-68983786D01*
X119262231Y-68984316D01*
X119266547Y-68985052D01*
X119270823Y-68985992D01*
X119275051Y-68987135D01*
X119279224Y-68988479D01*
X119283333Y-68990023D01*
X119287370Y-68991765D01*
X119291329Y-68993703D01*
X119295200Y-68995837D01*
X119298976Y-68998163D01*
X119302648Y-69000682D01*
X119306210Y-69003391D01*
X119309653Y-69006289D01*
X119312969Y-69009375D01*
X119316151Y-69012646D01*
X119319190Y-69016101D01*
X119322078Y-69019739D01*
X119324808Y-69023558D01*
X119358796Y-69077384D01*
X119388956Y-69131355D01*
X119415441Y-69185392D01*
X119438409Y-69239413D01*
X119458013Y-69293341D01*
X119474410Y-69347094D01*
X119487754Y-69400593D01*
X119498201Y-69453758D01*
X119505907Y-69506510D01*
X119511026Y-69558769D01*
X119513714Y-69610454D01*
X119514127Y-69661487D01*
X119512419Y-69711787D01*
X119508746Y-69761274D01*
X119503263Y-69809869D01*
X119496126Y-69857492D01*
X119477509Y-69949502D01*
X119454139Y-70036667D01*
X119427257Y-70118347D01*
X119398106Y-70193905D01*
X119367929Y-70262702D01*
X119337968Y-70324100D01*
X119309466Y-70377461D01*
X119283666Y-70422146D01*
X119305011Y-70435748D01*
X119326673Y-70448783D01*
X119348640Y-70461248D01*
X119370901Y-70473137D01*
X119393443Y-70484446D01*
X119416256Y-70495170D01*
X119439328Y-70505305D01*
X119462647Y-70514846D01*
X119486202Y-70523788D01*
X119509982Y-70532128D01*
X119533975Y-70539861D01*
X119558169Y-70546982D01*
X119582553Y-70553486D01*
X119607115Y-70559369D01*
X119631844Y-70564626D01*
X119656728Y-70569254D01*
X119701337Y-70575357D01*
X119745982Y-70579069D01*
X119790575Y-70580412D01*
X119835026Y-70579410D01*
X119879245Y-70576087D01*
X119923145Y-70570466D01*
X119966635Y-70562570D01*
X120009627Y-70552424D01*
X120052032Y-70540050D01*
X120093760Y-70525473D01*
X120134723Y-70508715D01*
X120174830Y-70489800D01*
X120213995Y-70468751D01*
X120252126Y-70445593D01*
X120289135Y-70420348D01*
X120324934Y-70393041D01*
X120363224Y-70361247D01*
X120399630Y-70327665D01*
X120434105Y-70292381D01*
X120466602Y-70255482D01*
X120497075Y-70217055D01*
X120525478Y-70177188D01*
X120551764Y-70135966D01*
X120575887Y-70093476D01*
X120597800Y-70049806D01*
X120617457Y-70005043D01*
X120634812Y-69959272D01*
X120649819Y-69912581D01*
X120662430Y-69865057D01*
X120672599Y-69816787D01*
X120680281Y-69767857D01*
X120685428Y-69718354D01*
X120687885Y-69649733D01*
X120684827Y-69583060D01*
X120676607Y-69518349D01*
X120663582Y-69455614D01*
X120646105Y-69394870D01*
X120624532Y-69336131D01*
X120599217Y-69279410D01*
X120570514Y-69224724D01*
X120538779Y-69172085D01*
X120504366Y-69121509D01*
X120467630Y-69073009D01*
X120428925Y-69026601D01*
X120388607Y-68982297D01*
X120347029Y-68940113D01*
X120304547Y-68900064D01*
X120261516Y-68862162D01*
X120175223Y-68792861D01*
X120090988Y-68732326D01*
X120011648Y-68680671D01*
X119940041Y-68638010D01*
X119831377Y-68580133D01*
X119787697Y-68559611D01*
X119783530Y-68557588D01*
X119779512Y-68555383D01*
X119775643Y-68553003D01*
X119771927Y-68550455D01*
X119768367Y-68547748D01*
X119764966Y-68544886D01*
X119761726Y-68541879D01*
X119758650Y-68538734D01*
X119755741Y-68535457D01*
X119753002Y-68532055D01*
X119750436Y-68528537D01*
X119748045Y-68524909D01*
X119745832Y-68521178D01*
X119743801Y-68517352D01*
X119741953Y-68513438D01*
X119740292Y-68509443D01*
X119738820Y-68505375D01*
X119737541Y-68501240D01*
X119736457Y-68497046D01*
X119735571Y-68492800D01*
X119734885Y-68488509D01*
X119734403Y-68484181D01*
X119734127Y-68479823D01*
X119734061Y-68475441D01*
X119734206Y-68471044D01*
X119734567Y-68466638D01*
X119735144Y-68462231D01*
X119735942Y-68457830D01*
X119736964Y-68453442D01*
X119738211Y-68449075D01*
X119739687Y-68444735D01*
X119741395Y-68440430D01*
X119743315Y-68436215D01*
X119745420Y-68432143D01*
X119747704Y-68428217D01*
X119750159Y-68424439D01*
X119752779Y-68420813D01*
X119755555Y-68417343D01*
X119758481Y-68414029D01*
X119761550Y-68410877D01*
X119764755Y-68407888D01*
X119768087Y-68405066D01*
X119771541Y-68402414D01*
X119775109Y-68399934D01*
X119778784Y-68397630D01*
X119782559Y-68395505D01*
X119786427Y-68393561D01*
X119790379Y-68391802D01*
X119794410Y-68390231D01*
X119798512Y-68388850D01*
X119802678Y-68387663D01*
X119806901Y-68386672D01*
X119811174Y-68385881D01*
X119815489Y-68385293D01*
X119819839Y-68384910D01*
X119824217Y-68384735D01*
X119828617Y-68384772D01*
G36*
X119218082Y-67899925D02*
G01*
X119245661Y-67902028D01*
X119272840Y-67905486D01*
X119299583Y-67910267D01*
X119325858Y-67916335D01*
X119351629Y-67923657D01*
X119376862Y-67932198D01*
X119401524Y-67941924D01*
X119425581Y-67952802D01*
X119448998Y-67964797D01*
X119471741Y-67977874D01*
X119493777Y-67992001D01*
X119515070Y-68007143D01*
X119535588Y-68023265D01*
X119555295Y-68040334D01*
X119574158Y-68058316D01*
X119592142Y-68077176D01*
X119609215Y-68096881D01*
X119625340Y-68117395D01*
X119640485Y-68138686D01*
X119654616Y-68160720D01*
X119667697Y-68183461D01*
X119679696Y-68206876D01*
X119690577Y-68230931D01*
X119700307Y-68255591D01*
X119708852Y-68280824D01*
X119716178Y-68306594D01*
X119722251Y-68332867D01*
X119727035Y-68359610D01*
X119730499Y-68386788D01*
X119732606Y-68414367D01*
X119733324Y-68442313D01*
X119732629Y-68470260D01*
X119730544Y-68497841D01*
X119727102Y-68525022D01*
X119722339Y-68551768D01*
X119716288Y-68578047D01*
X119708983Y-68603822D01*
X119700459Y-68629062D01*
X119690748Y-68653730D01*
X119679886Y-68677794D01*
X119667907Y-68701219D01*
X119654844Y-68723970D01*
X119640731Y-68746015D01*
X119625603Y-68767318D01*
X119609494Y-68787846D01*
X119592438Y-68807565D01*
X119574469Y-68826439D01*
X119555620Y-68844436D01*
X119535927Y-68861521D01*
X119515423Y-68877660D01*
X119494142Y-68892819D01*
X119472118Y-68906964D01*
X119449385Y-68920060D01*
X119425978Y-68932073D01*
X119401930Y-68942971D01*
X119377275Y-68952717D01*
X119352049Y-68961278D01*
X119326284Y-68968621D01*
X119300014Y-68974710D01*
X119273275Y-68979513D01*
X119246099Y-68982993D01*
X119218521Y-68985119D01*
X119190575Y-68985855D01*
X119162628Y-68985178D01*
X119135046Y-68983110D01*
X119107863Y-68979687D01*
X119081113Y-68974941D01*
X119054831Y-68968907D01*
X119029050Y-68961619D01*
X119003805Y-68953111D01*
X118979130Y-68943416D01*
X118955060Y-68932570D01*
X118931627Y-68920606D01*
X118908867Y-68907558D01*
X118886813Y-68893459D01*
X118865500Y-68878346D01*
X118844962Y-68862250D01*
X118825232Y-68845206D01*
X118806346Y-68827249D01*
X118788337Y-68808413D01*
X118771239Y-68788730D01*
X118755087Y-68768236D01*
X118739914Y-68746965D01*
X118725755Y-68724950D01*
X118712644Y-68702226D01*
X118700615Y-68678827D01*
X118689702Y-68654786D01*
X118679940Y-68630138D01*
X118671362Y-68604917D01*
X118664003Y-68579156D01*
X118657896Y-68552891D01*
X118653077Y-68526154D01*
X118649578Y-68498981D01*
X118647435Y-68471405D01*
X118646681Y-68443459D01*
X118647401Y-68415495D01*
X118649511Y-68387897D01*
X118652977Y-68360701D01*
X118657765Y-68333939D01*
X118663841Y-68307648D01*
X118671170Y-68281859D01*
X118679719Y-68256608D01*
X118689453Y-68231929D01*
X118700339Y-68207855D01*
X118712342Y-68184421D01*
X118725428Y-68161661D01*
X118739564Y-68139609D01*
X118754715Y-68118299D01*
X118770847Y-68097765D01*
X118787926Y-68078041D01*
X118805917Y-68059162D01*
X118824788Y-68041161D01*
X118844503Y-68024073D01*
X118865029Y-68007931D01*
X118886332Y-67992770D01*
X118908377Y-67978623D01*
X118931131Y-67965526D01*
X118954559Y-67953512D01*
X118978627Y-67942614D01*
X119003302Y-67932868D01*
X119028549Y-67924307D01*
X119054334Y-67916965D01*
X119080622Y-67910877D01*
X119107381Y-67906076D01*
X119134576Y-67902597D01*
X119162172Y-67900474D01*
X119190136Y-67899740D01*
X119190135Y-67899211D01*
X119218082Y-67899925D01*
G37*
X119218082Y-67899925D02*
X119245661Y-67902028D01*
X119272840Y-67905486D01*
X119299583Y-67910267D01*
X119325858Y-67916335D01*
X119351629Y-67923657D01*
X119376862Y-67932198D01*
X119401524Y-67941924D01*
X119425581Y-67952802D01*
X119448998Y-67964797D01*
X119471741Y-67977874D01*
X119493777Y-67992001D01*
X119515070Y-68007143D01*
X119535588Y-68023265D01*
X119555295Y-68040334D01*
X119574158Y-68058316D01*
X119592142Y-68077176D01*
X119609215Y-68096881D01*
X119625340Y-68117395D01*
X119640485Y-68138686D01*
X119654616Y-68160720D01*
X119667697Y-68183461D01*
X119679696Y-68206876D01*
X119690577Y-68230931D01*
X119700307Y-68255591D01*
X119708852Y-68280824D01*
X119716178Y-68306594D01*
X119722251Y-68332867D01*
X119727035Y-68359610D01*
X119730499Y-68386788D01*
X119732606Y-68414367D01*
X119733324Y-68442313D01*
X119732629Y-68470260D01*
X119730544Y-68497841D01*
X119727102Y-68525022D01*
X119722339Y-68551768D01*
X119716288Y-68578047D01*
X119708983Y-68603822D01*
X119700459Y-68629062D01*
X119690748Y-68653730D01*
X119679886Y-68677794D01*
X119667907Y-68701219D01*
X119654844Y-68723970D01*
X119640731Y-68746015D01*
X119625603Y-68767318D01*
X119609494Y-68787846D01*
X119592438Y-68807565D01*
X119574469Y-68826439D01*
X119555620Y-68844436D01*
X119535927Y-68861521D01*
X119515423Y-68877660D01*
X119494142Y-68892819D01*
X119472118Y-68906964D01*
X119449385Y-68920060D01*
X119425978Y-68932073D01*
X119401930Y-68942971D01*
X119377275Y-68952717D01*
X119352049Y-68961278D01*
X119326284Y-68968621D01*
X119300014Y-68974710D01*
X119273275Y-68979513D01*
X119246099Y-68982993D01*
X119218521Y-68985119D01*
X119190575Y-68985855D01*
X119162628Y-68985178D01*
X119135046Y-68983110D01*
X119107863Y-68979687D01*
X119081113Y-68974941D01*
X119054831Y-68968907D01*
X119029050Y-68961619D01*
X119003805Y-68953111D01*
X118979130Y-68943416D01*
X118955060Y-68932570D01*
X118931627Y-68920606D01*
X118908867Y-68907558D01*
X118886813Y-68893459D01*
X118865500Y-68878346D01*
X118844962Y-68862250D01*
X118825232Y-68845206D01*
X118806346Y-68827249D01*
X118788337Y-68808413D01*
X118771239Y-68788730D01*
X118755087Y-68768236D01*
X118739914Y-68746965D01*
X118725755Y-68724950D01*
X118712644Y-68702226D01*
X118700615Y-68678827D01*
X118689702Y-68654786D01*
X118679940Y-68630138D01*
X118671362Y-68604917D01*
X118664003Y-68579156D01*
X118657896Y-68552891D01*
X118653077Y-68526154D01*
X118649578Y-68498981D01*
X118647435Y-68471405D01*
X118646681Y-68443459D01*
X118647401Y-68415495D01*
X118649511Y-68387897D01*
X118652977Y-68360701D01*
X118657765Y-68333939D01*
X118663841Y-68307648D01*
X118671170Y-68281859D01*
X118679719Y-68256608D01*
X118689453Y-68231929D01*
X118700339Y-68207855D01*
X118712342Y-68184421D01*
X118725428Y-68161661D01*
X118739564Y-68139609D01*
X118754715Y-68118299D01*
X118770847Y-68097765D01*
X118787926Y-68078041D01*
X118805917Y-68059162D01*
X118824788Y-68041161D01*
X118844503Y-68024073D01*
X118865029Y-68007931D01*
X118886332Y-67992770D01*
X118908377Y-67978623D01*
X118931131Y-67965526D01*
X118954559Y-67953512D01*
X118978627Y-67942614D01*
X119003302Y-67932868D01*
X119028549Y-67924307D01*
X119054334Y-67916965D01*
X119080622Y-67910877D01*
X119107381Y-67906076D01*
X119134576Y-67902597D01*
X119162172Y-67900474D01*
X119190136Y-67899740D01*
X119190135Y-67899211D01*
X119218082Y-67899925D01*
G36*
X120037051Y-66237619D02*
G01*
X120095233Y-66243190D01*
X120153160Y-66251767D01*
X120210715Y-66263353D01*
X120267780Y-66277953D01*
X120324236Y-66295570D01*
X120379966Y-66316209D01*
X120430294Y-66337331D01*
X120479190Y-66360966D01*
X120526576Y-66387035D01*
X120572374Y-66415460D01*
X120616505Y-66446161D01*
X120658891Y-66479059D01*
X120699455Y-66514075D01*
X120738118Y-66551131D01*
X120774801Y-66590148D01*
X120809426Y-66631046D01*
X120841916Y-66673746D01*
X120872192Y-66718170D01*
X120900175Y-66764238D01*
X120925788Y-66811872D01*
X120948953Y-66860993D01*
X120969590Y-66911521D01*
X120981484Y-66945683D01*
X120992323Y-66980132D01*
X121002106Y-67014846D01*
X121010829Y-67049799D01*
X121018490Y-67084967D01*
X121025087Y-67120325D01*
X121030616Y-67155851D01*
X121035075Y-67191518D01*
X121038461Y-67227303D01*
X121040771Y-67263182D01*
X121042003Y-67299129D01*
X121042155Y-67335122D01*
X121041223Y-67371135D01*
X121039205Y-67407144D01*
X121036098Y-67443125D01*
X121031900Y-67479053D01*
X121031199Y-67483683D01*
X121030276Y-67488224D01*
X121029136Y-67492670D01*
X121027787Y-67497017D01*
X121026234Y-67501260D01*
X121024484Y-67505394D01*
X121022543Y-67509415D01*
X121020417Y-67513316D01*
X121018113Y-67517093D01*
X121015637Y-67520742D01*
X121012996Y-67524256D01*
X121010195Y-67527632D01*
X121007241Y-67530865D01*
X121004140Y-67533949D01*
X121000899Y-67536879D01*
X120997524Y-67539651D01*
X120994021Y-67542260D01*
X120990396Y-67544700D01*
X120986657Y-67546968D01*
X120982808Y-67549056D01*
X120978857Y-67550962D01*
X120974810Y-67552680D01*
X120970672Y-67554205D01*
X120966451Y-67555532D01*
X120962153Y-67556656D01*
X120957784Y-67557572D01*
X120953350Y-67558275D01*
X120948858Y-67558761D01*
X120944314Y-67559024D01*
X120939724Y-67559059D01*
X120935095Y-67558862D01*
X120930432Y-67558428D01*
X120892143Y-67555692D01*
X120793587Y-67554327D01*
X120726470Y-67557179D01*
X120650000Y-67564000D01*
X120566083Y-67575997D01*
X120476622Y-67594378D01*
X120383523Y-67620353D01*
X120288690Y-67655130D01*
X120241218Y-67676197D01*
X120194027Y-67699917D01*
X120147356Y-67726442D01*
X120101441Y-67755923D01*
X120056521Y-67788510D01*
X120012835Y-67824356D01*
X119970619Y-67863610D01*
X119930114Y-67906424D01*
X119891555Y-67952950D01*
X119855182Y-68003337D01*
X119821233Y-68057737D01*
X119789946Y-68116302D01*
X119786869Y-68122046D01*
X119783423Y-68127507D01*
X119779630Y-68132674D01*
X119775508Y-68137532D01*
X119771077Y-68142071D01*
X119766358Y-68146278D01*
X119761370Y-68150140D01*
X119756133Y-68153646D01*
X119750667Y-68156782D01*
X119744992Y-68159537D01*
X119739127Y-68161899D01*
X119733093Y-68163854D01*
X119726910Y-68165391D01*
X119720597Y-68166496D01*
X119714173Y-68167159D01*
X119707660Y-68167367D01*
X119707396Y-68167102D01*
X119704770Y-68167105D01*
X119702150Y-68167031D01*
X119699536Y-68166881D01*
X119696930Y-68166654D01*
X119694335Y-68166351D01*
X119691751Y-68165973D01*
X119689181Y-68165519D01*
X119686625Y-68164990D01*
X119684086Y-68164387D01*
X119681565Y-68163709D01*
X119679064Y-68162958D01*
X119676584Y-68162133D01*
X119674128Y-68161235D01*
X119671696Y-68160264D01*
X119669291Y-68159221D01*
X119666914Y-68158106D01*
X119662746Y-68155917D01*
X119658735Y-68153547D01*
X119654886Y-68151001D01*
X119651201Y-68148288D01*
X119647682Y-68145416D01*
X119644331Y-68142392D01*
X119641153Y-68139224D01*
X119638149Y-68135920D01*
X119635321Y-68132487D01*
X119632673Y-68128932D01*
X119630207Y-68125265D01*
X119627926Y-68121491D01*
X119625832Y-68117620D01*
X119623928Y-68113658D01*
X119622217Y-68109613D01*
X119620700Y-68105493D01*
X119619382Y-68101305D01*
X119618264Y-68097058D01*
X119617348Y-68092758D01*
X119616639Y-68088414D01*
X119616137Y-68084033D01*
X119615846Y-68079623D01*
X119615769Y-68075192D01*
X119615908Y-68070746D01*
X119616266Y-68066295D01*
X119616844Y-68061845D01*
X119617647Y-68057404D01*
X119618676Y-68052980D01*
X119619934Y-68048580D01*
X119621425Y-68044212D01*
X119623149Y-68039884D01*
X119625110Y-68035604D01*
X119654720Y-67979275D01*
X119686352Y-67926188D01*
X119719862Y-67876249D01*
X119755104Y-67829361D01*
X119791934Y-67785432D01*
X119830206Y-67744366D01*
X119869777Y-67706069D01*
X119910501Y-67670446D01*
X119952232Y-67637403D01*
X119994827Y-67606845D01*
X120038140Y-67578677D01*
X120082027Y-67552806D01*
X120126341Y-67529135D01*
X120170940Y-67507572D01*
X120260408Y-67470388D01*
X120349271Y-67440496D01*
X120436371Y-67417140D01*
X120520547Y-67399564D01*
X120600641Y-67387011D01*
X120675494Y-67378724D01*
X120743946Y-67373947D01*
X120857010Y-67371896D01*
X120858139Y-67346600D01*
X120858619Y-67321312D01*
X120858453Y-67296045D01*
X120857642Y-67270811D01*
X120856188Y-67245622D01*
X120854092Y-67220490D01*
X120851358Y-67195428D01*
X120847985Y-67170448D01*
X120843977Y-67145562D01*
X120839336Y-67120783D01*
X120834062Y-67096122D01*
X120828157Y-67071591D01*
X120821624Y-67047204D01*
X120814465Y-67022972D01*
X120806680Y-66998907D01*
X120798273Y-66975022D01*
X120781215Y-66933421D01*
X120762074Y-66892984D01*
X120740916Y-66853776D01*
X120717805Y-66815863D01*
X120692807Y-66779308D01*
X120665984Y-66744179D01*
X120637403Y-66710538D01*
X120607128Y-66678453D01*
X120575223Y-66647987D01*
X120541754Y-66619206D01*
X120506785Y-66592174D01*
X120470380Y-66566958D01*
X120432605Y-66543621D01*
X120393524Y-66522230D01*
X120353202Y-66502849D01*
X120311704Y-66485543D01*
X120264974Y-66468232D01*
X120217636Y-66453454D01*
X120169787Y-66441206D01*
X120121526Y-66431483D01*
X120072954Y-66424284D01*
X120024167Y-66419604D01*
X119975265Y-66417441D01*
X119926347Y-66417791D01*
X119877511Y-66420651D01*
X119828856Y-66426018D01*
X119780482Y-66433888D01*
X119732486Y-66444259D01*
X119684967Y-66457126D01*
X119638025Y-66472487D01*
X119591758Y-66490339D01*
X119546264Y-66510678D01*
X119485612Y-66542859D01*
X119429404Y-66578844D01*
X119377474Y-66618317D01*
X119329660Y-66660965D01*
X119285794Y-66706472D01*
X119245713Y-66754526D01*
X119209251Y-66804810D01*
X119176245Y-66857011D01*
X119146527Y-66910815D01*
X119119935Y-66965907D01*
X119096303Y-67021972D01*
X119075465Y-67078697D01*
X119057258Y-67135766D01*
X119041516Y-67192866D01*
X119016767Y-67305900D01*
X118999900Y-67415282D01*
X118989596Y-67518499D01*
X118984534Y-67613034D01*
X118983396Y-67696373D01*
X118987615Y-67819401D01*
X118991698Y-67867461D01*
X118992146Y-67872135D01*
X118992356Y-67876776D01*
X118992333Y-67881378D01*
X118992080Y-67885935D01*
X118991605Y-67890440D01*
X118990910Y-67894887D01*
X118990002Y-67899270D01*
X118988886Y-67903581D01*
X118987565Y-67907816D01*
X118986046Y-67911967D01*
X118984332Y-67916029D01*
X118982430Y-67919994D01*
X118980344Y-67923856D01*
X118978078Y-67927610D01*
X118975639Y-67931249D01*
X118973031Y-67934766D01*
X118970258Y-67938155D01*
X118967326Y-67941409D01*
X118964239Y-67944523D01*
X118961004Y-67947490D01*
X118957624Y-67950304D01*
X118954104Y-67952958D01*
X118950450Y-67955446D01*
X118946667Y-67957761D01*
X118942759Y-67959898D01*
X118938731Y-67961850D01*
X118934589Y-67963610D01*
X118930336Y-67965172D01*
X118925979Y-67966530D01*
X118921523Y-67967678D01*
X118916971Y-67968609D01*
X118912329Y-67969316D01*
X118907658Y-67969789D01*
X118903018Y-67970023D01*
X118898416Y-67970024D01*
X118893858Y-67969795D01*
X118889350Y-67969343D01*
X118884900Y-67968672D01*
X118880512Y-67967787D01*
X118876195Y-67966693D01*
X118871953Y-67965394D01*
X118867794Y-67963896D01*
X118863724Y-67962204D01*
X118859749Y-67960323D01*
X118855875Y-67958257D01*
X118852110Y-67956011D01*
X118848459Y-67953590D01*
X118844928Y-67951000D01*
X118841525Y-67948245D01*
X118838255Y-67945330D01*
X118835125Y-67942260D01*
X118832141Y-67939040D01*
X118829310Y-67935675D01*
X118826637Y-67932169D01*
X118824130Y-67928528D01*
X118821795Y-67924757D01*
X118819638Y-67920860D01*
X118817665Y-67916843D01*
X118815884Y-67912709D01*
X118814299Y-67908465D01*
X118812918Y-67904116D01*
X118811748Y-67899665D01*
X118810793Y-67895118D01*
X118810061Y-67890480D01*
X118804220Y-67826042D01*
X118799176Y-67682476D01*
X118800756Y-67587645D01*
X118807099Y-67480979D01*
X118819726Y-67365130D01*
X118840158Y-67242747D01*
X118869916Y-67116478D01*
X118910523Y-66988974D01*
X118935369Y-66925587D01*
X118963498Y-66862884D01*
X118995100Y-66801197D01*
X119030364Y-66740857D01*
X119069481Y-66682195D01*
X119112641Y-66625543D01*
X119160035Y-66571231D01*
X119211851Y-66519591D01*
X119268281Y-66470954D01*
X119329515Y-66425651D01*
X119395743Y-66384013D01*
X119467154Y-66346372D01*
X119521400Y-66322099D01*
X119576571Y-66300793D01*
X119632547Y-66282458D01*
X119689211Y-66267097D01*
X119746446Y-66254715D01*
X119804134Y-66245315D01*
X119862156Y-66238902D01*
X119920394Y-66235479D01*
X119978732Y-66235050D01*
X120037051Y-66237619D01*
G37*
X120037051Y-66237619D02*
X120095233Y-66243190D01*
X120153160Y-66251767D01*
X120210715Y-66263353D01*
X120267780Y-66277953D01*
X120324236Y-66295570D01*
X120379966Y-66316209D01*
X120430294Y-66337331D01*
X120479190Y-66360966D01*
X120526576Y-66387035D01*
X120572374Y-66415460D01*
X120616505Y-66446161D01*
X120658891Y-66479059D01*
X120699455Y-66514075D01*
X120738118Y-66551131D01*
X120774801Y-66590148D01*
X120809426Y-66631046D01*
X120841916Y-66673746D01*
X120872192Y-66718170D01*
X120900175Y-66764238D01*
X120925788Y-66811872D01*
X120948953Y-66860993D01*
X120969590Y-66911521D01*
X120981484Y-66945683D01*
X120992323Y-66980132D01*
X121002106Y-67014846D01*
X121010829Y-67049799D01*
X121018490Y-67084967D01*
X121025087Y-67120325D01*
X121030616Y-67155851D01*
X121035075Y-67191518D01*
X121038461Y-67227303D01*
X121040771Y-67263182D01*
X121042003Y-67299129D01*
X121042155Y-67335122D01*
X121041223Y-67371135D01*
X121039205Y-67407144D01*
X121036098Y-67443125D01*
X121031900Y-67479053D01*
X121031199Y-67483683D01*
X121030276Y-67488224D01*
X121029136Y-67492670D01*
X121027787Y-67497017D01*
X121026234Y-67501260D01*
X121024484Y-67505394D01*
X121022543Y-67509415D01*
X121020417Y-67513316D01*
X121018113Y-67517093D01*
X121015637Y-67520742D01*
X121012996Y-67524256D01*
X121010195Y-67527632D01*
X121007241Y-67530865D01*
X121004140Y-67533949D01*
X121000899Y-67536879D01*
X120997524Y-67539651D01*
X120994021Y-67542260D01*
X120990396Y-67544700D01*
X120986657Y-67546968D01*
X120982808Y-67549056D01*
X120978857Y-67550962D01*
X120974810Y-67552680D01*
X120970672Y-67554205D01*
X120966451Y-67555532D01*
X120962153Y-67556656D01*
X120957784Y-67557572D01*
X120953350Y-67558275D01*
X120948858Y-67558761D01*
X120944314Y-67559024D01*
X120939724Y-67559059D01*
X120935095Y-67558862D01*
X120930432Y-67558428D01*
X120892143Y-67555692D01*
X120793587Y-67554327D01*
X120726470Y-67557179D01*
X120650000Y-67564000D01*
X120566083Y-67575997D01*
X120476622Y-67594378D01*
X120383523Y-67620353D01*
X120288690Y-67655130D01*
X120241218Y-67676197D01*
X120194027Y-67699917D01*
X120147356Y-67726442D01*
X120101441Y-67755923D01*
X120056521Y-67788510D01*
X120012835Y-67824356D01*
X119970619Y-67863610D01*
X119930114Y-67906424D01*
X119891555Y-67952950D01*
X119855182Y-68003337D01*
X119821233Y-68057737D01*
X119789946Y-68116302D01*
X119786869Y-68122046D01*
X119783423Y-68127507D01*
X119779630Y-68132674D01*
X119775508Y-68137532D01*
X119771077Y-68142071D01*
X119766358Y-68146278D01*
X119761370Y-68150140D01*
X119756133Y-68153646D01*
X119750667Y-68156782D01*
X119744992Y-68159537D01*
X119739127Y-68161899D01*
X119733093Y-68163854D01*
X119726910Y-68165391D01*
X119720597Y-68166496D01*
X119714173Y-68167159D01*
X119707660Y-68167367D01*
X119707396Y-68167102D01*
X119704770Y-68167105D01*
X119702150Y-68167031D01*
X119699536Y-68166881D01*
X119696930Y-68166654D01*
X119694335Y-68166351D01*
X119691751Y-68165973D01*
X119689181Y-68165519D01*
X119686625Y-68164990D01*
X119684086Y-68164387D01*
X119681565Y-68163709D01*
X119679064Y-68162958D01*
X119676584Y-68162133D01*
X119674128Y-68161235D01*
X119671696Y-68160264D01*
X119669291Y-68159221D01*
X119666914Y-68158106D01*
X119662746Y-68155917D01*
X119658735Y-68153547D01*
X119654886Y-68151001D01*
X119651201Y-68148288D01*
X119647682Y-68145416D01*
X119644331Y-68142392D01*
X119641153Y-68139224D01*
X119638149Y-68135920D01*
X119635321Y-68132487D01*
X119632673Y-68128932D01*
X119630207Y-68125265D01*
X119627926Y-68121491D01*
X119625832Y-68117620D01*
X119623928Y-68113658D01*
X119622217Y-68109613D01*
X119620700Y-68105493D01*
X119619382Y-68101305D01*
X119618264Y-68097058D01*
X119617348Y-68092758D01*
X119616639Y-68088414D01*
X119616137Y-68084033D01*
X119615846Y-68079623D01*
X119615769Y-68075192D01*
X119615908Y-68070746D01*
X119616266Y-68066295D01*
X119616844Y-68061845D01*
X119617647Y-68057404D01*
X119618676Y-68052980D01*
X119619934Y-68048580D01*
X119621425Y-68044212D01*
X119623149Y-68039884D01*
X119625110Y-68035604D01*
X119654720Y-67979275D01*
X119686352Y-67926188D01*
X119719862Y-67876249D01*
X119755104Y-67829361D01*
X119791934Y-67785432D01*
X119830206Y-67744366D01*
X119869777Y-67706069D01*
X119910501Y-67670446D01*
X119952232Y-67637403D01*
X119994827Y-67606845D01*
X120038140Y-67578677D01*
X120082027Y-67552806D01*
X120126341Y-67529135D01*
X120170940Y-67507572D01*
X120260408Y-67470388D01*
X120349271Y-67440496D01*
X120436371Y-67417140D01*
X120520547Y-67399564D01*
X120600641Y-67387011D01*
X120675494Y-67378724D01*
X120743946Y-67373947D01*
X120857010Y-67371896D01*
X120858139Y-67346600D01*
X120858619Y-67321312D01*
X120858453Y-67296045D01*
X120857642Y-67270811D01*
X120856188Y-67245622D01*
X120854092Y-67220490D01*
X120851358Y-67195428D01*
X120847985Y-67170448D01*
X120843977Y-67145562D01*
X120839336Y-67120783D01*
X120834062Y-67096122D01*
X120828157Y-67071591D01*
X120821624Y-67047204D01*
X120814465Y-67022972D01*
X120806680Y-66998907D01*
X120798273Y-66975022D01*
X120781215Y-66933421D01*
X120762074Y-66892984D01*
X120740916Y-66853776D01*
X120717805Y-66815863D01*
X120692807Y-66779308D01*
X120665984Y-66744179D01*
X120637403Y-66710538D01*
X120607128Y-66678453D01*
X120575223Y-66647987D01*
X120541754Y-66619206D01*
X120506785Y-66592174D01*
X120470380Y-66566958D01*
X120432605Y-66543621D01*
X120393524Y-66522230D01*
X120353202Y-66502849D01*
X120311704Y-66485543D01*
X120264974Y-66468232D01*
X120217636Y-66453454D01*
X120169787Y-66441206D01*
X120121526Y-66431483D01*
X120072954Y-66424284D01*
X120024167Y-66419604D01*
X119975265Y-66417441D01*
X119926347Y-66417791D01*
X119877511Y-66420651D01*
X119828856Y-66426018D01*
X119780482Y-66433888D01*
X119732486Y-66444259D01*
X119684967Y-66457126D01*
X119638025Y-66472487D01*
X119591758Y-66490339D01*
X119546264Y-66510678D01*
X119485612Y-66542859D01*
X119429404Y-66578844D01*
X119377474Y-66618317D01*
X119329660Y-66660965D01*
X119285794Y-66706472D01*
X119245713Y-66754526D01*
X119209251Y-66804810D01*
X119176245Y-66857011D01*
X119146527Y-66910815D01*
X119119935Y-66965907D01*
X119096303Y-67021972D01*
X119075465Y-67078697D01*
X119057258Y-67135766D01*
X119041516Y-67192866D01*
X119016767Y-67305900D01*
X118999900Y-67415282D01*
X118989596Y-67518499D01*
X118984534Y-67613034D01*
X118983396Y-67696373D01*
X118987615Y-67819401D01*
X118991698Y-67867461D01*
X118992146Y-67872135D01*
X118992356Y-67876776D01*
X118992333Y-67881378D01*
X118992080Y-67885935D01*
X118991605Y-67890440D01*
X118990910Y-67894887D01*
X118990002Y-67899270D01*
X118988886Y-67903581D01*
X118987565Y-67907816D01*
X118986046Y-67911967D01*
X118984332Y-67916029D01*
X118982430Y-67919994D01*
X118980344Y-67923856D01*
X118978078Y-67927610D01*
X118975639Y-67931249D01*
X118973031Y-67934766D01*
X118970258Y-67938155D01*
X118967326Y-67941409D01*
X118964239Y-67944523D01*
X118961004Y-67947490D01*
X118957624Y-67950304D01*
X118954104Y-67952958D01*
X118950450Y-67955446D01*
X118946667Y-67957761D01*
X118942759Y-67959898D01*
X118938731Y-67961850D01*
X118934589Y-67963610D01*
X118930336Y-67965172D01*
X118925979Y-67966530D01*
X118921523Y-67967678D01*
X118916971Y-67968609D01*
X118912329Y-67969316D01*
X118907658Y-67969789D01*
X118903018Y-67970023D01*
X118898416Y-67970024D01*
X118893858Y-67969795D01*
X118889350Y-67969343D01*
X118884900Y-67968672D01*
X118880512Y-67967787D01*
X118876195Y-67966693D01*
X118871953Y-67965394D01*
X118867794Y-67963896D01*
X118863724Y-67962204D01*
X118859749Y-67960323D01*
X118855875Y-67958257D01*
X118852110Y-67956011D01*
X118848459Y-67953590D01*
X118844928Y-67951000D01*
X118841525Y-67948245D01*
X118838255Y-67945330D01*
X118835125Y-67942260D01*
X118832141Y-67939040D01*
X118829310Y-67935675D01*
X118826637Y-67932169D01*
X118824130Y-67928528D01*
X118821795Y-67924757D01*
X118819638Y-67920860D01*
X118817665Y-67916843D01*
X118815884Y-67912709D01*
X118814299Y-67908465D01*
X118812918Y-67904116D01*
X118811748Y-67899665D01*
X118810793Y-67895118D01*
X118810061Y-67890480D01*
X118804220Y-67826042D01*
X118799176Y-67682476D01*
X118800756Y-67587645D01*
X118807099Y-67480979D01*
X118819726Y-67365130D01*
X118840158Y-67242747D01*
X118869916Y-67116478D01*
X118910523Y-66988974D01*
X118935369Y-66925587D01*
X118963498Y-66862884D01*
X118995100Y-66801197D01*
X119030364Y-66740857D01*
X119069481Y-66682195D01*
X119112641Y-66625543D01*
X119160035Y-66571231D01*
X119211851Y-66519591D01*
X119268281Y-66470954D01*
X119329515Y-66425651D01*
X119395743Y-66384013D01*
X119467154Y-66346372D01*
X119521400Y-66322099D01*
X119576571Y-66300793D01*
X119632547Y-66282458D01*
X119689211Y-66267097D01*
X119746446Y-66254715D01*
X119804134Y-66245315D01*
X119862156Y-66238902D01*
X119920394Y-66235479D01*
X119978732Y-66235050D01*
X120037051Y-66237619D01*
D11*
X114909735Y-67850025D02*
X114528782Y-67850025D01*
X114766877Y-68516691D02*
X114766877Y-67659549D01*
X114719258Y-67564311D01*
X114624020Y-67516691D01*
X114528782Y-67516691D01*
X114052592Y-68516691D02*
X114147830Y-68469072D01*
X114195449Y-68373834D01*
X114195449Y-67516691D01*
X113528782Y-68516691D02*
X113624020Y-68469072D01*
X113671639Y-68421453D01*
X113719258Y-68326215D01*
X113719258Y-68040501D01*
X113671639Y-67945263D01*
X113624020Y-67897644D01*
X113528782Y-67850025D01*
X113385925Y-67850025D01*
X113290687Y-67897644D01*
X113243068Y-67945263D01*
X113195449Y-68040501D01*
X113195449Y-68326215D01*
X113243068Y-68421453D01*
X113290687Y-68469072D01*
X113385925Y-68516691D01*
X113528782Y-68516691D01*
X112862115Y-67850025D02*
X112671639Y-68516691D01*
X112481163Y-68040501D01*
X112290687Y-68516691D01*
X112100211Y-67850025D01*
X111290687Y-68469072D02*
X111385925Y-68516691D01*
X111576401Y-68516691D01*
X111671639Y-68469072D01*
X111719258Y-68421453D01*
X111766877Y-68326215D01*
X111766877Y-68040501D01*
X111719258Y-67945263D01*
X111671639Y-67897644D01*
X111576401Y-67850025D01*
X111385925Y-67850025D01*
X111290687Y-67897644D01*
X111004973Y-67850025D02*
X110624020Y-67850025D01*
X110862115Y-67516691D02*
X110862115Y-68373834D01*
X110814496Y-68469072D01*
X110719258Y-68516691D01*
X110624020Y-68516691D01*
X110147830Y-68516691D02*
X110243068Y-68469072D01*
X110290687Y-68373834D01*
X110290687Y-67516691D01*
X109766877Y-68421453D02*
X109719258Y-68469072D01*
X109766877Y-68516691D01*
X109814496Y-68469072D01*
X109766877Y-68421453D01*
X109766877Y-68516691D01*
X108862115Y-68516691D02*
X108862115Y-67992882D01*
X108909735Y-67897644D01*
X109004973Y-67850025D01*
X109195449Y-67850025D01*
X109290687Y-67897644D01*
X108862115Y-68469072D02*
X108957354Y-68516691D01*
X109195449Y-68516691D01*
X109290687Y-68469072D01*
X109338306Y-68373834D01*
X109338306Y-68278596D01*
X109290687Y-68183358D01*
X109195449Y-68135739D01*
X108957354Y-68135739D01*
X108862115Y-68088120D01*
X108385925Y-67850025D02*
X108385925Y-68850025D01*
X108385925Y-67897644D02*
X108290687Y-67850025D01*
X108100211Y-67850025D01*
X108004973Y-67897644D01*
X107957354Y-67945263D01*
X107909735Y-68040501D01*
X107909735Y-68326215D01*
X107957354Y-68421453D01*
X108004973Y-68469072D01*
X108100211Y-68516691D01*
X108290687Y-68516691D01*
X108385925Y-68469072D01*
X107481163Y-67850025D02*
X107481163Y-68850025D01*
X107481163Y-67897644D02*
X107385925Y-67850025D01*
X107195449Y-67850025D01*
X107100211Y-67897644D01*
X107052592Y-67945263D01*
X107004973Y-68040501D01*
X107004973Y-68326215D01*
X107052592Y-68421453D01*
X107100211Y-68469072D01*
X107195449Y-68516691D01*
X107385925Y-68516691D01*
X107481163Y-68469072D01*
D12*
X113492392Y-69800596D02*
X113492392Y-69300596D01*
X113492392Y-69443453D02*
X113456677Y-69372025D01*
X113420963Y-69336311D01*
X113349535Y-69300596D01*
X113278106Y-69300596D01*
X112742392Y-69764882D02*
X112813820Y-69800596D01*
X112956677Y-69800596D01*
X113028106Y-69764882D01*
X113063820Y-69693453D01*
X113063820Y-69407739D01*
X113028106Y-69336311D01*
X112956677Y-69300596D01*
X112813820Y-69300596D01*
X112742392Y-69336311D01*
X112706677Y-69407739D01*
X112706677Y-69479168D01*
X113063820Y-69550596D01*
X112456677Y-69300596D02*
X112278106Y-69800596D01*
X112099535Y-69300596D01*
X111813820Y-69800596D02*
X111813820Y-69300596D01*
X111813820Y-69050596D02*
X111849535Y-69086311D01*
X111813820Y-69122025D01*
X111778106Y-69086311D01*
X111813820Y-69050596D01*
X111813820Y-69122025D01*
X111492392Y-69764882D02*
X111420963Y-69800596D01*
X111278106Y-69800596D01*
X111206677Y-69764882D01*
X111170963Y-69693453D01*
X111170963Y-69657739D01*
X111206677Y-69586311D01*
X111278106Y-69550596D01*
X111385249Y-69550596D01*
X111456677Y-69514882D01*
X111492392Y-69443453D01*
X111492392Y-69407739D01*
X111456677Y-69336311D01*
X111385249Y-69300596D01*
X111278106Y-69300596D01*
X111206677Y-69336311D01*
X110849535Y-69800596D02*
X110849535Y-69300596D01*
X110849535Y-69050596D02*
X110885249Y-69086311D01*
X110849535Y-69122025D01*
X110813820Y-69086311D01*
X110849535Y-69050596D01*
X110849535Y-69122025D01*
X110385249Y-69800596D02*
X110456677Y-69764882D01*
X110492392Y-69729168D01*
X110528106Y-69657739D01*
X110528106Y-69443453D01*
X110492392Y-69372025D01*
X110456677Y-69336311D01*
X110385249Y-69300596D01*
X110278106Y-69300596D01*
X110206677Y-69336311D01*
X110170963Y-69372025D01*
X110135249Y-69443453D01*
X110135249Y-69657739D01*
X110170963Y-69729168D01*
X110206677Y-69764882D01*
X110278106Y-69800596D01*
X110385249Y-69800596D01*
X109813820Y-69300596D02*
X109813820Y-69800596D01*
X109813820Y-69372025D02*
X109778106Y-69336311D01*
X109706677Y-69300596D01*
X109599535Y-69300596D01*
X109528106Y-69336311D01*
X109492392Y-69407739D01*
X109492392Y-69800596D01*
X108242392Y-69300596D02*
X108242392Y-69800596D01*
X108420963Y-69014882D02*
X108599535Y-69550596D01*
X108135249Y-69550596D01*
M02*
