%TF.GenerationSoftware,KiCad,Pcbnew,(5.1.7)-1*%
%TF.CreationDate,2021-06-25T20:26:21+01:00*%
%TF.ProjectId,flowcontrol-v0.1,666c6f77-636f-46e7-9472-6f6c2d76302e,rev?*%
%TF.SameCoordinates,Original*%
%TF.FileFunction,Paste,Top*%
%TF.FilePolarity,Positive*%
%FSLAX46Y46*%
G04 Gerber Fmt 4.6, Leading zero omitted, Abs format (unit mm)*
G04 Created by KiCad (PCBNEW (5.1.7)-1) date 2021-06-25 20:26:21*
%MOMM*%
%LPD*%
G01*
G04 APERTURE LIST*
%ADD10R,2.500000X1.800000*%
%ADD11R,2.000000X4.500000*%
%ADD12R,1.550000X1.300000*%
G04 APERTURE END LIST*
%TO.C,C1*%
G36*
G01*
X104390000Y-114750000D02*
X103890000Y-114750000D01*
G75*
G02*
X103665000Y-114525000I0J225000D01*
G01*
X103665000Y-114075000D01*
G75*
G02*
X103890000Y-113850000I225000J0D01*
G01*
X104390000Y-113850000D01*
G75*
G02*
X104615000Y-114075000I0J-225000D01*
G01*
X104615000Y-114525000D01*
G75*
G02*
X104390000Y-114750000I-225000J0D01*
G01*
G37*
G36*
G01*
X104390000Y-113200000D02*
X103890000Y-113200000D01*
G75*
G02*
X103665000Y-112975000I0J225000D01*
G01*
X103665000Y-112525000D01*
G75*
G02*
X103890000Y-112300000I225000J0D01*
G01*
X104390000Y-112300000D01*
G75*
G02*
X104615000Y-112525000I0J-225000D01*
G01*
X104615000Y-112975000D01*
G75*
G02*
X104390000Y-113200000I-225000J0D01*
G01*
G37*
%TD*%
%TO.C,C2*%
G36*
G01*
X106930000Y-113200000D02*
X106430000Y-113200000D01*
G75*
G02*
X106205000Y-112975000I0J225000D01*
G01*
X106205000Y-112525000D01*
G75*
G02*
X106430000Y-112300000I225000J0D01*
G01*
X106930000Y-112300000D01*
G75*
G02*
X107155000Y-112525000I0J-225000D01*
G01*
X107155000Y-112975000D01*
G75*
G02*
X106930000Y-113200000I-225000J0D01*
G01*
G37*
G36*
G01*
X106930000Y-114750000D02*
X106430000Y-114750000D01*
G75*
G02*
X106205000Y-114525000I0J225000D01*
G01*
X106205000Y-114075000D01*
G75*
G02*
X106430000Y-113850000I225000J0D01*
G01*
X106930000Y-113850000D01*
G75*
G02*
X107155000Y-114075000I0J-225000D01*
G01*
X107155000Y-114525000D01*
G75*
G02*
X106930000Y-114750000I-225000J0D01*
G01*
G37*
%TD*%
%TO.C,C3*%
G36*
G01*
X109470000Y-114750000D02*
X108970000Y-114750000D01*
G75*
G02*
X108745000Y-114525000I0J225000D01*
G01*
X108745000Y-114075000D01*
G75*
G02*
X108970000Y-113850000I225000J0D01*
G01*
X109470000Y-113850000D01*
G75*
G02*
X109695000Y-114075000I0J-225000D01*
G01*
X109695000Y-114525000D01*
G75*
G02*
X109470000Y-114750000I-225000J0D01*
G01*
G37*
G36*
G01*
X109470000Y-113200000D02*
X108970000Y-113200000D01*
G75*
G02*
X108745000Y-112975000I0J225000D01*
G01*
X108745000Y-112525000D01*
G75*
G02*
X108970000Y-112300000I225000J0D01*
G01*
X109470000Y-112300000D01*
G75*
G02*
X109695000Y-112525000I0J-225000D01*
G01*
X109695000Y-112975000D01*
G75*
G02*
X109470000Y-113200000I-225000J0D01*
G01*
G37*
%TD*%
%TO.C,C4*%
G36*
G01*
X112010000Y-114750000D02*
X111510000Y-114750000D01*
G75*
G02*
X111285000Y-114525000I0J225000D01*
G01*
X111285000Y-114075000D01*
G75*
G02*
X111510000Y-113850000I225000J0D01*
G01*
X112010000Y-113850000D01*
G75*
G02*
X112235000Y-114075000I0J-225000D01*
G01*
X112235000Y-114525000D01*
G75*
G02*
X112010000Y-114750000I-225000J0D01*
G01*
G37*
G36*
G01*
X112010000Y-113200000D02*
X111510000Y-113200000D01*
G75*
G02*
X111285000Y-112975000I0J225000D01*
G01*
X111285000Y-112525000D01*
G75*
G02*
X111510000Y-112300000I225000J0D01*
G01*
X112010000Y-112300000D01*
G75*
G02*
X112235000Y-112525000I0J-225000D01*
G01*
X112235000Y-112975000D01*
G75*
G02*
X112010000Y-113200000I-225000J0D01*
G01*
G37*
%TD*%
%TO.C,C5*%
G36*
G01*
X114550000Y-113200000D02*
X114050000Y-113200000D01*
G75*
G02*
X113825000Y-112975000I0J225000D01*
G01*
X113825000Y-112525000D01*
G75*
G02*
X114050000Y-112300000I225000J0D01*
G01*
X114550000Y-112300000D01*
G75*
G02*
X114775000Y-112525000I0J-225000D01*
G01*
X114775000Y-112975000D01*
G75*
G02*
X114550000Y-113200000I-225000J0D01*
G01*
G37*
G36*
G01*
X114550000Y-114750000D02*
X114050000Y-114750000D01*
G75*
G02*
X113825000Y-114525000I0J225000D01*
G01*
X113825000Y-114075000D01*
G75*
G02*
X114050000Y-113850000I225000J0D01*
G01*
X114550000Y-113850000D01*
G75*
G02*
X114775000Y-114075000I0J-225000D01*
G01*
X114775000Y-114525000D01*
G75*
G02*
X114550000Y-114750000I-225000J0D01*
G01*
G37*
%TD*%
%TO.C,C6*%
G36*
G01*
X117090000Y-114750000D02*
X116590000Y-114750000D01*
G75*
G02*
X116365000Y-114525000I0J225000D01*
G01*
X116365000Y-114075000D01*
G75*
G02*
X116590000Y-113850000I225000J0D01*
G01*
X117090000Y-113850000D01*
G75*
G02*
X117315000Y-114075000I0J-225000D01*
G01*
X117315000Y-114525000D01*
G75*
G02*
X117090000Y-114750000I-225000J0D01*
G01*
G37*
G36*
G01*
X117090000Y-113200000D02*
X116590000Y-113200000D01*
G75*
G02*
X116365000Y-112975000I0J225000D01*
G01*
X116365000Y-112525000D01*
G75*
G02*
X116590000Y-112300000I225000J0D01*
G01*
X117090000Y-112300000D01*
G75*
G02*
X117315000Y-112525000I0J-225000D01*
G01*
X117315000Y-112975000D01*
G75*
G02*
X117090000Y-113200000I-225000J0D01*
G01*
G37*
%TD*%
D10*
%TO.C,D1*%
X102870000Y-77470000D03*
X106870000Y-77470000D03*
%TD*%
%TO.C,D2*%
X106870000Y-82550000D03*
X102870000Y-82550000D03*
%TD*%
%TO.C,D3*%
X102870000Y-87630000D03*
X106870000Y-87630000D03*
%TD*%
%TO.C,D4*%
X117030000Y-80010000D03*
X113030000Y-80010000D03*
%TD*%
%TO.C,D5*%
X113030000Y-85090000D03*
X117030000Y-85090000D03*
%TD*%
%TO.C,R1*%
G36*
G01*
X155935000Y-96565000D02*
X156485000Y-96565000D01*
G75*
G02*
X156685000Y-96765000I0J-200000D01*
G01*
X156685000Y-97165000D01*
G75*
G02*
X156485000Y-97365000I-200000J0D01*
G01*
X155935000Y-97365000D01*
G75*
G02*
X155735000Y-97165000I0J200000D01*
G01*
X155735000Y-96765000D01*
G75*
G02*
X155935000Y-96565000I200000J0D01*
G01*
G37*
G36*
G01*
X155935000Y-98215000D02*
X156485000Y-98215000D01*
G75*
G02*
X156685000Y-98415000I0J-200000D01*
G01*
X156685000Y-98815000D01*
G75*
G02*
X156485000Y-99015000I-200000J0D01*
G01*
X155935000Y-99015000D01*
G75*
G02*
X155735000Y-98815000I0J200000D01*
G01*
X155735000Y-98415000D01*
G75*
G02*
X155935000Y-98215000I200000J0D01*
G01*
G37*
%TD*%
%TO.C,R2*%
G36*
G01*
X159745000Y-98215000D02*
X160295000Y-98215000D01*
G75*
G02*
X160495000Y-98415000I0J-200000D01*
G01*
X160495000Y-98815000D01*
G75*
G02*
X160295000Y-99015000I-200000J0D01*
G01*
X159745000Y-99015000D01*
G75*
G02*
X159545000Y-98815000I0J200000D01*
G01*
X159545000Y-98415000D01*
G75*
G02*
X159745000Y-98215000I200000J0D01*
G01*
G37*
G36*
G01*
X159745000Y-96565000D02*
X160295000Y-96565000D01*
G75*
G02*
X160495000Y-96765000I0J-200000D01*
G01*
X160495000Y-97165000D01*
G75*
G02*
X160295000Y-97365000I-200000J0D01*
G01*
X159745000Y-97365000D01*
G75*
G02*
X159545000Y-97165000I0J200000D01*
G01*
X159545000Y-96765000D01*
G75*
G02*
X159745000Y-96565000I200000J0D01*
G01*
G37*
%TD*%
%TO.C,R3*%
G36*
G01*
X163555000Y-96565000D02*
X164105000Y-96565000D01*
G75*
G02*
X164305000Y-96765000I0J-200000D01*
G01*
X164305000Y-97165000D01*
G75*
G02*
X164105000Y-97365000I-200000J0D01*
G01*
X163555000Y-97365000D01*
G75*
G02*
X163355000Y-97165000I0J200000D01*
G01*
X163355000Y-96765000D01*
G75*
G02*
X163555000Y-96565000I200000J0D01*
G01*
G37*
G36*
G01*
X163555000Y-98215000D02*
X164105000Y-98215000D01*
G75*
G02*
X164305000Y-98415000I0J-200000D01*
G01*
X164305000Y-98815000D01*
G75*
G02*
X164105000Y-99015000I-200000J0D01*
G01*
X163555000Y-99015000D01*
G75*
G02*
X163355000Y-98815000I0J200000D01*
G01*
X163355000Y-98415000D01*
G75*
G02*
X163555000Y-98215000I200000J0D01*
G01*
G37*
%TD*%
%TO.C,R4*%
G36*
G01*
X167365000Y-98215000D02*
X167915000Y-98215000D01*
G75*
G02*
X168115000Y-98415000I0J-200000D01*
G01*
X168115000Y-98815000D01*
G75*
G02*
X167915000Y-99015000I-200000J0D01*
G01*
X167365000Y-99015000D01*
G75*
G02*
X167165000Y-98815000I0J200000D01*
G01*
X167165000Y-98415000D01*
G75*
G02*
X167365000Y-98215000I200000J0D01*
G01*
G37*
G36*
G01*
X167365000Y-96565000D02*
X167915000Y-96565000D01*
G75*
G02*
X168115000Y-96765000I0J-200000D01*
G01*
X168115000Y-97165000D01*
G75*
G02*
X167915000Y-97365000I-200000J0D01*
G01*
X167365000Y-97365000D01*
G75*
G02*
X167165000Y-97165000I0J200000D01*
G01*
X167165000Y-96765000D01*
G75*
G02*
X167365000Y-96565000I200000J0D01*
G01*
G37*
%TD*%
%TO.C,R5*%
G36*
G01*
X105010000Y-109495000D02*
X105010000Y-108945000D01*
G75*
G02*
X105210000Y-108745000I200000J0D01*
G01*
X105610000Y-108745000D01*
G75*
G02*
X105810000Y-108945000I0J-200000D01*
G01*
X105810000Y-109495000D01*
G75*
G02*
X105610000Y-109695000I-200000J0D01*
G01*
X105210000Y-109695000D01*
G75*
G02*
X105010000Y-109495000I0J200000D01*
G01*
G37*
G36*
G01*
X103360000Y-109495000D02*
X103360000Y-108945000D01*
G75*
G02*
X103560000Y-108745000I200000J0D01*
G01*
X103960000Y-108745000D01*
G75*
G02*
X104160000Y-108945000I0J-200000D01*
G01*
X104160000Y-109495000D01*
G75*
G02*
X103960000Y-109695000I-200000J0D01*
G01*
X103560000Y-109695000D01*
G75*
G02*
X103360000Y-109495000I0J200000D01*
G01*
G37*
%TD*%
%TO.C,R6*%
G36*
G01*
X107170000Y-109495000D02*
X107170000Y-108945000D01*
G75*
G02*
X107370000Y-108745000I200000J0D01*
G01*
X107770000Y-108745000D01*
G75*
G02*
X107970000Y-108945000I0J-200000D01*
G01*
X107970000Y-109495000D01*
G75*
G02*
X107770000Y-109695000I-200000J0D01*
G01*
X107370000Y-109695000D01*
G75*
G02*
X107170000Y-109495000I0J200000D01*
G01*
G37*
G36*
G01*
X108820000Y-109495000D02*
X108820000Y-108945000D01*
G75*
G02*
X109020000Y-108745000I200000J0D01*
G01*
X109420000Y-108745000D01*
G75*
G02*
X109620000Y-108945000I0J-200000D01*
G01*
X109620000Y-109495000D01*
G75*
G02*
X109420000Y-109695000I-200000J0D01*
G01*
X109020000Y-109695000D01*
G75*
G02*
X108820000Y-109495000I0J200000D01*
G01*
G37*
%TD*%
%TO.C,R7*%
G36*
G01*
X112630000Y-109495000D02*
X112630000Y-108945000D01*
G75*
G02*
X112830000Y-108745000I200000J0D01*
G01*
X113230000Y-108745000D01*
G75*
G02*
X113430000Y-108945000I0J-200000D01*
G01*
X113430000Y-109495000D01*
G75*
G02*
X113230000Y-109695000I-200000J0D01*
G01*
X112830000Y-109695000D01*
G75*
G02*
X112630000Y-109495000I0J200000D01*
G01*
G37*
G36*
G01*
X110980000Y-109495000D02*
X110980000Y-108945000D01*
G75*
G02*
X111180000Y-108745000I200000J0D01*
G01*
X111580000Y-108745000D01*
G75*
G02*
X111780000Y-108945000I0J-200000D01*
G01*
X111780000Y-109495000D01*
G75*
G02*
X111580000Y-109695000I-200000J0D01*
G01*
X111180000Y-109695000D01*
G75*
G02*
X110980000Y-109495000I0J200000D01*
G01*
G37*
%TD*%
%TO.C,R8*%
G36*
G01*
X114790000Y-109495000D02*
X114790000Y-108945000D01*
G75*
G02*
X114990000Y-108745000I200000J0D01*
G01*
X115390000Y-108745000D01*
G75*
G02*
X115590000Y-108945000I0J-200000D01*
G01*
X115590000Y-109495000D01*
G75*
G02*
X115390000Y-109695000I-200000J0D01*
G01*
X114990000Y-109695000D01*
G75*
G02*
X114790000Y-109495000I0J200000D01*
G01*
G37*
G36*
G01*
X116440000Y-109495000D02*
X116440000Y-108945000D01*
G75*
G02*
X116640000Y-108745000I200000J0D01*
G01*
X117040000Y-108745000D01*
G75*
G02*
X117240000Y-108945000I0J-200000D01*
G01*
X117240000Y-109495000D01*
G75*
G02*
X117040000Y-109695000I-200000J0D01*
G01*
X116640000Y-109695000D01*
G75*
G02*
X116440000Y-109495000I0J200000D01*
G01*
G37*
%TD*%
%TO.C,U2*%
G36*
G01*
X112120000Y-93495000D02*
X112120000Y-93195000D01*
G75*
G02*
X112270000Y-93045000I150000J0D01*
G01*
X113920000Y-93045000D01*
G75*
G02*
X114070000Y-93195000I0J-150000D01*
G01*
X114070000Y-93495000D01*
G75*
G02*
X113920000Y-93645000I-150000J0D01*
G01*
X112270000Y-93645000D01*
G75*
G02*
X112120000Y-93495000I0J150000D01*
G01*
G37*
G36*
G01*
X112120000Y-94765000D02*
X112120000Y-94465000D01*
G75*
G02*
X112270000Y-94315000I150000J0D01*
G01*
X113920000Y-94315000D01*
G75*
G02*
X114070000Y-94465000I0J-150000D01*
G01*
X114070000Y-94765000D01*
G75*
G02*
X113920000Y-94915000I-150000J0D01*
G01*
X112270000Y-94915000D01*
G75*
G02*
X112120000Y-94765000I0J150000D01*
G01*
G37*
G36*
G01*
X112120000Y-96035000D02*
X112120000Y-95735000D01*
G75*
G02*
X112270000Y-95585000I150000J0D01*
G01*
X113920000Y-95585000D01*
G75*
G02*
X114070000Y-95735000I0J-150000D01*
G01*
X114070000Y-96035000D01*
G75*
G02*
X113920000Y-96185000I-150000J0D01*
G01*
X112270000Y-96185000D01*
G75*
G02*
X112120000Y-96035000I0J150000D01*
G01*
G37*
G36*
G01*
X112120000Y-97305000D02*
X112120000Y-97005000D01*
G75*
G02*
X112270000Y-96855000I150000J0D01*
G01*
X113920000Y-96855000D01*
G75*
G02*
X114070000Y-97005000I0J-150000D01*
G01*
X114070000Y-97305000D01*
G75*
G02*
X113920000Y-97455000I-150000J0D01*
G01*
X112270000Y-97455000D01*
G75*
G02*
X112120000Y-97305000I0J150000D01*
G01*
G37*
G36*
G01*
X112120000Y-98575000D02*
X112120000Y-98275000D01*
G75*
G02*
X112270000Y-98125000I150000J0D01*
G01*
X113920000Y-98125000D01*
G75*
G02*
X114070000Y-98275000I0J-150000D01*
G01*
X114070000Y-98575000D01*
G75*
G02*
X113920000Y-98725000I-150000J0D01*
G01*
X112270000Y-98725000D01*
G75*
G02*
X112120000Y-98575000I0J150000D01*
G01*
G37*
G36*
G01*
X112120000Y-99845000D02*
X112120000Y-99545000D01*
G75*
G02*
X112270000Y-99395000I150000J0D01*
G01*
X113920000Y-99395000D01*
G75*
G02*
X114070000Y-99545000I0J-150000D01*
G01*
X114070000Y-99845000D01*
G75*
G02*
X113920000Y-99995000I-150000J0D01*
G01*
X112270000Y-99995000D01*
G75*
G02*
X112120000Y-99845000I0J150000D01*
G01*
G37*
G36*
G01*
X112120000Y-101115000D02*
X112120000Y-100815000D01*
G75*
G02*
X112270000Y-100665000I150000J0D01*
G01*
X113920000Y-100665000D01*
G75*
G02*
X114070000Y-100815000I0J-150000D01*
G01*
X114070000Y-101115000D01*
G75*
G02*
X113920000Y-101265000I-150000J0D01*
G01*
X112270000Y-101265000D01*
G75*
G02*
X112120000Y-101115000I0J150000D01*
G01*
G37*
G36*
G01*
X112120000Y-102385000D02*
X112120000Y-102085000D01*
G75*
G02*
X112270000Y-101935000I150000J0D01*
G01*
X113920000Y-101935000D01*
G75*
G02*
X114070000Y-102085000I0J-150000D01*
G01*
X114070000Y-102385000D01*
G75*
G02*
X113920000Y-102535000I-150000J0D01*
G01*
X112270000Y-102535000D01*
G75*
G02*
X112120000Y-102385000I0J150000D01*
G01*
G37*
G36*
G01*
X117070000Y-102385000D02*
X117070000Y-102085000D01*
G75*
G02*
X117220000Y-101935000I150000J0D01*
G01*
X118870000Y-101935000D01*
G75*
G02*
X119020000Y-102085000I0J-150000D01*
G01*
X119020000Y-102385000D01*
G75*
G02*
X118870000Y-102535000I-150000J0D01*
G01*
X117220000Y-102535000D01*
G75*
G02*
X117070000Y-102385000I0J150000D01*
G01*
G37*
G36*
G01*
X117070000Y-101115000D02*
X117070000Y-100815000D01*
G75*
G02*
X117220000Y-100665000I150000J0D01*
G01*
X118870000Y-100665000D01*
G75*
G02*
X119020000Y-100815000I0J-150000D01*
G01*
X119020000Y-101115000D01*
G75*
G02*
X118870000Y-101265000I-150000J0D01*
G01*
X117220000Y-101265000D01*
G75*
G02*
X117070000Y-101115000I0J150000D01*
G01*
G37*
G36*
G01*
X117070000Y-99845000D02*
X117070000Y-99545000D01*
G75*
G02*
X117220000Y-99395000I150000J0D01*
G01*
X118870000Y-99395000D01*
G75*
G02*
X119020000Y-99545000I0J-150000D01*
G01*
X119020000Y-99845000D01*
G75*
G02*
X118870000Y-99995000I-150000J0D01*
G01*
X117220000Y-99995000D01*
G75*
G02*
X117070000Y-99845000I0J150000D01*
G01*
G37*
G36*
G01*
X117070000Y-98575000D02*
X117070000Y-98275000D01*
G75*
G02*
X117220000Y-98125000I150000J0D01*
G01*
X118870000Y-98125000D01*
G75*
G02*
X119020000Y-98275000I0J-150000D01*
G01*
X119020000Y-98575000D01*
G75*
G02*
X118870000Y-98725000I-150000J0D01*
G01*
X117220000Y-98725000D01*
G75*
G02*
X117070000Y-98575000I0J150000D01*
G01*
G37*
G36*
G01*
X117070000Y-97305000D02*
X117070000Y-97005000D01*
G75*
G02*
X117220000Y-96855000I150000J0D01*
G01*
X118870000Y-96855000D01*
G75*
G02*
X119020000Y-97005000I0J-150000D01*
G01*
X119020000Y-97305000D01*
G75*
G02*
X118870000Y-97455000I-150000J0D01*
G01*
X117220000Y-97455000D01*
G75*
G02*
X117070000Y-97305000I0J150000D01*
G01*
G37*
G36*
G01*
X117070000Y-96035000D02*
X117070000Y-95735000D01*
G75*
G02*
X117220000Y-95585000I150000J0D01*
G01*
X118870000Y-95585000D01*
G75*
G02*
X119020000Y-95735000I0J-150000D01*
G01*
X119020000Y-96035000D01*
G75*
G02*
X118870000Y-96185000I-150000J0D01*
G01*
X117220000Y-96185000D01*
G75*
G02*
X117070000Y-96035000I0J150000D01*
G01*
G37*
G36*
G01*
X117070000Y-94765000D02*
X117070000Y-94465000D01*
G75*
G02*
X117220000Y-94315000I150000J0D01*
G01*
X118870000Y-94315000D01*
G75*
G02*
X119020000Y-94465000I0J-150000D01*
G01*
X119020000Y-94765000D01*
G75*
G02*
X118870000Y-94915000I-150000J0D01*
G01*
X117220000Y-94915000D01*
G75*
G02*
X117070000Y-94765000I0J150000D01*
G01*
G37*
G36*
G01*
X117070000Y-93495000D02*
X117070000Y-93195000D01*
G75*
G02*
X117220000Y-93045000I150000J0D01*
G01*
X118870000Y-93045000D01*
G75*
G02*
X119020000Y-93195000I0J-150000D01*
G01*
X119020000Y-93495000D01*
G75*
G02*
X118870000Y-93645000I-150000J0D01*
G01*
X117220000Y-93645000D01*
G75*
G02*
X117070000Y-93495000I0J150000D01*
G01*
G37*
%TD*%
D11*
%TO.C,Y1*%
X102870000Y-101600000D03*
X102870000Y-93100000D03*
%TD*%
D12*
%TO.C,SW1*%
X167970000Y-107660000D03*
X167970000Y-103160000D03*
X160020000Y-103160000D03*
X160020000Y-107660000D03*
%TD*%
M02*
