%TF.GenerationSoftware,KiCad,Pcbnew,(5.1.7)-1*%
%TF.CreationDate,2021-06-25T20:26:21+01:00*%
%TF.ProjectId,flowcontrol-v0.1,666c6f77-636f-46e7-9472-6f6c2d76302e,rev?*%
%TF.SameCoordinates,Original*%
%TF.FileFunction,Soldermask,Bot*%
%TF.FilePolarity,Negative*%
%FSLAX46Y46*%
G04 Gerber Fmt 4.6, Leading zero omitted, Abs format (unit mm)*
G04 Created by KiCad (PCBNEW (5.1.7)-1) date 2021-06-25 20:26:21*
%MOMM*%
%LPD*%
G01*
G04 APERTURE LIST*
%ADD10O,1.700000X1.700000*%
%ADD11R,1.700000X1.700000*%
%ADD12C,3.000000*%
%ADD13O,1.700000X2.000000*%
%ADD14R,2.780000X2.780000*%
%ADD15C,2.780000*%
%ADD16O,1.800000X1.800000*%
%ADD17O,1.500000X1.500000*%
G04 APERTURE END LIST*
D10*
%TO.C,J5*%
X116840000Y-72390000D03*
X116840000Y-69850000D03*
X114300000Y-72390000D03*
X114300000Y-69850000D03*
X111760000Y-72390000D03*
X111760000Y-69850000D03*
X109220000Y-72390000D03*
X109220000Y-69850000D03*
X106680000Y-72390000D03*
D11*
X106680000Y-69850000D03*
%TD*%
D12*
%TO.C,REF\u002A\u002A*%
X101447600Y-67424300D03*
%TD*%
%TO.C,REF\u002A\u002A*%
X184454800Y-67411600D03*
%TD*%
%TO.C,REF\u002A\u002A*%
X184454800Y-120421400D03*
%TD*%
%TO.C,REF\u002A\u002A*%
X101447600Y-120370600D03*
%TD*%
D11*
%TO.C,J1*%
X176530000Y-83820000D03*
D10*
X176530000Y-86360000D03*
X176530000Y-88900000D03*
X176530000Y-91440000D03*
%TD*%
%TO.C,J2*%
X176530000Y-110490000D03*
X176530000Y-107950000D03*
X176530000Y-105410000D03*
D11*
X176530000Y-102870000D03*
%TD*%
D13*
%TO.C,J3*%
X168870000Y-116840000D03*
G36*
G01*
X165520000Y-117590000D02*
X165520000Y-116090000D01*
G75*
G02*
X165770000Y-115840000I250000J0D01*
G01*
X166970000Y-115840000D01*
G75*
G02*
X167220000Y-116090000I0J-250000D01*
G01*
X167220000Y-117590000D01*
G75*
G02*
X166970000Y-117840000I-250000J0D01*
G01*
X165770000Y-117840000D01*
G75*
G02*
X165520000Y-117590000I0J250000D01*
G01*
G37*
%TD*%
%TO.C,J4*%
G36*
G01*
X154130000Y-117590000D02*
X154130000Y-116090000D01*
G75*
G02*
X154380000Y-115840000I250000J0D01*
G01*
X155580000Y-115840000D01*
G75*
G02*
X155830000Y-116090000I0J-250000D01*
G01*
X155830000Y-117590000D01*
G75*
G02*
X155580000Y-117840000I-250000J0D01*
G01*
X154380000Y-117840000D01*
G75*
G02*
X154130000Y-117590000I0J250000D01*
G01*
G37*
X157480000Y-116840000D03*
%TD*%
D14*
%TO.C,J6*%
X158750000Y-73660000D03*
D15*
X163830000Y-73660000D03*
X168910000Y-73660000D03*
X173990000Y-73660000D03*
%TD*%
D11*
%TO.C,J7*%
X158750000Y-88900000D03*
D10*
X161290000Y-88900000D03*
X163830000Y-88900000D03*
X166370000Y-88900000D03*
%TD*%
%TO.C,U1*%
X127000000Y-67310000D03*
X127000000Y-69850000D03*
D11*
X127000000Y-72390000D03*
D10*
X127000000Y-74930000D03*
X127000000Y-77470000D03*
X127000000Y-80010000D03*
X127000000Y-82550000D03*
D11*
X127000000Y-85090000D03*
D10*
X127000000Y-87630000D03*
X127000000Y-90170000D03*
X127000000Y-92710000D03*
X127000000Y-95250000D03*
D11*
X127000000Y-97790000D03*
D10*
X127000000Y-100330000D03*
X127000000Y-102870000D03*
X127000000Y-105410000D03*
X127000000Y-107950000D03*
D11*
X127000000Y-110490000D03*
D10*
X127000000Y-113030000D03*
X127000000Y-115570000D03*
X144780000Y-115570000D03*
X144780000Y-113030000D03*
D11*
X144780000Y-110490000D03*
D10*
X144780000Y-107950000D03*
X144780000Y-105410000D03*
X144780000Y-102870000D03*
X144780000Y-100330000D03*
D11*
X144780000Y-97790000D03*
D10*
X144780000Y-95250000D03*
X144780000Y-92710000D03*
X144780000Y-90170000D03*
X144780000Y-87630000D03*
D11*
X144780000Y-85090000D03*
D10*
X144780000Y-82550000D03*
X144780000Y-80010000D03*
X144780000Y-77470000D03*
X144780000Y-74930000D03*
D11*
X144780000Y-72390000D03*
D10*
X144780000Y-69850000D03*
X144780000Y-67310000D03*
D16*
X133165000Y-67440000D03*
X138615000Y-67440000D03*
D17*
X133465000Y-70470000D03*
X138315000Y-70470000D03*
D10*
X133350000Y-115340000D03*
D11*
X135890000Y-115340000D03*
D10*
X138430000Y-115340000D03*
%TD*%
M02*
