%TF.GenerationSoftware,KiCad,Pcbnew,(5.1.7)-1*%
%TF.CreationDate,2021-06-25T20:26:21+01:00*%
%TF.ProjectId,flowcontrol-v0.1,666c6f77-636f-46e7-9472-6f6c2d76302e,rev?*%
%TF.SameCoordinates,Original*%
%TF.FileFunction,Legend,Top*%
%TF.FilePolarity,Positive*%
%FSLAX46Y46*%
G04 Gerber Fmt 4.6, Leading zero omitted, Abs format (unit mm)*
G04 Created by KiCad (PCBNEW (5.1.7)-1) date 2021-06-25 20:26:21*
%MOMM*%
%LPD*%
G01*
G04 APERTURE LIST*
%ADD10C,0.150000*%
%ADD11C,0.100000*%
%ADD12C,0.013229*%
%ADD13C,0.120000*%
G04 APERTURE END LIST*
D10*
X110409195Y-66978280D02*
X110409195Y-67787804D01*
X110456814Y-67883042D01*
X110504433Y-67930661D01*
X110599671Y-67978280D01*
X110790147Y-67978280D01*
X110885385Y-67930661D01*
X110933004Y-67883042D01*
X110980623Y-67787804D01*
X110980623Y-66978280D01*
X111409195Y-67930661D02*
X111552052Y-67978280D01*
X111790147Y-67978280D01*
X111885385Y-67930661D01*
X111933004Y-67883042D01*
X111980623Y-67787804D01*
X111980623Y-67692566D01*
X111933004Y-67597328D01*
X111885385Y-67549709D01*
X111790147Y-67502090D01*
X111599671Y-67454471D01*
X111504433Y-67406852D01*
X111456814Y-67359233D01*
X111409195Y-67263995D01*
X111409195Y-67168757D01*
X111456814Y-67073519D01*
X111504433Y-67025900D01*
X111599671Y-66978280D01*
X111837766Y-66978280D01*
X111980623Y-67025900D01*
X112742528Y-67454471D02*
X112885385Y-67502090D01*
X112933004Y-67549709D01*
X112980623Y-67644947D01*
X112980623Y-67787804D01*
X112933004Y-67883042D01*
X112885385Y-67930661D01*
X112790147Y-67978280D01*
X112409195Y-67978280D01*
X112409195Y-66978280D01*
X112742528Y-66978280D01*
X112837766Y-67025900D01*
X112885385Y-67073519D01*
X112933004Y-67168757D01*
X112933004Y-67263995D01*
X112885385Y-67359233D01*
X112837766Y-67406852D01*
X112742528Y-67454471D01*
X112409195Y-67454471D01*
X161318795Y-86659980D02*
X161318795Y-85659980D01*
X161556890Y-85659980D01*
X161699747Y-85707600D01*
X161794985Y-85802838D01*
X161842604Y-85898076D01*
X161890223Y-86088552D01*
X161890223Y-86231409D01*
X161842604Y-86421885D01*
X161794985Y-86517123D01*
X161699747Y-86612361D01*
X161556890Y-86659980D01*
X161318795Y-86659980D01*
X162890223Y-86659980D02*
X162556890Y-86183790D01*
X162318795Y-86659980D02*
X162318795Y-85659980D01*
X162699747Y-85659980D01*
X162794985Y-85707600D01*
X162842604Y-85755219D01*
X162890223Y-85850457D01*
X162890223Y-85993314D01*
X162842604Y-86088552D01*
X162794985Y-86136171D01*
X162699747Y-86183790D01*
X162318795Y-86183790D01*
X163842604Y-85707600D02*
X163747366Y-85659980D01*
X163604509Y-85659980D01*
X163461652Y-85707600D01*
X163366414Y-85802838D01*
X163318795Y-85898076D01*
X163271176Y-86088552D01*
X163271176Y-86231409D01*
X163318795Y-86421885D01*
X163366414Y-86517123D01*
X163461652Y-86612361D01*
X163604509Y-86659980D01*
X163699747Y-86659980D01*
X163842604Y-86612361D01*
X163890223Y-86564742D01*
X163890223Y-86231409D01*
X163699747Y-86231409D01*
X164652128Y-86136171D02*
X164794985Y-86183790D01*
X164842604Y-86231409D01*
X164890223Y-86326647D01*
X164890223Y-86469504D01*
X164842604Y-86564742D01*
X164794985Y-86612361D01*
X164699747Y-86659980D01*
X164318795Y-86659980D01*
X164318795Y-85659980D01*
X164652128Y-85659980D01*
X164747366Y-85707600D01*
X164794985Y-85755219D01*
X164842604Y-85850457D01*
X164842604Y-85945695D01*
X164794985Y-86040933D01*
X164747366Y-86088552D01*
X164652128Y-86136171D01*
X164318795Y-86136171D01*
X181384819Y-113209414D02*
X181765771Y-113209414D01*
X181527676Y-113876080D02*
X181527676Y-113018938D01*
X181575295Y-112923700D01*
X181670533Y-112876080D01*
X181765771Y-112876080D01*
X182527676Y-113876080D02*
X182527676Y-113352271D01*
X182480057Y-113257033D01*
X182384819Y-113209414D01*
X182194342Y-113209414D01*
X182099104Y-113257033D01*
X182527676Y-113828461D02*
X182432438Y-113876080D01*
X182194342Y-113876080D01*
X182099104Y-113828461D01*
X182051485Y-113733223D01*
X182051485Y-113637985D01*
X182099104Y-113542747D01*
X182194342Y-113495128D01*
X182432438Y-113495128D01*
X182527676Y-113447509D01*
X183003866Y-113209414D02*
X183003866Y-113876080D01*
X183003866Y-113304652D02*
X183051485Y-113257033D01*
X183146723Y-113209414D01*
X183289580Y-113209414D01*
X183384819Y-113257033D01*
X183432438Y-113352271D01*
X183432438Y-113876080D01*
X184622914Y-112971319D02*
X184670533Y-112923700D01*
X184765771Y-112876080D01*
X185003866Y-112876080D01*
X185099104Y-112923700D01*
X185146723Y-112971319D01*
X185194342Y-113066557D01*
X185194342Y-113161795D01*
X185146723Y-113304652D01*
X184575295Y-113876080D01*
X185194342Y-113876080D01*
X181473719Y-93778414D02*
X181854671Y-93778414D01*
X181616576Y-94445080D02*
X181616576Y-93587938D01*
X181664195Y-93492700D01*
X181759433Y-93445080D01*
X181854671Y-93445080D01*
X182616576Y-94445080D02*
X182616576Y-93921271D01*
X182568957Y-93826033D01*
X182473719Y-93778414D01*
X182283242Y-93778414D01*
X182188004Y-93826033D01*
X182616576Y-94397461D02*
X182521338Y-94445080D01*
X182283242Y-94445080D01*
X182188004Y-94397461D01*
X182140385Y-94302223D01*
X182140385Y-94206985D01*
X182188004Y-94111747D01*
X182283242Y-94064128D01*
X182521338Y-94064128D01*
X182616576Y-94016509D01*
X183092766Y-93778414D02*
X183092766Y-94445080D01*
X183092766Y-93873652D02*
X183140385Y-93826033D01*
X183235623Y-93778414D01*
X183378480Y-93778414D01*
X183473719Y-93826033D01*
X183521338Y-93921271D01*
X183521338Y-94445080D01*
X185283242Y-94445080D02*
X184711814Y-94445080D01*
X184997528Y-94445080D02*
X184997528Y-93445080D01*
X184902290Y-93587938D01*
X184807052Y-93683176D01*
X184711814Y-93730795D01*
X162567028Y-121007214D02*
X162947980Y-121007214D01*
X162709885Y-120673880D02*
X162709885Y-121531023D01*
X162757504Y-121626261D01*
X162852742Y-121673880D01*
X162947980Y-121673880D01*
X163662266Y-121626261D02*
X163567028Y-121673880D01*
X163376552Y-121673880D01*
X163281314Y-121626261D01*
X163233695Y-121531023D01*
X163233695Y-121150071D01*
X163281314Y-121054833D01*
X163376552Y-121007214D01*
X163567028Y-121007214D01*
X163662266Y-121054833D01*
X163709885Y-121150071D01*
X163709885Y-121245309D01*
X163233695Y-121340547D01*
X164138457Y-121673880D02*
X164138457Y-121007214D01*
X164138457Y-121102452D02*
X164186076Y-121054833D01*
X164281314Y-121007214D01*
X164424171Y-121007214D01*
X164519409Y-121054833D01*
X164567028Y-121150071D01*
X164567028Y-121673880D01*
X164567028Y-121150071D02*
X164614647Y-121054833D01*
X164709885Y-121007214D01*
X164852742Y-121007214D01*
X164947980Y-121054833D01*
X164995600Y-121150071D01*
X164995600Y-121673880D01*
X165471790Y-121007214D02*
X165471790Y-122007214D01*
X165471790Y-121054833D02*
X165567028Y-121007214D01*
X165757504Y-121007214D01*
X165852742Y-121054833D01*
X165900361Y-121102452D01*
X165947980Y-121197690D01*
X165947980Y-121483404D01*
X165900361Y-121578642D01*
X165852742Y-121626261D01*
X165757504Y-121673880D01*
X165567028Y-121673880D01*
X165471790Y-121626261D01*
X167090838Y-121626261D02*
X167186076Y-121673880D01*
X167376552Y-121673880D01*
X167471790Y-121626261D01*
X167519409Y-121531023D01*
X167519409Y-121483404D01*
X167471790Y-121388166D01*
X167376552Y-121340547D01*
X167233695Y-121340547D01*
X167138457Y-121292928D01*
X167090838Y-121197690D01*
X167090838Y-121150071D01*
X167138457Y-121054833D01*
X167233695Y-121007214D01*
X167376552Y-121007214D01*
X167471790Y-121054833D01*
X168328933Y-121626261D02*
X168233695Y-121673880D01*
X168043219Y-121673880D01*
X167947980Y-121626261D01*
X167900361Y-121531023D01*
X167900361Y-121150071D01*
X167947980Y-121054833D01*
X168043219Y-121007214D01*
X168233695Y-121007214D01*
X168328933Y-121054833D01*
X168376552Y-121150071D01*
X168376552Y-121245309D01*
X167900361Y-121340547D01*
X168805123Y-121007214D02*
X168805123Y-121673880D01*
X168805123Y-121102452D02*
X168852742Y-121054833D01*
X168947980Y-121007214D01*
X169090838Y-121007214D01*
X169186076Y-121054833D01*
X169233695Y-121150071D01*
X169233695Y-121673880D01*
X169662266Y-121626261D02*
X169757504Y-121673880D01*
X169947980Y-121673880D01*
X170043219Y-121626261D01*
X170090838Y-121531023D01*
X170090838Y-121483404D01*
X170043219Y-121388166D01*
X169947980Y-121340547D01*
X169805123Y-121340547D01*
X169709885Y-121292928D01*
X169662266Y-121197690D01*
X169662266Y-121150071D01*
X169709885Y-121054833D01*
X169805123Y-121007214D01*
X169947980Y-121007214D01*
X170043219Y-121054833D01*
X170662266Y-121673880D02*
X170567028Y-121626261D01*
X170519409Y-121578642D01*
X170471790Y-121483404D01*
X170471790Y-121197690D01*
X170519409Y-121102452D01*
X170567028Y-121054833D01*
X170662266Y-121007214D01*
X170805123Y-121007214D01*
X170900361Y-121054833D01*
X170947980Y-121102452D01*
X170995600Y-121197690D01*
X170995600Y-121483404D01*
X170947980Y-121578642D01*
X170900361Y-121626261D01*
X170805123Y-121673880D01*
X170662266Y-121673880D01*
X171424171Y-121673880D02*
X171424171Y-121007214D01*
X171424171Y-121197690D02*
X171471790Y-121102452D01*
X171519409Y-121054833D01*
X171614647Y-121007214D01*
X171709885Y-121007214D01*
X172757504Y-120769119D02*
X172805123Y-120721500D01*
X172900361Y-120673880D01*
X173138457Y-120673880D01*
X173233695Y-120721500D01*
X173281314Y-120769119D01*
X173328933Y-120864357D01*
X173328933Y-120959595D01*
X173281314Y-121102452D01*
X172709885Y-121673880D01*
X173328933Y-121673880D01*
X150578228Y-121032614D02*
X150959180Y-121032614D01*
X150721085Y-120699280D02*
X150721085Y-121556423D01*
X150768704Y-121651661D01*
X150863942Y-121699280D01*
X150959180Y-121699280D01*
X151673466Y-121651661D02*
X151578228Y-121699280D01*
X151387752Y-121699280D01*
X151292514Y-121651661D01*
X151244895Y-121556423D01*
X151244895Y-121175471D01*
X151292514Y-121080233D01*
X151387752Y-121032614D01*
X151578228Y-121032614D01*
X151673466Y-121080233D01*
X151721085Y-121175471D01*
X151721085Y-121270709D01*
X151244895Y-121365947D01*
X152149657Y-121699280D02*
X152149657Y-121032614D01*
X152149657Y-121127852D02*
X152197276Y-121080233D01*
X152292514Y-121032614D01*
X152435371Y-121032614D01*
X152530609Y-121080233D01*
X152578228Y-121175471D01*
X152578228Y-121699280D01*
X152578228Y-121175471D02*
X152625847Y-121080233D01*
X152721085Y-121032614D01*
X152863942Y-121032614D01*
X152959180Y-121080233D01*
X153006800Y-121175471D01*
X153006800Y-121699280D01*
X153482990Y-121032614D02*
X153482990Y-122032614D01*
X153482990Y-121080233D02*
X153578228Y-121032614D01*
X153768704Y-121032614D01*
X153863942Y-121080233D01*
X153911561Y-121127852D01*
X153959180Y-121223090D01*
X153959180Y-121508804D01*
X153911561Y-121604042D01*
X153863942Y-121651661D01*
X153768704Y-121699280D01*
X153578228Y-121699280D01*
X153482990Y-121651661D01*
X155102038Y-121651661D02*
X155197276Y-121699280D01*
X155387752Y-121699280D01*
X155482990Y-121651661D01*
X155530609Y-121556423D01*
X155530609Y-121508804D01*
X155482990Y-121413566D01*
X155387752Y-121365947D01*
X155244895Y-121365947D01*
X155149657Y-121318328D01*
X155102038Y-121223090D01*
X155102038Y-121175471D01*
X155149657Y-121080233D01*
X155244895Y-121032614D01*
X155387752Y-121032614D01*
X155482990Y-121080233D01*
X156340133Y-121651661D02*
X156244895Y-121699280D01*
X156054419Y-121699280D01*
X155959180Y-121651661D01*
X155911561Y-121556423D01*
X155911561Y-121175471D01*
X155959180Y-121080233D01*
X156054419Y-121032614D01*
X156244895Y-121032614D01*
X156340133Y-121080233D01*
X156387752Y-121175471D01*
X156387752Y-121270709D01*
X155911561Y-121365947D01*
X156816323Y-121032614D02*
X156816323Y-121699280D01*
X156816323Y-121127852D02*
X156863942Y-121080233D01*
X156959180Y-121032614D01*
X157102038Y-121032614D01*
X157197276Y-121080233D01*
X157244895Y-121175471D01*
X157244895Y-121699280D01*
X157673466Y-121651661D02*
X157768704Y-121699280D01*
X157959180Y-121699280D01*
X158054419Y-121651661D01*
X158102038Y-121556423D01*
X158102038Y-121508804D01*
X158054419Y-121413566D01*
X157959180Y-121365947D01*
X157816323Y-121365947D01*
X157721085Y-121318328D01*
X157673466Y-121223090D01*
X157673466Y-121175471D01*
X157721085Y-121080233D01*
X157816323Y-121032614D01*
X157959180Y-121032614D01*
X158054419Y-121080233D01*
X158673466Y-121699280D02*
X158578228Y-121651661D01*
X158530609Y-121604042D01*
X158482990Y-121508804D01*
X158482990Y-121223090D01*
X158530609Y-121127852D01*
X158578228Y-121080233D01*
X158673466Y-121032614D01*
X158816323Y-121032614D01*
X158911561Y-121080233D01*
X158959180Y-121127852D01*
X159006800Y-121223090D01*
X159006800Y-121508804D01*
X158959180Y-121604042D01*
X158911561Y-121651661D01*
X158816323Y-121699280D01*
X158673466Y-121699280D01*
X159435371Y-121699280D02*
X159435371Y-121032614D01*
X159435371Y-121223090D02*
X159482990Y-121127852D01*
X159530609Y-121080233D01*
X159625847Y-121032614D01*
X159721085Y-121032614D01*
X161340133Y-121699280D02*
X160768704Y-121699280D01*
X161054419Y-121699280D02*
X161054419Y-120699280D01*
X160959180Y-120842138D01*
X160863942Y-120937376D01*
X160768704Y-120984995D01*
D11*
X160377814Y-83054385D02*
X160377814Y-82554385D01*
X160377814Y-82697242D02*
X160413528Y-82625814D01*
X160449242Y-82590100D01*
X160520671Y-82554385D01*
X160592100Y-82554385D01*
X161127814Y-83018671D02*
X161056385Y-83054385D01*
X160913528Y-83054385D01*
X160842100Y-83018671D01*
X160806385Y-82947242D01*
X160806385Y-82661528D01*
X160842100Y-82590100D01*
X160913528Y-82554385D01*
X161056385Y-82554385D01*
X161127814Y-82590100D01*
X161163528Y-82661528D01*
X161163528Y-82732957D01*
X160806385Y-82804385D01*
X161413528Y-82554385D02*
X161592100Y-83054385D01*
X161770671Y-82554385D01*
X162770671Y-82304385D02*
X162842100Y-82304385D01*
X162913528Y-82340100D01*
X162949242Y-82375814D01*
X162984957Y-82447242D01*
X163020671Y-82590100D01*
X163020671Y-82768671D01*
X162984957Y-82911528D01*
X162949242Y-82982957D01*
X162913528Y-83018671D01*
X162842100Y-83054385D01*
X162770671Y-83054385D01*
X162699242Y-83018671D01*
X162663528Y-82982957D01*
X162627814Y-82911528D01*
X162592100Y-82768671D01*
X162592100Y-82590100D01*
X162627814Y-82447242D01*
X162663528Y-82375814D01*
X162699242Y-82340100D01*
X162770671Y-82304385D01*
X163342100Y-82982957D02*
X163377814Y-83018671D01*
X163342100Y-83054385D01*
X163306385Y-83018671D01*
X163342100Y-82982957D01*
X163342100Y-83054385D01*
X163663528Y-82375814D02*
X163699242Y-82340100D01*
X163770671Y-82304385D01*
X163949242Y-82304385D01*
X164020671Y-82340100D01*
X164056385Y-82375814D01*
X164092100Y-82447242D01*
X164092100Y-82518671D01*
X164056385Y-82625814D01*
X163627814Y-83054385D01*
X164092100Y-83054385D01*
D10*
X157975800Y-81103814D02*
X158356752Y-81103814D01*
X158118657Y-81770480D02*
X158118657Y-80913338D01*
X158166276Y-80818100D01*
X158261514Y-80770480D01*
X158356752Y-80770480D01*
X158832942Y-81770480D02*
X158737704Y-81722861D01*
X158690085Y-81627623D01*
X158690085Y-80770480D01*
X159356752Y-81770480D02*
X159261514Y-81722861D01*
X159213895Y-81675242D01*
X159166276Y-81580004D01*
X159166276Y-81294290D01*
X159213895Y-81199052D01*
X159261514Y-81151433D01*
X159356752Y-81103814D01*
X159499609Y-81103814D01*
X159594847Y-81151433D01*
X159642466Y-81199052D01*
X159690085Y-81294290D01*
X159690085Y-81580004D01*
X159642466Y-81675242D01*
X159594847Y-81722861D01*
X159499609Y-81770480D01*
X159356752Y-81770480D01*
X160023419Y-81103814D02*
X160213895Y-81770480D01*
X160404371Y-81294290D01*
X160594847Y-81770480D01*
X160785323Y-81103814D01*
X161594847Y-81722861D02*
X161499609Y-81770480D01*
X161309133Y-81770480D01*
X161213895Y-81722861D01*
X161166276Y-81675242D01*
X161118657Y-81580004D01*
X161118657Y-81294290D01*
X161166276Y-81199052D01*
X161213895Y-81151433D01*
X161309133Y-81103814D01*
X161499609Y-81103814D01*
X161594847Y-81151433D01*
X161880561Y-81103814D02*
X162261514Y-81103814D01*
X162023419Y-80770480D02*
X162023419Y-81627623D01*
X162071038Y-81722861D01*
X162166276Y-81770480D01*
X162261514Y-81770480D01*
X162737704Y-81770480D02*
X162642466Y-81722861D01*
X162594847Y-81627623D01*
X162594847Y-80770480D01*
X163118657Y-81675242D02*
X163166276Y-81722861D01*
X163118657Y-81770480D01*
X163071038Y-81722861D01*
X163118657Y-81675242D01*
X163118657Y-81770480D01*
X164023419Y-81770480D02*
X164023419Y-81246671D01*
X163975800Y-81151433D01*
X163880561Y-81103814D01*
X163690085Y-81103814D01*
X163594847Y-81151433D01*
X164023419Y-81722861D02*
X163928180Y-81770480D01*
X163690085Y-81770480D01*
X163594847Y-81722861D01*
X163547228Y-81627623D01*
X163547228Y-81532385D01*
X163594847Y-81437147D01*
X163690085Y-81389528D01*
X163928180Y-81389528D01*
X164023419Y-81341909D01*
X164499609Y-81103814D02*
X164499609Y-82103814D01*
X164499609Y-81151433D02*
X164594847Y-81103814D01*
X164785323Y-81103814D01*
X164880561Y-81151433D01*
X164928180Y-81199052D01*
X164975800Y-81294290D01*
X164975800Y-81580004D01*
X164928180Y-81675242D01*
X164880561Y-81722861D01*
X164785323Y-81770480D01*
X164594847Y-81770480D01*
X164499609Y-81722861D01*
X165404371Y-81103814D02*
X165404371Y-82103814D01*
X165404371Y-81151433D02*
X165499609Y-81103814D01*
X165690085Y-81103814D01*
X165785323Y-81151433D01*
X165832942Y-81199052D01*
X165880561Y-81294290D01*
X165880561Y-81580004D01*
X165832942Y-81675242D01*
X165785323Y-81722861D01*
X165690085Y-81770480D01*
X165499609Y-81770480D01*
X165404371Y-81722861D01*
D12*
G36*
X156405959Y-81066149D02*
G01*
X156410431Y-81066435D01*
X156414894Y-81066941D01*
X156419340Y-81067668D01*
X156423761Y-81068617D01*
X156428149Y-81069789D01*
X156430174Y-81070411D01*
X156432185Y-81071079D01*
X156434180Y-81071790D01*
X156436159Y-81072546D01*
X156438120Y-81073346D01*
X156440062Y-81074190D01*
X156441987Y-81075077D01*
X156443891Y-81076007D01*
X156510376Y-81112471D01*
X156580843Y-81156468D01*
X156653723Y-81207757D01*
X156727448Y-81266097D01*
X156800450Y-81331248D01*
X156871160Y-81402968D01*
X156905166Y-81441217D01*
X156938011Y-81481017D01*
X156969499Y-81522340D01*
X156999433Y-81565155D01*
X157027619Y-81609432D01*
X157053859Y-81655140D01*
X157077959Y-81702251D01*
X157099721Y-81750733D01*
X157118949Y-81800556D01*
X157135449Y-81851692D01*
X157149023Y-81904108D01*
X157159475Y-81957776D01*
X157166610Y-82012665D01*
X157170232Y-82068745D01*
X157170144Y-82125987D01*
X157166151Y-82184359D01*
X157158056Y-82243832D01*
X157145663Y-82304376D01*
X157128777Y-82365961D01*
X157107201Y-82428557D01*
X157078522Y-82486985D01*
X157047078Y-82543635D01*
X157012956Y-82598428D01*
X156976246Y-82651281D01*
X156937038Y-82702112D01*
X156895421Y-82750841D01*
X156851484Y-82797385D01*
X156805316Y-82841664D01*
X156757006Y-82883596D01*
X156706644Y-82923100D01*
X156654319Y-82960094D01*
X156600119Y-82994496D01*
X156544136Y-83026226D01*
X156486456Y-83055203D01*
X156427171Y-83081343D01*
X156366368Y-83104567D01*
X156322291Y-83117686D01*
X156277787Y-83129062D01*
X156232907Y-83138687D01*
X156187703Y-83146552D01*
X156142226Y-83152651D01*
X156096530Y-83156974D01*
X156050665Y-83159513D01*
X156004683Y-83160262D01*
X156005344Y-83159865D01*
X155947114Y-83158555D01*
X155888166Y-83154626D01*
X155828510Y-83148079D01*
X155768154Y-83138915D01*
X155707106Y-83127135D01*
X155645376Y-83112740D01*
X155582971Y-83095730D01*
X155519900Y-83076108D01*
X155456172Y-83053873D01*
X155391795Y-83029027D01*
X155326778Y-83001570D01*
X155261129Y-82971504D01*
X155194857Y-82938830D01*
X155127971Y-82903549D01*
X155060478Y-82865660D01*
X154992387Y-82825167D01*
X154989759Y-82823597D01*
X154987196Y-82821947D01*
X154984699Y-82820220D01*
X154982269Y-82818417D01*
X154979908Y-82816542D01*
X154977617Y-82814595D01*
X154975396Y-82812580D01*
X154973248Y-82810498D01*
X154971172Y-82808351D01*
X154969172Y-82806141D01*
X154967247Y-82803871D01*
X154965399Y-82801542D01*
X154963629Y-82799157D01*
X154961939Y-82796717D01*
X154960329Y-82794226D01*
X154958801Y-82791684D01*
X154957356Y-82789094D01*
X154955996Y-82786458D01*
X154954720Y-82783778D01*
X154953532Y-82781056D01*
X154952431Y-82778294D01*
X154951419Y-82775495D01*
X154950497Y-82772661D01*
X154949667Y-82769792D01*
X154948930Y-82766893D01*
X154948286Y-82763964D01*
X154947737Y-82761008D01*
X154947285Y-82758026D01*
X154946930Y-82755022D01*
X154946674Y-82751997D01*
X154946518Y-82748953D01*
X154946463Y-82745892D01*
X154946658Y-82739786D01*
X154947253Y-82733755D01*
X154948238Y-82727815D01*
X154949604Y-82721983D01*
X154951341Y-82716275D01*
X154953439Y-82710709D01*
X154955889Y-82705301D01*
X154958681Y-82700067D01*
X154961805Y-82695025D01*
X154965252Y-82690191D01*
X154969013Y-82685582D01*
X154973077Y-82681215D01*
X154977436Y-82677106D01*
X154982078Y-82673272D01*
X154986996Y-82669729D01*
X154992178Y-82666495D01*
X154997564Y-82663613D01*
X155003086Y-82661114D01*
X155008723Y-82658999D01*
X155014457Y-82657267D01*
X155020269Y-82655919D01*
X155026138Y-82654955D01*
X155032047Y-82654374D01*
X155037975Y-82654177D01*
X155043904Y-82654363D01*
X155049814Y-82654934D01*
X155055685Y-82655887D01*
X155061499Y-82657225D01*
X155067237Y-82658947D01*
X155072878Y-82661052D01*
X155078403Y-82663541D01*
X155083795Y-82666414D01*
X155087769Y-82668666D01*
X155174321Y-82719580D01*
X155259587Y-82765907D01*
X155343549Y-82807643D01*
X155426190Y-82844783D01*
X155507493Y-82877324D01*
X155587439Y-82905261D01*
X155666011Y-82928589D01*
X155743192Y-82947305D01*
X155818964Y-82961404D01*
X155893308Y-82970882D01*
X155966208Y-82975735D01*
X156037646Y-82975959D01*
X156107605Y-82971548D01*
X156176066Y-82962500D01*
X156243011Y-82948809D01*
X156308425Y-82930471D01*
X156359662Y-82910432D01*
X156409644Y-82888004D01*
X156458298Y-82863253D01*
X156505552Y-82836242D01*
X156551336Y-82807037D01*
X156595578Y-82775702D01*
X156638206Y-82742303D01*
X156679150Y-82706904D01*
X156718337Y-82669570D01*
X156755696Y-82630366D01*
X156791157Y-82589357D01*
X156824646Y-82546607D01*
X156856094Y-82502182D01*
X156885429Y-82456146D01*
X156912578Y-82408564D01*
X156937471Y-82359500D01*
X156955195Y-82308154D01*
X156969021Y-82257833D01*
X156979126Y-82208550D01*
X156985688Y-82160320D01*
X156988885Y-82113154D01*
X156988893Y-82067067D01*
X156985891Y-82022073D01*
X156980057Y-81978184D01*
X156971567Y-81935414D01*
X156960599Y-81893777D01*
X156947332Y-81853286D01*
X156931941Y-81813955D01*
X156914606Y-81775796D01*
X156895503Y-81738823D01*
X156852705Y-81668491D01*
X156804968Y-81603066D01*
X156753712Y-81542655D01*
X156700358Y-81487366D01*
X156646326Y-81437306D01*
X156593037Y-81392582D01*
X156541910Y-81353304D01*
X156451829Y-81291510D01*
X156424313Y-81351956D01*
X156393727Y-81409038D01*
X156360321Y-81462849D01*
X156324347Y-81513487D01*
X156286056Y-81561047D01*
X156245699Y-81605623D01*
X156203529Y-81647311D01*
X156159795Y-81686206D01*
X156114750Y-81722404D01*
X156068644Y-81756001D01*
X156021730Y-81787091D01*
X155974258Y-81815771D01*
X155878647Y-81866278D01*
X155783822Y-81908287D01*
X155691794Y-81942559D01*
X155604573Y-81969858D01*
X155524170Y-81990948D01*
X155452597Y-82006592D01*
X155343979Y-82024591D01*
X155294806Y-82029962D01*
X155290362Y-82029847D01*
X155285970Y-82029524D01*
X155281635Y-82028995D01*
X155277363Y-82028266D01*
X155273158Y-82027342D01*
X155269025Y-82026227D01*
X155264971Y-82024926D01*
X155260999Y-82023444D01*
X155257115Y-82021785D01*
X155253323Y-82019955D01*
X155249630Y-82017957D01*
X155246040Y-82015797D01*
X155242558Y-82013479D01*
X155239189Y-82011007D01*
X155235939Y-82008388D01*
X155232811Y-82005625D01*
X155229813Y-82002723D01*
X155226948Y-81999686D01*
X155224222Y-81996521D01*
X155221639Y-81993230D01*
X155219206Y-81989819D01*
X155216926Y-81986293D01*
X155214805Y-81982656D01*
X155212849Y-81978913D01*
X155211061Y-81975068D01*
X155209448Y-81971127D01*
X155208015Y-81967095D01*
X155206766Y-81962975D01*
X155205706Y-81958772D01*
X155204841Y-81954492D01*
X155204176Y-81950138D01*
X155203715Y-81945716D01*
X155203467Y-81941278D01*
X155203432Y-81936874D01*
X155203605Y-81932510D01*
X155203983Y-81928193D01*
X155204561Y-81923927D01*
X155205336Y-81919717D01*
X155206302Y-81915570D01*
X155207455Y-81911490D01*
X155208792Y-81907484D01*
X155210307Y-81903556D01*
X155211997Y-81899712D01*
X155213858Y-81895958D01*
X155215884Y-81892298D01*
X155218072Y-81888739D01*
X155220418Y-81885286D01*
X155222917Y-81881944D01*
X155225565Y-81878719D01*
X155228358Y-81875616D01*
X155231291Y-81872641D01*
X155234360Y-81869799D01*
X155237561Y-81867095D01*
X155240890Y-81864535D01*
X155244342Y-81862125D01*
X155247913Y-81859870D01*
X155251599Y-81857775D01*
X155255395Y-81855846D01*
X155259297Y-81854089D01*
X155263302Y-81852508D01*
X155267404Y-81851109D01*
X155271600Y-81849898D01*
X155275884Y-81848880D01*
X155280254Y-81848061D01*
X155319388Y-81843422D01*
X155418900Y-81826135D01*
X155485888Y-81810935D01*
X155561479Y-81790397D01*
X155643509Y-81763795D01*
X155729814Y-81730404D01*
X155818231Y-81689499D01*
X155862555Y-81666001D01*
X155906595Y-81640354D01*
X155950082Y-81612465D01*
X155992744Y-81582244D01*
X156034311Y-81549601D01*
X156074512Y-81514444D01*
X156113078Y-81476683D01*
X156149737Y-81436228D01*
X156184219Y-81392988D01*
X156216254Y-81346871D01*
X156245571Y-81297789D01*
X156271899Y-81245648D01*
X156294969Y-81190360D01*
X156314510Y-81131834D01*
X156315897Y-81127509D01*
X156317489Y-81123278D01*
X156319281Y-81119144D01*
X156321269Y-81115116D01*
X156323446Y-81111199D01*
X156325809Y-81107400D01*
X156328351Y-81103725D01*
X156331067Y-81100181D01*
X156333954Y-81096772D01*
X156337005Y-81093507D01*
X156340215Y-81090392D01*
X156343579Y-81087432D01*
X156347093Y-81084633D01*
X156350751Y-81082003D01*
X156354547Y-81079548D01*
X156358478Y-81077274D01*
X156362517Y-81075197D01*
X156366635Y-81073331D01*
X156370825Y-81071676D01*
X156375079Y-81070233D01*
X156379388Y-81069004D01*
X156383745Y-81067988D01*
X156388141Y-81067187D01*
X156392569Y-81066602D01*
X156397020Y-81066233D01*
X156401486Y-81066082D01*
X156405959Y-81066149D01*
G37*
X156405959Y-81066149D02*
X156410431Y-81066435D01*
X156414894Y-81066941D01*
X156419340Y-81067668D01*
X156423761Y-81068617D01*
X156428149Y-81069789D01*
X156430174Y-81070411D01*
X156432185Y-81071079D01*
X156434180Y-81071790D01*
X156436159Y-81072546D01*
X156438120Y-81073346D01*
X156440062Y-81074190D01*
X156441987Y-81075077D01*
X156443891Y-81076007D01*
X156510376Y-81112471D01*
X156580843Y-81156468D01*
X156653723Y-81207757D01*
X156727448Y-81266097D01*
X156800450Y-81331248D01*
X156871160Y-81402968D01*
X156905166Y-81441217D01*
X156938011Y-81481017D01*
X156969499Y-81522340D01*
X156999433Y-81565155D01*
X157027619Y-81609432D01*
X157053859Y-81655140D01*
X157077959Y-81702251D01*
X157099721Y-81750733D01*
X157118949Y-81800556D01*
X157135449Y-81851692D01*
X157149023Y-81904108D01*
X157159475Y-81957776D01*
X157166610Y-82012665D01*
X157170232Y-82068745D01*
X157170144Y-82125987D01*
X157166151Y-82184359D01*
X157158056Y-82243832D01*
X157145663Y-82304376D01*
X157128777Y-82365961D01*
X157107201Y-82428557D01*
X157078522Y-82486985D01*
X157047078Y-82543635D01*
X157012956Y-82598428D01*
X156976246Y-82651281D01*
X156937038Y-82702112D01*
X156895421Y-82750841D01*
X156851484Y-82797385D01*
X156805316Y-82841664D01*
X156757006Y-82883596D01*
X156706644Y-82923100D01*
X156654319Y-82960094D01*
X156600119Y-82994496D01*
X156544136Y-83026226D01*
X156486456Y-83055203D01*
X156427171Y-83081343D01*
X156366368Y-83104567D01*
X156322291Y-83117686D01*
X156277787Y-83129062D01*
X156232907Y-83138687D01*
X156187703Y-83146552D01*
X156142226Y-83152651D01*
X156096530Y-83156974D01*
X156050665Y-83159513D01*
X156004683Y-83160262D01*
X156005344Y-83159865D01*
X155947114Y-83158555D01*
X155888166Y-83154626D01*
X155828510Y-83148079D01*
X155768154Y-83138915D01*
X155707106Y-83127135D01*
X155645376Y-83112740D01*
X155582971Y-83095730D01*
X155519900Y-83076108D01*
X155456172Y-83053873D01*
X155391795Y-83029027D01*
X155326778Y-83001570D01*
X155261129Y-82971504D01*
X155194857Y-82938830D01*
X155127971Y-82903549D01*
X155060478Y-82865660D01*
X154992387Y-82825167D01*
X154989759Y-82823597D01*
X154987196Y-82821947D01*
X154984699Y-82820220D01*
X154982269Y-82818417D01*
X154979908Y-82816542D01*
X154977617Y-82814595D01*
X154975396Y-82812580D01*
X154973248Y-82810498D01*
X154971172Y-82808351D01*
X154969172Y-82806141D01*
X154967247Y-82803871D01*
X154965399Y-82801542D01*
X154963629Y-82799157D01*
X154961939Y-82796717D01*
X154960329Y-82794226D01*
X154958801Y-82791684D01*
X154957356Y-82789094D01*
X154955996Y-82786458D01*
X154954720Y-82783778D01*
X154953532Y-82781056D01*
X154952431Y-82778294D01*
X154951419Y-82775495D01*
X154950497Y-82772661D01*
X154949667Y-82769792D01*
X154948930Y-82766893D01*
X154948286Y-82763964D01*
X154947737Y-82761008D01*
X154947285Y-82758026D01*
X154946930Y-82755022D01*
X154946674Y-82751997D01*
X154946518Y-82748953D01*
X154946463Y-82745892D01*
X154946658Y-82739786D01*
X154947253Y-82733755D01*
X154948238Y-82727815D01*
X154949604Y-82721983D01*
X154951341Y-82716275D01*
X154953439Y-82710709D01*
X154955889Y-82705301D01*
X154958681Y-82700067D01*
X154961805Y-82695025D01*
X154965252Y-82690191D01*
X154969013Y-82685582D01*
X154973077Y-82681215D01*
X154977436Y-82677106D01*
X154982078Y-82673272D01*
X154986996Y-82669729D01*
X154992178Y-82666495D01*
X154997564Y-82663613D01*
X155003086Y-82661114D01*
X155008723Y-82658999D01*
X155014457Y-82657267D01*
X155020269Y-82655919D01*
X155026138Y-82654955D01*
X155032047Y-82654374D01*
X155037975Y-82654177D01*
X155043904Y-82654363D01*
X155049814Y-82654934D01*
X155055685Y-82655887D01*
X155061499Y-82657225D01*
X155067237Y-82658947D01*
X155072878Y-82661052D01*
X155078403Y-82663541D01*
X155083795Y-82666414D01*
X155087769Y-82668666D01*
X155174321Y-82719580D01*
X155259587Y-82765907D01*
X155343549Y-82807643D01*
X155426190Y-82844783D01*
X155507493Y-82877324D01*
X155587439Y-82905261D01*
X155666011Y-82928589D01*
X155743192Y-82947305D01*
X155818964Y-82961404D01*
X155893308Y-82970882D01*
X155966208Y-82975735D01*
X156037646Y-82975959D01*
X156107605Y-82971548D01*
X156176066Y-82962500D01*
X156243011Y-82948809D01*
X156308425Y-82930471D01*
X156359662Y-82910432D01*
X156409644Y-82888004D01*
X156458298Y-82863253D01*
X156505552Y-82836242D01*
X156551336Y-82807037D01*
X156595578Y-82775702D01*
X156638206Y-82742303D01*
X156679150Y-82706904D01*
X156718337Y-82669570D01*
X156755696Y-82630366D01*
X156791157Y-82589357D01*
X156824646Y-82546607D01*
X156856094Y-82502182D01*
X156885429Y-82456146D01*
X156912578Y-82408564D01*
X156937471Y-82359500D01*
X156955195Y-82308154D01*
X156969021Y-82257833D01*
X156979126Y-82208550D01*
X156985688Y-82160320D01*
X156988885Y-82113154D01*
X156988893Y-82067067D01*
X156985891Y-82022073D01*
X156980057Y-81978184D01*
X156971567Y-81935414D01*
X156960599Y-81893777D01*
X156947332Y-81853286D01*
X156931941Y-81813955D01*
X156914606Y-81775796D01*
X156895503Y-81738823D01*
X156852705Y-81668491D01*
X156804968Y-81603066D01*
X156753712Y-81542655D01*
X156700358Y-81487366D01*
X156646326Y-81437306D01*
X156593037Y-81392582D01*
X156541910Y-81353304D01*
X156451829Y-81291510D01*
X156424313Y-81351956D01*
X156393727Y-81409038D01*
X156360321Y-81462849D01*
X156324347Y-81513487D01*
X156286056Y-81561047D01*
X156245699Y-81605623D01*
X156203529Y-81647311D01*
X156159795Y-81686206D01*
X156114750Y-81722404D01*
X156068644Y-81756001D01*
X156021730Y-81787091D01*
X155974258Y-81815771D01*
X155878647Y-81866278D01*
X155783822Y-81908287D01*
X155691794Y-81942559D01*
X155604573Y-81969858D01*
X155524170Y-81990948D01*
X155452597Y-82006592D01*
X155343979Y-82024591D01*
X155294806Y-82029962D01*
X155290362Y-82029847D01*
X155285970Y-82029524D01*
X155281635Y-82028995D01*
X155277363Y-82028266D01*
X155273158Y-82027342D01*
X155269025Y-82026227D01*
X155264971Y-82024926D01*
X155260999Y-82023444D01*
X155257115Y-82021785D01*
X155253323Y-82019955D01*
X155249630Y-82017957D01*
X155246040Y-82015797D01*
X155242558Y-82013479D01*
X155239189Y-82011007D01*
X155235939Y-82008388D01*
X155232811Y-82005625D01*
X155229813Y-82002723D01*
X155226948Y-81999686D01*
X155224222Y-81996521D01*
X155221639Y-81993230D01*
X155219206Y-81989819D01*
X155216926Y-81986293D01*
X155214805Y-81982656D01*
X155212849Y-81978913D01*
X155211061Y-81975068D01*
X155209448Y-81971127D01*
X155208015Y-81967095D01*
X155206766Y-81962975D01*
X155205706Y-81958772D01*
X155204841Y-81954492D01*
X155204176Y-81950138D01*
X155203715Y-81945716D01*
X155203467Y-81941278D01*
X155203432Y-81936874D01*
X155203605Y-81932510D01*
X155203983Y-81928193D01*
X155204561Y-81923927D01*
X155205336Y-81919717D01*
X155206302Y-81915570D01*
X155207455Y-81911490D01*
X155208792Y-81907484D01*
X155210307Y-81903556D01*
X155211997Y-81899712D01*
X155213858Y-81895958D01*
X155215884Y-81892298D01*
X155218072Y-81888739D01*
X155220418Y-81885286D01*
X155222917Y-81881944D01*
X155225565Y-81878719D01*
X155228358Y-81875616D01*
X155231291Y-81872641D01*
X155234360Y-81869799D01*
X155237561Y-81867095D01*
X155240890Y-81864535D01*
X155244342Y-81862125D01*
X155247913Y-81859870D01*
X155251599Y-81857775D01*
X155255395Y-81855846D01*
X155259297Y-81854089D01*
X155263302Y-81852508D01*
X155267404Y-81851109D01*
X155271600Y-81849898D01*
X155275884Y-81848880D01*
X155280254Y-81848061D01*
X155319388Y-81843422D01*
X155418900Y-81826135D01*
X155485888Y-81810935D01*
X155561479Y-81790397D01*
X155643509Y-81763795D01*
X155729814Y-81730404D01*
X155818231Y-81689499D01*
X155862555Y-81666001D01*
X155906595Y-81640354D01*
X155950082Y-81612465D01*
X155992744Y-81582244D01*
X156034311Y-81549601D01*
X156074512Y-81514444D01*
X156113078Y-81476683D01*
X156149737Y-81436228D01*
X156184219Y-81392988D01*
X156216254Y-81346871D01*
X156245571Y-81297789D01*
X156271899Y-81245648D01*
X156294969Y-81190360D01*
X156314510Y-81131834D01*
X156315897Y-81127509D01*
X156317489Y-81123278D01*
X156319281Y-81119144D01*
X156321269Y-81115116D01*
X156323446Y-81111199D01*
X156325809Y-81107400D01*
X156328351Y-81103725D01*
X156331067Y-81100181D01*
X156333954Y-81096772D01*
X156337005Y-81093507D01*
X156340215Y-81090392D01*
X156343579Y-81087432D01*
X156347093Y-81084633D01*
X156350751Y-81082003D01*
X156354547Y-81079548D01*
X156358478Y-81077274D01*
X156362517Y-81075197D01*
X156366635Y-81073331D01*
X156370825Y-81071676D01*
X156375079Y-81070233D01*
X156379388Y-81069004D01*
X156383745Y-81067988D01*
X156388141Y-81067187D01*
X156392569Y-81066602D01*
X156397020Y-81066233D01*
X156401486Y-81066082D01*
X156405959Y-81066149D01*
G36*
X154081696Y-82146699D02*
G01*
X154086046Y-82147082D01*
X154090361Y-82147670D01*
X154094634Y-82148461D01*
X154098857Y-82149452D01*
X154103023Y-82150639D01*
X154107125Y-82152020D01*
X154111156Y-82153591D01*
X154115108Y-82155350D01*
X154118976Y-82157294D01*
X154122751Y-82159419D01*
X154126426Y-82161723D01*
X154129994Y-82164203D01*
X154133448Y-82166855D01*
X154136780Y-82169677D01*
X154139985Y-82172666D01*
X154143054Y-82175818D01*
X154145980Y-82179132D01*
X154148756Y-82182602D01*
X154151376Y-82186228D01*
X154153831Y-82190006D01*
X154156115Y-82193932D01*
X154158220Y-82198004D01*
X154160140Y-82202219D01*
X154161848Y-82206524D01*
X154163324Y-82210864D01*
X154164571Y-82215231D01*
X154165593Y-82219619D01*
X154166391Y-82224020D01*
X154166968Y-82228427D01*
X154167329Y-82232833D01*
X154167474Y-82237230D01*
X154167408Y-82241612D01*
X154167132Y-82245970D01*
X154166650Y-82250298D01*
X154165964Y-82254589D01*
X154165078Y-82258835D01*
X154163994Y-82263029D01*
X154162715Y-82267164D01*
X154161243Y-82271232D01*
X154159582Y-82275227D01*
X154157734Y-82279141D01*
X154155703Y-82282967D01*
X154153490Y-82286698D01*
X154151099Y-82290326D01*
X154148533Y-82293844D01*
X154145794Y-82297246D01*
X154142885Y-82300523D01*
X154139809Y-82303668D01*
X154136569Y-82306675D01*
X154133168Y-82309537D01*
X154129608Y-82312244D01*
X154125892Y-82314792D01*
X154122023Y-82317172D01*
X154118005Y-82319377D01*
X154113838Y-82321400D01*
X154070158Y-82341922D01*
X153961494Y-82399799D01*
X153889887Y-82442460D01*
X153810547Y-82494115D01*
X153726312Y-82554650D01*
X153640019Y-82623951D01*
X153596988Y-82661853D01*
X153554506Y-82701902D01*
X153512928Y-82744086D01*
X153472610Y-82788390D01*
X153433905Y-82834798D01*
X153397169Y-82883298D01*
X153362756Y-82933874D01*
X153331021Y-82986513D01*
X153302318Y-83041199D01*
X153277003Y-83097920D01*
X153255430Y-83156659D01*
X153237953Y-83217403D01*
X153224928Y-83280138D01*
X153216708Y-83344849D01*
X153213650Y-83411522D01*
X153216107Y-83480143D01*
X153221254Y-83529646D01*
X153228936Y-83578576D01*
X153239105Y-83626846D01*
X153251716Y-83674370D01*
X153266723Y-83721061D01*
X153284078Y-83766832D01*
X153303735Y-83811595D01*
X153325648Y-83855265D01*
X153349771Y-83897755D01*
X153376057Y-83938977D01*
X153404460Y-83978844D01*
X153434933Y-84017271D01*
X153467430Y-84054170D01*
X153501905Y-84089454D01*
X153538311Y-84123036D01*
X153576601Y-84154830D01*
X153612400Y-84182137D01*
X153649409Y-84207382D01*
X153687540Y-84230540D01*
X153726705Y-84251589D01*
X153766812Y-84270504D01*
X153807775Y-84287262D01*
X153849503Y-84301839D01*
X153891908Y-84314213D01*
X153934900Y-84324359D01*
X153978390Y-84332255D01*
X154022290Y-84337876D01*
X154066509Y-84341199D01*
X154110960Y-84342201D01*
X154155553Y-84340858D01*
X154200198Y-84337146D01*
X154244807Y-84331043D01*
X154269691Y-84326415D01*
X154294420Y-84321158D01*
X154318982Y-84315275D01*
X154343366Y-84308771D01*
X154367560Y-84301650D01*
X154391553Y-84293917D01*
X154415333Y-84285577D01*
X154438888Y-84276635D01*
X154462207Y-84267094D01*
X154485279Y-84256959D01*
X154508092Y-84246235D01*
X154530634Y-84234926D01*
X154552895Y-84223037D01*
X154574862Y-84210572D01*
X154596524Y-84197537D01*
X154617869Y-84183935D01*
X154592069Y-84139250D01*
X154563567Y-84085889D01*
X154533606Y-84024491D01*
X154503429Y-83955694D01*
X154474278Y-83880136D01*
X154447396Y-83798456D01*
X154424026Y-83711291D01*
X154405409Y-83619281D01*
X154398272Y-83571658D01*
X154392789Y-83523063D01*
X154389116Y-83473576D01*
X154387408Y-83423276D01*
X154387821Y-83372243D01*
X154390509Y-83320558D01*
X154395628Y-83268299D01*
X154403334Y-83215547D01*
X154413781Y-83162382D01*
X154427125Y-83108883D01*
X154443522Y-83055130D01*
X154463126Y-83001202D01*
X154486094Y-82947181D01*
X154512579Y-82893144D01*
X154542739Y-82839173D01*
X154576727Y-82785347D01*
X154579457Y-82781528D01*
X154582345Y-82777890D01*
X154585384Y-82774435D01*
X154588566Y-82771164D01*
X154591882Y-82768078D01*
X154595325Y-82765180D01*
X154598887Y-82762471D01*
X154602559Y-82759952D01*
X154606335Y-82757626D01*
X154610206Y-82755492D01*
X154614165Y-82753554D01*
X154618202Y-82751812D01*
X154622311Y-82750268D01*
X154626484Y-82748924D01*
X154630712Y-82747781D01*
X154634988Y-82746841D01*
X154639304Y-82746105D01*
X154643652Y-82745575D01*
X154648024Y-82745252D01*
X154652412Y-82745138D01*
X154656808Y-82745234D01*
X154661204Y-82745543D01*
X154665593Y-82746064D01*
X154669967Y-82746801D01*
X154674317Y-82747755D01*
X154678636Y-82748927D01*
X154682916Y-82750318D01*
X154687149Y-82751931D01*
X154691326Y-82753766D01*
X154695441Y-82755825D01*
X154699485Y-82758111D01*
X154703451Y-82760624D01*
X154707285Y-82763333D01*
X154710938Y-82766202D01*
X154714410Y-82769222D01*
X154717698Y-82772386D01*
X154720802Y-82775685D01*
X154723718Y-82779112D01*
X154726447Y-82782659D01*
X154728986Y-82786318D01*
X154731333Y-82790081D01*
X154733487Y-82793941D01*
X154735447Y-82797888D01*
X154737211Y-82801916D01*
X154738777Y-82806017D01*
X154740144Y-82810182D01*
X154741310Y-82814404D01*
X154742273Y-82818675D01*
X154743033Y-82822987D01*
X154743586Y-82827332D01*
X154743933Y-82831702D01*
X154744071Y-82836089D01*
X154743998Y-82840486D01*
X154743714Y-82844884D01*
X154743216Y-82849276D01*
X154742502Y-82853653D01*
X154741573Y-82858008D01*
X154740424Y-82862334D01*
X154739056Y-82866621D01*
X154737467Y-82870862D01*
X154735654Y-82875050D01*
X154733617Y-82879176D01*
X154731353Y-82883232D01*
X154728862Y-82887212D01*
X154693870Y-82943320D01*
X154663717Y-82999572D01*
X154638164Y-83055847D01*
X154616969Y-83112022D01*
X154599892Y-83167979D01*
X154586692Y-83223595D01*
X154577129Y-83278750D01*
X154570962Y-83333322D01*
X154567950Y-83387191D01*
X154567853Y-83440236D01*
X154570430Y-83492336D01*
X154575441Y-83543369D01*
X154591801Y-83641755D01*
X154615009Y-83734424D01*
X154643138Y-83820410D01*
X154674265Y-83898746D01*
X154706464Y-83968462D01*
X154737810Y-84028593D01*
X154790247Y-84116226D01*
X154816175Y-84153904D01*
X154818807Y-84157601D01*
X154821242Y-84161408D01*
X154823479Y-84165315D01*
X154825514Y-84169317D01*
X154827347Y-84173403D01*
X154828974Y-84177567D01*
X154830394Y-84181801D01*
X154831606Y-84186097D01*
X154832606Y-84190447D01*
X154833393Y-84194843D01*
X154833966Y-84199277D01*
X154834321Y-84203742D01*
X154834457Y-84208229D01*
X154834371Y-84212730D01*
X154834063Y-84217239D01*
X154833530Y-84221746D01*
X154832773Y-84226221D01*
X154831801Y-84230634D01*
X154830616Y-84234977D01*
X154829223Y-84239245D01*
X154827626Y-84243429D01*
X154825829Y-84247523D01*
X154823836Y-84251520D01*
X154821653Y-84255412D01*
X154819281Y-84259194D01*
X154816727Y-84262857D01*
X154813994Y-84266395D01*
X154811085Y-84269801D01*
X154808006Y-84273067D01*
X154804761Y-84276188D01*
X154801353Y-84279155D01*
X154797786Y-84281962D01*
X154768765Y-84303598D01*
X154739150Y-84324313D01*
X154708965Y-84344096D01*
X154678230Y-84362938D01*
X154646970Y-84380828D01*
X154615207Y-84397758D01*
X154582962Y-84413717D01*
X154550259Y-84428695D01*
X154517121Y-84442682D01*
X154483568Y-84455668D01*
X154449626Y-84467644D01*
X154415314Y-84478600D01*
X154380658Y-84488525D01*
X154345677Y-84497409D01*
X154310397Y-84505244D01*
X154274837Y-84512018D01*
X154253953Y-84515293D01*
X154233012Y-84518139D01*
X154212023Y-84520555D01*
X154190990Y-84522541D01*
X154169921Y-84524096D01*
X154148822Y-84525221D01*
X154127700Y-84525913D01*
X154106562Y-84526173D01*
X154062840Y-84525072D01*
X154019340Y-84522141D01*
X153976115Y-84517399D01*
X153933220Y-84510865D01*
X153890708Y-84502557D01*
X153848634Y-84492495D01*
X153807050Y-84480697D01*
X153766010Y-84467183D01*
X153725569Y-84451972D01*
X153685781Y-84435082D01*
X153646698Y-84416533D01*
X153608375Y-84396343D01*
X153570866Y-84374532D01*
X153534224Y-84351118D01*
X153498503Y-84326120D01*
X153463757Y-84299558D01*
X153418040Y-84261603D01*
X153374575Y-84221512D01*
X153333417Y-84179389D01*
X153294622Y-84135336D01*
X153258245Y-84089458D01*
X153224341Y-84041859D01*
X153192966Y-83992642D01*
X153164176Y-83941912D01*
X153138025Y-83889772D01*
X153114570Y-83836325D01*
X153093865Y-83781677D01*
X153075967Y-83725930D01*
X153060930Y-83669188D01*
X153048811Y-83611556D01*
X153039664Y-83553136D01*
X153033545Y-83494034D01*
X153030424Y-83413419D01*
X153033358Y-83335286D01*
X153041965Y-83259636D01*
X153055862Y-83186472D01*
X153074668Y-83115794D01*
X153098002Y-83047604D01*
X153125480Y-82981904D01*
X153156721Y-82918695D01*
X153191342Y-82857979D01*
X153228963Y-82799757D01*
X153269200Y-82744030D01*
X153311672Y-82690801D01*
X153355997Y-82640071D01*
X153401792Y-82591841D01*
X153496268Y-82502888D01*
X153592042Y-82423954D01*
X153686060Y-82355053D01*
X153775265Y-82296195D01*
X153856601Y-82247393D01*
X153983443Y-82180008D01*
X154042136Y-82152993D01*
X154046482Y-82151392D01*
X154050857Y-82150023D01*
X154055254Y-82148884D01*
X154059666Y-82147971D01*
X154064085Y-82147281D01*
X154068505Y-82146813D01*
X154072918Y-82146561D01*
X154077318Y-82146524D01*
X154081696Y-82146699D01*
G37*
X154081696Y-82146699D02*
X154086046Y-82147082D01*
X154090361Y-82147670D01*
X154094634Y-82148461D01*
X154098857Y-82149452D01*
X154103023Y-82150639D01*
X154107125Y-82152020D01*
X154111156Y-82153591D01*
X154115108Y-82155350D01*
X154118976Y-82157294D01*
X154122751Y-82159419D01*
X154126426Y-82161723D01*
X154129994Y-82164203D01*
X154133448Y-82166855D01*
X154136780Y-82169677D01*
X154139985Y-82172666D01*
X154143054Y-82175818D01*
X154145980Y-82179132D01*
X154148756Y-82182602D01*
X154151376Y-82186228D01*
X154153831Y-82190006D01*
X154156115Y-82193932D01*
X154158220Y-82198004D01*
X154160140Y-82202219D01*
X154161848Y-82206524D01*
X154163324Y-82210864D01*
X154164571Y-82215231D01*
X154165593Y-82219619D01*
X154166391Y-82224020D01*
X154166968Y-82228427D01*
X154167329Y-82232833D01*
X154167474Y-82237230D01*
X154167408Y-82241612D01*
X154167132Y-82245970D01*
X154166650Y-82250298D01*
X154165964Y-82254589D01*
X154165078Y-82258835D01*
X154163994Y-82263029D01*
X154162715Y-82267164D01*
X154161243Y-82271232D01*
X154159582Y-82275227D01*
X154157734Y-82279141D01*
X154155703Y-82282967D01*
X154153490Y-82286698D01*
X154151099Y-82290326D01*
X154148533Y-82293844D01*
X154145794Y-82297246D01*
X154142885Y-82300523D01*
X154139809Y-82303668D01*
X154136569Y-82306675D01*
X154133168Y-82309537D01*
X154129608Y-82312244D01*
X154125892Y-82314792D01*
X154122023Y-82317172D01*
X154118005Y-82319377D01*
X154113838Y-82321400D01*
X154070158Y-82341922D01*
X153961494Y-82399799D01*
X153889887Y-82442460D01*
X153810547Y-82494115D01*
X153726312Y-82554650D01*
X153640019Y-82623951D01*
X153596988Y-82661853D01*
X153554506Y-82701902D01*
X153512928Y-82744086D01*
X153472610Y-82788390D01*
X153433905Y-82834798D01*
X153397169Y-82883298D01*
X153362756Y-82933874D01*
X153331021Y-82986513D01*
X153302318Y-83041199D01*
X153277003Y-83097920D01*
X153255430Y-83156659D01*
X153237953Y-83217403D01*
X153224928Y-83280138D01*
X153216708Y-83344849D01*
X153213650Y-83411522D01*
X153216107Y-83480143D01*
X153221254Y-83529646D01*
X153228936Y-83578576D01*
X153239105Y-83626846D01*
X153251716Y-83674370D01*
X153266723Y-83721061D01*
X153284078Y-83766832D01*
X153303735Y-83811595D01*
X153325648Y-83855265D01*
X153349771Y-83897755D01*
X153376057Y-83938977D01*
X153404460Y-83978844D01*
X153434933Y-84017271D01*
X153467430Y-84054170D01*
X153501905Y-84089454D01*
X153538311Y-84123036D01*
X153576601Y-84154830D01*
X153612400Y-84182137D01*
X153649409Y-84207382D01*
X153687540Y-84230540D01*
X153726705Y-84251589D01*
X153766812Y-84270504D01*
X153807775Y-84287262D01*
X153849503Y-84301839D01*
X153891908Y-84314213D01*
X153934900Y-84324359D01*
X153978390Y-84332255D01*
X154022290Y-84337876D01*
X154066509Y-84341199D01*
X154110960Y-84342201D01*
X154155553Y-84340858D01*
X154200198Y-84337146D01*
X154244807Y-84331043D01*
X154269691Y-84326415D01*
X154294420Y-84321158D01*
X154318982Y-84315275D01*
X154343366Y-84308771D01*
X154367560Y-84301650D01*
X154391553Y-84293917D01*
X154415333Y-84285577D01*
X154438888Y-84276635D01*
X154462207Y-84267094D01*
X154485279Y-84256959D01*
X154508092Y-84246235D01*
X154530634Y-84234926D01*
X154552895Y-84223037D01*
X154574862Y-84210572D01*
X154596524Y-84197537D01*
X154617869Y-84183935D01*
X154592069Y-84139250D01*
X154563567Y-84085889D01*
X154533606Y-84024491D01*
X154503429Y-83955694D01*
X154474278Y-83880136D01*
X154447396Y-83798456D01*
X154424026Y-83711291D01*
X154405409Y-83619281D01*
X154398272Y-83571658D01*
X154392789Y-83523063D01*
X154389116Y-83473576D01*
X154387408Y-83423276D01*
X154387821Y-83372243D01*
X154390509Y-83320558D01*
X154395628Y-83268299D01*
X154403334Y-83215547D01*
X154413781Y-83162382D01*
X154427125Y-83108883D01*
X154443522Y-83055130D01*
X154463126Y-83001202D01*
X154486094Y-82947181D01*
X154512579Y-82893144D01*
X154542739Y-82839173D01*
X154576727Y-82785347D01*
X154579457Y-82781528D01*
X154582345Y-82777890D01*
X154585384Y-82774435D01*
X154588566Y-82771164D01*
X154591882Y-82768078D01*
X154595325Y-82765180D01*
X154598887Y-82762471D01*
X154602559Y-82759952D01*
X154606335Y-82757626D01*
X154610206Y-82755492D01*
X154614165Y-82753554D01*
X154618202Y-82751812D01*
X154622311Y-82750268D01*
X154626484Y-82748924D01*
X154630712Y-82747781D01*
X154634988Y-82746841D01*
X154639304Y-82746105D01*
X154643652Y-82745575D01*
X154648024Y-82745252D01*
X154652412Y-82745138D01*
X154656808Y-82745234D01*
X154661204Y-82745543D01*
X154665593Y-82746064D01*
X154669967Y-82746801D01*
X154674317Y-82747755D01*
X154678636Y-82748927D01*
X154682916Y-82750318D01*
X154687149Y-82751931D01*
X154691326Y-82753766D01*
X154695441Y-82755825D01*
X154699485Y-82758111D01*
X154703451Y-82760624D01*
X154707285Y-82763333D01*
X154710938Y-82766202D01*
X154714410Y-82769222D01*
X154717698Y-82772386D01*
X154720802Y-82775685D01*
X154723718Y-82779112D01*
X154726447Y-82782659D01*
X154728986Y-82786318D01*
X154731333Y-82790081D01*
X154733487Y-82793941D01*
X154735447Y-82797888D01*
X154737211Y-82801916D01*
X154738777Y-82806017D01*
X154740144Y-82810182D01*
X154741310Y-82814404D01*
X154742273Y-82818675D01*
X154743033Y-82822987D01*
X154743586Y-82827332D01*
X154743933Y-82831702D01*
X154744071Y-82836089D01*
X154743998Y-82840486D01*
X154743714Y-82844884D01*
X154743216Y-82849276D01*
X154742502Y-82853653D01*
X154741573Y-82858008D01*
X154740424Y-82862334D01*
X154739056Y-82866621D01*
X154737467Y-82870862D01*
X154735654Y-82875050D01*
X154733617Y-82879176D01*
X154731353Y-82883232D01*
X154728862Y-82887212D01*
X154693870Y-82943320D01*
X154663717Y-82999572D01*
X154638164Y-83055847D01*
X154616969Y-83112022D01*
X154599892Y-83167979D01*
X154586692Y-83223595D01*
X154577129Y-83278750D01*
X154570962Y-83333322D01*
X154567950Y-83387191D01*
X154567853Y-83440236D01*
X154570430Y-83492336D01*
X154575441Y-83543369D01*
X154591801Y-83641755D01*
X154615009Y-83734424D01*
X154643138Y-83820410D01*
X154674265Y-83898746D01*
X154706464Y-83968462D01*
X154737810Y-84028593D01*
X154790247Y-84116226D01*
X154816175Y-84153904D01*
X154818807Y-84157601D01*
X154821242Y-84161408D01*
X154823479Y-84165315D01*
X154825514Y-84169317D01*
X154827347Y-84173403D01*
X154828974Y-84177567D01*
X154830394Y-84181801D01*
X154831606Y-84186097D01*
X154832606Y-84190447D01*
X154833393Y-84194843D01*
X154833966Y-84199277D01*
X154834321Y-84203742D01*
X154834457Y-84208229D01*
X154834371Y-84212730D01*
X154834063Y-84217239D01*
X154833530Y-84221746D01*
X154832773Y-84226221D01*
X154831801Y-84230634D01*
X154830616Y-84234977D01*
X154829223Y-84239245D01*
X154827626Y-84243429D01*
X154825829Y-84247523D01*
X154823836Y-84251520D01*
X154821653Y-84255412D01*
X154819281Y-84259194D01*
X154816727Y-84262857D01*
X154813994Y-84266395D01*
X154811085Y-84269801D01*
X154808006Y-84273067D01*
X154804761Y-84276188D01*
X154801353Y-84279155D01*
X154797786Y-84281962D01*
X154768765Y-84303598D01*
X154739150Y-84324313D01*
X154708965Y-84344096D01*
X154678230Y-84362938D01*
X154646970Y-84380828D01*
X154615207Y-84397758D01*
X154582962Y-84413717D01*
X154550259Y-84428695D01*
X154517121Y-84442682D01*
X154483568Y-84455668D01*
X154449626Y-84467644D01*
X154415314Y-84478600D01*
X154380658Y-84488525D01*
X154345677Y-84497409D01*
X154310397Y-84505244D01*
X154274837Y-84512018D01*
X154253953Y-84515293D01*
X154233012Y-84518139D01*
X154212023Y-84520555D01*
X154190990Y-84522541D01*
X154169921Y-84524096D01*
X154148822Y-84525221D01*
X154127700Y-84525913D01*
X154106562Y-84526173D01*
X154062840Y-84525072D01*
X154019340Y-84522141D01*
X153976115Y-84517399D01*
X153933220Y-84510865D01*
X153890708Y-84502557D01*
X153848634Y-84492495D01*
X153807050Y-84480697D01*
X153766010Y-84467183D01*
X153725569Y-84451972D01*
X153685781Y-84435082D01*
X153646698Y-84416533D01*
X153608375Y-84396343D01*
X153570866Y-84374532D01*
X153534224Y-84351118D01*
X153498503Y-84326120D01*
X153463757Y-84299558D01*
X153418040Y-84261603D01*
X153374575Y-84221512D01*
X153333417Y-84179389D01*
X153294622Y-84135336D01*
X153258245Y-84089458D01*
X153224341Y-84041859D01*
X153192966Y-83992642D01*
X153164176Y-83941912D01*
X153138025Y-83889772D01*
X153114570Y-83836325D01*
X153093865Y-83781677D01*
X153075967Y-83725930D01*
X153060930Y-83669188D01*
X153048811Y-83611556D01*
X153039664Y-83553136D01*
X153033545Y-83494034D01*
X153030424Y-83413419D01*
X153033358Y-83335286D01*
X153041965Y-83259636D01*
X153055862Y-83186472D01*
X153074668Y-83115794D01*
X153098002Y-83047604D01*
X153125480Y-82981904D01*
X153156721Y-82918695D01*
X153191342Y-82857979D01*
X153228963Y-82799757D01*
X153269200Y-82744030D01*
X153311672Y-82690801D01*
X153355997Y-82640071D01*
X153401792Y-82591841D01*
X153496268Y-82502888D01*
X153592042Y-82423954D01*
X153686060Y-82355053D01*
X153775265Y-82296195D01*
X153856601Y-82247393D01*
X153983443Y-82180008D01*
X154042136Y-82152993D01*
X154046482Y-82151392D01*
X154050857Y-82150023D01*
X154055254Y-82148884D01*
X154059666Y-82147971D01*
X154064085Y-82147281D01*
X154068505Y-82146813D01*
X154072918Y-82146561D01*
X154077318Y-82146524D01*
X154081696Y-82146699D01*
G36*
X153981141Y-79997268D02*
G01*
X154039379Y-80000691D01*
X154097401Y-80007104D01*
X154155089Y-80016504D01*
X154212324Y-80028886D01*
X154268988Y-80044247D01*
X154324964Y-80062582D01*
X154380135Y-80083888D01*
X154434381Y-80108161D01*
X154505792Y-80145802D01*
X154572020Y-80187440D01*
X154633254Y-80232743D01*
X154689684Y-80281380D01*
X154741500Y-80333020D01*
X154788894Y-80387332D01*
X154832054Y-80443984D01*
X154871171Y-80502646D01*
X154906435Y-80562986D01*
X154938037Y-80624673D01*
X154966166Y-80687376D01*
X154991012Y-80750763D01*
X155031619Y-80878267D01*
X155061377Y-81004536D01*
X155081809Y-81126919D01*
X155094436Y-81242768D01*
X155100779Y-81349434D01*
X155102359Y-81444265D01*
X155097315Y-81587831D01*
X155091474Y-81652269D01*
X155090742Y-81656907D01*
X155089787Y-81661454D01*
X155088617Y-81665905D01*
X155087236Y-81670254D01*
X155085651Y-81674498D01*
X155083870Y-81678632D01*
X155081897Y-81682649D01*
X155079740Y-81686546D01*
X155077405Y-81690317D01*
X155074898Y-81693958D01*
X155072225Y-81697464D01*
X155069394Y-81700829D01*
X155066410Y-81704049D01*
X155063280Y-81707119D01*
X155060010Y-81710034D01*
X155056607Y-81712789D01*
X155053076Y-81715379D01*
X155049425Y-81717800D01*
X155045660Y-81720046D01*
X155041786Y-81722112D01*
X155037811Y-81723993D01*
X155033741Y-81725685D01*
X155029582Y-81727183D01*
X155025340Y-81728482D01*
X155021023Y-81729576D01*
X155016635Y-81730461D01*
X155012185Y-81731132D01*
X155007677Y-81731584D01*
X155003119Y-81731813D01*
X154998517Y-81731812D01*
X154993877Y-81731578D01*
X154989206Y-81731105D01*
X154984564Y-81730398D01*
X154980012Y-81729467D01*
X154975556Y-81728319D01*
X154971199Y-81726961D01*
X154966946Y-81725399D01*
X154962804Y-81723639D01*
X154958776Y-81721687D01*
X154954868Y-81719550D01*
X154951085Y-81717235D01*
X154947431Y-81714747D01*
X154943911Y-81712093D01*
X154940531Y-81709279D01*
X154937296Y-81706312D01*
X154934209Y-81703198D01*
X154931277Y-81699944D01*
X154928504Y-81696555D01*
X154925896Y-81693038D01*
X154923457Y-81689399D01*
X154921191Y-81685645D01*
X154919105Y-81681783D01*
X154917203Y-81677818D01*
X154915489Y-81673756D01*
X154913970Y-81669605D01*
X154912649Y-81665370D01*
X154911533Y-81661059D01*
X154910625Y-81656676D01*
X154909930Y-81652229D01*
X154909455Y-81647724D01*
X154909202Y-81643167D01*
X154909179Y-81638565D01*
X154909389Y-81633924D01*
X154909837Y-81629250D01*
X154913920Y-81581190D01*
X154918139Y-81458162D01*
X154917001Y-81374823D01*
X154911939Y-81280288D01*
X154901635Y-81177071D01*
X154884768Y-81067689D01*
X154860019Y-80954655D01*
X154844277Y-80897555D01*
X154826070Y-80840486D01*
X154805232Y-80783761D01*
X154781600Y-80727696D01*
X154755008Y-80672604D01*
X154725290Y-80618800D01*
X154692284Y-80566599D01*
X154655822Y-80516315D01*
X154615741Y-80468261D01*
X154571875Y-80422754D01*
X154524061Y-80380106D01*
X154472131Y-80340633D01*
X154415923Y-80304648D01*
X154355271Y-80272467D01*
X154309777Y-80252128D01*
X154263510Y-80234276D01*
X154216568Y-80218915D01*
X154169049Y-80206048D01*
X154121053Y-80195677D01*
X154072679Y-80187807D01*
X154024024Y-80182440D01*
X153975188Y-80179580D01*
X153926270Y-80179230D01*
X153877368Y-80181393D01*
X153828581Y-80186073D01*
X153780009Y-80193272D01*
X153731748Y-80202995D01*
X153683899Y-80215243D01*
X153636561Y-80230021D01*
X153589831Y-80247332D01*
X153548333Y-80264638D01*
X153508011Y-80284019D01*
X153468930Y-80305410D01*
X153431155Y-80328747D01*
X153394750Y-80353963D01*
X153359781Y-80380995D01*
X153326312Y-80409776D01*
X153294407Y-80440242D01*
X153264132Y-80472327D01*
X153235551Y-80505968D01*
X153208728Y-80541097D01*
X153183730Y-80577652D01*
X153160619Y-80615565D01*
X153139461Y-80654773D01*
X153120320Y-80695210D01*
X153103262Y-80736811D01*
X153094855Y-80760696D01*
X153087070Y-80784761D01*
X153079911Y-80808993D01*
X153073378Y-80833380D01*
X153067473Y-80857911D01*
X153062199Y-80882572D01*
X153057558Y-80907351D01*
X153053550Y-80932237D01*
X153050177Y-80957217D01*
X153047443Y-80982279D01*
X153045347Y-81007411D01*
X153043893Y-81032600D01*
X153043082Y-81057834D01*
X153042916Y-81083101D01*
X153043396Y-81108389D01*
X153044525Y-81133685D01*
X153157589Y-81135736D01*
X153226041Y-81140513D01*
X153300894Y-81148800D01*
X153380988Y-81161353D01*
X153465164Y-81178929D01*
X153552264Y-81202285D01*
X153641127Y-81232177D01*
X153730595Y-81269361D01*
X153775194Y-81290924D01*
X153819508Y-81314595D01*
X153863395Y-81340466D01*
X153906708Y-81368634D01*
X153949303Y-81399192D01*
X153991034Y-81432235D01*
X154031758Y-81467858D01*
X154071329Y-81506155D01*
X154109601Y-81547221D01*
X154146431Y-81591150D01*
X154181673Y-81638038D01*
X154215183Y-81687977D01*
X154246815Y-81741064D01*
X154276425Y-81797393D01*
X154278386Y-81801673D01*
X154280110Y-81806001D01*
X154281601Y-81810369D01*
X154282859Y-81814769D01*
X154283888Y-81819193D01*
X154284691Y-81823634D01*
X154285269Y-81828084D01*
X154285627Y-81832535D01*
X154285766Y-81836981D01*
X154285689Y-81841412D01*
X154285398Y-81845822D01*
X154284896Y-81850203D01*
X154284187Y-81854547D01*
X154283271Y-81858847D01*
X154282153Y-81863094D01*
X154280835Y-81867282D01*
X154279318Y-81871402D01*
X154277607Y-81875447D01*
X154275703Y-81879409D01*
X154273609Y-81883280D01*
X154271328Y-81887054D01*
X154268862Y-81890721D01*
X154266214Y-81894276D01*
X154263386Y-81897709D01*
X154260382Y-81901013D01*
X154257204Y-81904181D01*
X154253853Y-81907205D01*
X154250334Y-81910077D01*
X154246649Y-81912790D01*
X154242800Y-81915336D01*
X154238789Y-81917706D01*
X154234621Y-81919895D01*
X154232244Y-81921010D01*
X154229839Y-81922053D01*
X154227407Y-81923024D01*
X154224951Y-81923922D01*
X154222471Y-81924747D01*
X154219970Y-81925498D01*
X154217449Y-81926176D01*
X154214910Y-81926779D01*
X154212354Y-81927308D01*
X154209784Y-81927762D01*
X154207200Y-81928140D01*
X154204605Y-81928443D01*
X154201999Y-81928670D01*
X154199385Y-81928820D01*
X154196765Y-81928894D01*
X154194139Y-81928891D01*
X154193875Y-81929156D01*
X154187362Y-81928948D01*
X154180938Y-81928285D01*
X154174625Y-81927180D01*
X154168442Y-81925643D01*
X154162408Y-81923688D01*
X154156543Y-81921326D01*
X154150868Y-81918571D01*
X154145402Y-81915435D01*
X154140165Y-81911929D01*
X154135177Y-81908067D01*
X154130458Y-81903860D01*
X154126027Y-81899321D01*
X154121905Y-81894463D01*
X154118112Y-81889296D01*
X154114666Y-81883835D01*
X154111589Y-81878091D01*
X154080302Y-81819526D01*
X154046353Y-81765126D01*
X154009980Y-81714739D01*
X153971421Y-81668213D01*
X153930916Y-81625399D01*
X153888700Y-81586145D01*
X153845014Y-81550299D01*
X153800094Y-81517712D01*
X153754179Y-81488231D01*
X153707508Y-81461706D01*
X153660317Y-81437986D01*
X153612845Y-81416919D01*
X153518012Y-81382142D01*
X153424913Y-81356167D01*
X153335452Y-81337786D01*
X153251535Y-81325789D01*
X153175065Y-81318968D01*
X153107948Y-81316116D01*
X153009392Y-81317481D01*
X152971103Y-81320217D01*
X152966440Y-81320651D01*
X152961811Y-81320848D01*
X152957221Y-81320813D01*
X152952677Y-81320550D01*
X152948185Y-81320064D01*
X152943751Y-81319361D01*
X152939382Y-81318445D01*
X152935084Y-81317321D01*
X152930863Y-81315994D01*
X152926725Y-81314469D01*
X152922678Y-81312751D01*
X152918727Y-81310845D01*
X152914878Y-81308757D01*
X152911139Y-81306489D01*
X152907514Y-81304049D01*
X152904011Y-81301440D01*
X152900636Y-81298668D01*
X152897395Y-81295738D01*
X152894294Y-81292654D01*
X152891340Y-81289421D01*
X152888539Y-81286045D01*
X152885898Y-81282531D01*
X152883422Y-81278882D01*
X152881118Y-81275105D01*
X152878992Y-81271204D01*
X152877051Y-81267183D01*
X152875301Y-81263049D01*
X152873748Y-81258806D01*
X152872399Y-81254459D01*
X152871259Y-81250013D01*
X152870336Y-81245472D01*
X152869635Y-81240842D01*
X152865437Y-81204914D01*
X152862330Y-81168933D01*
X152860312Y-81132924D01*
X152859380Y-81096911D01*
X152859532Y-81060918D01*
X152860764Y-81024971D01*
X152863074Y-80989092D01*
X152866460Y-80953307D01*
X152870919Y-80917640D01*
X152876448Y-80882114D01*
X152883045Y-80846756D01*
X152890706Y-80811588D01*
X152899429Y-80776635D01*
X152909212Y-80741921D01*
X152920051Y-80707472D01*
X152931945Y-80673310D01*
X152952582Y-80622782D01*
X152975747Y-80573661D01*
X153001360Y-80526027D01*
X153029343Y-80479959D01*
X153059619Y-80435535D01*
X153092109Y-80392835D01*
X153126734Y-80351937D01*
X153163417Y-80312920D01*
X153202080Y-80275864D01*
X153242644Y-80240848D01*
X153285030Y-80207950D01*
X153329161Y-80177249D01*
X153374959Y-80148824D01*
X153422345Y-80122755D01*
X153471241Y-80099120D01*
X153521569Y-80077998D01*
X153577299Y-80057359D01*
X153633755Y-80039742D01*
X153690820Y-80025142D01*
X153748375Y-80013556D01*
X153806302Y-80004979D01*
X153864484Y-79999408D01*
X153922803Y-79996839D01*
X153981141Y-79997268D01*
G37*
X153981141Y-79997268D02*
X154039379Y-80000691D01*
X154097401Y-80007104D01*
X154155089Y-80016504D01*
X154212324Y-80028886D01*
X154268988Y-80044247D01*
X154324964Y-80062582D01*
X154380135Y-80083888D01*
X154434381Y-80108161D01*
X154505792Y-80145802D01*
X154572020Y-80187440D01*
X154633254Y-80232743D01*
X154689684Y-80281380D01*
X154741500Y-80333020D01*
X154788894Y-80387332D01*
X154832054Y-80443984D01*
X154871171Y-80502646D01*
X154906435Y-80562986D01*
X154938037Y-80624673D01*
X154966166Y-80687376D01*
X154991012Y-80750763D01*
X155031619Y-80878267D01*
X155061377Y-81004536D01*
X155081809Y-81126919D01*
X155094436Y-81242768D01*
X155100779Y-81349434D01*
X155102359Y-81444265D01*
X155097315Y-81587831D01*
X155091474Y-81652269D01*
X155090742Y-81656907D01*
X155089787Y-81661454D01*
X155088617Y-81665905D01*
X155087236Y-81670254D01*
X155085651Y-81674498D01*
X155083870Y-81678632D01*
X155081897Y-81682649D01*
X155079740Y-81686546D01*
X155077405Y-81690317D01*
X155074898Y-81693958D01*
X155072225Y-81697464D01*
X155069394Y-81700829D01*
X155066410Y-81704049D01*
X155063280Y-81707119D01*
X155060010Y-81710034D01*
X155056607Y-81712789D01*
X155053076Y-81715379D01*
X155049425Y-81717800D01*
X155045660Y-81720046D01*
X155041786Y-81722112D01*
X155037811Y-81723993D01*
X155033741Y-81725685D01*
X155029582Y-81727183D01*
X155025340Y-81728482D01*
X155021023Y-81729576D01*
X155016635Y-81730461D01*
X155012185Y-81731132D01*
X155007677Y-81731584D01*
X155003119Y-81731813D01*
X154998517Y-81731812D01*
X154993877Y-81731578D01*
X154989206Y-81731105D01*
X154984564Y-81730398D01*
X154980012Y-81729467D01*
X154975556Y-81728319D01*
X154971199Y-81726961D01*
X154966946Y-81725399D01*
X154962804Y-81723639D01*
X154958776Y-81721687D01*
X154954868Y-81719550D01*
X154951085Y-81717235D01*
X154947431Y-81714747D01*
X154943911Y-81712093D01*
X154940531Y-81709279D01*
X154937296Y-81706312D01*
X154934209Y-81703198D01*
X154931277Y-81699944D01*
X154928504Y-81696555D01*
X154925896Y-81693038D01*
X154923457Y-81689399D01*
X154921191Y-81685645D01*
X154919105Y-81681783D01*
X154917203Y-81677818D01*
X154915489Y-81673756D01*
X154913970Y-81669605D01*
X154912649Y-81665370D01*
X154911533Y-81661059D01*
X154910625Y-81656676D01*
X154909930Y-81652229D01*
X154909455Y-81647724D01*
X154909202Y-81643167D01*
X154909179Y-81638565D01*
X154909389Y-81633924D01*
X154909837Y-81629250D01*
X154913920Y-81581190D01*
X154918139Y-81458162D01*
X154917001Y-81374823D01*
X154911939Y-81280288D01*
X154901635Y-81177071D01*
X154884768Y-81067689D01*
X154860019Y-80954655D01*
X154844277Y-80897555D01*
X154826070Y-80840486D01*
X154805232Y-80783761D01*
X154781600Y-80727696D01*
X154755008Y-80672604D01*
X154725290Y-80618800D01*
X154692284Y-80566599D01*
X154655822Y-80516315D01*
X154615741Y-80468261D01*
X154571875Y-80422754D01*
X154524061Y-80380106D01*
X154472131Y-80340633D01*
X154415923Y-80304648D01*
X154355271Y-80272467D01*
X154309777Y-80252128D01*
X154263510Y-80234276D01*
X154216568Y-80218915D01*
X154169049Y-80206048D01*
X154121053Y-80195677D01*
X154072679Y-80187807D01*
X154024024Y-80182440D01*
X153975188Y-80179580D01*
X153926270Y-80179230D01*
X153877368Y-80181393D01*
X153828581Y-80186073D01*
X153780009Y-80193272D01*
X153731748Y-80202995D01*
X153683899Y-80215243D01*
X153636561Y-80230021D01*
X153589831Y-80247332D01*
X153548333Y-80264638D01*
X153508011Y-80284019D01*
X153468930Y-80305410D01*
X153431155Y-80328747D01*
X153394750Y-80353963D01*
X153359781Y-80380995D01*
X153326312Y-80409776D01*
X153294407Y-80440242D01*
X153264132Y-80472327D01*
X153235551Y-80505968D01*
X153208728Y-80541097D01*
X153183730Y-80577652D01*
X153160619Y-80615565D01*
X153139461Y-80654773D01*
X153120320Y-80695210D01*
X153103262Y-80736811D01*
X153094855Y-80760696D01*
X153087070Y-80784761D01*
X153079911Y-80808993D01*
X153073378Y-80833380D01*
X153067473Y-80857911D01*
X153062199Y-80882572D01*
X153057558Y-80907351D01*
X153053550Y-80932237D01*
X153050177Y-80957217D01*
X153047443Y-80982279D01*
X153045347Y-81007411D01*
X153043893Y-81032600D01*
X153043082Y-81057834D01*
X153042916Y-81083101D01*
X153043396Y-81108389D01*
X153044525Y-81133685D01*
X153157589Y-81135736D01*
X153226041Y-81140513D01*
X153300894Y-81148800D01*
X153380988Y-81161353D01*
X153465164Y-81178929D01*
X153552264Y-81202285D01*
X153641127Y-81232177D01*
X153730595Y-81269361D01*
X153775194Y-81290924D01*
X153819508Y-81314595D01*
X153863395Y-81340466D01*
X153906708Y-81368634D01*
X153949303Y-81399192D01*
X153991034Y-81432235D01*
X154031758Y-81467858D01*
X154071329Y-81506155D01*
X154109601Y-81547221D01*
X154146431Y-81591150D01*
X154181673Y-81638038D01*
X154215183Y-81687977D01*
X154246815Y-81741064D01*
X154276425Y-81797393D01*
X154278386Y-81801673D01*
X154280110Y-81806001D01*
X154281601Y-81810369D01*
X154282859Y-81814769D01*
X154283888Y-81819193D01*
X154284691Y-81823634D01*
X154285269Y-81828084D01*
X154285627Y-81832535D01*
X154285766Y-81836981D01*
X154285689Y-81841412D01*
X154285398Y-81845822D01*
X154284896Y-81850203D01*
X154284187Y-81854547D01*
X154283271Y-81858847D01*
X154282153Y-81863094D01*
X154280835Y-81867282D01*
X154279318Y-81871402D01*
X154277607Y-81875447D01*
X154275703Y-81879409D01*
X154273609Y-81883280D01*
X154271328Y-81887054D01*
X154268862Y-81890721D01*
X154266214Y-81894276D01*
X154263386Y-81897709D01*
X154260382Y-81901013D01*
X154257204Y-81904181D01*
X154253853Y-81907205D01*
X154250334Y-81910077D01*
X154246649Y-81912790D01*
X154242800Y-81915336D01*
X154238789Y-81917706D01*
X154234621Y-81919895D01*
X154232244Y-81921010D01*
X154229839Y-81922053D01*
X154227407Y-81923024D01*
X154224951Y-81923922D01*
X154222471Y-81924747D01*
X154219970Y-81925498D01*
X154217449Y-81926176D01*
X154214910Y-81926779D01*
X154212354Y-81927308D01*
X154209784Y-81927762D01*
X154207200Y-81928140D01*
X154204605Y-81928443D01*
X154201999Y-81928670D01*
X154199385Y-81928820D01*
X154196765Y-81928894D01*
X154194139Y-81928891D01*
X154193875Y-81929156D01*
X154187362Y-81928948D01*
X154180938Y-81928285D01*
X154174625Y-81927180D01*
X154168442Y-81925643D01*
X154162408Y-81923688D01*
X154156543Y-81921326D01*
X154150868Y-81918571D01*
X154145402Y-81915435D01*
X154140165Y-81911929D01*
X154135177Y-81908067D01*
X154130458Y-81903860D01*
X154126027Y-81899321D01*
X154121905Y-81894463D01*
X154118112Y-81889296D01*
X154114666Y-81883835D01*
X154111589Y-81878091D01*
X154080302Y-81819526D01*
X154046353Y-81765126D01*
X154009980Y-81714739D01*
X153971421Y-81668213D01*
X153930916Y-81625399D01*
X153888700Y-81586145D01*
X153845014Y-81550299D01*
X153800094Y-81517712D01*
X153754179Y-81488231D01*
X153707508Y-81461706D01*
X153660317Y-81437986D01*
X153612845Y-81416919D01*
X153518012Y-81382142D01*
X153424913Y-81356167D01*
X153335452Y-81337786D01*
X153251535Y-81325789D01*
X153175065Y-81318968D01*
X153107948Y-81316116D01*
X153009392Y-81317481D01*
X152971103Y-81320217D01*
X152966440Y-81320651D01*
X152961811Y-81320848D01*
X152957221Y-81320813D01*
X152952677Y-81320550D01*
X152948185Y-81320064D01*
X152943751Y-81319361D01*
X152939382Y-81318445D01*
X152935084Y-81317321D01*
X152930863Y-81315994D01*
X152926725Y-81314469D01*
X152922678Y-81312751D01*
X152918727Y-81310845D01*
X152914878Y-81308757D01*
X152911139Y-81306489D01*
X152907514Y-81304049D01*
X152904011Y-81301440D01*
X152900636Y-81298668D01*
X152897395Y-81295738D01*
X152894294Y-81292654D01*
X152891340Y-81289421D01*
X152888539Y-81286045D01*
X152885898Y-81282531D01*
X152883422Y-81278882D01*
X152881118Y-81275105D01*
X152878992Y-81271204D01*
X152877051Y-81267183D01*
X152875301Y-81263049D01*
X152873748Y-81258806D01*
X152872399Y-81254459D01*
X152871259Y-81250013D01*
X152870336Y-81245472D01*
X152869635Y-81240842D01*
X152865437Y-81204914D01*
X152862330Y-81168933D01*
X152860312Y-81132924D01*
X152859380Y-81096911D01*
X152859532Y-81060918D01*
X152860764Y-81024971D01*
X152863074Y-80989092D01*
X152866460Y-80953307D01*
X152870919Y-80917640D01*
X152876448Y-80882114D01*
X152883045Y-80846756D01*
X152890706Y-80811588D01*
X152899429Y-80776635D01*
X152909212Y-80741921D01*
X152920051Y-80707472D01*
X152931945Y-80673310D01*
X152952582Y-80622782D01*
X152975747Y-80573661D01*
X153001360Y-80526027D01*
X153029343Y-80479959D01*
X153059619Y-80435535D01*
X153092109Y-80392835D01*
X153126734Y-80351937D01*
X153163417Y-80312920D01*
X153202080Y-80275864D01*
X153242644Y-80240848D01*
X153285030Y-80207950D01*
X153329161Y-80177249D01*
X153374959Y-80148824D01*
X153422345Y-80122755D01*
X153471241Y-80099120D01*
X153521569Y-80077998D01*
X153577299Y-80057359D01*
X153633755Y-80039742D01*
X153690820Y-80025142D01*
X153748375Y-80013556D01*
X153806302Y-80004979D01*
X153864484Y-79999408D01*
X153922803Y-79996839D01*
X153981141Y-79997268D01*
G36*
X154780381Y-81481688D02*
G01*
X154833314Y-81488708D01*
X154885926Y-81499693D01*
X154938004Y-81514683D01*
X154989335Y-81533723D01*
X155014499Y-81544704D01*
X155039095Y-81556556D01*
X155063106Y-81569256D01*
X155086520Y-81582781D01*
X155109319Y-81597109D01*
X155131489Y-81612217D01*
X155153016Y-81628082D01*
X155173883Y-81644682D01*
X155194076Y-81661994D01*
X155213580Y-81679995D01*
X155232379Y-81698664D01*
X155250459Y-81717976D01*
X155267804Y-81737911D01*
X155284399Y-81758445D01*
X155300230Y-81779555D01*
X155315280Y-81801219D01*
X155329536Y-81823414D01*
X155342981Y-81846118D01*
X155355601Y-81869308D01*
X155367380Y-81892961D01*
X155378304Y-81917055D01*
X155388357Y-81941568D01*
X155397525Y-81966476D01*
X155405791Y-81991757D01*
X155413142Y-82017388D01*
X155419562Y-82043347D01*
X155425035Y-82069612D01*
X155429547Y-82096158D01*
X155433083Y-82122965D01*
X155435627Y-82150009D01*
X155437165Y-82177268D01*
X155437681Y-82204719D01*
X155436788Y-82240733D01*
X155434127Y-82276503D01*
X155429722Y-82311969D01*
X155423597Y-82347071D01*
X155415777Y-82381750D01*
X155406287Y-82415947D01*
X155395152Y-82449602D01*
X155382396Y-82482655D01*
X155368044Y-82515047D01*
X155352120Y-82546718D01*
X155334650Y-82577609D01*
X155315657Y-82607660D01*
X155295167Y-82636812D01*
X155273204Y-82665006D01*
X155249793Y-82692180D01*
X155224958Y-82718277D01*
X155198861Y-82743112D01*
X155171686Y-82766523D01*
X155143493Y-82788486D01*
X155114341Y-82808977D01*
X155084290Y-82827969D01*
X155053399Y-82845440D01*
X155021727Y-82861363D01*
X154989336Y-82875715D01*
X154956283Y-82888472D01*
X154922628Y-82899607D01*
X154888431Y-82909097D01*
X154853752Y-82916916D01*
X154818650Y-82923041D01*
X154783184Y-82927446D01*
X154747414Y-82930108D01*
X154711400Y-82931000D01*
X154656690Y-82928947D01*
X154602839Y-82922867D01*
X154550028Y-82912881D01*
X154498438Y-82899111D01*
X154448249Y-82881677D01*
X154399642Y-82860700D01*
X154352799Y-82836301D01*
X154307900Y-82808600D01*
X154265126Y-82777719D01*
X154224657Y-82743779D01*
X154186676Y-82706900D01*
X154151363Y-82667203D01*
X154118898Y-82624809D01*
X154089462Y-82579839D01*
X154063237Y-82532414D01*
X154040404Y-82482655D01*
X154021364Y-82431324D01*
X154006374Y-82379246D01*
X153995389Y-82326633D01*
X153988368Y-82273700D01*
X153985269Y-82220660D01*
X153986048Y-82167726D01*
X153990664Y-82115111D01*
X153999074Y-82063029D01*
X154011235Y-82011693D01*
X154027105Y-81961317D01*
X154046642Y-81912114D01*
X154069804Y-81864297D01*
X154096546Y-81818080D01*
X154126829Y-81773676D01*
X154160608Y-81731299D01*
X154197841Y-81691161D01*
X154237979Y-81653928D01*
X154280356Y-81620148D01*
X154324760Y-81589866D01*
X154370977Y-81563123D01*
X154418794Y-81539962D01*
X154467997Y-81520425D01*
X154518373Y-81504555D01*
X154569709Y-81492393D01*
X154621791Y-81483983D01*
X154674406Y-81479368D01*
X154727340Y-81478588D01*
X154780381Y-81481688D01*
G37*
X154780381Y-81481688D02*
X154833314Y-81488708D01*
X154885926Y-81499693D01*
X154938004Y-81514683D01*
X154989335Y-81533723D01*
X155014499Y-81544704D01*
X155039095Y-81556556D01*
X155063106Y-81569256D01*
X155086520Y-81582781D01*
X155109319Y-81597109D01*
X155131489Y-81612217D01*
X155153016Y-81628082D01*
X155173883Y-81644682D01*
X155194076Y-81661994D01*
X155213580Y-81679995D01*
X155232379Y-81698664D01*
X155250459Y-81717976D01*
X155267804Y-81737911D01*
X155284399Y-81758445D01*
X155300230Y-81779555D01*
X155315280Y-81801219D01*
X155329536Y-81823414D01*
X155342981Y-81846118D01*
X155355601Y-81869308D01*
X155367380Y-81892961D01*
X155378304Y-81917055D01*
X155388357Y-81941568D01*
X155397525Y-81966476D01*
X155405791Y-81991757D01*
X155413142Y-82017388D01*
X155419562Y-82043347D01*
X155425035Y-82069612D01*
X155429547Y-82096158D01*
X155433083Y-82122965D01*
X155435627Y-82150009D01*
X155437165Y-82177268D01*
X155437681Y-82204719D01*
X155436788Y-82240733D01*
X155434127Y-82276503D01*
X155429722Y-82311969D01*
X155423597Y-82347071D01*
X155415777Y-82381750D01*
X155406287Y-82415947D01*
X155395152Y-82449602D01*
X155382396Y-82482655D01*
X155368044Y-82515047D01*
X155352120Y-82546718D01*
X155334650Y-82577609D01*
X155315657Y-82607660D01*
X155295167Y-82636812D01*
X155273204Y-82665006D01*
X155249793Y-82692180D01*
X155224958Y-82718277D01*
X155198861Y-82743112D01*
X155171686Y-82766523D01*
X155143493Y-82788486D01*
X155114341Y-82808977D01*
X155084290Y-82827969D01*
X155053399Y-82845440D01*
X155021727Y-82861363D01*
X154989336Y-82875715D01*
X154956283Y-82888472D01*
X154922628Y-82899607D01*
X154888431Y-82909097D01*
X154853752Y-82916916D01*
X154818650Y-82923041D01*
X154783184Y-82927446D01*
X154747414Y-82930108D01*
X154711400Y-82931000D01*
X154656690Y-82928947D01*
X154602839Y-82922867D01*
X154550028Y-82912881D01*
X154498438Y-82899111D01*
X154448249Y-82881677D01*
X154399642Y-82860700D01*
X154352799Y-82836301D01*
X154307900Y-82808600D01*
X154265126Y-82777719D01*
X154224657Y-82743779D01*
X154186676Y-82706900D01*
X154151363Y-82667203D01*
X154118898Y-82624809D01*
X154089462Y-82579839D01*
X154063237Y-82532414D01*
X154040404Y-82482655D01*
X154021364Y-82431324D01*
X154006374Y-82379246D01*
X153995389Y-82326633D01*
X153988368Y-82273700D01*
X153985269Y-82220660D01*
X153986048Y-82167726D01*
X153990664Y-82115111D01*
X153999074Y-82063029D01*
X154011235Y-82011693D01*
X154027105Y-81961317D01*
X154046642Y-81912114D01*
X154069804Y-81864297D01*
X154096546Y-81818080D01*
X154126829Y-81773676D01*
X154160608Y-81731299D01*
X154197841Y-81691161D01*
X154237979Y-81653928D01*
X154280356Y-81620148D01*
X154324760Y-81589866D01*
X154370977Y-81563123D01*
X154418794Y-81539962D01*
X154467997Y-81520425D01*
X154518373Y-81504555D01*
X154569709Y-81492393D01*
X154621791Y-81483983D01*
X154674406Y-81479368D01*
X154727340Y-81478588D01*
X154780381Y-81481688D01*
G36*
X154711399Y-81661529D02*
G01*
X154739363Y-81662263D01*
X154766959Y-81664386D01*
X154794154Y-81667865D01*
X154820913Y-81672666D01*
X154847201Y-81678754D01*
X154872986Y-81686096D01*
X154898233Y-81694657D01*
X154922908Y-81704403D01*
X154946976Y-81715301D01*
X154970404Y-81727315D01*
X154993158Y-81740412D01*
X155015203Y-81754559D01*
X155036506Y-81769720D01*
X155057032Y-81785862D01*
X155076747Y-81802950D01*
X155095618Y-81820951D01*
X155113609Y-81839830D01*
X155130688Y-81859554D01*
X155146820Y-81880088D01*
X155161971Y-81901398D01*
X155176107Y-81923450D01*
X155189193Y-81946210D01*
X155201196Y-81969644D01*
X155212082Y-81993718D01*
X155221816Y-82018397D01*
X155230365Y-82043648D01*
X155237694Y-82069437D01*
X155243770Y-82095728D01*
X155248558Y-82122490D01*
X155252024Y-82149686D01*
X155254134Y-82177284D01*
X155254854Y-82205248D01*
X155254100Y-82233194D01*
X155251957Y-82260770D01*
X155248458Y-82287943D01*
X155243639Y-82314680D01*
X155237532Y-82340945D01*
X155230173Y-82366706D01*
X155221595Y-82391927D01*
X155211833Y-82416575D01*
X155200920Y-82440616D01*
X155188891Y-82464015D01*
X155175780Y-82486739D01*
X155161621Y-82508754D01*
X155146448Y-82530025D01*
X155130296Y-82550519D01*
X155113198Y-82570202D01*
X155095189Y-82589038D01*
X155076303Y-82606995D01*
X155056573Y-82624039D01*
X155036035Y-82640135D01*
X155014722Y-82655248D01*
X154992668Y-82669347D01*
X154969908Y-82682395D01*
X154946475Y-82694359D01*
X154922405Y-82705205D01*
X154897730Y-82714900D01*
X154872485Y-82723408D01*
X154846704Y-82730696D01*
X154820422Y-82736730D01*
X154793672Y-82741476D01*
X154766489Y-82744899D01*
X154738907Y-82746967D01*
X154710960Y-82747644D01*
X154683014Y-82746908D01*
X154655436Y-82744782D01*
X154628260Y-82741302D01*
X154601521Y-82736499D01*
X154575251Y-82730410D01*
X154549486Y-82723067D01*
X154524260Y-82714506D01*
X154499605Y-82704760D01*
X154475557Y-82693862D01*
X154452150Y-82681849D01*
X154429417Y-82668753D01*
X154407393Y-82654608D01*
X154386112Y-82639449D01*
X154365608Y-82623310D01*
X154345915Y-82606225D01*
X154327066Y-82588228D01*
X154309097Y-82569354D01*
X154292041Y-82549635D01*
X154275932Y-82529107D01*
X154260804Y-82507804D01*
X154246691Y-82485759D01*
X154233628Y-82463008D01*
X154221649Y-82439583D01*
X154210787Y-82415519D01*
X154201076Y-82390851D01*
X154192552Y-82365611D01*
X154185247Y-82339836D01*
X154179196Y-82313557D01*
X154174433Y-82286811D01*
X154170991Y-82259630D01*
X154168906Y-82232049D01*
X154168211Y-82204102D01*
X154168929Y-82176156D01*
X154171036Y-82148577D01*
X154174500Y-82121399D01*
X154179284Y-82094656D01*
X154185357Y-82068383D01*
X154192683Y-82042613D01*
X154201228Y-82017380D01*
X154210958Y-81992720D01*
X154221839Y-81968665D01*
X154233838Y-81945250D01*
X154246919Y-81922509D01*
X154261050Y-81900475D01*
X154276195Y-81879184D01*
X154292320Y-81858670D01*
X154309393Y-81838965D01*
X154327377Y-81820105D01*
X154346240Y-81802123D01*
X154365947Y-81785054D01*
X154386465Y-81768932D01*
X154407758Y-81753790D01*
X154429794Y-81739663D01*
X154452537Y-81726586D01*
X154475954Y-81714591D01*
X154500011Y-81703713D01*
X154524673Y-81693987D01*
X154549906Y-81685446D01*
X154575677Y-81678124D01*
X154601952Y-81672056D01*
X154628695Y-81667275D01*
X154655874Y-81663817D01*
X154683453Y-81661714D01*
X154711400Y-81661000D01*
X154711399Y-81661529D01*
G37*
X154711399Y-81661529D02*
X154739363Y-81662263D01*
X154766959Y-81664386D01*
X154794154Y-81667865D01*
X154820913Y-81672666D01*
X154847201Y-81678754D01*
X154872986Y-81686096D01*
X154898233Y-81694657D01*
X154922908Y-81704403D01*
X154946976Y-81715301D01*
X154970404Y-81727315D01*
X154993158Y-81740412D01*
X155015203Y-81754559D01*
X155036506Y-81769720D01*
X155057032Y-81785862D01*
X155076747Y-81802950D01*
X155095618Y-81820951D01*
X155113609Y-81839830D01*
X155130688Y-81859554D01*
X155146820Y-81880088D01*
X155161971Y-81901398D01*
X155176107Y-81923450D01*
X155189193Y-81946210D01*
X155201196Y-81969644D01*
X155212082Y-81993718D01*
X155221816Y-82018397D01*
X155230365Y-82043648D01*
X155237694Y-82069437D01*
X155243770Y-82095728D01*
X155248558Y-82122490D01*
X155252024Y-82149686D01*
X155254134Y-82177284D01*
X155254854Y-82205248D01*
X155254100Y-82233194D01*
X155251957Y-82260770D01*
X155248458Y-82287943D01*
X155243639Y-82314680D01*
X155237532Y-82340945D01*
X155230173Y-82366706D01*
X155221595Y-82391927D01*
X155211833Y-82416575D01*
X155200920Y-82440616D01*
X155188891Y-82464015D01*
X155175780Y-82486739D01*
X155161621Y-82508754D01*
X155146448Y-82530025D01*
X155130296Y-82550519D01*
X155113198Y-82570202D01*
X155095189Y-82589038D01*
X155076303Y-82606995D01*
X155056573Y-82624039D01*
X155036035Y-82640135D01*
X155014722Y-82655248D01*
X154992668Y-82669347D01*
X154969908Y-82682395D01*
X154946475Y-82694359D01*
X154922405Y-82705205D01*
X154897730Y-82714900D01*
X154872485Y-82723408D01*
X154846704Y-82730696D01*
X154820422Y-82736730D01*
X154793672Y-82741476D01*
X154766489Y-82744899D01*
X154738907Y-82746967D01*
X154710960Y-82747644D01*
X154683014Y-82746908D01*
X154655436Y-82744782D01*
X154628260Y-82741302D01*
X154601521Y-82736499D01*
X154575251Y-82730410D01*
X154549486Y-82723067D01*
X154524260Y-82714506D01*
X154499605Y-82704760D01*
X154475557Y-82693862D01*
X154452150Y-82681849D01*
X154429417Y-82668753D01*
X154407393Y-82654608D01*
X154386112Y-82639449D01*
X154365608Y-82623310D01*
X154345915Y-82606225D01*
X154327066Y-82588228D01*
X154309097Y-82569354D01*
X154292041Y-82549635D01*
X154275932Y-82529107D01*
X154260804Y-82507804D01*
X154246691Y-82485759D01*
X154233628Y-82463008D01*
X154221649Y-82439583D01*
X154210787Y-82415519D01*
X154201076Y-82390851D01*
X154192552Y-82365611D01*
X154185247Y-82339836D01*
X154179196Y-82313557D01*
X154174433Y-82286811D01*
X154170991Y-82259630D01*
X154168906Y-82232049D01*
X154168211Y-82204102D01*
X154168929Y-82176156D01*
X154171036Y-82148577D01*
X154174500Y-82121399D01*
X154179284Y-82094656D01*
X154185357Y-82068383D01*
X154192683Y-82042613D01*
X154201228Y-82017380D01*
X154210958Y-81992720D01*
X154221839Y-81968665D01*
X154233838Y-81945250D01*
X154246919Y-81922509D01*
X154261050Y-81900475D01*
X154276195Y-81879184D01*
X154292320Y-81858670D01*
X154309393Y-81838965D01*
X154327377Y-81820105D01*
X154346240Y-81802123D01*
X154365947Y-81785054D01*
X154386465Y-81768932D01*
X154407758Y-81753790D01*
X154429794Y-81739663D01*
X154452537Y-81726586D01*
X154475954Y-81714591D01*
X154500011Y-81703713D01*
X154524673Y-81693987D01*
X154549906Y-81685446D01*
X154575677Y-81678124D01*
X154601952Y-81672056D01*
X154628695Y-81667275D01*
X154655874Y-81663817D01*
X154683453Y-81661714D01*
X154711400Y-81661000D01*
X154711399Y-81661529D01*
D13*
%TO.C,J5*%
X105350000Y-73720000D02*
X105350000Y-71120000D01*
X105350000Y-73720000D02*
X118170000Y-73720000D01*
X118170000Y-73720000D02*
X118170000Y-68520000D01*
X107950000Y-68520000D02*
X118170000Y-68520000D01*
X107950000Y-71120000D02*
X107950000Y-68520000D01*
X105350000Y-71120000D02*
X107950000Y-71120000D01*
X105350000Y-68520000D02*
X106680000Y-68520000D01*
X105350000Y-69850000D02*
X105350000Y-68520000D01*
%TO.C,REF\u002A\u002A*%
X103147600Y-67424300D02*
G75*
G03*
X103147600Y-67424300I-1700000J0D01*
G01*
X186154800Y-67411600D02*
G75*
G03*
X186154800Y-67411600I-1700000J0D01*
G01*
X186154800Y-120421400D02*
G75*
G03*
X186154800Y-120421400I-1700000J0D01*
G01*
X103147600Y-120370600D02*
G75*
G03*
X103147600Y-120370600I-1700000J0D01*
G01*
%TO.C,C1*%
X104650000Y-113665580D02*
X104650000Y-113384420D01*
X103630000Y-113665580D02*
X103630000Y-113384420D01*
%TO.C,C2*%
X106170000Y-113665580D02*
X106170000Y-113384420D01*
X107190000Y-113665580D02*
X107190000Y-113384420D01*
%TO.C,C3*%
X109730000Y-113665580D02*
X109730000Y-113384420D01*
X108710000Y-113665580D02*
X108710000Y-113384420D01*
%TO.C,C4*%
X112270000Y-113665580D02*
X112270000Y-113384420D01*
X111250000Y-113665580D02*
X111250000Y-113384420D01*
%TO.C,C5*%
X113790000Y-113665580D02*
X113790000Y-113384420D01*
X114810000Y-113665580D02*
X114810000Y-113384420D01*
%TO.C,C6*%
X117350000Y-113665580D02*
X117350000Y-113384420D01*
X116330000Y-113665580D02*
X116330000Y-113384420D01*
%TO.C,D1*%
X101470000Y-75820000D02*
X106870000Y-75820000D01*
X101470000Y-79120000D02*
X106870000Y-79120000D01*
X101470000Y-75820000D02*
X101470000Y-79120000D01*
%TO.C,D2*%
X101470000Y-80900000D02*
X101470000Y-84200000D01*
X101470000Y-84200000D02*
X106870000Y-84200000D01*
X101470000Y-80900000D02*
X106870000Y-80900000D01*
%TO.C,D3*%
X101470000Y-85980000D02*
X106870000Y-85980000D01*
X101470000Y-89280000D02*
X106870000Y-89280000D01*
X101470000Y-85980000D02*
X101470000Y-89280000D01*
%TO.C,D4*%
X111630000Y-78360000D02*
X111630000Y-81660000D01*
X111630000Y-81660000D02*
X117030000Y-81660000D01*
X111630000Y-78360000D02*
X117030000Y-78360000D01*
%TO.C,D5*%
X111630000Y-83440000D02*
X117030000Y-83440000D01*
X111630000Y-86740000D02*
X117030000Y-86740000D01*
X111630000Y-83440000D02*
X111630000Y-86740000D01*
%TO.C,J1*%
X175260000Y-82550000D02*
X176530000Y-82550000D01*
X175260000Y-83820000D02*
X175260000Y-82550000D01*
X177572929Y-91820000D02*
X177970000Y-91820000D01*
X177572929Y-91060000D02*
X177970000Y-91060000D01*
X186630000Y-91820000D02*
X180630000Y-91820000D01*
X186630000Y-91060000D02*
X186630000Y-91820000D01*
X180630000Y-91060000D02*
X186630000Y-91060000D01*
X177970000Y-90170000D02*
X180630000Y-90170000D01*
X177572929Y-89280000D02*
X177970000Y-89280000D01*
X177572929Y-88520000D02*
X177970000Y-88520000D01*
X186630000Y-89280000D02*
X180630000Y-89280000D01*
X186630000Y-88520000D02*
X186630000Y-89280000D01*
X180630000Y-88520000D02*
X186630000Y-88520000D01*
X177970000Y-87630000D02*
X180630000Y-87630000D01*
X177572929Y-86740000D02*
X177970000Y-86740000D01*
X177572929Y-85980000D02*
X177970000Y-85980000D01*
X186630000Y-86740000D02*
X180630000Y-86740000D01*
X186630000Y-85980000D02*
X186630000Y-86740000D01*
X180630000Y-85980000D02*
X186630000Y-85980000D01*
X177970000Y-85090000D02*
X180630000Y-85090000D01*
X177640000Y-84200000D02*
X177970000Y-84200000D01*
X177640000Y-83440000D02*
X177970000Y-83440000D01*
X180630000Y-84100000D02*
X186630000Y-84100000D01*
X180630000Y-83980000D02*
X186630000Y-83980000D01*
X180630000Y-83860000D02*
X186630000Y-83860000D01*
X180630000Y-83740000D02*
X186630000Y-83740000D01*
X180630000Y-83620000D02*
X186630000Y-83620000D01*
X180630000Y-83500000D02*
X186630000Y-83500000D01*
X186630000Y-84200000D02*
X180630000Y-84200000D01*
X186630000Y-83440000D02*
X186630000Y-84200000D01*
X180630000Y-83440000D02*
X186630000Y-83440000D01*
X180630000Y-82490000D02*
X177970000Y-82490000D01*
X180630000Y-92770000D02*
X180630000Y-82490000D01*
X177970000Y-92770000D02*
X180630000Y-92770000D01*
X177970000Y-82490000D02*
X177970000Y-92770000D01*
%TO.C,J2*%
X177970000Y-101540000D02*
X177970000Y-111820000D01*
X177970000Y-111820000D02*
X180630000Y-111820000D01*
X180630000Y-111820000D02*
X180630000Y-101540000D01*
X180630000Y-101540000D02*
X177970000Y-101540000D01*
X180630000Y-102490000D02*
X186630000Y-102490000D01*
X186630000Y-102490000D02*
X186630000Y-103250000D01*
X186630000Y-103250000D02*
X180630000Y-103250000D01*
X180630000Y-102550000D02*
X186630000Y-102550000D01*
X180630000Y-102670000D02*
X186630000Y-102670000D01*
X180630000Y-102790000D02*
X186630000Y-102790000D01*
X180630000Y-102910000D02*
X186630000Y-102910000D01*
X180630000Y-103030000D02*
X186630000Y-103030000D01*
X180630000Y-103150000D02*
X186630000Y-103150000D01*
X177640000Y-102490000D02*
X177970000Y-102490000D01*
X177640000Y-103250000D02*
X177970000Y-103250000D01*
X177970000Y-104140000D02*
X180630000Y-104140000D01*
X180630000Y-105030000D02*
X186630000Y-105030000D01*
X186630000Y-105030000D02*
X186630000Y-105790000D01*
X186630000Y-105790000D02*
X180630000Y-105790000D01*
X177572929Y-105030000D02*
X177970000Y-105030000D01*
X177572929Y-105790000D02*
X177970000Y-105790000D01*
X177970000Y-106680000D02*
X180630000Y-106680000D01*
X180630000Y-107570000D02*
X186630000Y-107570000D01*
X186630000Y-107570000D02*
X186630000Y-108330000D01*
X186630000Y-108330000D02*
X180630000Y-108330000D01*
X177572929Y-107570000D02*
X177970000Y-107570000D01*
X177572929Y-108330000D02*
X177970000Y-108330000D01*
X177970000Y-109220000D02*
X180630000Y-109220000D01*
X180630000Y-110110000D02*
X186630000Y-110110000D01*
X186630000Y-110110000D02*
X186630000Y-110870000D01*
X186630000Y-110870000D02*
X180630000Y-110870000D01*
X177572929Y-110110000D02*
X177970000Y-110110000D01*
X177572929Y-110870000D02*
X177970000Y-110870000D01*
X175260000Y-102870000D02*
X175260000Y-101600000D01*
X175260000Y-101600000D02*
X176530000Y-101600000D01*
%TO.C,J3*%
X163810000Y-114380000D02*
X163810000Y-120350000D01*
X163810000Y-120350000D02*
X171430000Y-120350000D01*
X171430000Y-120350000D02*
X171430000Y-114380000D01*
X171430000Y-114380000D02*
X163810000Y-114380000D01*
X167120000Y-114390000D02*
X167120000Y-115140000D01*
X167120000Y-115140000D02*
X168120000Y-115140000D01*
X168120000Y-115140000D02*
X168120000Y-114390000D01*
X168120000Y-114390000D02*
X167120000Y-114390000D01*
X163820000Y-114390000D02*
X163820000Y-115140000D01*
X163820000Y-115140000D02*
X165620000Y-115140000D01*
X165620000Y-115140000D02*
X165620000Y-114390000D01*
X165620000Y-114390000D02*
X163820000Y-114390000D01*
X169620000Y-114390000D02*
X169620000Y-115140000D01*
X169620000Y-115140000D02*
X171420000Y-115140000D01*
X171420000Y-115140000D02*
X171420000Y-114390000D01*
X171420000Y-114390000D02*
X169620000Y-114390000D01*
X163820000Y-116640000D02*
X164570000Y-116640000D01*
X164570000Y-116640000D02*
X164570000Y-119590000D01*
X164570000Y-119590000D02*
X167620000Y-119590000D01*
X171420000Y-116640000D02*
X170670000Y-116640000D01*
X170670000Y-116640000D02*
X170670000Y-119590000D01*
X170670000Y-119590000D02*
X167620000Y-119590000D01*
X164770000Y-114090000D02*
X163520000Y-114090000D01*
X163520000Y-114090000D02*
X163520000Y-115340000D01*
%TO.C,J4*%
X152130000Y-114090000D02*
X152130000Y-115340000D01*
X153380000Y-114090000D02*
X152130000Y-114090000D01*
X159280000Y-119590000D02*
X156230000Y-119590000D01*
X159280000Y-116640000D02*
X159280000Y-119590000D01*
X160030000Y-116640000D02*
X159280000Y-116640000D01*
X153180000Y-119590000D02*
X156230000Y-119590000D01*
X153180000Y-116640000D02*
X153180000Y-119590000D01*
X152430000Y-116640000D02*
X153180000Y-116640000D01*
X160030000Y-114390000D02*
X158230000Y-114390000D01*
X160030000Y-115140000D02*
X160030000Y-114390000D01*
X158230000Y-115140000D02*
X160030000Y-115140000D01*
X158230000Y-114390000D02*
X158230000Y-115140000D01*
X154230000Y-114390000D02*
X152430000Y-114390000D01*
X154230000Y-115140000D02*
X154230000Y-114390000D01*
X152430000Y-115140000D02*
X154230000Y-115140000D01*
X152430000Y-114390000D02*
X152430000Y-115140000D01*
X156730000Y-114390000D02*
X155730000Y-114390000D01*
X156730000Y-115140000D02*
X156730000Y-114390000D01*
X155730000Y-115140000D02*
X156730000Y-115140000D01*
X155730000Y-114390000D02*
X155730000Y-115140000D01*
X160040000Y-114380000D02*
X152420000Y-114380000D01*
X160040000Y-120350000D02*
X160040000Y-114380000D01*
X152420000Y-120350000D02*
X160040000Y-120350000D01*
X152420000Y-114380000D02*
X152420000Y-120350000D01*
%TO.C,J6*%
X161170000Y-67990000D02*
X162860000Y-67990000D01*
X162860000Y-67990000D02*
X162860000Y-69380000D01*
X161170000Y-69380000D02*
X161170000Y-67990000D01*
X166250000Y-69380000D02*
X166250000Y-67990000D01*
X167940000Y-67990000D02*
X167940000Y-69380000D01*
X166250000Y-67990000D02*
X167940000Y-67990000D01*
X171350000Y-67990000D02*
X173040000Y-67990000D01*
X171350000Y-69380000D02*
X171350000Y-67990000D01*
X173040000Y-67990000D02*
X173040000Y-69380000D01*
X156280000Y-69380000D02*
X156280000Y-67990000D01*
X157970000Y-67990000D02*
X157970000Y-69380000D01*
X156280000Y-67990000D02*
X157970000Y-67990000D01*
X176450000Y-67990000D02*
X178140000Y-67990000D01*
X176450000Y-69380000D02*
X176450000Y-67990000D01*
X153520000Y-71800000D02*
X154600000Y-71800000D01*
X153520000Y-75520000D02*
X153520000Y-71800000D01*
X154600000Y-75520000D02*
X153520000Y-75520000D01*
X179220000Y-71800000D02*
X178140000Y-71800000D01*
X179220000Y-75520000D02*
X179220000Y-71800000D01*
X178140000Y-75520000D02*
X179220000Y-75520000D01*
X154600000Y-70520000D02*
X154600000Y-76800000D01*
X177000000Y-69380000D02*
X155740000Y-69380000D01*
X178140000Y-76800000D02*
X178140000Y-67990000D01*
X155740000Y-77940000D02*
X177000000Y-77940000D01*
X155800000Y-75050000D02*
X155800000Y-70440000D01*
X157630000Y-76880000D02*
X155800000Y-75050000D01*
X175110000Y-76880000D02*
X157630000Y-76880000D01*
X176940000Y-75050000D02*
X175110000Y-76880000D01*
X176940000Y-70440000D02*
X176940000Y-75050000D01*
X155800000Y-70440000D02*
X176940000Y-70440000D01*
X177000000Y-69380000D02*
G75*
G02*
X178140000Y-70520000I0J-1140000D01*
G01*
X178140000Y-76800000D02*
G75*
G02*
X177000000Y-77940000I-1140000J0D01*
G01*
X154600000Y-70520000D02*
G75*
G02*
X155740000Y-69380000I1140000J0D01*
G01*
X155740000Y-77940000D02*
G75*
G02*
X154600000Y-76800000I0J1140000D01*
G01*
%TO.C,J7*%
X157420000Y-90230000D02*
X157420000Y-88900000D01*
X158750000Y-90230000D02*
X157420000Y-90230000D01*
X160020000Y-90230000D02*
X160020000Y-87570000D01*
X160020000Y-87570000D02*
X167700000Y-87570000D01*
X160020000Y-90230000D02*
X167700000Y-90230000D01*
X167700000Y-90230000D02*
X167700000Y-87570000D01*
%TO.C,R1*%
X155687500Y-97552742D02*
X155687500Y-98027258D01*
X156732500Y-97552742D02*
X156732500Y-98027258D01*
%TO.C,R2*%
X160542500Y-97552742D02*
X160542500Y-98027258D01*
X159497500Y-97552742D02*
X159497500Y-98027258D01*
%TO.C,R3*%
X163307500Y-97552742D02*
X163307500Y-98027258D01*
X164352500Y-97552742D02*
X164352500Y-98027258D01*
%TO.C,R4*%
X168162500Y-97552742D02*
X168162500Y-98027258D01*
X167117500Y-97552742D02*
X167117500Y-98027258D01*
%TO.C,R5*%
X104347742Y-108697500D02*
X104822258Y-108697500D01*
X104347742Y-109742500D02*
X104822258Y-109742500D01*
%TO.C,R6*%
X108157742Y-109742500D02*
X108632258Y-109742500D01*
X108157742Y-108697500D02*
X108632258Y-108697500D01*
%TO.C,R7*%
X111967742Y-108697500D02*
X112442258Y-108697500D01*
X111967742Y-109742500D02*
X112442258Y-109742500D01*
%TO.C,R8*%
X115777742Y-109742500D02*
X116252258Y-109742500D01*
X115777742Y-108697500D02*
X116252258Y-108697500D01*
%TO.C,U1*%
X125390000Y-65940000D02*
X146390000Y-65940000D01*
X132190000Y-116940000D02*
X125390000Y-116940000D01*
X125390000Y-68607000D02*
X128397000Y-68607000D01*
X128397000Y-68607000D02*
X128397000Y-65940000D01*
X125390000Y-65940000D02*
X125390000Y-66240000D01*
X125390000Y-68340000D02*
X125390000Y-68740000D01*
X125390000Y-70940000D02*
X125390000Y-71340000D01*
X125390000Y-73440000D02*
X125390000Y-73840000D01*
X125390000Y-76040000D02*
X125390000Y-76440000D01*
X125390000Y-78540000D02*
X125390000Y-78940000D01*
X125390000Y-81040000D02*
X125390000Y-81440000D01*
X125390000Y-83640000D02*
X125390000Y-84040000D01*
X125390000Y-86140000D02*
X125390000Y-86540000D01*
X125390000Y-88740000D02*
X125390000Y-89140000D01*
X125390000Y-91240000D02*
X125390000Y-91640000D01*
X125390000Y-93740000D02*
X125390000Y-94140000D01*
X125390000Y-96340000D02*
X125390000Y-96740000D01*
X125390000Y-98840000D02*
X125390000Y-99240000D01*
X125390000Y-101440000D02*
X125390000Y-101840000D01*
X125390000Y-103940000D02*
X125390000Y-104340000D01*
X125390000Y-106540000D02*
X125390000Y-106940000D01*
X125390000Y-109040000D02*
X125390000Y-109440000D01*
X125390000Y-111540000D02*
X125390000Y-111940000D01*
X125390000Y-114140000D02*
X125390000Y-114540000D01*
X146390000Y-81040000D02*
X146390000Y-81440000D01*
X146390000Y-86140000D02*
X146390000Y-86540000D01*
X146390000Y-93740000D02*
X146390000Y-94140000D01*
X146390000Y-101440000D02*
X146390000Y-101840000D01*
X146390000Y-70940000D02*
X146390000Y-71340000D01*
X146390000Y-68340000D02*
X146390000Y-68740000D01*
X146390000Y-76040000D02*
X146390000Y-76440000D01*
X146390000Y-109040000D02*
X146390000Y-109440000D01*
X146390000Y-114140000D02*
X146390000Y-114540000D01*
X146390000Y-111540000D02*
X146390000Y-111940000D01*
X146390000Y-96340000D02*
X146390000Y-96740000D01*
X146390000Y-91240000D02*
X146390000Y-91640000D01*
X146390000Y-78540000D02*
X146390000Y-78940000D01*
X146390000Y-83640000D02*
X146390000Y-84040000D01*
X146390000Y-103940000D02*
X146390000Y-104340000D01*
X146390000Y-88740000D02*
X146390000Y-89140000D01*
X146390000Y-65940000D02*
X146390000Y-66240000D01*
X146390000Y-73440000D02*
X146390000Y-73840000D01*
X146390000Y-98840000D02*
X146390000Y-99240000D01*
X146390000Y-106540000D02*
X146390000Y-106940000D01*
X146390000Y-116940000D02*
X139590000Y-116940000D01*
X134390000Y-116940000D02*
X134790000Y-116940000D01*
X136990000Y-116940000D02*
X137390000Y-116940000D01*
%TO.C,U2*%
X115570000Y-92730000D02*
X112120000Y-92730000D01*
X115570000Y-92730000D02*
X117520000Y-92730000D01*
X115570000Y-102850000D02*
X113620000Y-102850000D01*
X115570000Y-102850000D02*
X117520000Y-102850000D01*
%TO.C,Y1*%
X105420000Y-104050000D02*
X105420000Y-91450000D01*
X100320000Y-104050000D02*
X105420000Y-104050000D01*
X100320000Y-91450000D02*
X100320000Y-104050000D01*
%TO.C,SW1*%
X160765000Y-108640000D02*
X167225000Y-108640000D01*
X160765000Y-104110000D02*
X160765000Y-106710000D01*
X160765000Y-102180000D02*
X167225000Y-102180000D01*
X167225000Y-104110000D02*
X167225000Y-106710000D01*
X160765000Y-102210000D02*
X160765000Y-102180000D01*
X160765000Y-108640000D02*
X160765000Y-108610000D01*
X167225000Y-108640000D02*
X167225000Y-108610000D01*
X167225000Y-102180000D02*
X167225000Y-102210000D01*
%TO.C,J5*%
D10*
X104457619Y-70786666D02*
X103743333Y-70786666D01*
X103600476Y-70739047D01*
X103505238Y-70643809D01*
X103457619Y-70500952D01*
X103457619Y-70405714D01*
X104457619Y-71739047D02*
X104457619Y-71262857D01*
X103981428Y-71215238D01*
X104029047Y-71262857D01*
X104076666Y-71358095D01*
X104076666Y-71596190D01*
X104029047Y-71691428D01*
X103981428Y-71739047D01*
X103886190Y-71786666D01*
X103648095Y-71786666D01*
X103552857Y-71739047D01*
X103505238Y-71691428D01*
X103457619Y-71596190D01*
X103457619Y-71358095D01*
X103505238Y-71262857D01*
X103552857Y-71215238D01*
%TO.C,C1*%
X103067142Y-113691666D02*
X103114761Y-113739285D01*
X103162380Y-113882142D01*
X103162380Y-113977380D01*
X103114761Y-114120238D01*
X103019523Y-114215476D01*
X102924285Y-114263095D01*
X102733809Y-114310714D01*
X102590952Y-114310714D01*
X102400476Y-114263095D01*
X102305238Y-114215476D01*
X102210000Y-114120238D01*
X102162380Y-113977380D01*
X102162380Y-113882142D01*
X102210000Y-113739285D01*
X102257619Y-113691666D01*
X103162380Y-112739285D02*
X103162380Y-113310714D01*
X103162380Y-113025000D02*
X102162380Y-113025000D01*
X102305238Y-113120238D01*
X102400476Y-113215476D01*
X102448095Y-113310714D01*
%TO.C,C2*%
X105607142Y-113691666D02*
X105654761Y-113739285D01*
X105702380Y-113882142D01*
X105702380Y-113977380D01*
X105654761Y-114120238D01*
X105559523Y-114215476D01*
X105464285Y-114263095D01*
X105273809Y-114310714D01*
X105130952Y-114310714D01*
X104940476Y-114263095D01*
X104845238Y-114215476D01*
X104750000Y-114120238D01*
X104702380Y-113977380D01*
X104702380Y-113882142D01*
X104750000Y-113739285D01*
X104797619Y-113691666D01*
X104797619Y-113310714D02*
X104750000Y-113263095D01*
X104702380Y-113167857D01*
X104702380Y-112929761D01*
X104750000Y-112834523D01*
X104797619Y-112786904D01*
X104892857Y-112739285D01*
X104988095Y-112739285D01*
X105130952Y-112786904D01*
X105702380Y-113358333D01*
X105702380Y-112739285D01*
%TO.C,C3*%
X108147142Y-113691666D02*
X108194761Y-113739285D01*
X108242380Y-113882142D01*
X108242380Y-113977380D01*
X108194761Y-114120238D01*
X108099523Y-114215476D01*
X108004285Y-114263095D01*
X107813809Y-114310714D01*
X107670952Y-114310714D01*
X107480476Y-114263095D01*
X107385238Y-114215476D01*
X107290000Y-114120238D01*
X107242380Y-113977380D01*
X107242380Y-113882142D01*
X107290000Y-113739285D01*
X107337619Y-113691666D01*
X107242380Y-113358333D02*
X107242380Y-112739285D01*
X107623333Y-113072619D01*
X107623333Y-112929761D01*
X107670952Y-112834523D01*
X107718571Y-112786904D01*
X107813809Y-112739285D01*
X108051904Y-112739285D01*
X108147142Y-112786904D01*
X108194761Y-112834523D01*
X108242380Y-112929761D01*
X108242380Y-113215476D01*
X108194761Y-113310714D01*
X108147142Y-113358333D01*
%TO.C,C4*%
X110687142Y-113691666D02*
X110734761Y-113739285D01*
X110782380Y-113882142D01*
X110782380Y-113977380D01*
X110734761Y-114120238D01*
X110639523Y-114215476D01*
X110544285Y-114263095D01*
X110353809Y-114310714D01*
X110210952Y-114310714D01*
X110020476Y-114263095D01*
X109925238Y-114215476D01*
X109830000Y-114120238D01*
X109782380Y-113977380D01*
X109782380Y-113882142D01*
X109830000Y-113739285D01*
X109877619Y-113691666D01*
X110115714Y-112834523D02*
X110782380Y-112834523D01*
X109734761Y-113072619D02*
X110449047Y-113310714D01*
X110449047Y-112691666D01*
%TO.C,C5*%
X113227142Y-113691666D02*
X113274761Y-113739285D01*
X113322380Y-113882142D01*
X113322380Y-113977380D01*
X113274761Y-114120238D01*
X113179523Y-114215476D01*
X113084285Y-114263095D01*
X112893809Y-114310714D01*
X112750952Y-114310714D01*
X112560476Y-114263095D01*
X112465238Y-114215476D01*
X112370000Y-114120238D01*
X112322380Y-113977380D01*
X112322380Y-113882142D01*
X112370000Y-113739285D01*
X112417619Y-113691666D01*
X112322380Y-112786904D02*
X112322380Y-113263095D01*
X112798571Y-113310714D01*
X112750952Y-113263095D01*
X112703333Y-113167857D01*
X112703333Y-112929761D01*
X112750952Y-112834523D01*
X112798571Y-112786904D01*
X112893809Y-112739285D01*
X113131904Y-112739285D01*
X113227142Y-112786904D01*
X113274761Y-112834523D01*
X113322380Y-112929761D01*
X113322380Y-113167857D01*
X113274761Y-113263095D01*
X113227142Y-113310714D01*
%TO.C,C6*%
X115767142Y-113691666D02*
X115814761Y-113739285D01*
X115862380Y-113882142D01*
X115862380Y-113977380D01*
X115814761Y-114120238D01*
X115719523Y-114215476D01*
X115624285Y-114263095D01*
X115433809Y-114310714D01*
X115290952Y-114310714D01*
X115100476Y-114263095D01*
X115005238Y-114215476D01*
X114910000Y-114120238D01*
X114862380Y-113977380D01*
X114862380Y-113882142D01*
X114910000Y-113739285D01*
X114957619Y-113691666D01*
X114862380Y-112834523D02*
X114862380Y-113025000D01*
X114910000Y-113120238D01*
X114957619Y-113167857D01*
X115100476Y-113263095D01*
X115290952Y-113310714D01*
X115671904Y-113310714D01*
X115767142Y-113263095D01*
X115814761Y-113215476D01*
X115862380Y-113120238D01*
X115862380Y-112929761D01*
X115814761Y-112834523D01*
X115767142Y-112786904D01*
X115671904Y-112739285D01*
X115433809Y-112739285D01*
X115338571Y-112786904D01*
X115290952Y-112834523D01*
X115243333Y-112929761D01*
X115243333Y-113120238D01*
X115290952Y-113215476D01*
X115338571Y-113263095D01*
X115433809Y-113310714D01*
%TO.C,D1*%
X104131904Y-75422380D02*
X104131904Y-74422380D01*
X104370000Y-74422380D01*
X104512857Y-74470000D01*
X104608095Y-74565238D01*
X104655714Y-74660476D01*
X104703333Y-74850952D01*
X104703333Y-74993809D01*
X104655714Y-75184285D01*
X104608095Y-75279523D01*
X104512857Y-75374761D01*
X104370000Y-75422380D01*
X104131904Y-75422380D01*
X105655714Y-75422380D02*
X105084285Y-75422380D01*
X105370000Y-75422380D02*
X105370000Y-74422380D01*
X105274761Y-74565238D01*
X105179523Y-74660476D01*
X105084285Y-74708095D01*
%TO.C,D2*%
X104131904Y-80502380D02*
X104131904Y-79502380D01*
X104370000Y-79502380D01*
X104512857Y-79550000D01*
X104608095Y-79645238D01*
X104655714Y-79740476D01*
X104703333Y-79930952D01*
X104703333Y-80073809D01*
X104655714Y-80264285D01*
X104608095Y-80359523D01*
X104512857Y-80454761D01*
X104370000Y-80502380D01*
X104131904Y-80502380D01*
X105084285Y-79597619D02*
X105131904Y-79550000D01*
X105227142Y-79502380D01*
X105465238Y-79502380D01*
X105560476Y-79550000D01*
X105608095Y-79597619D01*
X105655714Y-79692857D01*
X105655714Y-79788095D01*
X105608095Y-79930952D01*
X105036666Y-80502380D01*
X105655714Y-80502380D01*
%TO.C,D3*%
X104131904Y-85582380D02*
X104131904Y-84582380D01*
X104370000Y-84582380D01*
X104512857Y-84630000D01*
X104608095Y-84725238D01*
X104655714Y-84820476D01*
X104703333Y-85010952D01*
X104703333Y-85153809D01*
X104655714Y-85344285D01*
X104608095Y-85439523D01*
X104512857Y-85534761D01*
X104370000Y-85582380D01*
X104131904Y-85582380D01*
X105036666Y-84582380D02*
X105655714Y-84582380D01*
X105322380Y-84963333D01*
X105465238Y-84963333D01*
X105560476Y-85010952D01*
X105608095Y-85058571D01*
X105655714Y-85153809D01*
X105655714Y-85391904D01*
X105608095Y-85487142D01*
X105560476Y-85534761D01*
X105465238Y-85582380D01*
X105179523Y-85582380D01*
X105084285Y-85534761D01*
X105036666Y-85487142D01*
%TO.C,D4*%
X114291904Y-77962380D02*
X114291904Y-76962380D01*
X114530000Y-76962380D01*
X114672857Y-77010000D01*
X114768095Y-77105238D01*
X114815714Y-77200476D01*
X114863333Y-77390952D01*
X114863333Y-77533809D01*
X114815714Y-77724285D01*
X114768095Y-77819523D01*
X114672857Y-77914761D01*
X114530000Y-77962380D01*
X114291904Y-77962380D01*
X115720476Y-77295714D02*
X115720476Y-77962380D01*
X115482380Y-76914761D02*
X115244285Y-77629047D01*
X115863333Y-77629047D01*
%TO.C,D5*%
X114291904Y-83042380D02*
X114291904Y-82042380D01*
X114530000Y-82042380D01*
X114672857Y-82090000D01*
X114768095Y-82185238D01*
X114815714Y-82280476D01*
X114863333Y-82470952D01*
X114863333Y-82613809D01*
X114815714Y-82804285D01*
X114768095Y-82899523D01*
X114672857Y-82994761D01*
X114530000Y-83042380D01*
X114291904Y-83042380D01*
X115768095Y-82042380D02*
X115291904Y-82042380D01*
X115244285Y-82518571D01*
X115291904Y-82470952D01*
X115387142Y-82423333D01*
X115625238Y-82423333D01*
X115720476Y-82470952D01*
X115768095Y-82518571D01*
X115815714Y-82613809D01*
X115815714Y-82851904D01*
X115768095Y-82947142D01*
X115720476Y-82994761D01*
X115625238Y-83042380D01*
X115387142Y-83042380D01*
X115291904Y-82994761D01*
X115244285Y-82947142D01*
%TO.C,J1*%
X180581666Y-81002380D02*
X180581666Y-81716666D01*
X180534047Y-81859523D01*
X180438809Y-81954761D01*
X180295952Y-82002380D01*
X180200714Y-82002380D01*
X181581666Y-82002380D02*
X181010238Y-82002380D01*
X181295952Y-82002380D02*
X181295952Y-81002380D01*
X181200714Y-81145238D01*
X181105476Y-81240476D01*
X181010238Y-81288095D01*
%TO.C,J2*%
X180581666Y-100052380D02*
X180581666Y-100766666D01*
X180534047Y-100909523D01*
X180438809Y-101004761D01*
X180295952Y-101052380D01*
X180200714Y-101052380D01*
X181010238Y-100147619D02*
X181057857Y-100100000D01*
X181153095Y-100052380D01*
X181391190Y-100052380D01*
X181486428Y-100100000D01*
X181534047Y-100147619D01*
X181581666Y-100242857D01*
X181581666Y-100338095D01*
X181534047Y-100480952D01*
X180962619Y-101052380D01*
X181581666Y-101052380D01*
%TO.C,J3*%
X167286666Y-112742380D02*
X167286666Y-113456666D01*
X167239047Y-113599523D01*
X167143809Y-113694761D01*
X167000952Y-113742380D01*
X166905714Y-113742380D01*
X167667619Y-112742380D02*
X168286666Y-112742380D01*
X167953333Y-113123333D01*
X168096190Y-113123333D01*
X168191428Y-113170952D01*
X168239047Y-113218571D01*
X168286666Y-113313809D01*
X168286666Y-113551904D01*
X168239047Y-113647142D01*
X168191428Y-113694761D01*
X168096190Y-113742380D01*
X167810476Y-113742380D01*
X167715238Y-113694761D01*
X167667619Y-113647142D01*
%TO.C,J4*%
X155896666Y-112742380D02*
X155896666Y-113456666D01*
X155849047Y-113599523D01*
X155753809Y-113694761D01*
X155610952Y-113742380D01*
X155515714Y-113742380D01*
X156801428Y-113075714D02*
X156801428Y-113742380D01*
X156563333Y-112694761D02*
X156325238Y-113409047D01*
X156944285Y-113409047D01*
%TO.C,J6*%
X167306666Y-66612380D02*
X167306666Y-67326666D01*
X167259047Y-67469523D01*
X167163809Y-67564761D01*
X167020952Y-67612380D01*
X166925714Y-67612380D01*
X168211428Y-66612380D02*
X168020952Y-66612380D01*
X167925714Y-66660000D01*
X167878095Y-66707619D01*
X167782857Y-66850476D01*
X167735238Y-67040952D01*
X167735238Y-67421904D01*
X167782857Y-67517142D01*
X167830476Y-67564761D01*
X167925714Y-67612380D01*
X168116190Y-67612380D01*
X168211428Y-67564761D01*
X168259047Y-67517142D01*
X168306666Y-67421904D01*
X168306666Y-67183809D01*
X168259047Y-67088571D01*
X168211428Y-67040952D01*
X168116190Y-66993333D01*
X167925714Y-66993333D01*
X167830476Y-67040952D01*
X167782857Y-67088571D01*
X167735238Y-67183809D01*
%TO.C,J7*%
X155872380Y-89233333D02*
X156586666Y-89233333D01*
X156729523Y-89280952D01*
X156824761Y-89376190D01*
X156872380Y-89519047D01*
X156872380Y-89614285D01*
X155872380Y-88852380D02*
X155872380Y-88185714D01*
X156872380Y-88614285D01*
%TO.C,R1*%
X158092380Y-97956666D02*
X157616190Y-98290000D01*
X158092380Y-98528095D02*
X157092380Y-98528095D01*
X157092380Y-98147142D01*
X157140000Y-98051904D01*
X157187619Y-98004285D01*
X157282857Y-97956666D01*
X157425714Y-97956666D01*
X157520952Y-98004285D01*
X157568571Y-98051904D01*
X157616190Y-98147142D01*
X157616190Y-98528095D01*
X158092380Y-97004285D02*
X158092380Y-97575714D01*
X158092380Y-97290000D02*
X157092380Y-97290000D01*
X157235238Y-97385238D01*
X157330476Y-97480476D01*
X157378095Y-97575714D01*
%TO.C,R2*%
X161902380Y-97956666D02*
X161426190Y-98290000D01*
X161902380Y-98528095D02*
X160902380Y-98528095D01*
X160902380Y-98147142D01*
X160950000Y-98051904D01*
X160997619Y-98004285D01*
X161092857Y-97956666D01*
X161235714Y-97956666D01*
X161330952Y-98004285D01*
X161378571Y-98051904D01*
X161426190Y-98147142D01*
X161426190Y-98528095D01*
X160997619Y-97575714D02*
X160950000Y-97528095D01*
X160902380Y-97432857D01*
X160902380Y-97194761D01*
X160950000Y-97099523D01*
X160997619Y-97051904D01*
X161092857Y-97004285D01*
X161188095Y-97004285D01*
X161330952Y-97051904D01*
X161902380Y-97623333D01*
X161902380Y-97004285D01*
%TO.C,R3*%
X165712380Y-97956666D02*
X165236190Y-98290000D01*
X165712380Y-98528095D02*
X164712380Y-98528095D01*
X164712380Y-98147142D01*
X164760000Y-98051904D01*
X164807619Y-98004285D01*
X164902857Y-97956666D01*
X165045714Y-97956666D01*
X165140952Y-98004285D01*
X165188571Y-98051904D01*
X165236190Y-98147142D01*
X165236190Y-98528095D01*
X164712380Y-97623333D02*
X164712380Y-97004285D01*
X165093333Y-97337619D01*
X165093333Y-97194761D01*
X165140952Y-97099523D01*
X165188571Y-97051904D01*
X165283809Y-97004285D01*
X165521904Y-97004285D01*
X165617142Y-97051904D01*
X165664761Y-97099523D01*
X165712380Y-97194761D01*
X165712380Y-97480476D01*
X165664761Y-97575714D01*
X165617142Y-97623333D01*
%TO.C,R4*%
X169522380Y-97956666D02*
X169046190Y-98290000D01*
X169522380Y-98528095D02*
X168522380Y-98528095D01*
X168522380Y-98147142D01*
X168570000Y-98051904D01*
X168617619Y-98004285D01*
X168712857Y-97956666D01*
X168855714Y-97956666D01*
X168950952Y-98004285D01*
X168998571Y-98051904D01*
X169046190Y-98147142D01*
X169046190Y-98528095D01*
X168855714Y-97099523D02*
X169522380Y-97099523D01*
X168474761Y-97337619D02*
X169189047Y-97575714D01*
X169189047Y-96956666D01*
%TO.C,R5*%
X104418333Y-108242380D02*
X104085000Y-107766190D01*
X103846904Y-108242380D02*
X103846904Y-107242380D01*
X104227857Y-107242380D01*
X104323095Y-107290000D01*
X104370714Y-107337619D01*
X104418333Y-107432857D01*
X104418333Y-107575714D01*
X104370714Y-107670952D01*
X104323095Y-107718571D01*
X104227857Y-107766190D01*
X103846904Y-107766190D01*
X105323095Y-107242380D02*
X104846904Y-107242380D01*
X104799285Y-107718571D01*
X104846904Y-107670952D01*
X104942142Y-107623333D01*
X105180238Y-107623333D01*
X105275476Y-107670952D01*
X105323095Y-107718571D01*
X105370714Y-107813809D01*
X105370714Y-108051904D01*
X105323095Y-108147142D01*
X105275476Y-108194761D01*
X105180238Y-108242380D01*
X104942142Y-108242380D01*
X104846904Y-108194761D01*
X104799285Y-108147142D01*
%TO.C,R6*%
X108228333Y-108242380D02*
X107895000Y-107766190D01*
X107656904Y-108242380D02*
X107656904Y-107242380D01*
X108037857Y-107242380D01*
X108133095Y-107290000D01*
X108180714Y-107337619D01*
X108228333Y-107432857D01*
X108228333Y-107575714D01*
X108180714Y-107670952D01*
X108133095Y-107718571D01*
X108037857Y-107766190D01*
X107656904Y-107766190D01*
X109085476Y-107242380D02*
X108895000Y-107242380D01*
X108799761Y-107290000D01*
X108752142Y-107337619D01*
X108656904Y-107480476D01*
X108609285Y-107670952D01*
X108609285Y-108051904D01*
X108656904Y-108147142D01*
X108704523Y-108194761D01*
X108799761Y-108242380D01*
X108990238Y-108242380D01*
X109085476Y-108194761D01*
X109133095Y-108147142D01*
X109180714Y-108051904D01*
X109180714Y-107813809D01*
X109133095Y-107718571D01*
X109085476Y-107670952D01*
X108990238Y-107623333D01*
X108799761Y-107623333D01*
X108704523Y-107670952D01*
X108656904Y-107718571D01*
X108609285Y-107813809D01*
%TO.C,R7*%
X112038333Y-108242380D02*
X111705000Y-107766190D01*
X111466904Y-108242380D02*
X111466904Y-107242380D01*
X111847857Y-107242380D01*
X111943095Y-107290000D01*
X111990714Y-107337619D01*
X112038333Y-107432857D01*
X112038333Y-107575714D01*
X111990714Y-107670952D01*
X111943095Y-107718571D01*
X111847857Y-107766190D01*
X111466904Y-107766190D01*
X112371666Y-107242380D02*
X113038333Y-107242380D01*
X112609761Y-108242380D01*
%TO.C,R8*%
X115848333Y-108242380D02*
X115515000Y-107766190D01*
X115276904Y-108242380D02*
X115276904Y-107242380D01*
X115657857Y-107242380D01*
X115753095Y-107290000D01*
X115800714Y-107337619D01*
X115848333Y-107432857D01*
X115848333Y-107575714D01*
X115800714Y-107670952D01*
X115753095Y-107718571D01*
X115657857Y-107766190D01*
X115276904Y-107766190D01*
X116419761Y-107670952D02*
X116324523Y-107623333D01*
X116276904Y-107575714D01*
X116229285Y-107480476D01*
X116229285Y-107432857D01*
X116276904Y-107337619D01*
X116324523Y-107290000D01*
X116419761Y-107242380D01*
X116610238Y-107242380D01*
X116705476Y-107290000D01*
X116753095Y-107337619D01*
X116800714Y-107432857D01*
X116800714Y-107480476D01*
X116753095Y-107575714D01*
X116705476Y-107623333D01*
X116610238Y-107670952D01*
X116419761Y-107670952D01*
X116324523Y-107718571D01*
X116276904Y-107766190D01*
X116229285Y-107861428D01*
X116229285Y-108051904D01*
X116276904Y-108147142D01*
X116324523Y-108194761D01*
X116419761Y-108242380D01*
X116610238Y-108242380D01*
X116705476Y-108194761D01*
X116753095Y-108147142D01*
X116800714Y-108051904D01*
X116800714Y-107861428D01*
X116753095Y-107766190D01*
X116705476Y-107718571D01*
X116610238Y-107670952D01*
%TO.C,U1*%
X135128095Y-90892380D02*
X135128095Y-91701904D01*
X135175714Y-91797142D01*
X135223333Y-91844761D01*
X135318571Y-91892380D01*
X135509047Y-91892380D01*
X135604285Y-91844761D01*
X135651904Y-91797142D01*
X135699523Y-91701904D01*
X135699523Y-90892380D01*
X136699523Y-91892380D02*
X136128095Y-91892380D01*
X136413809Y-91892380D02*
X136413809Y-90892380D01*
X136318571Y-91035238D01*
X136223333Y-91130476D01*
X136128095Y-91178095D01*
X122303096Y-69961218D02*
X122222284Y-69988155D01*
X122141471Y-70068967D01*
X122087597Y-70176717D01*
X122087597Y-70284467D01*
X122114534Y-70365279D01*
X122195346Y-70499966D01*
X122276158Y-70580778D01*
X122410845Y-70661590D01*
X122491658Y-70688528D01*
X122599407Y-70688528D01*
X122707157Y-70634653D01*
X122761032Y-70580778D01*
X122814906Y-70473028D01*
X122814906Y-70419154D01*
X122626345Y-70230592D01*
X122518595Y-70338341D01*
X123111218Y-70230592D02*
X122545532Y-69664906D01*
X122761032Y-69449407D01*
X122841844Y-69422470D01*
X122895719Y-69422470D01*
X122976531Y-69449407D01*
X123057343Y-69530219D01*
X123084280Y-69611032D01*
X123084280Y-69664906D01*
X123057343Y-69745719D01*
X122841844Y-69961218D01*
X123973215Y-69368595D02*
X123649966Y-69691844D01*
X123811590Y-69530219D02*
X123245905Y-68964534D01*
X123272842Y-69099221D01*
X123272842Y-69206971D01*
X123245905Y-69287783D01*
X122303096Y-75051218D02*
X122222284Y-75078155D01*
X122141471Y-75158967D01*
X122087597Y-75266717D01*
X122087597Y-75374467D01*
X122114534Y-75455279D01*
X122195346Y-75589966D01*
X122276158Y-75670778D01*
X122410845Y-75751590D01*
X122491658Y-75778528D01*
X122599407Y-75778528D01*
X122707157Y-75724653D01*
X122761032Y-75670778D01*
X122814906Y-75563028D01*
X122814906Y-75509154D01*
X122626345Y-75320592D01*
X122518595Y-75428341D01*
X123111218Y-75320592D02*
X122545532Y-74754906D01*
X122761032Y-74539407D01*
X122841844Y-74512470D01*
X122895719Y-74512470D01*
X122976531Y-74539407D01*
X123057343Y-74620219D01*
X123084280Y-74701032D01*
X123084280Y-74754906D01*
X123057343Y-74835719D01*
X122841844Y-75051218D01*
X123138155Y-74270033D02*
X123138155Y-74216158D01*
X123165093Y-74135346D01*
X123299780Y-74000659D01*
X123380592Y-73973722D01*
X123434467Y-73973722D01*
X123515279Y-74000659D01*
X123569154Y-74054534D01*
X123623028Y-74162284D01*
X123623028Y-74808781D01*
X123973215Y-74458595D01*
X122403096Y-67431218D02*
X122322284Y-67458155D01*
X122241471Y-67538967D01*
X122187597Y-67646717D01*
X122187597Y-67754467D01*
X122214534Y-67835279D01*
X122295346Y-67969966D01*
X122376158Y-68050778D01*
X122510845Y-68131590D01*
X122591658Y-68158528D01*
X122699407Y-68158528D01*
X122807157Y-68104653D01*
X122861032Y-68050778D01*
X122914906Y-67943028D01*
X122914906Y-67889154D01*
X122726345Y-67700592D01*
X122618595Y-67808341D01*
X123211218Y-67700592D02*
X122645532Y-67134906D01*
X122861032Y-66919407D01*
X122941844Y-66892470D01*
X122995719Y-66892470D01*
X123076531Y-66919407D01*
X123157343Y-67000219D01*
X123184280Y-67081032D01*
X123184280Y-67134906D01*
X123157343Y-67215719D01*
X122941844Y-67431218D01*
X123318967Y-66461471D02*
X123372842Y-66407597D01*
X123453654Y-66380659D01*
X123507529Y-66380659D01*
X123588341Y-66407597D01*
X123723028Y-66488409D01*
X123857715Y-66623096D01*
X123938528Y-66757783D01*
X123965465Y-66838595D01*
X123965465Y-66892470D01*
X123938528Y-66973282D01*
X123884653Y-67027157D01*
X123803841Y-67054094D01*
X123749966Y-67054094D01*
X123669154Y-67027157D01*
X123534467Y-66946345D01*
X123399780Y-66811658D01*
X123318967Y-66676971D01*
X123292030Y-66596158D01*
X123292030Y-66542284D01*
X123318967Y-66461471D01*
X122403096Y-77591218D02*
X122322284Y-77618155D01*
X122241471Y-77698967D01*
X122187597Y-77806717D01*
X122187597Y-77914467D01*
X122214534Y-77995279D01*
X122295346Y-78129966D01*
X122376158Y-78210778D01*
X122510845Y-78291590D01*
X122591658Y-78318528D01*
X122699407Y-78318528D01*
X122807157Y-78264653D01*
X122861032Y-78210778D01*
X122914906Y-78103028D01*
X122914906Y-78049154D01*
X122726345Y-77860592D01*
X122618595Y-77968341D01*
X123211218Y-77860592D02*
X122645532Y-77294906D01*
X122861032Y-77079407D01*
X122941844Y-77052470D01*
X122995719Y-77052470D01*
X123076531Y-77079407D01*
X123157343Y-77160219D01*
X123184280Y-77241032D01*
X123184280Y-77294906D01*
X123157343Y-77375719D01*
X122941844Y-77591218D01*
X123157343Y-76783096D02*
X123507529Y-76432910D01*
X123534467Y-76836971D01*
X123615279Y-76756158D01*
X123696091Y-76729221D01*
X123749966Y-76729221D01*
X123830778Y-76756158D01*
X123965465Y-76890845D01*
X123992402Y-76971658D01*
X123992402Y-77025532D01*
X123965465Y-77106345D01*
X123803841Y-77267969D01*
X123723028Y-77294906D01*
X123669154Y-77294906D01*
X122403096Y-80131218D02*
X122322284Y-80158155D01*
X122241471Y-80238967D01*
X122187597Y-80346717D01*
X122187597Y-80454467D01*
X122214534Y-80535279D01*
X122295346Y-80669966D01*
X122376158Y-80750778D01*
X122510845Y-80831590D01*
X122591658Y-80858528D01*
X122699407Y-80858528D01*
X122807157Y-80804653D01*
X122861032Y-80750778D01*
X122914906Y-80643028D01*
X122914906Y-80589154D01*
X122726345Y-80400592D01*
X122618595Y-80508341D01*
X123211218Y-80400592D02*
X122645532Y-79834906D01*
X122861032Y-79619407D01*
X122941844Y-79592470D01*
X122995719Y-79592470D01*
X123076531Y-79619407D01*
X123157343Y-79700219D01*
X123184280Y-79781032D01*
X123184280Y-79834906D01*
X123157343Y-79915719D01*
X122941844Y-80131218D01*
X123642216Y-79215346D02*
X124019340Y-79592470D01*
X123292030Y-79134534D02*
X123561404Y-79673282D01*
X123911590Y-79323096D01*
X122403096Y-82671218D02*
X122322284Y-82698155D01*
X122241471Y-82778967D01*
X122187597Y-82886717D01*
X122187597Y-82994467D01*
X122214534Y-83075279D01*
X122295346Y-83209966D01*
X122376158Y-83290778D01*
X122510845Y-83371590D01*
X122591658Y-83398528D01*
X122699407Y-83398528D01*
X122807157Y-83344653D01*
X122861032Y-83290778D01*
X122914906Y-83183028D01*
X122914906Y-83129154D01*
X122726345Y-82940592D01*
X122618595Y-83048341D01*
X123211218Y-82940592D02*
X122645532Y-82374906D01*
X122861032Y-82159407D01*
X122941844Y-82132470D01*
X122995719Y-82132470D01*
X123076531Y-82159407D01*
X123157343Y-82240219D01*
X123184280Y-82321032D01*
X123184280Y-82374906D01*
X123157343Y-82455719D01*
X122941844Y-82671218D01*
X123480592Y-81539847D02*
X123211218Y-81809221D01*
X123453654Y-82105532D01*
X123453654Y-82051658D01*
X123480592Y-81970845D01*
X123615279Y-81836158D01*
X123696091Y-81809221D01*
X123749966Y-81809221D01*
X123830778Y-81836158D01*
X123965465Y-81970845D01*
X123992402Y-82051658D01*
X123992402Y-82105532D01*
X123965465Y-82186345D01*
X123830778Y-82321032D01*
X123749966Y-82347969D01*
X123696091Y-82347969D01*
X122403096Y-87751218D02*
X122322284Y-87778155D01*
X122241471Y-87858967D01*
X122187597Y-87966717D01*
X122187597Y-88074467D01*
X122214534Y-88155279D01*
X122295346Y-88289966D01*
X122376158Y-88370778D01*
X122510845Y-88451590D01*
X122591658Y-88478528D01*
X122699407Y-88478528D01*
X122807157Y-88424653D01*
X122861032Y-88370778D01*
X122914906Y-88263028D01*
X122914906Y-88209154D01*
X122726345Y-88020592D01*
X122618595Y-88128341D01*
X123211218Y-88020592D02*
X122645532Y-87454906D01*
X122861032Y-87239407D01*
X122941844Y-87212470D01*
X122995719Y-87212470D01*
X123076531Y-87239407D01*
X123157343Y-87320219D01*
X123184280Y-87401032D01*
X123184280Y-87454906D01*
X123157343Y-87535719D01*
X122941844Y-87751218D01*
X123453654Y-86646784D02*
X123345905Y-86754534D01*
X123318967Y-86835346D01*
X123318967Y-86889221D01*
X123345905Y-87023908D01*
X123426717Y-87158595D01*
X123642216Y-87374094D01*
X123723028Y-87401032D01*
X123776903Y-87401032D01*
X123857715Y-87374094D01*
X123965465Y-87266345D01*
X123992402Y-87185532D01*
X123992402Y-87131658D01*
X123965465Y-87050845D01*
X123830778Y-86916158D01*
X123749966Y-86889221D01*
X123696091Y-86889221D01*
X123615279Y-86916158D01*
X123507529Y-87023908D01*
X123480592Y-87104720D01*
X123480592Y-87158595D01*
X123507529Y-87239407D01*
X122503096Y-90261218D02*
X122422284Y-90288155D01*
X122341471Y-90368967D01*
X122287597Y-90476717D01*
X122287597Y-90584467D01*
X122314534Y-90665279D01*
X122395346Y-90799966D01*
X122476158Y-90880778D01*
X122610845Y-90961590D01*
X122691658Y-90988528D01*
X122799407Y-90988528D01*
X122907157Y-90934653D01*
X122961032Y-90880778D01*
X123014906Y-90773028D01*
X123014906Y-90719154D01*
X122826345Y-90530592D01*
X122718595Y-90638341D01*
X123311218Y-90530592D02*
X122745532Y-89964906D01*
X122961032Y-89749407D01*
X123041844Y-89722470D01*
X123095719Y-89722470D01*
X123176531Y-89749407D01*
X123257343Y-89830219D01*
X123284280Y-89911032D01*
X123284280Y-89964906D01*
X123257343Y-90045719D01*
X123041844Y-90261218D01*
X123257343Y-89453096D02*
X123634467Y-89075972D01*
X123957715Y-89884094D01*
X122403096Y-92831218D02*
X122322284Y-92858155D01*
X122241471Y-92938967D01*
X122187597Y-93046717D01*
X122187597Y-93154467D01*
X122214534Y-93235279D01*
X122295346Y-93369966D01*
X122376158Y-93450778D01*
X122510845Y-93531590D01*
X122591658Y-93558528D01*
X122699407Y-93558528D01*
X122807157Y-93504653D01*
X122861032Y-93450778D01*
X122914906Y-93343028D01*
X122914906Y-93289154D01*
X122726345Y-93100592D01*
X122618595Y-93208341D01*
X123211218Y-93100592D02*
X122645532Y-92534906D01*
X122861032Y-92319407D01*
X122941844Y-92292470D01*
X122995719Y-92292470D01*
X123076531Y-92319407D01*
X123157343Y-92400219D01*
X123184280Y-92481032D01*
X123184280Y-92534906D01*
X123157343Y-92615719D01*
X122941844Y-92831218D01*
X123534467Y-92130845D02*
X123453654Y-92157783D01*
X123399780Y-92157783D01*
X123318967Y-92130845D01*
X123292030Y-92103908D01*
X123265093Y-92023096D01*
X123265093Y-91969221D01*
X123292030Y-91888409D01*
X123399780Y-91780659D01*
X123480592Y-91753722D01*
X123534467Y-91753722D01*
X123615279Y-91780659D01*
X123642216Y-91807597D01*
X123669154Y-91888409D01*
X123669154Y-91942284D01*
X123642216Y-92023096D01*
X123534467Y-92130845D01*
X123507529Y-92211658D01*
X123507529Y-92265532D01*
X123534467Y-92346345D01*
X123642216Y-92454094D01*
X123723028Y-92481032D01*
X123776903Y-92481032D01*
X123857715Y-92454094D01*
X123965465Y-92346345D01*
X123992402Y-92265532D01*
X123992402Y-92211658D01*
X123965465Y-92130845D01*
X123857715Y-92023096D01*
X123776903Y-91996158D01*
X123723028Y-91996158D01*
X123642216Y-92023096D01*
X122403096Y-95371218D02*
X122322284Y-95398155D01*
X122241471Y-95478967D01*
X122187597Y-95586717D01*
X122187597Y-95694467D01*
X122214534Y-95775279D01*
X122295346Y-95909966D01*
X122376158Y-95990778D01*
X122510845Y-96071590D01*
X122591658Y-96098528D01*
X122699407Y-96098528D01*
X122807157Y-96044653D01*
X122861032Y-95990778D01*
X122914906Y-95883028D01*
X122914906Y-95829154D01*
X122726345Y-95640592D01*
X122618595Y-95748341D01*
X123211218Y-95640592D02*
X122645532Y-95074906D01*
X122861032Y-94859407D01*
X122941844Y-94832470D01*
X122995719Y-94832470D01*
X123076531Y-94859407D01*
X123157343Y-94940219D01*
X123184280Y-95021032D01*
X123184280Y-95074906D01*
X123157343Y-95155719D01*
X122941844Y-95371218D01*
X123803841Y-95047969D02*
X123911590Y-94940219D01*
X123938528Y-94859407D01*
X123938528Y-94805532D01*
X123911590Y-94670845D01*
X123830778Y-94536158D01*
X123615279Y-94320659D01*
X123534467Y-94293722D01*
X123480592Y-94293722D01*
X123399780Y-94320659D01*
X123292030Y-94428409D01*
X123265093Y-94509221D01*
X123265093Y-94563096D01*
X123292030Y-94643908D01*
X123426717Y-94778595D01*
X123507529Y-94805532D01*
X123561404Y-94805532D01*
X123642216Y-94778595D01*
X123749966Y-94670845D01*
X123776903Y-94590033D01*
X123776903Y-94536158D01*
X123749966Y-94455346D01*
X121879722Y-100720592D02*
X121798910Y-100747529D01*
X121718097Y-100828341D01*
X121664223Y-100936091D01*
X121664223Y-101043841D01*
X121691160Y-101124653D01*
X121771972Y-101259340D01*
X121852784Y-101340152D01*
X121987471Y-101420964D01*
X122068284Y-101447902D01*
X122176033Y-101447902D01*
X122283783Y-101394027D01*
X122337658Y-101340152D01*
X122391532Y-101232402D01*
X122391532Y-101178528D01*
X122202971Y-100989966D01*
X122095221Y-101097715D01*
X122687844Y-100989966D02*
X122122158Y-100424280D01*
X122337658Y-100208781D01*
X122418470Y-100181844D01*
X122472345Y-100181844D01*
X122553157Y-100208781D01*
X122633969Y-100289593D01*
X122660906Y-100370406D01*
X122660906Y-100424280D01*
X122633969Y-100505093D01*
X122418470Y-100720592D01*
X123549841Y-100127969D02*
X123226592Y-100451218D01*
X123388216Y-100289593D02*
X122822531Y-99723908D01*
X122849468Y-99858595D01*
X122849468Y-99966345D01*
X122822531Y-100047157D01*
X123334341Y-99212097D02*
X123388216Y-99158223D01*
X123469028Y-99131285D01*
X123522903Y-99131285D01*
X123603715Y-99158223D01*
X123738402Y-99239035D01*
X123873089Y-99373722D01*
X123953902Y-99508409D01*
X123980839Y-99589221D01*
X123980839Y-99643096D01*
X123953902Y-99723908D01*
X123900027Y-99777783D01*
X123819215Y-99804720D01*
X123765340Y-99804720D01*
X123684528Y-99777783D01*
X123549841Y-99696971D01*
X123415154Y-99562284D01*
X123334341Y-99427597D01*
X123307404Y-99346784D01*
X123307404Y-99292910D01*
X123334341Y-99212097D01*
X121733722Y-103260592D02*
X121652910Y-103287529D01*
X121572097Y-103368341D01*
X121518223Y-103476091D01*
X121518223Y-103583841D01*
X121545160Y-103664653D01*
X121625972Y-103799340D01*
X121706784Y-103880152D01*
X121841471Y-103960964D01*
X121922284Y-103987902D01*
X122030033Y-103987902D01*
X122137783Y-103934027D01*
X122191658Y-103880152D01*
X122245532Y-103772402D01*
X122245532Y-103718528D01*
X122056971Y-103529966D01*
X121949221Y-103637715D01*
X122541844Y-103529966D02*
X121976158Y-102964280D01*
X122191658Y-102748781D01*
X122272470Y-102721844D01*
X122326345Y-102721844D01*
X122407157Y-102748781D01*
X122487969Y-102829593D01*
X122514906Y-102910406D01*
X122514906Y-102964280D01*
X122487969Y-103045093D01*
X122272470Y-103260592D01*
X123403841Y-102667969D02*
X123080592Y-102991218D01*
X123242216Y-102829593D02*
X122676531Y-102263908D01*
X122703468Y-102398595D01*
X122703468Y-102506345D01*
X122676531Y-102587157D01*
X123942589Y-102129221D02*
X123619340Y-102452470D01*
X123780964Y-102290845D02*
X123215279Y-101725160D01*
X123242216Y-101859847D01*
X123242216Y-101967597D01*
X123215279Y-102048409D01*
X121733722Y-105800592D02*
X121652910Y-105827529D01*
X121572097Y-105908341D01*
X121518223Y-106016091D01*
X121518223Y-106123841D01*
X121545160Y-106204653D01*
X121625972Y-106339340D01*
X121706784Y-106420152D01*
X121841471Y-106500964D01*
X121922284Y-106527902D01*
X122030033Y-106527902D01*
X122137783Y-106474027D01*
X122191658Y-106420152D01*
X122245532Y-106312402D01*
X122245532Y-106258528D01*
X122056971Y-106069966D01*
X121949221Y-106177715D01*
X122541844Y-106069966D02*
X121976158Y-105504280D01*
X122191658Y-105288781D01*
X122272470Y-105261844D01*
X122326345Y-105261844D01*
X122407157Y-105288781D01*
X122487969Y-105369593D01*
X122514906Y-105450406D01*
X122514906Y-105504280D01*
X122487969Y-105585093D01*
X122272470Y-105800592D01*
X123403841Y-105207969D02*
X123080592Y-105531218D01*
X123242216Y-105369593D02*
X122676531Y-104803908D01*
X122703468Y-104938595D01*
X122703468Y-105046345D01*
X122676531Y-105127157D01*
X123107529Y-104480659D02*
X123107529Y-104426784D01*
X123134467Y-104345972D01*
X123269154Y-104211285D01*
X123349966Y-104184348D01*
X123403841Y-104184348D01*
X123484653Y-104211285D01*
X123538528Y-104265160D01*
X123592402Y-104372910D01*
X123592402Y-105019407D01*
X123942589Y-104669221D01*
X121879722Y-108340592D02*
X121798910Y-108367529D01*
X121718097Y-108448341D01*
X121664223Y-108556091D01*
X121664223Y-108663841D01*
X121691160Y-108744653D01*
X121771972Y-108879340D01*
X121852784Y-108960152D01*
X121987471Y-109040964D01*
X122068284Y-109067902D01*
X122176033Y-109067902D01*
X122283783Y-109014027D01*
X122337658Y-108960152D01*
X122391532Y-108852402D01*
X122391532Y-108798528D01*
X122202971Y-108609966D01*
X122095221Y-108717715D01*
X122687844Y-108609966D02*
X122122158Y-108044280D01*
X122337658Y-107828781D01*
X122418470Y-107801844D01*
X122472345Y-107801844D01*
X122553157Y-107828781D01*
X122633969Y-107909593D01*
X122660906Y-107990406D01*
X122660906Y-108044280D01*
X122633969Y-108125093D01*
X122418470Y-108340592D01*
X123549841Y-107747969D02*
X123226592Y-108071218D01*
X123388216Y-107909593D02*
X122822531Y-107343908D01*
X122849468Y-107478595D01*
X122849468Y-107586345D01*
X122822531Y-107667157D01*
X123172717Y-106993722D02*
X123522903Y-106643536D01*
X123549841Y-107047597D01*
X123630653Y-106966784D01*
X123711465Y-106939847D01*
X123765340Y-106939847D01*
X123846152Y-106966784D01*
X123980839Y-107101471D01*
X124007776Y-107182284D01*
X124007776Y-107236158D01*
X123980839Y-107316971D01*
X123819215Y-107478595D01*
X123738402Y-107505532D01*
X123684528Y-107505532D01*
X121833722Y-113420592D02*
X121752910Y-113447529D01*
X121672097Y-113528341D01*
X121618223Y-113636091D01*
X121618223Y-113743841D01*
X121645160Y-113824653D01*
X121725972Y-113959340D01*
X121806784Y-114040152D01*
X121941471Y-114120964D01*
X122022284Y-114147902D01*
X122130033Y-114147902D01*
X122237783Y-114094027D01*
X122291658Y-114040152D01*
X122345532Y-113932402D01*
X122345532Y-113878528D01*
X122156971Y-113689966D01*
X122049221Y-113797715D01*
X122641844Y-113689966D02*
X122076158Y-113124280D01*
X122291658Y-112908781D01*
X122372470Y-112881844D01*
X122426345Y-112881844D01*
X122507157Y-112908781D01*
X122587969Y-112989593D01*
X122614906Y-113070406D01*
X122614906Y-113124280D01*
X122587969Y-113205093D01*
X122372470Y-113420592D01*
X123503841Y-112827969D02*
X123180592Y-113151218D01*
X123342216Y-112989593D02*
X122776531Y-112423908D01*
X122803468Y-112558595D01*
X122803468Y-112666345D01*
X122776531Y-112747157D01*
X123611590Y-111965972D02*
X123988714Y-112343096D01*
X123261404Y-111885160D02*
X123530778Y-112423908D01*
X123880964Y-112073722D01*
X121879722Y-115960592D02*
X121798910Y-115987529D01*
X121718097Y-116068341D01*
X121664223Y-116176091D01*
X121664223Y-116283841D01*
X121691160Y-116364653D01*
X121771972Y-116499340D01*
X121852784Y-116580152D01*
X121987471Y-116660964D01*
X122068284Y-116687902D01*
X122176033Y-116687902D01*
X122283783Y-116634027D01*
X122337658Y-116580152D01*
X122391532Y-116472402D01*
X122391532Y-116418528D01*
X122202971Y-116229966D01*
X122095221Y-116337715D01*
X122687844Y-116229966D02*
X122122158Y-115664280D01*
X122337658Y-115448781D01*
X122418470Y-115421844D01*
X122472345Y-115421844D01*
X122553157Y-115448781D01*
X122633969Y-115529593D01*
X122660906Y-115610406D01*
X122660906Y-115664280D01*
X122633969Y-115745093D01*
X122418470Y-115960592D01*
X123549841Y-115367969D02*
X123226592Y-115691218D01*
X123388216Y-115529593D02*
X122822531Y-114963908D01*
X122849468Y-115098595D01*
X122849468Y-115206345D01*
X122822531Y-115287157D01*
X123495966Y-114290473D02*
X123226592Y-114559847D01*
X123469028Y-114856158D01*
X123469028Y-114802284D01*
X123495966Y-114721471D01*
X123630653Y-114586784D01*
X123711465Y-114559847D01*
X123765340Y-114559847D01*
X123846152Y-114586784D01*
X123980839Y-114721471D01*
X124007776Y-114802284D01*
X124007776Y-114856158D01*
X123980839Y-114936971D01*
X123846152Y-115071658D01*
X123765340Y-115098595D01*
X123711465Y-115098595D01*
X147987722Y-115960592D02*
X147906910Y-115987529D01*
X147826097Y-116068341D01*
X147772223Y-116176091D01*
X147772223Y-116283841D01*
X147799160Y-116364653D01*
X147879972Y-116499340D01*
X147960784Y-116580152D01*
X148095471Y-116660964D01*
X148176284Y-116687902D01*
X148284033Y-116687902D01*
X148391783Y-116634027D01*
X148445658Y-116580152D01*
X148499532Y-116472402D01*
X148499532Y-116418528D01*
X148310971Y-116229966D01*
X148203221Y-116337715D01*
X148795844Y-116229966D02*
X148230158Y-115664280D01*
X148445658Y-115448781D01*
X148526470Y-115421844D01*
X148580345Y-115421844D01*
X148661157Y-115448781D01*
X148741969Y-115529593D01*
X148768906Y-115610406D01*
X148768906Y-115664280D01*
X148741969Y-115745093D01*
X148526470Y-115960592D01*
X149657841Y-115367969D02*
X149334592Y-115691218D01*
X149496216Y-115529593D02*
X148930531Y-114963908D01*
X148957468Y-115098595D01*
X148957468Y-115206345D01*
X148930531Y-115287157D01*
X149577028Y-114317410D02*
X149469279Y-114425160D01*
X149442341Y-114505972D01*
X149442341Y-114559847D01*
X149469279Y-114694534D01*
X149550091Y-114829221D01*
X149765590Y-115044720D01*
X149846402Y-115071658D01*
X149900277Y-115071658D01*
X149981089Y-115044720D01*
X150088839Y-114936971D01*
X150115776Y-114856158D01*
X150115776Y-114802284D01*
X150088839Y-114721471D01*
X149954152Y-114586784D01*
X149873340Y-114559847D01*
X149819465Y-114559847D01*
X149738653Y-114586784D01*
X149630903Y-114694534D01*
X149603966Y-114775346D01*
X149603966Y-114829221D01*
X149630903Y-114910033D01*
X147987722Y-113420592D02*
X147906910Y-113447529D01*
X147826097Y-113528341D01*
X147772223Y-113636091D01*
X147772223Y-113743841D01*
X147799160Y-113824653D01*
X147879972Y-113959340D01*
X147960784Y-114040152D01*
X148095471Y-114120964D01*
X148176284Y-114147902D01*
X148284033Y-114147902D01*
X148391783Y-114094027D01*
X148445658Y-114040152D01*
X148499532Y-113932402D01*
X148499532Y-113878528D01*
X148310971Y-113689966D01*
X148203221Y-113797715D01*
X148795844Y-113689966D02*
X148230158Y-113124280D01*
X148445658Y-112908781D01*
X148526470Y-112881844D01*
X148580345Y-112881844D01*
X148661157Y-112908781D01*
X148741969Y-112989593D01*
X148768906Y-113070406D01*
X148768906Y-113124280D01*
X148741969Y-113205093D01*
X148526470Y-113420592D01*
X149657841Y-112827969D02*
X149334592Y-113151218D01*
X149496216Y-112989593D02*
X148930531Y-112423908D01*
X148957468Y-112558595D01*
X148957468Y-112666345D01*
X148930531Y-112747157D01*
X149280717Y-112073722D02*
X149657841Y-111696598D01*
X149981089Y-112504720D01*
X147987722Y-108340592D02*
X147906910Y-108367529D01*
X147826097Y-108448341D01*
X147772223Y-108556091D01*
X147772223Y-108663841D01*
X147799160Y-108744653D01*
X147879972Y-108879340D01*
X147960784Y-108960152D01*
X148095471Y-109040964D01*
X148176284Y-109067902D01*
X148284033Y-109067902D01*
X148391783Y-109014027D01*
X148445658Y-108960152D01*
X148499532Y-108852402D01*
X148499532Y-108798528D01*
X148310971Y-108609966D01*
X148203221Y-108717715D01*
X148795844Y-108609966D02*
X148230158Y-108044280D01*
X148445658Y-107828781D01*
X148526470Y-107801844D01*
X148580345Y-107801844D01*
X148661157Y-107828781D01*
X148741969Y-107909593D01*
X148768906Y-107990406D01*
X148768906Y-108044280D01*
X148741969Y-108125093D01*
X148526470Y-108340592D01*
X149657841Y-107747969D02*
X149334592Y-108071218D01*
X149496216Y-107909593D02*
X148930531Y-107343908D01*
X148957468Y-107478595D01*
X148957468Y-107586345D01*
X148930531Y-107667157D01*
X149657841Y-107101471D02*
X149577028Y-107128409D01*
X149523154Y-107128409D01*
X149442341Y-107101471D01*
X149415404Y-107074534D01*
X149388467Y-106993722D01*
X149388467Y-106939847D01*
X149415404Y-106859035D01*
X149523154Y-106751285D01*
X149603966Y-106724348D01*
X149657841Y-106724348D01*
X149738653Y-106751285D01*
X149765590Y-106778223D01*
X149792528Y-106859035D01*
X149792528Y-106912910D01*
X149765590Y-106993722D01*
X149657841Y-107101471D01*
X149630903Y-107182284D01*
X149630903Y-107236158D01*
X149657841Y-107316971D01*
X149765590Y-107424720D01*
X149846402Y-107451658D01*
X149900277Y-107451658D01*
X149981089Y-107424720D01*
X150088839Y-107316971D01*
X150115776Y-107236158D01*
X150115776Y-107182284D01*
X150088839Y-107101471D01*
X149981089Y-106993722D01*
X149900277Y-106966784D01*
X149846402Y-106966784D01*
X149765590Y-106993722D01*
X147987722Y-105800592D02*
X147906910Y-105827529D01*
X147826097Y-105908341D01*
X147772223Y-106016091D01*
X147772223Y-106123841D01*
X147799160Y-106204653D01*
X147879972Y-106339340D01*
X147960784Y-106420152D01*
X148095471Y-106500964D01*
X148176284Y-106527902D01*
X148284033Y-106527902D01*
X148391783Y-106474027D01*
X148445658Y-106420152D01*
X148499532Y-106312402D01*
X148499532Y-106258528D01*
X148310971Y-106069966D01*
X148203221Y-106177715D01*
X148795844Y-106069966D02*
X148230158Y-105504280D01*
X148445658Y-105288781D01*
X148526470Y-105261844D01*
X148580345Y-105261844D01*
X148661157Y-105288781D01*
X148741969Y-105369593D01*
X148768906Y-105450406D01*
X148768906Y-105504280D01*
X148741969Y-105585093D01*
X148526470Y-105800592D01*
X149657841Y-105207969D02*
X149334592Y-105531218D01*
X149496216Y-105369593D02*
X148930531Y-104803908D01*
X148957468Y-104938595D01*
X148957468Y-105046345D01*
X148930531Y-105127157D01*
X149927215Y-104938595D02*
X150034964Y-104830845D01*
X150061902Y-104750033D01*
X150061902Y-104696158D01*
X150034964Y-104561471D01*
X149954152Y-104426784D01*
X149738653Y-104211285D01*
X149657841Y-104184348D01*
X149603966Y-104184348D01*
X149523154Y-104211285D01*
X149415404Y-104319035D01*
X149388467Y-104399847D01*
X149388467Y-104453722D01*
X149415404Y-104534534D01*
X149550091Y-104669221D01*
X149630903Y-104696158D01*
X149684778Y-104696158D01*
X149765590Y-104669221D01*
X149873340Y-104561471D01*
X149900277Y-104480659D01*
X149900277Y-104426784D01*
X149873340Y-104345972D01*
X147987722Y-103260592D02*
X147906910Y-103287529D01*
X147826097Y-103368341D01*
X147772223Y-103476091D01*
X147772223Y-103583841D01*
X147799160Y-103664653D01*
X147879972Y-103799340D01*
X147960784Y-103880152D01*
X148095471Y-103960964D01*
X148176284Y-103987902D01*
X148284033Y-103987902D01*
X148391783Y-103934027D01*
X148445658Y-103880152D01*
X148499532Y-103772402D01*
X148499532Y-103718528D01*
X148310971Y-103529966D01*
X148203221Y-103637715D01*
X148795844Y-103529966D02*
X148230158Y-102964280D01*
X148445658Y-102748781D01*
X148526470Y-102721844D01*
X148580345Y-102721844D01*
X148661157Y-102748781D01*
X148741969Y-102829593D01*
X148768906Y-102910406D01*
X148768906Y-102964280D01*
X148741969Y-103045093D01*
X148526470Y-103260592D01*
X148822781Y-102479407D02*
X148822781Y-102425532D01*
X148849719Y-102344720D01*
X148984406Y-102210033D01*
X149065218Y-102183096D01*
X149119093Y-102183096D01*
X149199905Y-102210033D01*
X149253780Y-102263908D01*
X149307654Y-102371658D01*
X149307654Y-103018155D01*
X149657841Y-102667969D01*
X149442341Y-101752097D02*
X149496216Y-101698223D01*
X149577028Y-101671285D01*
X149630903Y-101671285D01*
X149711715Y-101698223D01*
X149846402Y-101779035D01*
X149981089Y-101913722D01*
X150061902Y-102048409D01*
X150088839Y-102129221D01*
X150088839Y-102183096D01*
X150061902Y-102263908D01*
X150008027Y-102317783D01*
X149927215Y-102344720D01*
X149873340Y-102344720D01*
X149792528Y-102317783D01*
X149657841Y-102236971D01*
X149523154Y-102102284D01*
X149442341Y-101967597D01*
X149415404Y-101886784D01*
X149415404Y-101832910D01*
X149442341Y-101752097D01*
X147987722Y-100730592D02*
X147906910Y-100757529D01*
X147826097Y-100838341D01*
X147772223Y-100946091D01*
X147772223Y-101053841D01*
X147799160Y-101134653D01*
X147879972Y-101269340D01*
X147960784Y-101350152D01*
X148095471Y-101430964D01*
X148176284Y-101457902D01*
X148284033Y-101457902D01*
X148391783Y-101404027D01*
X148445658Y-101350152D01*
X148499532Y-101242402D01*
X148499532Y-101188528D01*
X148310971Y-100999966D01*
X148203221Y-101107715D01*
X148795844Y-100999966D02*
X148230158Y-100434280D01*
X148445658Y-100218781D01*
X148526470Y-100191844D01*
X148580345Y-100191844D01*
X148661157Y-100218781D01*
X148741969Y-100299593D01*
X148768906Y-100380406D01*
X148768906Y-100434280D01*
X148741969Y-100515093D01*
X148526470Y-100730592D01*
X148822781Y-99949407D02*
X148822781Y-99895532D01*
X148849719Y-99814720D01*
X148984406Y-99680033D01*
X149065218Y-99653096D01*
X149119093Y-99653096D01*
X149199905Y-99680033D01*
X149253780Y-99733908D01*
X149307654Y-99841658D01*
X149307654Y-100488155D01*
X149657841Y-100137969D01*
X150196589Y-99599221D02*
X149873340Y-99922470D01*
X150034964Y-99760845D02*
X149469279Y-99195160D01*
X149496216Y-99329847D01*
X149496216Y-99437597D01*
X149469279Y-99518409D01*
X147987722Y-95640592D02*
X147906910Y-95667529D01*
X147826097Y-95748341D01*
X147772223Y-95856091D01*
X147772223Y-95963841D01*
X147799160Y-96044653D01*
X147879972Y-96179340D01*
X147960784Y-96260152D01*
X148095471Y-96340964D01*
X148176284Y-96367902D01*
X148284033Y-96367902D01*
X148391783Y-96314027D01*
X148445658Y-96260152D01*
X148499532Y-96152402D01*
X148499532Y-96098528D01*
X148310971Y-95909966D01*
X148203221Y-96017715D01*
X148795844Y-95909966D02*
X148230158Y-95344280D01*
X148445658Y-95128781D01*
X148526470Y-95101844D01*
X148580345Y-95101844D01*
X148661157Y-95128781D01*
X148741969Y-95209593D01*
X148768906Y-95290406D01*
X148768906Y-95344280D01*
X148741969Y-95425093D01*
X148526470Y-95640592D01*
X148822781Y-94859407D02*
X148822781Y-94805532D01*
X148849719Y-94724720D01*
X148984406Y-94590033D01*
X149065218Y-94563096D01*
X149119093Y-94563096D01*
X149199905Y-94590033D01*
X149253780Y-94643908D01*
X149307654Y-94751658D01*
X149307654Y-95398155D01*
X149657841Y-95047969D01*
X149361529Y-94320659D02*
X149361529Y-94266784D01*
X149388467Y-94185972D01*
X149523154Y-94051285D01*
X149603966Y-94024348D01*
X149657841Y-94024348D01*
X149738653Y-94051285D01*
X149792528Y-94105160D01*
X149846402Y-94212910D01*
X149846402Y-94859407D01*
X150196589Y-94509221D01*
X148728375Y-93383435D02*
X148270439Y-93302622D01*
X148405126Y-93706683D02*
X147839441Y-93140998D01*
X148054940Y-92925499D01*
X148135752Y-92898561D01*
X148189627Y-92898561D01*
X148270439Y-92925499D01*
X148351251Y-93006311D01*
X148378189Y-93087123D01*
X148378189Y-93140998D01*
X148351251Y-93221810D01*
X148135752Y-93437309D01*
X148405126Y-92575312D02*
X148863062Y-93033248D01*
X148943874Y-93060186D01*
X148997749Y-93060186D01*
X149078561Y-93033248D01*
X149186311Y-92925499D01*
X149213248Y-92844687D01*
X149213248Y-92790812D01*
X149186311Y-92709999D01*
X148728375Y-92252064D01*
X149563435Y-92548375D02*
X148997749Y-91982690D01*
X149886683Y-92225126D01*
X149320998Y-91659441D01*
X147987722Y-90560592D02*
X147906910Y-90587529D01*
X147826097Y-90668341D01*
X147772223Y-90776091D01*
X147772223Y-90883841D01*
X147799160Y-90964653D01*
X147879972Y-91099340D01*
X147960784Y-91180152D01*
X148095471Y-91260964D01*
X148176284Y-91287902D01*
X148284033Y-91287902D01*
X148391783Y-91234027D01*
X148445658Y-91180152D01*
X148499532Y-91072402D01*
X148499532Y-91018528D01*
X148310971Y-90829966D01*
X148203221Y-90937715D01*
X148795844Y-90829966D02*
X148230158Y-90264280D01*
X148445658Y-90048781D01*
X148526470Y-90021844D01*
X148580345Y-90021844D01*
X148661157Y-90048781D01*
X148741969Y-90129593D01*
X148768906Y-90210406D01*
X148768906Y-90264280D01*
X148741969Y-90345093D01*
X148526470Y-90560592D01*
X148822781Y-89779407D02*
X148822781Y-89725532D01*
X148849719Y-89644720D01*
X148984406Y-89510033D01*
X149065218Y-89483096D01*
X149119093Y-89483096D01*
X149199905Y-89510033D01*
X149253780Y-89563908D01*
X149307654Y-89671658D01*
X149307654Y-90318155D01*
X149657841Y-89967969D01*
X149577028Y-88917410D02*
X149469279Y-89025160D01*
X149442341Y-89105972D01*
X149442341Y-89159847D01*
X149469279Y-89294534D01*
X149550091Y-89429221D01*
X149765590Y-89644720D01*
X149846402Y-89671658D01*
X149900277Y-89671658D01*
X149981089Y-89644720D01*
X150088839Y-89536971D01*
X150115776Y-89456158D01*
X150115776Y-89402284D01*
X150088839Y-89321471D01*
X149954152Y-89186784D01*
X149873340Y-89159847D01*
X149819465Y-89159847D01*
X149738653Y-89186784D01*
X149630903Y-89294534D01*
X149603966Y-89375346D01*
X149603966Y-89429221D01*
X149630903Y-89510033D01*
X147987722Y-88030592D02*
X147906910Y-88057529D01*
X147826097Y-88138341D01*
X147772223Y-88246091D01*
X147772223Y-88353841D01*
X147799160Y-88434653D01*
X147879972Y-88569340D01*
X147960784Y-88650152D01*
X148095471Y-88730964D01*
X148176284Y-88757902D01*
X148284033Y-88757902D01*
X148391783Y-88704027D01*
X148445658Y-88650152D01*
X148499532Y-88542402D01*
X148499532Y-88488528D01*
X148310971Y-88299966D01*
X148203221Y-88407715D01*
X148795844Y-88299966D02*
X148230158Y-87734280D01*
X148445658Y-87518781D01*
X148526470Y-87491844D01*
X148580345Y-87491844D01*
X148661157Y-87518781D01*
X148741969Y-87599593D01*
X148768906Y-87680406D01*
X148768906Y-87734280D01*
X148741969Y-87815093D01*
X148526470Y-88030592D01*
X148822781Y-87249407D02*
X148822781Y-87195532D01*
X148849719Y-87114720D01*
X148984406Y-86980033D01*
X149065218Y-86953096D01*
X149119093Y-86953096D01*
X149199905Y-86980033D01*
X149253780Y-87033908D01*
X149307654Y-87141658D01*
X149307654Y-87788155D01*
X149657841Y-87437969D01*
X149280717Y-86683722D02*
X149657841Y-86306598D01*
X149981089Y-87114720D01*
X147987722Y-82686592D02*
X147906910Y-82713529D01*
X147826097Y-82794341D01*
X147772223Y-82902091D01*
X147772223Y-83009841D01*
X147799160Y-83090653D01*
X147879972Y-83225340D01*
X147960784Y-83306152D01*
X148095471Y-83386964D01*
X148176284Y-83413902D01*
X148284033Y-83413902D01*
X148391783Y-83360027D01*
X148445658Y-83306152D01*
X148499532Y-83198402D01*
X148499532Y-83144528D01*
X148310971Y-82955966D01*
X148203221Y-83063715D01*
X148795844Y-82955966D02*
X148230158Y-82390280D01*
X148445658Y-82174781D01*
X148526470Y-82147844D01*
X148580345Y-82147844D01*
X148661157Y-82174781D01*
X148741969Y-82255593D01*
X148768906Y-82336406D01*
X148768906Y-82390280D01*
X148741969Y-82471093D01*
X148526470Y-82686592D01*
X148822781Y-81905407D02*
X148822781Y-81851532D01*
X148849719Y-81770720D01*
X148984406Y-81636033D01*
X149065218Y-81609096D01*
X149119093Y-81609096D01*
X149199905Y-81636033D01*
X149253780Y-81689908D01*
X149307654Y-81797658D01*
X149307654Y-82444155D01*
X149657841Y-82093969D01*
X149657841Y-81447471D02*
X149577028Y-81474409D01*
X149523154Y-81474409D01*
X149442341Y-81447471D01*
X149415404Y-81420534D01*
X149388467Y-81339722D01*
X149388467Y-81285847D01*
X149415404Y-81205035D01*
X149523154Y-81097285D01*
X149603966Y-81070348D01*
X149657841Y-81070348D01*
X149738653Y-81097285D01*
X149765590Y-81124223D01*
X149792528Y-81205035D01*
X149792528Y-81258910D01*
X149765590Y-81339722D01*
X149657841Y-81447471D01*
X149630903Y-81528284D01*
X149630903Y-81582158D01*
X149657841Y-81662971D01*
X149765590Y-81770720D01*
X149846402Y-81797658D01*
X149900277Y-81797658D01*
X149981089Y-81770720D01*
X150088839Y-81662971D01*
X150115776Y-81582158D01*
X150115776Y-81528284D01*
X150088839Y-81447471D01*
X149981089Y-81339722D01*
X149900277Y-81312784D01*
X149846402Y-81312784D01*
X149765590Y-81339722D01*
X148044788Y-80973773D02*
X148314162Y-80704399D01*
X148152537Y-81189272D02*
X147775414Y-80435025D01*
X148529661Y-80812149D01*
X148718223Y-80623587D02*
X148152537Y-80057902D01*
X148287224Y-79923215D01*
X148394974Y-79869340D01*
X148502723Y-79869340D01*
X148583536Y-79896277D01*
X148718223Y-79977089D01*
X148799035Y-80057902D01*
X148879847Y-80192589D01*
X148906784Y-80273401D01*
X148906784Y-80381150D01*
X148852910Y-80488900D01*
X148718223Y-80623587D01*
X149553282Y-79680778D02*
X149553282Y-79734653D01*
X149499407Y-79842402D01*
X149445532Y-79896277D01*
X149337783Y-79950152D01*
X149230033Y-79950152D01*
X149149221Y-79923215D01*
X149014534Y-79842402D01*
X148933722Y-79761590D01*
X148852910Y-79626903D01*
X148825972Y-79546091D01*
X148825972Y-79438341D01*
X148879847Y-79330592D01*
X148933722Y-79276717D01*
X149041471Y-79222842D01*
X149095346Y-79222842D01*
X149768781Y-79680778D02*
X150199780Y-79249780D01*
X149634094Y-78576345D02*
X150388341Y-78953468D01*
X150011218Y-78199221D01*
X151088714Y-78253096D02*
X150630778Y-78172284D01*
X150765465Y-78576345D02*
X150199780Y-78010659D01*
X150415279Y-77795160D01*
X150496091Y-77768223D01*
X150549966Y-77768223D01*
X150630778Y-77795160D01*
X150711590Y-77875972D01*
X150738528Y-77956784D01*
X150738528Y-78010659D01*
X150711590Y-78091471D01*
X150496091Y-78306971D01*
X151034839Y-77714348D02*
X151223401Y-77525786D01*
X151600524Y-77741285D02*
X151331150Y-78010659D01*
X150765465Y-77444974D01*
X151034839Y-77175600D01*
X151735211Y-77013975D02*
X151546650Y-77202537D01*
X151842961Y-77498849D02*
X151277276Y-76933163D01*
X151546650Y-76663789D01*
X147779847Y-77930592D02*
X148130033Y-77580406D01*
X148156971Y-77984467D01*
X148237783Y-77903654D01*
X148318595Y-77876717D01*
X148372470Y-77876717D01*
X148453282Y-77903654D01*
X148587969Y-78038341D01*
X148614906Y-78119154D01*
X148614906Y-78173028D01*
X148587969Y-78253841D01*
X148426345Y-78415465D01*
X148345532Y-78442402D01*
X148291658Y-78442402D01*
X148291658Y-77418781D02*
X149045905Y-77795905D01*
X148668781Y-77041658D01*
X148803468Y-76906971D02*
X149153654Y-76556784D01*
X149180592Y-76960845D01*
X149261404Y-76880033D01*
X149342216Y-76853096D01*
X149396091Y-76853096D01*
X149476903Y-76880033D01*
X149611590Y-77014720D01*
X149638528Y-77095532D01*
X149638528Y-77149407D01*
X149611590Y-77230219D01*
X149449966Y-77391844D01*
X149369154Y-77418781D01*
X149315279Y-77418781D01*
X147812131Y-75398308D02*
X148162317Y-75048122D01*
X148189255Y-75452183D01*
X148270067Y-75371370D01*
X148350879Y-75344433D01*
X148404754Y-75344433D01*
X148485566Y-75371370D01*
X148620253Y-75506057D01*
X148647190Y-75586870D01*
X148647190Y-75640744D01*
X148620253Y-75721557D01*
X148458629Y-75883181D01*
X148377816Y-75910118D01*
X148323942Y-75910118D01*
X148323942Y-74886497D02*
X149078189Y-75263621D01*
X148701065Y-74509374D01*
X148835752Y-74374687D02*
X149185938Y-74024500D01*
X149212876Y-74428561D01*
X149293688Y-74347749D01*
X149374500Y-74320812D01*
X149428375Y-74320812D01*
X149509187Y-74347749D01*
X149643874Y-74482436D01*
X149670812Y-74563248D01*
X149670812Y-74617123D01*
X149643874Y-74697935D01*
X149482250Y-74859560D01*
X149401438Y-74886497D01*
X149347563Y-74886497D01*
X149913248Y-74536311D02*
X150344247Y-74105312D01*
X150128748Y-73620439D02*
X150317309Y-73431877D01*
X150694433Y-73647377D02*
X150425059Y-73916751D01*
X149859374Y-73351065D01*
X150128748Y-73081691D01*
X150936870Y-73404940D02*
X150371184Y-72839255D01*
X151260118Y-73081691D01*
X150694433Y-72516006D01*
X147810473Y-70509966D02*
X148564720Y-70887089D01*
X148187597Y-70132842D01*
X148887969Y-70509966D02*
X148995719Y-70456091D01*
X149130406Y-70321404D01*
X149157343Y-70240592D01*
X149157343Y-70186717D01*
X149130406Y-70105905D01*
X149076531Y-70052030D01*
X148995719Y-70025093D01*
X148941844Y-70025093D01*
X148861032Y-70052030D01*
X148726345Y-70132842D01*
X148645532Y-70159780D01*
X148591658Y-70159780D01*
X148510845Y-70132842D01*
X148456971Y-70078967D01*
X148430033Y-69998155D01*
X148430033Y-69944280D01*
X148456971Y-69863468D01*
X148591658Y-69728781D01*
X148699407Y-69674906D01*
X149318967Y-69594094D02*
X149588341Y-69863468D01*
X148834094Y-69486345D02*
X149318967Y-69594094D01*
X149211218Y-69109221D01*
X149911590Y-69486345D02*
X150019340Y-69432470D01*
X150154027Y-69297783D01*
X150180964Y-69216971D01*
X150180964Y-69163096D01*
X150154027Y-69082284D01*
X150100152Y-69028409D01*
X150019340Y-69001471D01*
X149965465Y-69001471D01*
X149884653Y-69028409D01*
X149749966Y-69109221D01*
X149669154Y-69136158D01*
X149615279Y-69136158D01*
X149534467Y-69109221D01*
X149480592Y-69055346D01*
X149453654Y-68974534D01*
X149453654Y-68920659D01*
X149480592Y-68839847D01*
X149615279Y-68705160D01*
X149723028Y-68651285D01*
X147843129Y-67967309D02*
X148597377Y-68344433D01*
X148220253Y-67590186D01*
X148866751Y-67482436D02*
X148974500Y-67428561D01*
X149028375Y-67428561D01*
X149109187Y-67455499D01*
X149190000Y-67536311D01*
X149216937Y-67617123D01*
X149216937Y-67670998D01*
X149190000Y-67751810D01*
X148974500Y-67967309D01*
X148408815Y-67401624D01*
X148597377Y-67213062D01*
X148678189Y-67186125D01*
X148732064Y-67186125D01*
X148812876Y-67213062D01*
X148866751Y-67266937D01*
X148893688Y-67347749D01*
X148893688Y-67401624D01*
X148866751Y-67482436D01*
X148678189Y-67670998D01*
X148974500Y-66835938D02*
X149432436Y-67293874D01*
X149513248Y-67320812D01*
X149567123Y-67320812D01*
X149647935Y-67293874D01*
X149755685Y-67186125D01*
X149782622Y-67105312D01*
X149782622Y-67051438D01*
X149755685Y-66970625D01*
X149297749Y-66512690D01*
X150078934Y-66809001D02*
X150186683Y-66755126D01*
X150321370Y-66620439D01*
X150348308Y-66539627D01*
X150348308Y-66485752D01*
X150321370Y-66404940D01*
X150267496Y-66351065D01*
X150186683Y-66324128D01*
X150132809Y-66324128D01*
X150051996Y-66351065D01*
X149917309Y-66431877D01*
X149836497Y-66458815D01*
X149782622Y-66458815D01*
X149701810Y-66431877D01*
X149647935Y-66378003D01*
X149620998Y-66297190D01*
X149620998Y-66243316D01*
X149647935Y-66162503D01*
X149782622Y-66027816D01*
X149890372Y-65973942D01*
X122376158Y-72538155D02*
X122295346Y-72565093D01*
X122214534Y-72645905D01*
X122160659Y-72753654D01*
X122160659Y-72861404D01*
X122187597Y-72942216D01*
X122268409Y-73076903D01*
X122349221Y-73157715D01*
X122483908Y-73238528D01*
X122564720Y-73265465D01*
X122672470Y-73265465D01*
X122780219Y-73211590D01*
X122834094Y-73157715D01*
X122887969Y-73049966D01*
X122887969Y-72996091D01*
X122699407Y-72807529D01*
X122591658Y-72915279D01*
X123184280Y-72807529D02*
X122618595Y-72241844D01*
X123507529Y-72484280D01*
X122941844Y-71918595D01*
X123776903Y-72214906D02*
X123211218Y-71649221D01*
X123345905Y-71514534D01*
X123453654Y-71460659D01*
X123561404Y-71460659D01*
X123642216Y-71487597D01*
X123776903Y-71568409D01*
X123857715Y-71649221D01*
X123938528Y-71783908D01*
X123965465Y-71864720D01*
X123965465Y-71972470D01*
X123911590Y-72080219D01*
X123776903Y-72214906D01*
X122376158Y-85238155D02*
X122295346Y-85265093D01*
X122214534Y-85345905D01*
X122160659Y-85453654D01*
X122160659Y-85561404D01*
X122187597Y-85642216D01*
X122268409Y-85776903D01*
X122349221Y-85857715D01*
X122483908Y-85938528D01*
X122564720Y-85965465D01*
X122672470Y-85965465D01*
X122780219Y-85911590D01*
X122834094Y-85857715D01*
X122887969Y-85749966D01*
X122887969Y-85696091D01*
X122699407Y-85507529D01*
X122591658Y-85615279D01*
X123184280Y-85507529D02*
X122618595Y-84941844D01*
X123507529Y-85184280D01*
X122941844Y-84618595D01*
X123776903Y-84914906D02*
X123211218Y-84349221D01*
X123345905Y-84214534D01*
X123453654Y-84160659D01*
X123561404Y-84160659D01*
X123642216Y-84187597D01*
X123776903Y-84268409D01*
X123857715Y-84349221D01*
X123938528Y-84483908D01*
X123965465Y-84564720D01*
X123965465Y-84672470D01*
X123911590Y-84780219D01*
X123776903Y-84914906D01*
X122376158Y-97938155D02*
X122295346Y-97965093D01*
X122214534Y-98045905D01*
X122160659Y-98153654D01*
X122160659Y-98261404D01*
X122187597Y-98342216D01*
X122268409Y-98476903D01*
X122349221Y-98557715D01*
X122483908Y-98638528D01*
X122564720Y-98665465D01*
X122672470Y-98665465D01*
X122780219Y-98611590D01*
X122834094Y-98557715D01*
X122887969Y-98449966D01*
X122887969Y-98396091D01*
X122699407Y-98207529D01*
X122591658Y-98315279D01*
X123184280Y-98207529D02*
X122618595Y-97641844D01*
X123507529Y-97884280D01*
X122941844Y-97318595D01*
X123776903Y-97614906D02*
X123211218Y-97049221D01*
X123345905Y-96914534D01*
X123453654Y-96860659D01*
X123561404Y-96860659D01*
X123642216Y-96887597D01*
X123776903Y-96968409D01*
X123857715Y-97049221D01*
X123938528Y-97183908D01*
X123965465Y-97264720D01*
X123965465Y-97372470D01*
X123911590Y-97480219D01*
X123776903Y-97614906D01*
X122376158Y-110638155D02*
X122295346Y-110665093D01*
X122214534Y-110745905D01*
X122160659Y-110853654D01*
X122160659Y-110961404D01*
X122187597Y-111042216D01*
X122268409Y-111176903D01*
X122349221Y-111257715D01*
X122483908Y-111338528D01*
X122564720Y-111365465D01*
X122672470Y-111365465D01*
X122780219Y-111311590D01*
X122834094Y-111257715D01*
X122887969Y-111149966D01*
X122887969Y-111096091D01*
X122699407Y-110907529D01*
X122591658Y-111015279D01*
X123184280Y-110907529D02*
X122618595Y-110341844D01*
X123507529Y-110584280D01*
X122941844Y-110018595D01*
X123776903Y-110314906D02*
X123211218Y-109749221D01*
X123345905Y-109614534D01*
X123453654Y-109560659D01*
X123561404Y-109560659D01*
X123642216Y-109587597D01*
X123776903Y-109668409D01*
X123857715Y-109749221D01*
X123938528Y-109883908D01*
X123965465Y-109964720D01*
X123965465Y-110072470D01*
X123911590Y-110180219D01*
X123776903Y-110314906D01*
X147976158Y-110638155D02*
X147895346Y-110665093D01*
X147814534Y-110745905D01*
X147760659Y-110853654D01*
X147760659Y-110961404D01*
X147787597Y-111042216D01*
X147868409Y-111176903D01*
X147949221Y-111257715D01*
X148083908Y-111338528D01*
X148164720Y-111365465D01*
X148272470Y-111365465D01*
X148380219Y-111311590D01*
X148434094Y-111257715D01*
X148487969Y-111149966D01*
X148487969Y-111096091D01*
X148299407Y-110907529D01*
X148191658Y-111015279D01*
X148784280Y-110907529D02*
X148218595Y-110341844D01*
X149107529Y-110584280D01*
X148541844Y-110018595D01*
X149376903Y-110314906D02*
X148811218Y-109749221D01*
X148945905Y-109614534D01*
X149053654Y-109560659D01*
X149161404Y-109560659D01*
X149242216Y-109587597D01*
X149376903Y-109668409D01*
X149457715Y-109749221D01*
X149538528Y-109883908D01*
X149565465Y-109964720D01*
X149565465Y-110072470D01*
X149511590Y-110180219D01*
X149376903Y-110314906D01*
X147976158Y-97938155D02*
X147895346Y-97965093D01*
X147814534Y-98045905D01*
X147760659Y-98153654D01*
X147760659Y-98261404D01*
X147787597Y-98342216D01*
X147868409Y-98476903D01*
X147949221Y-98557715D01*
X148083908Y-98638528D01*
X148164720Y-98665465D01*
X148272470Y-98665465D01*
X148380219Y-98611590D01*
X148434094Y-98557715D01*
X148487969Y-98449966D01*
X148487969Y-98396091D01*
X148299407Y-98207529D01*
X148191658Y-98315279D01*
X148784280Y-98207529D02*
X148218595Y-97641844D01*
X149107529Y-97884280D01*
X148541844Y-97318595D01*
X149376903Y-97614906D02*
X148811218Y-97049221D01*
X148945905Y-96914534D01*
X149053654Y-96860659D01*
X149161404Y-96860659D01*
X149242216Y-96887597D01*
X149376903Y-96968409D01*
X149457715Y-97049221D01*
X149538528Y-97183908D01*
X149565465Y-97264720D01*
X149565465Y-97372470D01*
X149511590Y-97480219D01*
X149376903Y-97614906D01*
X147976158Y-72538155D02*
X147895346Y-72565093D01*
X147814534Y-72645905D01*
X147760659Y-72753654D01*
X147760659Y-72861404D01*
X147787597Y-72942216D01*
X147868409Y-73076903D01*
X147949221Y-73157715D01*
X148083908Y-73238528D01*
X148164720Y-73265465D01*
X148272470Y-73265465D01*
X148380219Y-73211590D01*
X148434094Y-73157715D01*
X148487969Y-73049966D01*
X148487969Y-72996091D01*
X148299407Y-72807529D01*
X148191658Y-72915279D01*
X148784280Y-72807529D02*
X148218595Y-72241844D01*
X149107529Y-72484280D01*
X148541844Y-71918595D01*
X149376903Y-72214906D02*
X148811218Y-71649221D01*
X148945905Y-71514534D01*
X149053654Y-71460659D01*
X149161404Y-71460659D01*
X149242216Y-71487597D01*
X149376903Y-71568409D01*
X149457715Y-71649221D01*
X149538528Y-71783908D01*
X149565465Y-71864720D01*
X149565465Y-71972470D01*
X149511590Y-72080219D01*
X149376903Y-72214906D01*
X148041597Y-86180964D02*
X148310971Y-85911590D01*
X148149346Y-86396463D02*
X147772223Y-85642216D01*
X148526470Y-86019340D01*
X148472595Y-84995719D02*
X148391783Y-85022656D01*
X148310971Y-85103468D01*
X148257096Y-85211218D01*
X148257096Y-85318967D01*
X148284033Y-85399780D01*
X148364845Y-85534467D01*
X148445658Y-85615279D01*
X148580345Y-85696091D01*
X148661157Y-85723028D01*
X148768906Y-85723028D01*
X148876656Y-85669154D01*
X148930531Y-85615279D01*
X148984406Y-85507529D01*
X148984406Y-85453654D01*
X148795844Y-85265093D01*
X148688094Y-85372842D01*
X149280717Y-85265093D02*
X148715032Y-84699407D01*
X149603966Y-84941844D01*
X149038280Y-84376158D01*
X149873340Y-84672470D02*
X149307654Y-84106784D01*
X149442341Y-83972097D01*
X149550091Y-83918223D01*
X149657841Y-83918223D01*
X149738653Y-83945160D01*
X149873340Y-84025972D01*
X149954152Y-84106784D01*
X150034964Y-84241471D01*
X150061902Y-84322284D01*
X150061902Y-84430033D01*
X150008027Y-84537783D01*
X149873340Y-84672470D01*
X128380476Y-117963809D02*
X128494761Y-118001904D01*
X128685238Y-118001904D01*
X128761428Y-117963809D01*
X128799523Y-117925714D01*
X128837619Y-117849523D01*
X128837619Y-117773333D01*
X128799523Y-117697142D01*
X128761428Y-117659047D01*
X128685238Y-117620952D01*
X128532857Y-117582857D01*
X128456666Y-117544761D01*
X128418571Y-117506666D01*
X128380476Y-117430476D01*
X128380476Y-117354285D01*
X128418571Y-117278095D01*
X128456666Y-117240000D01*
X128532857Y-117201904D01*
X128723333Y-117201904D01*
X128837619Y-117240000D01*
X129104285Y-117201904D02*
X129294761Y-118001904D01*
X129447142Y-117430476D01*
X129599523Y-118001904D01*
X129790000Y-117201904D01*
X130551904Y-117925714D02*
X130513809Y-117963809D01*
X130399523Y-118001904D01*
X130323333Y-118001904D01*
X130209047Y-117963809D01*
X130132857Y-117887619D01*
X130094761Y-117811428D01*
X130056666Y-117659047D01*
X130056666Y-117544761D01*
X130094761Y-117392380D01*
X130132857Y-117316190D01*
X130209047Y-117240000D01*
X130323333Y-117201904D01*
X130399523Y-117201904D01*
X130513809Y-117240000D01*
X130551904Y-117278095D01*
X131275714Y-118001904D02*
X130894761Y-118001904D01*
X130894761Y-117201904D01*
X131542380Y-118001904D02*
X131542380Y-117201904D01*
X131999523Y-118001904D02*
X131656666Y-117544761D01*
X131999523Y-117201904D02*
X131542380Y-117659047D01*
X139794761Y-117963809D02*
X139909047Y-118001904D01*
X140099523Y-118001904D01*
X140175714Y-117963809D01*
X140213809Y-117925714D01*
X140251904Y-117849523D01*
X140251904Y-117773333D01*
X140213809Y-117697142D01*
X140175714Y-117659047D01*
X140099523Y-117620952D01*
X139947142Y-117582857D01*
X139870952Y-117544761D01*
X139832857Y-117506666D01*
X139794761Y-117430476D01*
X139794761Y-117354285D01*
X139832857Y-117278095D01*
X139870952Y-117240000D01*
X139947142Y-117201904D01*
X140137619Y-117201904D01*
X140251904Y-117240000D01*
X140518571Y-117201904D02*
X140709047Y-118001904D01*
X140861428Y-117430476D01*
X141013809Y-118001904D01*
X141204285Y-117201904D01*
X141509047Y-118001904D02*
X141509047Y-117201904D01*
X141699523Y-117201904D01*
X141813809Y-117240000D01*
X141890000Y-117316190D01*
X141928095Y-117392380D01*
X141966190Y-117544761D01*
X141966190Y-117659047D01*
X141928095Y-117811428D01*
X141890000Y-117887619D01*
X141813809Y-117963809D01*
X141699523Y-118001904D01*
X141509047Y-118001904D01*
X142309047Y-118001904D02*
X142309047Y-117201904D01*
X142842380Y-117201904D02*
X142994761Y-117201904D01*
X143070952Y-117240000D01*
X143147142Y-117316190D01*
X143185238Y-117468571D01*
X143185238Y-117735238D01*
X143147142Y-117887619D01*
X143070952Y-117963809D01*
X142994761Y-118001904D01*
X142842380Y-118001904D01*
X142766190Y-117963809D01*
X142690000Y-117887619D01*
X142651904Y-117735238D01*
X142651904Y-117468571D01*
X142690000Y-117316190D01*
X142766190Y-117240000D01*
X142842380Y-117201904D01*
%TO.C,U2*%
X114808095Y-91342380D02*
X114808095Y-92151904D01*
X114855714Y-92247142D01*
X114903333Y-92294761D01*
X114998571Y-92342380D01*
X115189047Y-92342380D01*
X115284285Y-92294761D01*
X115331904Y-92247142D01*
X115379523Y-92151904D01*
X115379523Y-91342380D01*
X115808095Y-91437619D02*
X115855714Y-91390000D01*
X115950952Y-91342380D01*
X116189047Y-91342380D01*
X116284285Y-91390000D01*
X116331904Y-91437619D01*
X116379523Y-91532857D01*
X116379523Y-91628095D01*
X116331904Y-91770952D01*
X115760476Y-92342380D01*
X116379523Y-92342380D01*
%TO.C,Y1*%
X99296190Y-97826190D02*
X99772380Y-97826190D01*
X98772380Y-98159523D02*
X99296190Y-97826190D01*
X98772380Y-97492857D01*
X99772380Y-96635714D02*
X99772380Y-97207142D01*
X99772380Y-96921428D02*
X98772380Y-96921428D01*
X98915238Y-97016666D01*
X99010476Y-97111904D01*
X99058095Y-97207142D01*
%TO.C,SW1*%
X162661666Y-101764761D02*
X162804523Y-101812380D01*
X163042619Y-101812380D01*
X163137857Y-101764761D01*
X163185476Y-101717142D01*
X163233095Y-101621904D01*
X163233095Y-101526666D01*
X163185476Y-101431428D01*
X163137857Y-101383809D01*
X163042619Y-101336190D01*
X162852142Y-101288571D01*
X162756904Y-101240952D01*
X162709285Y-101193333D01*
X162661666Y-101098095D01*
X162661666Y-101002857D01*
X162709285Y-100907619D01*
X162756904Y-100860000D01*
X162852142Y-100812380D01*
X163090238Y-100812380D01*
X163233095Y-100860000D01*
X163566428Y-100812380D02*
X163804523Y-101812380D01*
X163995000Y-101098095D01*
X164185476Y-101812380D01*
X164423571Y-100812380D01*
X165328333Y-101812380D02*
X164756904Y-101812380D01*
X165042619Y-101812380D02*
X165042619Y-100812380D01*
X164947380Y-100955238D01*
X164852142Y-101050476D01*
X164756904Y-101098095D01*
%TD*%
M02*
